<?xml version="1.0" encoding="utf-8" standalone="no"?>
<!DOCTYPE svg PUBLIC "-//W3C//DTD SVG 1.1//EN"
  "http://www.w3.org/Graphics/SVG/1.1/DTD/svg11.dtd">
<!-- Created with matplotlib (https://matplotlib.org/) -->
<svg height="432.614937pt" version="1.1" viewBox="0 0 502.65 432.614937" width="502.65pt" xmlns="http://www.w3.org/2000/svg" xmlns:xlink="http://www.w3.org/1999/xlink">
 <defs>
  <style type="text/css">
*{stroke-linecap:butt;stroke-linejoin:round;white-space:pre;}
  </style>
 </defs>
 <g id="figure_1">
  <g id="patch_1">
   <path d="M 0 432.614937 
L 502.65 432.614937 
L 502.65 0 
L 0 0 
z
" style="fill:#ffffff;"/>
  </g>
  <g id="axes_1">
   <g id="patch_2">
    <path d="M 104.85 389.251812 
L 495.45 389.251812 
L 495.45 112.051812 
L 104.85 112.051812 
z
" style="fill:#ffffff;"/>
   </g>
   <g id="matplotlib.axis_1">
    <g id="xtick_1">
     <g id="line2d_1">
      <defs>
       <path d="M 0 0 
L 0 3.5 
" id="m61b9a138a0" style="stroke:#000000;stroke-width:0.8;"/>
      </defs>
      <g>
       <use style="stroke:#000000;stroke-width:0.8;" x="148.907576" xlink:href="#m61b9a138a0" y="389.251812"/>
      </g>
     </g>
     <g id="text_1">
      <!-- 25 -->
      <defs>
       <path d="M 19.1875 8.296875 
L 53.609375 8.296875 
L 53.609375 0 
L 7.328125 0 
L 7.328125 8.296875 
Q 12.9375 14.109375 22.625 23.890625 
Q 32.328125 33.6875 34.8125 36.53125 
Q 39.546875 41.84375 41.421875 45.53125 
Q 43.3125 49.21875 43.3125 52.78125 
Q 43.3125 58.59375 39.234375 62.25 
Q 35.15625 65.921875 28.609375 65.921875 
Q 23.96875 65.921875 18.8125 64.3125 
Q 13.671875 62.703125 7.8125 59.421875 
L 7.8125 69.390625 
Q 13.765625 71.78125 18.9375 73 
Q 24.125 74.21875 28.421875 74.21875 
Q 39.75 74.21875 46.484375 68.546875 
Q 53.21875 62.890625 53.21875 53.421875 
Q 53.21875 48.921875 51.53125 44.890625 
Q 49.859375 40.875 45.40625 35.40625 
Q 44.1875 33.984375 37.640625 27.21875 
Q 31.109375 20.453125 19.1875 8.296875 
z
" id="DejaVuSans-50"/>
       <path d="M 10.796875 72.90625 
L 49.515625 72.90625 
L 49.515625 64.59375 
L 19.828125 64.59375 
L 19.828125 46.734375 
Q 21.96875 47.46875 24.109375 47.828125 
Q 26.265625 48.1875 28.421875 48.1875 
Q 40.625 48.1875 47.75 41.5 
Q 54.890625 34.8125 54.890625 23.390625 
Q 54.890625 11.625 47.5625 5.09375 
Q 40.234375 -1.421875 26.90625 -1.421875 
Q 22.3125 -1.421875 17.546875 -0.640625 
Q 12.796875 0.140625 7.71875 1.703125 
L 7.71875 11.625 
Q 12.109375 9.234375 16.796875 8.0625 
Q 21.484375 6.890625 26.703125 6.890625 
Q 35.15625 6.890625 40.078125 11.328125 
Q 45.015625 15.765625 45.015625 23.390625 
Q 45.015625 31 40.078125 35.4375 
Q 35.15625 39.890625 26.703125 39.890625 
Q 22.75 39.890625 18.8125 39.015625 
Q 14.890625 38.140625 10.796875 36.28125 
z
" id="DejaVuSans-53"/>
      </defs>
      <g transform="translate(140.636326 406.129781)scale(0.13 -0.13)">
       <use xlink:href="#DejaVuSans-50"/>
       <use x="63.623047" xlink:href="#DejaVuSans-53"/>
      </g>
     </g>
    </g>
    <g id="xtick_2">
     <g id="line2d_2">
      <g>
       <use style="stroke:#000000;stroke-width:0.8;" x="195.877273" xlink:href="#m61b9a138a0" y="389.251812"/>
      </g>
     </g>
     <g id="text_2">
      <!-- 50 -->
      <defs>
       <path d="M 31.78125 66.40625 
Q 24.171875 66.40625 20.328125 58.90625 
Q 16.5 51.421875 16.5 36.375 
Q 16.5 21.390625 20.328125 13.890625 
Q 24.171875 6.390625 31.78125 6.390625 
Q 39.453125 6.390625 43.28125 13.890625 
Q 47.125 21.390625 47.125 36.375 
Q 47.125 51.421875 43.28125 58.90625 
Q 39.453125 66.40625 31.78125 66.40625 
z
M 31.78125 74.21875 
Q 44.046875 74.21875 50.515625 64.515625 
Q 56.984375 54.828125 56.984375 36.375 
Q 56.984375 17.96875 50.515625 8.265625 
Q 44.046875 -1.421875 31.78125 -1.421875 
Q 19.53125 -1.421875 13.0625 8.265625 
Q 6.59375 17.96875 6.59375 36.375 
Q 6.59375 54.828125 13.0625 64.515625 
Q 19.53125 74.21875 31.78125 74.21875 
z
" id="DejaVuSans-48"/>
      </defs>
      <g transform="translate(187.606023 406.129781)scale(0.13 -0.13)">
       <use xlink:href="#DejaVuSans-53"/>
       <use x="63.623047" xlink:href="#DejaVuSans-48"/>
      </g>
     </g>
    </g>
    <g id="xtick_3">
     <g id="line2d_3">
      <g>
       <use style="stroke:#000000;stroke-width:0.8;" x="242.84697" xlink:href="#m61b9a138a0" y="389.251812"/>
      </g>
     </g>
     <g id="text_3">
      <!-- 75 -->
      <defs>
       <path d="M 8.203125 72.90625 
L 55.078125 72.90625 
L 55.078125 68.703125 
L 28.609375 0 
L 18.3125 0 
L 43.21875 64.59375 
L 8.203125 64.59375 
z
" id="DejaVuSans-55"/>
      </defs>
      <g transform="translate(234.57572 406.129781)scale(0.13 -0.13)">
       <use xlink:href="#DejaVuSans-55"/>
       <use x="63.623047" xlink:href="#DejaVuSans-53"/>
      </g>
     </g>
    </g>
    <g id="xtick_4">
     <g id="line2d_4">
      <g>
       <use style="stroke:#000000;stroke-width:0.8;" x="289.816667" xlink:href="#m61b9a138a0" y="389.251812"/>
      </g>
     </g>
     <g id="text_4">
      <!-- 100 -->
      <defs>
       <path d="M 12.40625 8.296875 
L 28.515625 8.296875 
L 28.515625 63.921875 
L 10.984375 60.40625 
L 10.984375 69.390625 
L 28.421875 72.90625 
L 38.28125 72.90625 
L 38.28125 8.296875 
L 54.390625 8.296875 
L 54.390625 0 
L 12.40625 0 
z
" id="DejaVuSans-49"/>
      </defs>
      <g transform="translate(277.409792 406.129781)scale(0.13 -0.13)">
       <use xlink:href="#DejaVuSans-49"/>
       <use x="63.623047" xlink:href="#DejaVuSans-48"/>
       <use x="127.246094" xlink:href="#DejaVuSans-48"/>
      </g>
     </g>
    </g>
    <g id="xtick_5">
     <g id="line2d_5">
      <g>
       <use style="stroke:#000000;stroke-width:0.8;" x="336.786364" xlink:href="#m61b9a138a0" y="389.251812"/>
      </g>
     </g>
     <g id="text_5">
      <!-- 125 -->
      <g transform="translate(324.379489 406.129781)scale(0.13 -0.13)">
       <use xlink:href="#DejaVuSans-49"/>
       <use x="63.623047" xlink:href="#DejaVuSans-50"/>
       <use x="127.246094" xlink:href="#DejaVuSans-53"/>
      </g>
     </g>
    </g>
    <g id="xtick_6">
     <g id="line2d_6">
      <g>
       <use style="stroke:#000000;stroke-width:0.8;" x="383.756061" xlink:href="#m61b9a138a0" y="389.251812"/>
      </g>
     </g>
     <g id="text_6">
      <!-- 150 -->
      <g transform="translate(371.349186 406.129781)scale(0.13 -0.13)">
       <use xlink:href="#DejaVuSans-49"/>
       <use x="63.623047" xlink:href="#DejaVuSans-53"/>
       <use x="127.246094" xlink:href="#DejaVuSans-48"/>
      </g>
     </g>
    </g>
    <g id="xtick_7">
     <g id="line2d_7">
      <g>
       <use style="stroke:#000000;stroke-width:0.8;" x="430.725758" xlink:href="#m61b9a138a0" y="389.251812"/>
      </g>
     </g>
     <g id="text_7">
      <!-- 175 -->
      <g transform="translate(418.318883 406.129781)scale(0.13 -0.13)">
       <use xlink:href="#DejaVuSans-49"/>
       <use x="63.623047" xlink:href="#DejaVuSans-55"/>
       <use x="127.246094" xlink:href="#DejaVuSans-53"/>
      </g>
     </g>
    </g>
    <g id="xtick_8">
     <g id="line2d_8">
      <g>
       <use style="stroke:#000000;stroke-width:0.8;" x="477.695455" xlink:href="#m61b9a138a0" y="389.251812"/>
      </g>
     </g>
     <g id="text_8">
      <!-- 200 -->
      <g transform="translate(465.28858 406.129781)scale(0.13 -0.13)">
       <use xlink:href="#DejaVuSans-50"/>
       <use x="63.623047" xlink:href="#DejaVuSans-48"/>
       <use x="127.246094" xlink:href="#DejaVuSans-48"/>
      </g>
     </g>
    </g>
    <g id="text_9">
     <!-- Number of processed instances [x1000] -->
     <defs>
      <path d="M 9.8125 72.90625 
L 23.09375 72.90625 
L 55.421875 11.921875 
L 55.421875 72.90625 
L 64.984375 72.90625 
L 64.984375 0 
L 51.703125 0 
L 19.390625 60.984375 
L 19.390625 0 
L 9.8125 0 
z
" id="DejaVuSans-78"/>
      <path d="M 8.5 21.578125 
L 8.5 54.6875 
L 17.484375 54.6875 
L 17.484375 21.921875 
Q 17.484375 14.15625 20.5 10.265625 
Q 23.53125 6.390625 29.59375 6.390625 
Q 36.859375 6.390625 41.078125 11.03125 
Q 45.3125 15.671875 45.3125 23.6875 
L 45.3125 54.6875 
L 54.296875 54.6875 
L 54.296875 0 
L 45.3125 0 
L 45.3125 8.40625 
Q 42.046875 3.421875 37.71875 1 
Q 33.40625 -1.421875 27.6875 -1.421875 
Q 18.265625 -1.421875 13.375 4.4375 
Q 8.5 10.296875 8.5 21.578125 
z
M 31.109375 56 
z
" id="DejaVuSans-117"/>
      <path d="M 52 44.1875 
Q 55.375 50.25 60.0625 53.125 
Q 64.75 56 71.09375 56 
Q 79.640625 56 84.28125 50.015625 
Q 88.921875 44.046875 88.921875 33.015625 
L 88.921875 0 
L 79.890625 0 
L 79.890625 32.71875 
Q 79.890625 40.578125 77.09375 44.375 
Q 74.3125 48.1875 68.609375 48.1875 
Q 61.625 48.1875 57.5625 43.546875 
Q 53.515625 38.921875 53.515625 30.90625 
L 53.515625 0 
L 44.484375 0 
L 44.484375 32.71875 
Q 44.484375 40.625 41.703125 44.40625 
Q 38.921875 48.1875 33.109375 48.1875 
Q 26.21875 48.1875 22.15625 43.53125 
Q 18.109375 38.875 18.109375 30.90625 
L 18.109375 0 
L 9.078125 0 
L 9.078125 54.6875 
L 18.109375 54.6875 
L 18.109375 46.1875 
Q 21.1875 51.21875 25.484375 53.609375 
Q 29.78125 56 35.6875 56 
Q 41.65625 56 45.828125 52.96875 
Q 50 49.953125 52 44.1875 
z
" id="DejaVuSans-109"/>
      <path d="M 48.6875 27.296875 
Q 48.6875 37.203125 44.609375 42.84375 
Q 40.53125 48.484375 33.40625 48.484375 
Q 26.265625 48.484375 22.1875 42.84375 
Q 18.109375 37.203125 18.109375 27.296875 
Q 18.109375 17.390625 22.1875 11.75 
Q 26.265625 6.109375 33.40625 6.109375 
Q 40.53125 6.109375 44.609375 11.75 
Q 48.6875 17.390625 48.6875 27.296875 
z
M 18.109375 46.390625 
Q 20.953125 51.265625 25.265625 53.625 
Q 29.59375 56 35.59375 56 
Q 45.5625 56 51.78125 48.09375 
Q 58.015625 40.1875 58.015625 27.296875 
Q 58.015625 14.40625 51.78125 6.484375 
Q 45.5625 -1.421875 35.59375 -1.421875 
Q 29.59375 -1.421875 25.265625 0.953125 
Q 20.953125 3.328125 18.109375 8.203125 
L 18.109375 0 
L 9.078125 0 
L 9.078125 75.984375 
L 18.109375 75.984375 
z
" id="DejaVuSans-98"/>
      <path d="M 56.203125 29.59375 
L 56.203125 25.203125 
L 14.890625 25.203125 
Q 15.484375 15.921875 20.484375 11.0625 
Q 25.484375 6.203125 34.421875 6.203125 
Q 39.59375 6.203125 44.453125 7.46875 
Q 49.3125 8.734375 54.109375 11.28125 
L 54.109375 2.78125 
Q 49.265625 0.734375 44.1875 -0.34375 
Q 39.109375 -1.421875 33.890625 -1.421875 
Q 20.796875 -1.421875 13.15625 6.1875 
Q 5.515625 13.8125 5.515625 26.8125 
Q 5.515625 40.234375 12.765625 48.109375 
Q 20.015625 56 32.328125 56 
Q 43.359375 56 49.78125 48.890625 
Q 56.203125 41.796875 56.203125 29.59375 
z
M 47.21875 32.234375 
Q 47.125 39.59375 43.09375 43.984375 
Q 39.0625 48.390625 32.421875 48.390625 
Q 24.90625 48.390625 20.390625 44.140625 
Q 15.875 39.890625 15.1875 32.171875 
z
" id="DejaVuSans-101"/>
      <path d="M 41.109375 46.296875 
Q 39.59375 47.171875 37.8125 47.578125 
Q 36.03125 48 33.890625 48 
Q 26.265625 48 22.1875 43.046875 
Q 18.109375 38.09375 18.109375 28.8125 
L 18.109375 0 
L 9.078125 0 
L 9.078125 54.6875 
L 18.109375 54.6875 
L 18.109375 46.1875 
Q 20.953125 51.171875 25.484375 53.578125 
Q 30.03125 56 36.53125 56 
Q 37.453125 56 38.578125 55.875 
Q 39.703125 55.765625 41.0625 55.515625 
z
" id="DejaVuSans-114"/>
      <path id="DejaVuSans-32"/>
      <path d="M 30.609375 48.390625 
Q 23.390625 48.390625 19.1875 42.75 
Q 14.984375 37.109375 14.984375 27.296875 
Q 14.984375 17.484375 19.15625 11.84375 
Q 23.34375 6.203125 30.609375 6.203125 
Q 37.796875 6.203125 41.984375 11.859375 
Q 46.1875 17.53125 46.1875 27.296875 
Q 46.1875 37.015625 41.984375 42.703125 
Q 37.796875 48.390625 30.609375 48.390625 
z
M 30.609375 56 
Q 42.328125 56 49.015625 48.375 
Q 55.71875 40.765625 55.71875 27.296875 
Q 55.71875 13.875 49.015625 6.21875 
Q 42.328125 -1.421875 30.609375 -1.421875 
Q 18.84375 -1.421875 12.171875 6.21875 
Q 5.515625 13.875 5.515625 27.296875 
Q 5.515625 40.765625 12.171875 48.375 
Q 18.84375 56 30.609375 56 
z
" id="DejaVuSans-111"/>
      <path d="M 37.109375 75.984375 
L 37.109375 68.5 
L 28.515625 68.5 
Q 23.6875 68.5 21.796875 66.546875 
Q 19.921875 64.59375 19.921875 59.515625 
L 19.921875 54.6875 
L 34.71875 54.6875 
L 34.71875 47.703125 
L 19.921875 47.703125 
L 19.921875 0 
L 10.890625 0 
L 10.890625 47.703125 
L 2.296875 47.703125 
L 2.296875 54.6875 
L 10.890625 54.6875 
L 10.890625 58.5 
Q 10.890625 67.625 15.140625 71.796875 
Q 19.390625 75.984375 28.609375 75.984375 
z
" id="DejaVuSans-102"/>
      <path d="M 18.109375 8.203125 
L 18.109375 -20.796875 
L 9.078125 -20.796875 
L 9.078125 54.6875 
L 18.109375 54.6875 
L 18.109375 46.390625 
Q 20.953125 51.265625 25.265625 53.625 
Q 29.59375 56 35.59375 56 
Q 45.5625 56 51.78125 48.09375 
Q 58.015625 40.1875 58.015625 27.296875 
Q 58.015625 14.40625 51.78125 6.484375 
Q 45.5625 -1.421875 35.59375 -1.421875 
Q 29.59375 -1.421875 25.265625 0.953125 
Q 20.953125 3.328125 18.109375 8.203125 
z
M 48.6875 27.296875 
Q 48.6875 37.203125 44.609375 42.84375 
Q 40.53125 48.484375 33.40625 48.484375 
Q 26.265625 48.484375 22.1875 42.84375 
Q 18.109375 37.203125 18.109375 27.296875 
Q 18.109375 17.390625 22.1875 11.75 
Q 26.265625 6.109375 33.40625 6.109375 
Q 40.53125 6.109375 44.609375 11.75 
Q 48.6875 17.390625 48.6875 27.296875 
z
" id="DejaVuSans-112"/>
      <path d="M 48.78125 52.59375 
L 48.78125 44.1875 
Q 44.96875 46.296875 41.140625 47.34375 
Q 37.3125 48.390625 33.40625 48.390625 
Q 24.65625 48.390625 19.8125 42.84375 
Q 14.984375 37.3125 14.984375 27.296875 
Q 14.984375 17.28125 19.8125 11.734375 
Q 24.65625 6.203125 33.40625 6.203125 
Q 37.3125 6.203125 41.140625 7.25 
Q 44.96875 8.296875 48.78125 10.40625 
L 48.78125 2.09375 
Q 45.015625 0.34375 40.984375 -0.53125 
Q 36.96875 -1.421875 32.421875 -1.421875 
Q 20.0625 -1.421875 12.78125 6.34375 
Q 5.515625 14.109375 5.515625 27.296875 
Q 5.515625 40.671875 12.859375 48.328125 
Q 20.21875 56 33.015625 56 
Q 37.15625 56 41.109375 55.140625 
Q 45.0625 54.296875 48.78125 52.59375 
z
" id="DejaVuSans-99"/>
      <path d="M 44.28125 53.078125 
L 44.28125 44.578125 
Q 40.484375 46.53125 36.375 47.5 
Q 32.28125 48.484375 27.875 48.484375 
Q 21.1875 48.484375 17.84375 46.4375 
Q 14.5 44.390625 14.5 40.28125 
Q 14.5 37.15625 16.890625 35.375 
Q 19.28125 33.59375 26.515625 31.984375 
L 29.59375 31.296875 
Q 39.15625 29.25 43.1875 25.515625 
Q 47.21875 21.78125 47.21875 15.09375 
Q 47.21875 7.46875 41.1875 3.015625 
Q 35.15625 -1.421875 24.609375 -1.421875 
Q 20.21875 -1.421875 15.453125 -0.5625 
Q 10.6875 0.296875 5.421875 2 
L 5.421875 11.28125 
Q 10.40625 8.6875 15.234375 7.390625 
Q 20.0625 6.109375 24.8125 6.109375 
Q 31.15625 6.109375 34.5625 8.28125 
Q 37.984375 10.453125 37.984375 14.40625 
Q 37.984375 18.0625 35.515625 20.015625 
Q 33.0625 21.96875 24.703125 23.78125 
L 21.578125 24.515625 
Q 13.234375 26.265625 9.515625 29.90625 
Q 5.8125 33.546875 5.8125 39.890625 
Q 5.8125 47.609375 11.28125 51.796875 
Q 16.75 56 26.8125 56 
Q 31.78125 56 36.171875 55.265625 
Q 40.578125 54.546875 44.28125 53.078125 
z
" id="DejaVuSans-115"/>
      <path d="M 45.40625 46.390625 
L 45.40625 75.984375 
L 54.390625 75.984375 
L 54.390625 0 
L 45.40625 0 
L 45.40625 8.203125 
Q 42.578125 3.328125 38.25 0.953125 
Q 33.9375 -1.421875 27.875 -1.421875 
Q 17.96875 -1.421875 11.734375 6.484375 
Q 5.515625 14.40625 5.515625 27.296875 
Q 5.515625 40.1875 11.734375 48.09375 
Q 17.96875 56 27.875 56 
Q 33.9375 56 38.25 53.625 
Q 42.578125 51.265625 45.40625 46.390625 
z
M 14.796875 27.296875 
Q 14.796875 17.390625 18.875 11.75 
Q 22.953125 6.109375 30.078125 6.109375 
Q 37.203125 6.109375 41.296875 11.75 
Q 45.40625 17.390625 45.40625 27.296875 
Q 45.40625 37.203125 41.296875 42.84375 
Q 37.203125 48.484375 30.078125 48.484375 
Q 22.953125 48.484375 18.875 42.84375 
Q 14.796875 37.203125 14.796875 27.296875 
z
" id="DejaVuSans-100"/>
      <path d="M 9.421875 54.6875 
L 18.40625 54.6875 
L 18.40625 0 
L 9.421875 0 
z
M 9.421875 75.984375 
L 18.40625 75.984375 
L 18.40625 64.59375 
L 9.421875 64.59375 
z
" id="DejaVuSans-105"/>
      <path d="M 54.890625 33.015625 
L 54.890625 0 
L 45.90625 0 
L 45.90625 32.71875 
Q 45.90625 40.484375 42.875 44.328125 
Q 39.84375 48.1875 33.796875 48.1875 
Q 26.515625 48.1875 22.3125 43.546875 
Q 18.109375 38.921875 18.109375 30.90625 
L 18.109375 0 
L 9.078125 0 
L 9.078125 54.6875 
L 18.109375 54.6875 
L 18.109375 46.1875 
Q 21.34375 51.125 25.703125 53.5625 
Q 30.078125 56 35.796875 56 
Q 45.21875 56 50.046875 50.171875 
Q 54.890625 44.34375 54.890625 33.015625 
z
" id="DejaVuSans-110"/>
      <path d="M 18.3125 70.21875 
L 18.3125 54.6875 
L 36.8125 54.6875 
L 36.8125 47.703125 
L 18.3125 47.703125 
L 18.3125 18.015625 
Q 18.3125 11.328125 20.140625 9.421875 
Q 21.96875 7.515625 27.59375 7.515625 
L 36.8125 7.515625 
L 36.8125 0 
L 27.59375 0 
Q 17.1875 0 13.234375 3.875 
Q 9.28125 7.765625 9.28125 18.015625 
L 9.28125 47.703125 
L 2.6875 47.703125 
L 2.6875 54.6875 
L 9.28125 54.6875 
L 9.28125 70.21875 
z
" id="DejaVuSans-116"/>
      <path d="M 34.28125 27.484375 
Q 23.390625 27.484375 19.1875 25 
Q 14.984375 22.515625 14.984375 16.5 
Q 14.984375 11.71875 18.140625 8.90625 
Q 21.296875 6.109375 26.703125 6.109375 
Q 34.1875 6.109375 38.703125 11.40625 
Q 43.21875 16.703125 43.21875 25.484375 
L 43.21875 27.484375 
z
M 52.203125 31.203125 
L 52.203125 0 
L 43.21875 0 
L 43.21875 8.296875 
Q 40.140625 3.328125 35.546875 0.953125 
Q 30.953125 -1.421875 24.3125 -1.421875 
Q 15.921875 -1.421875 10.953125 3.296875 
Q 6 8.015625 6 15.921875 
Q 6 25.140625 12.171875 29.828125 
Q 18.359375 34.515625 30.609375 34.515625 
L 43.21875 34.515625 
L 43.21875 35.40625 
Q 43.21875 41.609375 39.140625 45 
Q 35.0625 48.390625 27.6875 48.390625 
Q 23 48.390625 18.546875 47.265625 
Q 14.109375 46.140625 10.015625 43.890625 
L 10.015625 52.203125 
Q 14.9375 54.109375 19.578125 55.046875 
Q 24.21875 56 28.609375 56 
Q 40.484375 56 46.34375 49.84375 
Q 52.203125 43.703125 52.203125 31.203125 
z
" id="DejaVuSans-97"/>
      <path d="M 8.59375 75.984375 
L 29.296875 75.984375 
L 29.296875 69 
L 17.578125 69 
L 17.578125 -6.203125 
L 29.296875 -6.203125 
L 29.296875 -13.1875 
L 8.59375 -13.1875 
z
" id="DejaVuSans-91"/>
      <path d="M 54.890625 54.6875 
L 35.109375 28.078125 
L 55.90625 0 
L 45.3125 0 
L 29.390625 21.484375 
L 13.484375 0 
L 2.875 0 
L 24.125 28.609375 
L 4.6875 54.6875 
L 15.28125 54.6875 
L 29.78125 35.203125 
L 44.28125 54.6875 
z
" id="DejaVuSans-120"/>
      <path d="M 30.421875 75.984375 
L 30.421875 -13.1875 
L 9.71875 -13.1875 
L 9.71875 -6.203125 
L 21.390625 -6.203125 
L 21.390625 69 
L 9.71875 69 
L 9.71875 75.984375 
z
" id="DejaVuSans-93"/>
     </defs>
     <g transform="translate(169.880859 422.711344)scale(0.13 -0.13)">
      <use xlink:href="#DejaVuSans-78"/>
      <use x="74.804688" xlink:href="#DejaVuSans-117"/>
      <use x="138.183594" xlink:href="#DejaVuSans-109"/>
      <use x="235.595703" xlink:href="#DejaVuSans-98"/>
      <use x="299.072266" xlink:href="#DejaVuSans-101"/>
      <use x="360.595703" xlink:href="#DejaVuSans-114"/>
      <use x="401.708984" xlink:href="#DejaVuSans-32"/>
      <use x="433.496094" xlink:href="#DejaVuSans-111"/>
      <use x="494.677734" xlink:href="#DejaVuSans-102"/>
      <use x="529.882812" xlink:href="#DejaVuSans-32"/>
      <use x="561.669922" xlink:href="#DejaVuSans-112"/>
      <use x="625.146484" xlink:href="#DejaVuSans-114"/>
      <use x="666.228516" xlink:href="#DejaVuSans-111"/>
      <use x="727.410156" xlink:href="#DejaVuSans-99"/>
      <use x="782.390625" xlink:href="#DejaVuSans-101"/>
      <use x="843.914062" xlink:href="#DejaVuSans-115"/>
      <use x="896.013672" xlink:href="#DejaVuSans-115"/>
      <use x="948.113281" xlink:href="#DejaVuSans-101"/>
      <use x="1009.636719" xlink:href="#DejaVuSans-100"/>
      <use x="1073.113281" xlink:href="#DejaVuSans-32"/>
      <use x="1104.900391" xlink:href="#DejaVuSans-105"/>
      <use x="1132.683594" xlink:href="#DejaVuSans-110"/>
      <use x="1196.0625" xlink:href="#DejaVuSans-115"/>
      <use x="1248.162109" xlink:href="#DejaVuSans-116"/>
      <use x="1287.371094" xlink:href="#DejaVuSans-97"/>
      <use x="1348.650391" xlink:href="#DejaVuSans-110"/>
      <use x="1412.029297" xlink:href="#DejaVuSans-99"/>
      <use x="1467.009766" xlink:href="#DejaVuSans-101"/>
      <use x="1528.533203" xlink:href="#DejaVuSans-115"/>
      <use x="1580.632812" xlink:href="#DejaVuSans-32"/>
      <use x="1612.419922" xlink:href="#DejaVuSans-91"/>
      <use x="1651.433594" xlink:href="#DejaVuSans-120"/>
      <use x="1710.613281" xlink:href="#DejaVuSans-49"/>
      <use x="1774.236328" xlink:href="#DejaVuSans-48"/>
      <use x="1837.859375" xlink:href="#DejaVuSans-48"/>
      <use x="1901.482422" xlink:href="#DejaVuSans-48"/>
      <use x="1965.105469" xlink:href="#DejaVuSans-93"/>
     </g>
    </g>
   </g>
   <g id="matplotlib.axis_2">
    <g id="ytick_1">
     <g id="line2d_9">
      <defs>
       <path d="M 0 0 
L -3.5 0 
" id="mca7fa01676" style="stroke:#000000;stroke-width:0.8;"/>
      </defs>
      <g>
       <use style="stroke:#000000;stroke-width:0.8;" x="104.85" xlink:href="#mca7fa01676" y="376.651813"/>
      </g>
     </g>
     <g id="text_10">
      <!-- 0.0 -->
      <defs>
       <path d="M 10.6875 12.40625 
L 21 12.40625 
L 21 0 
L 10.6875 0 
z
" id="DejaVuSans-46"/>
      </defs>
      <g transform="translate(77.175937 381.590797)scale(0.13 -0.13)">
       <use xlink:href="#DejaVuSans-48"/>
       <use x="63.623047" xlink:href="#DejaVuSans-46"/>
       <use x="95.410156" xlink:href="#DejaVuSans-48"/>
      </g>
     </g>
    </g>
    <g id="ytick_2">
     <g id="line2d_10">
      <g>
       <use style="stroke:#000000;stroke-width:0.8;" x="104.85" xlink:href="#mca7fa01676" y="326.251813"/>
      </g>
     </g>
     <g id="text_11">
      <!-- 0.2 -->
      <g transform="translate(77.175937 331.190797)scale(0.13 -0.13)">
       <use xlink:href="#DejaVuSans-48"/>
       <use x="63.623047" xlink:href="#DejaVuSans-46"/>
       <use x="95.410156" xlink:href="#DejaVuSans-50"/>
      </g>
     </g>
    </g>
    <g id="ytick_3">
     <g id="line2d_11">
      <g>
       <use style="stroke:#000000;stroke-width:0.8;" x="104.85" xlink:href="#mca7fa01676" y="275.851812"/>
      </g>
     </g>
     <g id="text_12">
      <!-- 0.4 -->
      <defs>
       <path d="M 37.796875 64.3125 
L 12.890625 25.390625 
L 37.796875 25.390625 
z
M 35.203125 72.90625 
L 47.609375 72.90625 
L 47.609375 25.390625 
L 58.015625 25.390625 
L 58.015625 17.1875 
L 47.609375 17.1875 
L 47.609375 0 
L 37.796875 0 
L 37.796875 17.1875 
L 4.890625 17.1875 
L 4.890625 26.703125 
z
" id="DejaVuSans-52"/>
      </defs>
      <g transform="translate(77.175937 280.790797)scale(0.13 -0.13)">
       <use xlink:href="#DejaVuSans-48"/>
       <use x="63.623047" xlink:href="#DejaVuSans-46"/>
       <use x="95.410156" xlink:href="#DejaVuSans-52"/>
      </g>
     </g>
    </g>
    <g id="ytick_4">
     <g id="line2d_12">
      <g>
       <use style="stroke:#000000;stroke-width:0.8;" x="104.85" xlink:href="#mca7fa01676" y="225.451812"/>
      </g>
     </g>
     <g id="text_13">
      <!-- 0.6 -->
      <defs>
       <path d="M 33.015625 40.375 
Q 26.375 40.375 22.484375 35.828125 
Q 18.609375 31.296875 18.609375 23.390625 
Q 18.609375 15.53125 22.484375 10.953125 
Q 26.375 6.390625 33.015625 6.390625 
Q 39.65625 6.390625 43.53125 10.953125 
Q 47.40625 15.53125 47.40625 23.390625 
Q 47.40625 31.296875 43.53125 35.828125 
Q 39.65625 40.375 33.015625 40.375 
z
M 52.59375 71.296875 
L 52.59375 62.3125 
Q 48.875 64.0625 45.09375 64.984375 
Q 41.3125 65.921875 37.59375 65.921875 
Q 27.828125 65.921875 22.671875 59.328125 
Q 17.53125 52.734375 16.796875 39.40625 
Q 19.671875 43.65625 24.015625 45.921875 
Q 28.375 48.1875 33.59375 48.1875 
Q 44.578125 48.1875 50.953125 41.515625 
Q 57.328125 34.859375 57.328125 23.390625 
Q 57.328125 12.15625 50.6875 5.359375 
Q 44.046875 -1.421875 33.015625 -1.421875 
Q 20.359375 -1.421875 13.671875 8.265625 
Q 6.984375 17.96875 6.984375 36.375 
Q 6.984375 53.65625 15.1875 63.9375 
Q 23.390625 74.21875 37.203125 74.21875 
Q 40.921875 74.21875 44.703125 73.484375 
Q 48.484375 72.75 52.59375 71.296875 
z
" id="DejaVuSans-54"/>
      </defs>
      <g transform="translate(77.175937 230.390797)scale(0.13 -0.13)">
       <use xlink:href="#DejaVuSans-48"/>
       <use x="63.623047" xlink:href="#DejaVuSans-46"/>
       <use x="95.410156" xlink:href="#DejaVuSans-54"/>
      </g>
     </g>
    </g>
    <g id="ytick_5">
     <g id="line2d_13">
      <g>
       <use style="stroke:#000000;stroke-width:0.8;" x="104.85" xlink:href="#mca7fa01676" y="175.051813"/>
      </g>
     </g>
     <g id="text_14">
      <!-- 0.8 -->
      <defs>
       <path d="M 31.78125 34.625 
Q 24.75 34.625 20.71875 30.859375 
Q 16.703125 27.09375 16.703125 20.515625 
Q 16.703125 13.921875 20.71875 10.15625 
Q 24.75 6.390625 31.78125 6.390625 
Q 38.8125 6.390625 42.859375 10.171875 
Q 46.921875 13.96875 46.921875 20.515625 
Q 46.921875 27.09375 42.890625 30.859375 
Q 38.875 34.625 31.78125 34.625 
z
M 21.921875 38.8125 
Q 15.578125 40.375 12.03125 44.71875 
Q 8.5 49.078125 8.5 55.328125 
Q 8.5 64.0625 14.71875 69.140625 
Q 20.953125 74.21875 31.78125 74.21875 
Q 42.671875 74.21875 48.875 69.140625 
Q 55.078125 64.0625 55.078125 55.328125 
Q 55.078125 49.078125 51.53125 44.71875 
Q 48 40.375 41.703125 38.8125 
Q 48.828125 37.15625 52.796875 32.3125 
Q 56.78125 27.484375 56.78125 20.515625 
Q 56.78125 9.90625 50.3125 4.234375 
Q 43.84375 -1.421875 31.78125 -1.421875 
Q 19.734375 -1.421875 13.25 4.234375 
Q 6.78125 9.90625 6.78125 20.515625 
Q 6.78125 27.484375 10.78125 32.3125 
Q 14.796875 37.15625 21.921875 38.8125 
z
M 18.3125 54.390625 
Q 18.3125 48.734375 21.84375 45.5625 
Q 25.390625 42.390625 31.78125 42.390625 
Q 38.140625 42.390625 41.71875 45.5625 
Q 45.3125 48.734375 45.3125 54.390625 
Q 45.3125 60.0625 41.71875 63.234375 
Q 38.140625 66.40625 31.78125 66.40625 
Q 25.390625 66.40625 21.84375 63.234375 
Q 18.3125 60.0625 18.3125 54.390625 
z
" id="DejaVuSans-56"/>
      </defs>
      <g transform="translate(77.175937 179.990797)scale(0.13 -0.13)">
       <use xlink:href="#DejaVuSans-48"/>
       <use x="63.623047" xlink:href="#DejaVuSans-46"/>
       <use x="95.410156" xlink:href="#DejaVuSans-56"/>
      </g>
     </g>
    </g>
    <g id="ytick_6">
     <g id="line2d_14">
      <g>
       <use style="stroke:#000000;stroke-width:0.8;" x="104.85" xlink:href="#mca7fa01676" y="124.651812"/>
      </g>
     </g>
     <g id="text_15">
      <!-- 1.0 -->
      <g transform="translate(77.175937 129.590797)scale(0.13 -0.13)">
       <use xlink:href="#DejaVuSans-49"/>
       <use x="63.623047" xlink:href="#DejaVuSans-46"/>
       <use x="95.410156" xlink:href="#DejaVuSans-48"/>
      </g>
     </g>
    </g>
    <g id="text_16">
     <!-- Recall -->
     <defs>
      <path d="M 44.390625 34.1875 
Q 47.5625 33.109375 50.5625 29.59375 
Q 53.5625 26.078125 56.59375 19.921875 
L 66.609375 0 
L 56 0 
L 46.6875 18.703125 
Q 43.0625 26.03125 39.671875 28.421875 
Q 36.28125 30.8125 30.421875 30.8125 
L 19.671875 30.8125 
L 19.671875 0 
L 9.8125 0 
L 9.8125 72.90625 
L 32.078125 72.90625 
Q 44.578125 72.90625 50.734375 67.671875 
Q 56.890625 62.453125 56.890625 51.90625 
Q 56.890625 45.015625 53.6875 40.46875 
Q 50.484375 35.9375 44.390625 34.1875 
z
M 19.671875 64.796875 
L 19.671875 38.921875 
L 32.078125 38.921875 
Q 39.203125 38.921875 42.84375 42.21875 
Q 46.484375 45.515625 46.484375 51.90625 
Q 46.484375 58.296875 42.84375 61.546875 
Q 39.203125 64.796875 32.078125 64.796875 
z
" id="DejaVuSans-82"/>
      <path d="M 9.421875 75.984375 
L 18.40625 75.984375 
L 18.40625 0 
L 9.421875 0 
z
" id="DejaVuSans-108"/>
     </defs>
     <g transform="translate(70.472344 270.332594)rotate(-90)scale(0.13 -0.13)">
      <use xlink:href="#DejaVuSans-82"/>
      <use x="69.419922" xlink:href="#DejaVuSans-101"/>
      <use x="130.943359" xlink:href="#DejaVuSans-99"/>
      <use x="185.923828" xlink:href="#DejaVuSans-97"/>
      <use x="247.203125" xlink:href="#DejaVuSans-108"/>
      <use x="274.986328" xlink:href="#DejaVuSans-108"/>
     </g>
    </g>
   </g>
   <g id="line2d_15"/>
   <g id="line2d_16"/>
   <g id="line2d_17"/>
   <g id="line2d_18"/>
   <g id="line2d_19"/>
   <g id="line2d_20">
    <path clip-path="url(#pbc4fe19ff3)" d="M 122.604545 134.731813 
L 124.483333 129.691813 
L 126.362121 128.011813 
L 128.240909 127.171813 
L 130.119697 126.667813 
L 133.877273 126.091813 
L 135.756061 128.161813 
L 137.634848 129.771813 
L 139.513636 129.259813 
L 141.392424 130.188497 
L 143.271212 130.893773 
L 145.15 130.413622 
L 147.028788 131.638428 
L 148.907576 132.699927 
L 150.786364 133.025867 
L 152.665152 132.533275 
L 154.543939 133.495416 
L 156.422727 133.858911 
L 160.180303 132.894556 
L 162.059091 134.154556 
L 163.937879 134.154556 
L 165.816667 135.954556 
L 167.695455 135.954556 
L 169.574242 137.100011 
L 171.45303 137.841187 
L 173.331818 137.991187 
L 175.210606 137.091187 
L 177.089394 137.091187 
L 178.968182 136.980011 
L 180.84697 136.714493 
L 182.725758 137.344493 
L 184.604545 137.599039 
L 188.362121 137.470426 
L 190.240909 138.043154 
L 192.119697 137.683154 
L 193.998485 136.895654 
L 195.877273 136.895654 
L 197.756061 137.795654 
L 201.513636 137.795654 
L 203.392424 136.73683 
L 205.271212 136.73683 
L 209.028788 135.270199 
L 210.907576 134.220199 
L 212.786364 134.768025 
L 216.543939 134.801183 
L 218.422727 134.3667 
L 220.301515 133.7367 
L 222.180303 132.3367 
L 224.059091 131.2867 
L 227.816667 130.083973 
L 231.574242 130.023973 
L 233.45303 130.023973 
L 235.331818 129.123973 
L 237.210606 128.605149 
L 239.089394 129.613149 
L 240.968182 128.871973 
L 242.84697 128.871973 
L 244.725758 128.451973 
L 246.604545 129.934326 
L 252.240909 129.9865 
L 254.119697 129.323342 
L 255.998485 132.473342 
L 257.877273 133.873342 
L 265.392424 133.873342 
L 267.271212 133.517957 
L 269.15 134.217957 
L 271.028788 134.217957 
L 272.907576 134.790685 
L 274.786364 134.049508 
L 276.665152 133.782685 
L 282.301515 133.782685 
L 284.180303 132.300332 
L 286.059091 132.300332 
L 287.937879 131.700332 
L 289.816667 133.800332 
L 291.695455 133.800332 
L 293.574242 130.650332 
L 295.45303 130.150332 
L 297.331818 131.830332 
L 299.210606 132.49349 
L 301.089394 132.49349 
L 302.968182 133.306393 
L 304.84697 133.394505 
L 306.725758 133.894505 
L 308.604545 134.524505 
L 310.483333 133.951777 
L 314.240909 133.998101 
L 316.119697 134.628101 
L 319.877273 134.628101 
L 321.756061 135.112716 
L 323.634848 135.775874 
L 325.513636 136.871526 
L 327.392424 135.671526 
L 329.271212 136.271526 
L 331.15 137.471526 
L 333.028788 136.571526 
L 334.907576 134.891526 
L 336.786364 135.278368 
L 338.665152 135.941526 
L 340.543939 135.128623 
L 342.422727 134.555896 
L 344.301515 133.822563 
L 346.180303 133.933739 
L 349.937879 135.296897 
L 351.816667 134.509397 
L 353.695455 134.579397 
L 355.574242 135.104397 
L 357.45303 135.804397 
L 359.331818 135.319781 
L 361.210606 134.656624 
L 363.089394 133.560971 
L 364.968182 133.145587 
L 366.84697 132.545587 
L 368.725758 132.395587 
L 372.483333 132.395587 
L 376.240909 131.116912 
L 378.119697 131.116912 
L 379.998485 131.858088 
L 381.877273 131.391421 
L 383.756061 131.437745 
L 387.513636 130.074587 
L 391.271212 131.207314 
L 393.15 130.682314 
L 395.028788 129.982314 
L 396.907576 129.982314 
L 398.786364 132.502314 
L 400.665152 132.502314 
L 402.543939 133.163154 
L 404.422727 133.950654 
L 406.301515 132.900654 
L 408.180303 132.900654 
L 410.059091 134.046108 
L 411.937879 133.611625 
L 415.695455 133.611625 
L 417.574242 132.870449 
L 419.45303 133.803782 
L 421.331818 134.111934 
L 425.089394 134.111934 
L 426.968182 134.739207 
L 428.84697 134.266707 
L 430.725758 134.266707 
L 432.604545 135.054207 
L 434.483333 135.054207 
L 436.362121 133.275384 
L 438.240909 133.275384 
L 440.119697 132.917429 
L 441.998485 133.09916 
L 443.877273 134.10716 
L 445.756061 134.61116 
L 447.634848 134.515705 
L 449.513636 135.915705 
L 451.392424 135.915705 
L 455.15 137.06116 
L 457.028788 136.727826 
L 458.907576 135.632174 
L 460.786364 136.18 
L 462.665152 136.18 
L 464.543939 134.98 
L 468.301515 134.8925 
L 470.180303 134.105 
L 475.816667 136.280158 
L 477.695455 135.492658 
L 477.695455 135.492658 
" style="fill:none;stroke:#cc3311;stroke-linecap:square;stroke-width:0.5;"/>
    <defs>
     <path d="M 0 2.5 
C 0.663008 2.5 1.29895 2.236584 1.767767 1.767767 
C 2.236584 1.29895 2.5 0.663008 2.5 0 
C 2.5 -0.663008 2.236584 -1.29895 1.767767 -1.767767 
C 1.29895 -2.236584 0.663008 -2.5 0 -2.5 
C -0.663008 -2.5 -1.29895 -2.236584 -1.767767 -1.767767 
C -2.236584 -1.29895 -2.5 -0.663008 -2.5 0 
C -2.5 0.663008 -2.236584 1.29895 -1.767767 1.767767 
C -1.29895 2.236584 -0.663008 2.5 0 2.5 
z
" id="m2f000c7fb7" style="stroke:#cc3311;"/>
    </defs>
    <g clip-path="url(#pbc4fe19ff3)">
     <use style="fill:#cc3311;stroke:#cc3311;" x="122.604545" xlink:href="#m2f000c7fb7" y="134.731813"/>
     <use style="fill:#cc3311;stroke:#cc3311;" x="141.392424" xlink:href="#m2f000c7fb7" y="130.188497"/>
     <use style="fill:#cc3311;stroke:#cc3311;" x="160.180303" xlink:href="#m2f000c7fb7" y="132.894556"/>
     <use style="fill:#cc3311;stroke:#cc3311;" x="178.968182" xlink:href="#m2f000c7fb7" y="136.980011"/>
     <use style="fill:#cc3311;stroke:#cc3311;" x="197.756061" xlink:href="#m2f000c7fb7" y="137.795654"/>
     <use style="fill:#cc3311;stroke:#cc3311;" x="216.543939" xlink:href="#m2f000c7fb7" y="134.801183"/>
     <use style="fill:#cc3311;stroke:#cc3311;" x="235.331818" xlink:href="#m2f000c7fb7" y="129.123973"/>
     <use style="fill:#cc3311;stroke:#cc3311;" x="254.119697" xlink:href="#m2f000c7fb7" y="129.323342"/>
     <use style="fill:#cc3311;stroke:#cc3311;" x="272.907576" xlink:href="#m2f000c7fb7" y="134.790685"/>
     <use style="fill:#cc3311;stroke:#cc3311;" x="291.695455" xlink:href="#m2f000c7fb7" y="133.800332"/>
     <use style="fill:#cc3311;stroke:#cc3311;" x="310.483333" xlink:href="#m2f000c7fb7" y="133.951777"/>
     <use style="fill:#cc3311;stroke:#cc3311;" x="329.271212" xlink:href="#m2f000c7fb7" y="136.271526"/>
     <use style="fill:#cc3311;stroke:#cc3311;" x="348.059091" xlink:href="#m2f000c7fb7" y="134.633739"/>
     <use style="fill:#cc3311;stroke:#cc3311;" x="366.84697" xlink:href="#m2f000c7fb7" y="132.545587"/>
     <use style="fill:#cc3311;stroke:#cc3311;" x="385.634848" xlink:href="#m2f000c7fb7" y="130.737745"/>
     <use style="fill:#cc3311;stroke:#cc3311;" x="404.422727" xlink:href="#m2f000c7fb7" y="133.950654"/>
     <use style="fill:#cc3311;stroke:#cc3311;" x="423.210606" xlink:href="#m2f000c7fb7" y="134.111934"/>
     <use style="fill:#cc3311;stroke:#cc3311;" x="441.998485" xlink:href="#m2f000c7fb7" y="133.09916"/>
     <use style="fill:#cc3311;stroke:#cc3311;" x="460.786364" xlink:href="#m2f000c7fb7" y="136.18"/>
    </g>
   </g>
   <g id="line2d_21"/>
   <g id="line2d_22"/>
   <g id="line2d_23"/>
   <g id="line2d_24"/>
   <g id="line2d_25">
    <path clip-path="url(#pbc4fe19ff3)" d="M 122.604545 175.051813 
L 124.483333 178.488176 
L 126.362121 173.142722 
L 128.240909 163.269994 
L 130.119697 160.586358 
L 131.998485 158.597267 
L 133.877273 156.319345 
L 135.756061 159.110903 
L 137.634848 157.282116 
L 139.513636 159.059085 
L 141.392424 157.278745 
L 143.271212 154.559834 
L 145.15 152.259217 
L 147.028788 151.105441 
L 148.907576 150.105502 
L 150.786364 150.172541 
L 152.665152 149.769361 
L 154.543939 149.073942 
L 156.422727 149.446461 
L 158.301515 148.947905 
L 160.180303 147.169082 
L 162.059091 145.565446 
L 163.937879 147.875446 
L 165.816667 149.225446 
L 167.695455 147.965446 
L 169.574242 147.338173 
L 171.45303 147.920526 
L 173.331818 145.220526 
L 175.210606 144.320526 
L 177.089394 141.800526 
L 178.968182 142.319349 
L 180.84697 143.188315 
L 182.725758 143.188315 
L 184.604545 143.315588 
L 186.483333 143.26786 
L 188.362121 141.941545 
L 192.119697 142.423666 
L 193.998485 140.848666 
L 195.877273 140.737489 
L 197.756061 140.446313 
L 199.634848 140.446313 
L 201.513636 136.771313 
L 203.392424 134.971313 
L 205.271212 134.971313 
L 207.15 135.238586 
L 209.028788 134.281233 
L 210.907576 136.081233 
L 212.786364 138.272537 
L 214.665152 138.272537 
L 216.543939 137.675695 
L 218.422727 136.806729 
L 222.180303 136.706729 
L 224.059091 136.181729 
L 225.937879 136.181729 
L 227.816667 135.636275 
L 229.695455 134.736275 
L 231.574242 135.881729 
L 233.45303 136.039229 
L 235.331818 136.489229 
L 237.210606 135.970406 
L 242.84697 135.949406 
L 244.725758 135.109406 
L 246.604545 136.807935 
L 250.362121 134.757807 
L 252.240909 134.757807 
L 254.119697 135.144649 
L 255.998485 135.144649 
L 257.877273 135.844649 
L 259.756061 135.944649 
L 261.634848 136.607807 
L 263.513636 136.607807 
L 265.392424 137.153262 
L 267.271212 138.122493 
L 269.15 136.977038 
L 272.907576 135.289538 
L 274.786364 135.248362 
L 276.665152 137.709067 
L 278.543939 138.969067 
L 280.422727 138.969067 
L 282.301515 139.435734 
L 284.180303 137.875363 
L 286.059091 137.134186 
L 287.937879 135.934186 
L 289.816667 138.034186 
L 291.695455 137.614186 
L 293.574242 137.614186 
L 297.331818 136.214186 
L 299.210606 136.877344 
L 301.089394 137.664844 
L 304.84697 136.935789 
L 306.725758 137.535789 
L 308.604545 137.535789 
L 310.483333 138.348692 
L 312.362121 139.328692 
L 314.240909 136.363987 
L 316.119697 135.103987 
L 319.877273 135.210047 
L 321.756061 135.51612 
L 323.634848 135.51612 
L 325.513636 137.159598 
L 327.392424 135.509598 
L 329.271212 136.079598 
L 331.15 137.279598 
L 333.028788 137.279598 
L 334.907576 138.425053 
L 336.786364 138.148737 
L 340.543939 136.548334 
L 342.422727 137.175607 
L 344.301515 137.042273 
L 346.180303 137.78345 
L 348.059091 136.970546 
L 349.937879 135.953704 
L 351.816667 135.953704 
L 353.695455 136.653704 
L 355.574242 137.703704 
L 357.45303 137.830977 
L 359.331818 137.434474 
L 361.210606 137.919089 
L 363.089394 138.56652 
L 364.968182 138.11652 
L 366.84697 138.31652 
L 368.725758 137.64152 
L 370.604545 137.64152 
L 372.483333 136.496065 
L 374.362121 135.880548 
L 378.119697 135.880548 
L 381.877273 134.955058 
L 383.756061 135.001381 
L 385.634848 135.631381 
L 387.513636 135.598223 
L 389.392424 136.170951 
L 393.15 134.855434 
L 396.907576 134.667322 
L 398.786364 135.862706 
L 400.665152 133.571797 
L 402.543939 133.571797 
L 404.422727 132.171797 
L 406.301515 131.646797 
L 408.180303 131.646797 
L 410.059091 132.792252 
L 411.937879 132.357769 
L 415.695455 132.357769 
L 417.574242 131.616592 
L 419.45303 133.016592 
L 421.331818 133.324745 
L 423.210606 133.242571 
L 425.089394 132.612571 
L 428.84697 132.639843 
L 430.725758 132.835361 
L 432.604545 132.235361 
L 434.483333 132.350745 
L 436.362121 130.670745 
L 438.240909 131.174745 
L 440.119697 132.749745 
L 445.756061 134.242361 
L 447.634848 133.621906 
L 449.513636 134.321906 
L 451.392424 136.001906 
L 453.271212 136.001906 
L 455.15 136.574633 
L 457.028788 135.774633 
L 458.907576 134.678981 
L 462.665152 134.678981 
L 464.543939 134.545648 
L 466.422727 135.245648 
L 468.301515 134.615648 
L 470.180303 134.615648 
L 472.059091 134.015648 
L 473.937879 135.527648 
L 475.816667 135.023648 
L 477.695455 133.448648 
L 477.695455 133.448648 
" style="fill:none;stroke:#009988;stroke-dasharray:1.85,0.8;stroke-dashoffset:0;stroke-width:0.5;"/>
    <defs>
     <path d="M -2.5 2.5 
L 2.5 2.5 
L 2.5 -2.5 
L -2.5 -2.5 
z
" id="m117f95556d" style="stroke:#009988;stroke-linejoin:miter;"/>
    </defs>
    <g clip-path="url(#pbc4fe19ff3)">
     <use style="fill:#009988;stroke:#009988;stroke-linejoin:miter;" x="122.604545" xlink:href="#m117f95556d" y="175.051813"/>
     <use style="fill:#009988;stroke:#009988;stroke-linejoin:miter;" x="141.392424" xlink:href="#m117f95556d" y="157.278745"/>
     <use style="fill:#009988;stroke:#009988;stroke-linejoin:miter;" x="160.180303" xlink:href="#m117f95556d" y="147.169082"/>
     <use style="fill:#009988;stroke:#009988;stroke-linejoin:miter;" x="178.968182" xlink:href="#m117f95556d" y="142.319349"/>
     <use style="fill:#009988;stroke:#009988;stroke-linejoin:miter;" x="197.756061" xlink:href="#m117f95556d" y="140.446313"/>
     <use style="fill:#009988;stroke:#009988;stroke-linejoin:miter;" x="216.543939" xlink:href="#m117f95556d" y="137.675695"/>
     <use style="fill:#009988;stroke:#009988;stroke-linejoin:miter;" x="235.331818" xlink:href="#m117f95556d" y="136.489229"/>
     <use style="fill:#009988;stroke:#009988;stroke-linejoin:miter;" x="254.119697" xlink:href="#m117f95556d" y="135.144649"/>
     <use style="fill:#009988;stroke:#009988;stroke-linejoin:miter;" x="272.907576" xlink:href="#m117f95556d" y="135.289538"/>
     <use style="fill:#009988;stroke:#009988;stroke-linejoin:miter;" x="291.695455" xlink:href="#m117f95556d" y="137.614186"/>
     <use style="fill:#009988;stroke:#009988;stroke-linejoin:miter;" x="310.483333" xlink:href="#m117f95556d" y="138.348692"/>
     <use style="fill:#009988;stroke:#009988;stroke-linejoin:miter;" x="329.271212" xlink:href="#m117f95556d" y="136.079598"/>
     <use style="fill:#009988;stroke:#009988;stroke-linejoin:miter;" x="348.059091" xlink:href="#m117f95556d" y="136.970546"/>
     <use style="fill:#009988;stroke:#009988;stroke-linejoin:miter;" x="366.84697" xlink:href="#m117f95556d" y="138.31652"/>
     <use style="fill:#009988;stroke:#009988;stroke-linejoin:miter;" x="385.634848" xlink:href="#m117f95556d" y="135.631381"/>
     <use style="fill:#009988;stroke:#009988;stroke-linejoin:miter;" x="404.422727" xlink:href="#m117f95556d" y="132.171797"/>
     <use style="fill:#009988;stroke:#009988;stroke-linejoin:miter;" x="423.210606" xlink:href="#m117f95556d" y="133.242571"/>
     <use style="fill:#009988;stroke:#009988;stroke-linejoin:miter;" x="441.998485" xlink:href="#m117f95556d" y="133.234361"/>
     <use style="fill:#009988;stroke:#009988;stroke-linejoin:miter;" x="460.786364" xlink:href="#m117f95556d" y="134.678981"/>
    </g>
   </g>
   <g id="line2d_26"/>
   <g id="line2d_27"/>
   <g id="line2d_28"/>
   <g id="line2d_29"/>
   <g id="line2d_30">
    <path clip-path="url(#pbc4fe19ff3)" d="M 122.604545 124.651813 
L 145.15 124.651813 
L 147.028788 125.469994 
L 152.665152 125.325609 
L 154.543939 125.988176 
L 160.180303 125.85454 
L 162.059091 126.48454 
L 182.725758 126.48454 
L 184.604545 125.911813 
L 190.240909 125.911813 
L 192.119697 125.281813 
L 197.756061 125.281813 
L 199.634848 124.651813 
L 248.483333 124.651813 
L 250.362121 125.251813 
L 280.422727 125.251813 
L 282.301515 125.718479 
L 286.059091 125.718479 
L 287.937879 125.118479 
L 317.998485 125.118479 
L 319.877273 124.651813 
L 477.695455 124.651813 
L 477.695455 124.651813 
" style="fill:none;stroke:#0077bb;stroke-dasharray:3.2,0.8,0.5,0.8;stroke-dashoffset:0;stroke-width:0.5;"/>
    <defs>
     <path d="M 0 -2.5 
L -2.5 2.5 
L 2.5 2.5 
z
" id="ma1716b9687" style="stroke:#0077bb;stroke-linejoin:miter;"/>
    </defs>
    <g clip-path="url(#pbc4fe19ff3)">
     <use style="fill:#0077bb;stroke:#0077bb;stroke-linejoin:miter;" x="122.604545" xlink:href="#ma1716b9687" y="124.651813"/>
     <use style="fill:#0077bb;stroke:#0077bb;stroke-linejoin:miter;" x="141.392424" xlink:href="#ma1716b9687" y="124.651813"/>
     <use style="fill:#0077bb;stroke:#0077bb;stroke-linejoin:miter;" x="160.180303" xlink:href="#ma1716b9687" y="125.85454"/>
     <use style="fill:#0077bb;stroke:#0077bb;stroke-linejoin:miter;" x="178.968182" xlink:href="#ma1716b9687" y="126.48454"/>
     <use style="fill:#0077bb;stroke:#0077bb;stroke-linejoin:miter;" x="197.756061" xlink:href="#ma1716b9687" y="125.281813"/>
     <use style="fill:#0077bb;stroke:#0077bb;stroke-linejoin:miter;" x="216.543939" xlink:href="#ma1716b9687" y="124.651813"/>
     <use style="fill:#0077bb;stroke:#0077bb;stroke-linejoin:miter;" x="235.331818" xlink:href="#ma1716b9687" y="124.651813"/>
     <use style="fill:#0077bb;stroke:#0077bb;stroke-linejoin:miter;" x="254.119697" xlink:href="#ma1716b9687" y="125.251813"/>
     <use style="fill:#0077bb;stroke:#0077bb;stroke-linejoin:miter;" x="272.907576" xlink:href="#ma1716b9687" y="125.251813"/>
     <use style="fill:#0077bb;stroke:#0077bb;stroke-linejoin:miter;" x="291.695455" xlink:href="#ma1716b9687" y="125.118479"/>
     <use style="fill:#0077bb;stroke:#0077bb;stroke-linejoin:miter;" x="310.483333" xlink:href="#ma1716b9687" y="125.118479"/>
     <use style="fill:#0077bb;stroke:#0077bb;stroke-linejoin:miter;" x="329.271212" xlink:href="#ma1716b9687" y="124.651813"/>
     <use style="fill:#0077bb;stroke:#0077bb;stroke-linejoin:miter;" x="348.059091" xlink:href="#ma1716b9687" y="124.651813"/>
     <use style="fill:#0077bb;stroke:#0077bb;stroke-linejoin:miter;" x="366.84697" xlink:href="#ma1716b9687" y="124.651813"/>
     <use style="fill:#0077bb;stroke:#0077bb;stroke-linejoin:miter;" x="385.634848" xlink:href="#ma1716b9687" y="124.651813"/>
     <use style="fill:#0077bb;stroke:#0077bb;stroke-linejoin:miter;" x="404.422727" xlink:href="#ma1716b9687" y="124.651813"/>
     <use style="fill:#0077bb;stroke:#0077bb;stroke-linejoin:miter;" x="423.210606" xlink:href="#ma1716b9687" y="124.651813"/>
     <use style="fill:#0077bb;stroke:#0077bb;stroke-linejoin:miter;" x="441.998485" xlink:href="#ma1716b9687" y="124.651813"/>
     <use style="fill:#0077bb;stroke:#0077bb;stroke-linejoin:miter;" x="460.786364" xlink:href="#ma1716b9687" y="124.651813"/>
    </g>
   </g>
   <g id="line2d_31"/>
   <g id="line2d_32"/>
   <g id="line2d_33"/>
   <g id="line2d_34"/>
   <g id="line2d_35">
    <path clip-path="url(#pbc4fe19ff3)" d="M 122.604545 376.651813 
L 124.483333 376.651813 
L 126.362121 372.451813 
L 128.240909 371.251813 
L 130.119697 367.291812 
L 131.998485 362.851812 
L 133.877273 362.251813 
L 135.756061 364.051812 
L 137.634848 365.451813 
L 139.513636 366.571813 
L 141.392424 367.488176 
L 145.15 368.897966 
L 147.028788 368.633631 
L 150.786364 369.635903 
L 152.665152 370.048604 
L 154.543939 369.715449 
L 158.301515 370.409085 
L 160.180303 368.926732 
L 162.059091 366.406732 
L 163.937879 367.036732 
L 165.816667 367.486732 
L 167.695455 368.746732 
L 169.574242 370.546732 
L 171.45303 370.705556 
L 173.331818 370.705556 
L 175.210606 369.223203 
L 177.089394 368.435703 
L 178.968182 368.435703 
L 180.84697 368.00122 
L 182.725758 367.37122 
L 184.604545 365.843947 
L 186.483333 365.318947 
L 188.362121 365.318947 
L 190.240909 364.74622 
L 192.119697 364.02622 
L 193.998485 362.97622 
L 195.877273 360.45622 
L 197.756061 361.038573 
L 199.634848 359.778573 
L 201.513636 358.203573 
L 203.392424 355.980044 
L 205.271212 355.980044 
L 207.15 353.880044 
L 209.028788 352.52122 
L 210.907576 351.92122 
L 212.786364 351.760095 
L 214.665152 352.547595 
L 216.543939 352.547595 
L 218.422727 352.982078 
L 220.301515 353.612078 
L 222.180303 355.712078 
L 224.059091 355.495901 
L 225.937879 354.595901 
L 229.695455 352.198628 
L 231.574242 350.384992 
L 233.45303 350.542492 
L 235.331818 348.742492 
L 237.210606 348.81661 
L 239.089394 347.36761 
L 240.968182 344.078639 
L 242.84697 340.069548 
L 244.725758 335.082048 
L 246.604545 334.958519 
L 248.483333 332.593813 
L 250.362121 334.237291 
L 252.240909 332.437291 
L 254.119697 330.337291 
L 255.998485 328.762291 
L 257.877273 328.062291 
L 259.756061 323.862291 
L 261.634848 323.277152 
L 263.513636 321.886243 
L 265.392424 318.531697 
L 267.271212 318.144005 
L 269.15 318.907641 
L 271.028788 320.370141 
L 272.907576 319.06105 
L 274.786364 320.666933 
L 276.665152 320.726227 
L 278.543939 319.938727 
L 280.422727 320.797818 
L 282.301515 325.085318 
L 284.180303 326.645689 
L 286.059091 327.966917 
L 287.937879 324.651127 
L 289.816667 324.351127 
L 291.695455 323.301127 
L 293.574242 320.151127 
L 295.45303 318.151127 
L 297.331818 317.311127 
L 299.210606 314.658496 
L 301.089394 313.799405 
L 302.968182 316.108789 
L 304.84697 314.434663 
L 306.725758 312.334663 
L 308.604545 309.454663 
L 310.483333 310.618593 
L 312.362121 309.358593 
L 316.119697 312.008299 
L 317.998485 311.220799 
L 319.877273 310.011708 
L 321.756061 305.344096 
L 323.634848 304.998101 
L 325.513636 305.026934 
L 327.392424 303.076934 
L 329.271212 301.426934 
L 331.15 301.351934 
L 333.028788 299.851934 
L 334.907576 300.882843 
L 336.786364 302.76179 
L 338.665152 303.922317 
L 340.543939 304.404978 
L 342.422727 305.386796 
L 344.301515 304.453463 
L 346.180303 306.009934 
L 348.059091 304.655095 
L 349.937879 304.699305 
L 351.816667 300.674305 
L 353.695455 300.114305 
L 355.574242 301.426805 
L 357.45303 300.535896 
L 359.331818 302.430302 
L 361.210606 300.542852 
L 363.089394 300.393445 
L 364.968182 298.628061 
L 366.84697 299.928061 
L 368.725758 300.528061 
L 370.604545 300.749113 
L 372.483333 300.033204 
L 374.362121 298.222859 
L 376.240909 296.896544 
L 378.119697 296.606412 
L 379.998485 296.50053 
L 383.756061 297.899784 
L 385.634848 298.319784 
L 387.513636 297.225573 
L 389.392424 296.525573 
L 391.271212 298.345573 
L 393.15 293.584366 
L 395.028788 293.084366 
L 396.907576 290.705345 
L 398.786364 293.742268 
L 400.665152 292.536527 
L 402.543939 294.915548 
L 404.422727 294.478048 
L 406.301515 291.118048 
L 408.180303 294.309495 
L 410.059091 293.307222 
L 411.937879 289.064626 
L 413.816667 289.727784 
L 415.695455 286.867916 
L 417.574242 284.973798 
L 419.45303 285.156407 
L 421.331818 281.253146 
L 423.210606 280.102711 
L 425.089394 278.212711 
L 426.968182 279.712711 
L 428.84697 279.555211 
L 430.725758 282.531418 
L 432.604545 282.418918 
L 434.483333 284.034302 
L 436.362121 279.686067 
L 438.240909 278.784172 
L 440.119697 277.495536 
L 441.998485 277.556113 
L 443.877273 281.084113 
L 445.756061 276.327613 
L 447.634848 275.754886 
L 449.513636 276.907827 
L 451.392424 274.520458 
L 455.15 277.614777 
L 457.028788 277.014777 
L 458.907576 274.303038 
L 460.786364 274.850864 
L 462.665152 274.220864 
L 466.422727 273.62503 
L 468.301515 271.73503 
L 470.180303 270.04753 
L 472.059091 269.800471 
L 473.937879 271.460707 
L 475.816667 271.699444 
L 477.695455 270.824444 
L 477.695455 270.824444 
" style="fill:none;stroke:#ee7733;stroke-dasharray:0.5,0.825;stroke-dashoffset:0;stroke-width:0.5;"/>
    <defs>
     <path d="M 0 -2.5 
L -0.561285 -0.772542 
L -2.377641 -0.772542 
L -0.908178 0.295085 
L -1.469463 2.022542 
L -0 0.954915 
L 1.469463 2.022542 
L 0.908178 0.295085 
L 2.377641 -0.772542 
L 0.561285 -0.772542 
z
" id="mbcbc23f61f" style="stroke:#ee7733;stroke-linejoin:bevel;"/>
    </defs>
    <g clip-path="url(#pbc4fe19ff3)">
     <use style="fill:#ee7733;stroke:#ee7733;stroke-linejoin:bevel;" x="122.604545" xlink:href="#mbcbc23f61f" y="376.651813"/>
     <use style="fill:#ee7733;stroke:#ee7733;stroke-linejoin:bevel;" x="141.392424" xlink:href="#mbcbc23f61f" y="367.488176"/>
     <use style="fill:#ee7733;stroke:#ee7733;stroke-linejoin:bevel;" x="160.180303" xlink:href="#mbcbc23f61f" y="368.926732"/>
     <use style="fill:#ee7733;stroke:#ee7733;stroke-linejoin:bevel;" x="178.968182" xlink:href="#mbcbc23f61f" y="368.435703"/>
     <use style="fill:#ee7733;stroke:#ee7733;stroke-linejoin:bevel;" x="197.756061" xlink:href="#mbcbc23f61f" y="361.038573"/>
     <use style="fill:#ee7733;stroke:#ee7733;stroke-linejoin:bevel;" x="216.543939" xlink:href="#mbcbc23f61f" y="352.547595"/>
     <use style="fill:#ee7733;stroke:#ee7733;stroke-linejoin:bevel;" x="235.331818" xlink:href="#mbcbc23f61f" y="348.742492"/>
     <use style="fill:#ee7733;stroke:#ee7733;stroke-linejoin:bevel;" x="254.119697" xlink:href="#mbcbc23f61f" y="330.337291"/>
     <use style="fill:#ee7733;stroke:#ee7733;stroke-linejoin:bevel;" x="272.907576" xlink:href="#mbcbc23f61f" y="319.06105"/>
     <use style="fill:#ee7733;stroke:#ee7733;stroke-linejoin:bevel;" x="291.695455" xlink:href="#mbcbc23f61f" y="323.301127"/>
     <use style="fill:#ee7733;stroke:#ee7733;stroke-linejoin:bevel;" x="310.483333" xlink:href="#mbcbc23f61f" y="310.618593"/>
     <use style="fill:#ee7733;stroke:#ee7733;stroke-linejoin:bevel;" x="329.271212" xlink:href="#mbcbc23f61f" y="301.426934"/>
     <use style="fill:#ee7733;stroke:#ee7733;stroke-linejoin:bevel;" x="348.059091" xlink:href="#mbcbc23f61f" y="304.655095"/>
     <use style="fill:#ee7733;stroke:#ee7733;stroke-linejoin:bevel;" x="366.84697" xlink:href="#mbcbc23f61f" y="299.928061"/>
     <use style="fill:#ee7733;stroke:#ee7733;stroke-linejoin:bevel;" x="385.634848" xlink:href="#mbcbc23f61f" y="298.319784"/>
     <use style="fill:#ee7733;stroke:#ee7733;stroke-linejoin:bevel;" x="404.422727" xlink:href="#mbcbc23f61f" y="294.478048"/>
     <use style="fill:#ee7733;stroke:#ee7733;stroke-linejoin:bevel;" x="423.210606" xlink:href="#mbcbc23f61f" y="280.102711"/>
     <use style="fill:#ee7733;stroke:#ee7733;stroke-linejoin:bevel;" x="441.998485" xlink:href="#mbcbc23f61f" y="277.556113"/>
     <use style="fill:#ee7733;stroke:#ee7733;stroke-linejoin:bevel;" x="460.786364" xlink:href="#mbcbc23f61f" y="274.850864"/>
    </g>
   </g>
   <g id="line2d_36"/>
   <g id="line2d_37"/>
   <g id="line2d_38"/>
   <g id="line2d_39"/>
   <g id="line2d_40">
    <path clip-path="url(#pbc4fe19ff3)" d="M 122.604545 336.331813 
L 124.483333 322.128176 
L 126.362121 319.302722 
L 128.240909 329.139994 
L 130.119697 328.562358 
L 131.998485 330.577267 
L 133.877273 326.873631 
L 135.756061 328.595903 
L 137.634848 325.935449 
L 139.513636 325.967085 
L 141.392424 329.227194 
L 143.271212 327.345912 
L 145.15 328.156425 
L 147.028788 327.529472 
L 148.907576 328.513386 
L 150.786364 328.206248 
L 152.665152 329.408928 
L 154.543939 329.933533 
L 156.422727 331.563443 
L 158.301515 333.817861 
L 160.180303 332.869155 
L 162.059091 333.155519 
L 163.937879 336.305519 
L 165.816667 335.405519 
L 167.695455 337.440903 
L 169.574242 337.522722 
L 171.45303 339.640369 
L 173.331818 339.340369 
L 175.210606 341.458016 
L 177.089394 342.403016 
L 178.968182 343.144192 
L 180.84697 346.209709 
L 182.725758 347.518171 
L 184.604545 348.281807 
L 186.483333 349.474989 
L 188.362121 352.127621 
L 190.240909 352.382166 
L 192.119697 352.922166 
L 193.998485 352.659666 
L 195.877273 350.139666 
L 197.756061 351.304372 
L 199.634848 350.674372 
L 201.513636 349.624372 
L 203.392424 349.200843 
L 207.15 348.51614 
L 209.028788 347.898493 
L 210.907576 349.398493 
L 212.786364 348.689541 
L 214.665152 350.264541 
L 216.543939 350.264541 
L 218.422727 350.699024 
L 220.301515 349.038115 
L 222.180303 346.938115 
L 224.059091 346.721939 
L 225.937879 343.571939 
L 227.816667 342.917393 
L 229.695455 340.907393 
L 231.574242 337.948302 
L 233.45303 337.318302 
L 235.331818 336.418302 
L 237.210606 337.974773 
L 239.089394 336.000773 
L 242.84697 330.850439 
L 244.725758 327.437939 
L 246.604545 328.055586 
L 248.483333 325.69088 
L 250.362121 325.482184 
L 252.240909 322.782184 
L 254.119697 322.257184 
L 255.998485 317.532184 
L 257.877273 317.023093 
L 259.756061 318.423093 
L 261.634848 317.174796 
L 263.513636 315.170251 
L 265.392424 311.242978 
L 267.271212 311.21067 
L 269.15 312.419761 
L 271.028788 314.669761 
L 272.907576 313.933397 
L 274.786364 315.456927 
L 276.665152 315.516221 
L 278.543939 315.201221 
L 280.422727 314.700085 
L 282.301515 317.879251 
L 284.180303 318.035288 
L 286.059091 318.80869 
L 287.937879 317.8929 
L 289.816667 318.4929 
L 291.695455 316.4979 
L 293.574242 318.8604 
L 295.45303 318.9604 
L 297.331818 317.5604 
L 299.210606 316.897243 
L 301.089394 319.689288 
L 302.968182 322.164948 
L 304.84697 322.693619 
L 306.725758 323.693619 
L 308.604545 320.813619 
L 310.483333 321.404822 
L 312.362121 317.904822 
L 314.240909 320.082027 
L 316.119697 323.232027 
L 317.998485 323.232027 
L 319.877273 321.55627 
L 321.756061 317.551816 
L 323.634848 319.079963 
L 325.513636 317.465318 
L 327.392424 313.265318 
L 329.271212 312.185318 
L 331.15 312.147818 
L 333.028788 309.247818 
L 334.907576 308.865999 
L 336.786364 308.368631 
L 338.665152 309.404815 
L 340.543939 310.293928 
L 342.422727 311.357564 
L 344.301515 308.957564 
L 346.180303 310.514035 
L 348.059091 309.859196 
L 349.937879 311.406565 
L 351.816667 307.294065 
L 353.695455 304.284065 
L 355.574242 305.596565 
L 357.45303 306.105656 
L 359.331818 308.572788 
L 361.210606 305.359023 
L 363.089394 306.853094 
L 364.968182 307.822325 
L 366.84697 307.922325 
L 368.725758 306.122325 
L 372.483333 307.987038 
L 374.362121 307.661176 
L 376.240909 306.33486 
L 378.119697 305.381571 
L 379.998485 301.993336 
L 381.877273 300.167249 
L 383.756061 296.878278 
L 385.634848 298.488278 
L 387.513636 295.47091 
L 389.392424 292.925455 
L 391.271212 293.415455 
L 393.15 289.088731 
L 395.028788 287.788731 
L 396.907576 284.836983 
L 398.786364 285.353906 
L 400.665152 281.495532 
L 402.543939 283.389938 
L 404.422727 282.952438 
L 406.301515 278.962438 
L 408.180303 281.242043 
L 410.059091 279.189771 
L 411.937879 273.771515 
L 413.816667 271.782041 
L 415.695455 268.797831 
L 417.574242 266.286066 
L 419.45303 267.645486 
L 421.331818 267.679726 
L 423.210606 263.543639 
L 425.089394 262.913639 
L 426.968182 263.159093 
L 430.725758 267.118317 
L 432.604545 267.980817 
L 434.483333 268.996202 
L 436.362121 267.909143 
L 438.240909 269.65988 
L 440.119697 266.796244 
L 441.998485 265.88759 
L 443.877273 269.54159 
L 445.756061 266.86409 
L 447.634848 267.866362 
L 449.513636 271.86048 
L 451.392424 270.622585 
L 453.271212 272.340767 
L 455.15 276.604404 
L 457.028788 275.87107 
L 458.907576 275.679331 
L 460.786364 277.870635 
L 462.665152 279.130635 
L 464.543939 282.130635 
L 466.422727 279.593135 
L 468.301515 278.333135 
L 470.180303 275.970635 
L 472.059091 274.841224 
L 473.937879 276.768282 
L 475.816667 275.017546 
L 477.695455 274.317546 
L 477.695455 274.317546 
" style="fill:none;stroke:#ee3377;stroke-dasharray:3.2,0.8,0.5,0.8;stroke-dashoffset:0;stroke-width:0.5;"/>
    <defs>
     <path d="M -1.25 2.5 
L 0 1.25 
L 1.25 2.5 
L 2.5 1.25 
L 1.25 0 
L 2.5 -1.25 
L 1.25 -2.5 
L 0 -1.25 
L -1.25 -2.5 
L -2.5 -1.25 
L -1.25 0 
L -2.5 1.25 
z
" id="med5a007aa4" style="stroke:#ee3377;stroke-linejoin:miter;"/>
    </defs>
    <g clip-path="url(#pbc4fe19ff3)">
     <use style="fill:#ee3377;stroke:#ee3377;stroke-linejoin:miter;" x="122.604545" xlink:href="#med5a007aa4" y="336.331813"/>
     <use style="fill:#ee3377;stroke:#ee3377;stroke-linejoin:miter;" x="141.392424" xlink:href="#med5a007aa4" y="329.227194"/>
     <use style="fill:#ee3377;stroke:#ee3377;stroke-linejoin:miter;" x="160.180303" xlink:href="#med5a007aa4" y="332.869155"/>
     <use style="fill:#ee3377;stroke:#ee3377;stroke-linejoin:miter;" x="178.968182" xlink:href="#med5a007aa4" y="343.144192"/>
     <use style="fill:#ee3377;stroke:#ee3377;stroke-linejoin:miter;" x="197.756061" xlink:href="#med5a007aa4" y="351.304372"/>
     <use style="fill:#ee3377;stroke:#ee3377;stroke-linejoin:miter;" x="216.543939" xlink:href="#med5a007aa4" y="350.264541"/>
     <use style="fill:#ee3377;stroke:#ee3377;stroke-linejoin:miter;" x="235.331818" xlink:href="#med5a007aa4" y="336.418302"/>
     <use style="fill:#ee3377;stroke:#ee3377;stroke-linejoin:miter;" x="254.119697" xlink:href="#med5a007aa4" y="322.257184"/>
     <use style="fill:#ee3377;stroke:#ee3377;stroke-linejoin:miter;" x="272.907576" xlink:href="#med5a007aa4" y="313.933397"/>
     <use style="fill:#ee3377;stroke:#ee3377;stroke-linejoin:miter;" x="291.695455" xlink:href="#med5a007aa4" y="316.4979"/>
     <use style="fill:#ee3377;stroke:#ee3377;stroke-linejoin:miter;" x="310.483333" xlink:href="#med5a007aa4" y="321.404822"/>
     <use style="fill:#ee3377;stroke:#ee3377;stroke-linejoin:miter;" x="329.271212" xlink:href="#med5a007aa4" y="312.185318"/>
     <use style="fill:#ee3377;stroke:#ee3377;stroke-linejoin:miter;" x="348.059091" xlink:href="#med5a007aa4" y="309.859196"/>
     <use style="fill:#ee3377;stroke:#ee3377;stroke-linejoin:miter;" x="366.84697" xlink:href="#med5a007aa4" y="307.922325"/>
     <use style="fill:#ee3377;stroke:#ee3377;stroke-linejoin:miter;" x="385.634848" xlink:href="#med5a007aa4" y="298.488278"/>
     <use style="fill:#ee3377;stroke:#ee3377;stroke-linejoin:miter;" x="404.422727" xlink:href="#med5a007aa4" y="282.952438"/>
     <use style="fill:#ee3377;stroke:#ee3377;stroke-linejoin:miter;" x="423.210606" xlink:href="#med5a007aa4" y="263.543639"/>
     <use style="fill:#ee3377;stroke:#ee3377;stroke-linejoin:miter;" x="441.998485" xlink:href="#med5a007aa4" y="265.88759"/>
     <use style="fill:#ee3377;stroke:#ee3377;stroke-linejoin:miter;" x="460.786364" xlink:href="#med5a007aa4" y="277.870635"/>
    </g>
   </g>
   <g id="line2d_41"/>
   <g id="line2d_42"/>
   <g id="line2d_43"/>
   <g id="line2d_44"/>
   <g id="patch_3">
    <path d="M 104.85 389.251813 
L 104.85 112.051813 
" style="fill:none;stroke:#000000;stroke-linecap:square;stroke-linejoin:miter;stroke-width:0.8;"/>
   </g>
   <g id="patch_4">
    <path d="M 495.45 389.251813 
L 495.45 112.051813 
" style="fill:none;stroke:#000000;stroke-linecap:square;stroke-linejoin:miter;stroke-width:0.8;"/>
   </g>
   <g id="patch_5">
    <path d="M 104.85 389.251812 
L 495.45 389.251812 
" style="fill:none;stroke:#000000;stroke-linecap:square;stroke-linejoin:miter;stroke-width:0.8;"/>
   </g>
   <g id="patch_6">
    <path d="M 104.85 112.051812 
L 495.45 112.051812 
" style="fill:none;stroke:#000000;stroke-linecap:square;stroke-linejoin:miter;stroke-width:0.8;"/>
   </g>
   <g id="legend_1">
    <g id="line2d_45"/>
    <g id="line2d_46"/>
    <g id="text_17">
     <!--   -->
     <g transform="translate(48.8 22.277969)scale(0.13 -0.13)">
      <use xlink:href="#DejaVuSans-32"/>
     </g>
    </g>
    <g id="line2d_47"/>
    <g id="line2d_48"/>
    <g id="text_18">
     <!-- start -->
     <g transform="translate(48.8 41.359531)scale(0.13 -0.13)">
      <use xlink:href="#DejaVuSans-115"/>
      <use x="52.099609" xlink:href="#DejaVuSans-116"/>
      <use x="91.308594" xlink:href="#DejaVuSans-97"/>
      <use x="152.587891" xlink:href="#DejaVuSans-114"/>
      <use x="193.701172" xlink:href="#DejaVuSans-116"/>
     </g>
    </g>
    <g id="line2d_49"/>
    <g id="line2d_50"/>
    <g id="text_19">
     <!-- pre-dirft -->
     <defs>
      <path d="M 4.890625 31.390625 
L 31.203125 31.390625 
L 31.203125 23.390625 
L 4.890625 23.390625 
z
" id="DejaVuSans-45"/>
     </defs>
     <g transform="translate(48.8 60.441094)scale(0.13 -0.13)">
      <use xlink:href="#DejaVuSans-112"/>
      <use x="63.476562" xlink:href="#DejaVuSans-114"/>
      <use x="104.558594" xlink:href="#DejaVuSans-101"/>
      <use x="166.082031" xlink:href="#DejaVuSans-45"/>
      <use x="202.166016" xlink:href="#DejaVuSans-100"/>
      <use x="265.642578" xlink:href="#DejaVuSans-105"/>
      <use x="293.425781" xlink:href="#DejaVuSans-114"/>
      <use x="334.539062" xlink:href="#DejaVuSans-102"/>
      <use x="369.728516" xlink:href="#DejaVuSans-116"/>
     </g>
    </g>
    <g id="line2d_51"/>
    <g id="line2d_52"/>
    <g id="text_20">
     <!-- post-drift -->
     <g transform="translate(48.8 79.522656)scale(0.13 -0.13)">
      <use xlink:href="#DejaVuSans-112"/>
      <use x="63.476562" xlink:href="#DejaVuSans-111"/>
      <use x="124.658203" xlink:href="#DejaVuSans-115"/>
      <use x="176.757812" xlink:href="#DejaVuSans-116"/>
      <use x="215.966797" xlink:href="#DejaVuSans-45"/>
      <use x="252.050781" xlink:href="#DejaVuSans-100"/>
      <use x="315.527344" xlink:href="#DejaVuSans-114"/>
      <use x="356.640625" xlink:href="#DejaVuSans-105"/>
      <use x="384.423828" xlink:href="#DejaVuSans-102"/>
      <use x="419.613281" xlink:href="#DejaVuSans-116"/>
     </g>
    </g>
    <g id="line2d_53"/>
    <g id="line2d_54"/>
    <g id="text_21">
     <!-- end -->
     <g transform="translate(48.8 98.604219)scale(0.13 -0.13)">
      <use xlink:href="#DejaVuSans-101"/>
      <use x="61.523438" xlink:href="#DejaVuSans-110"/>
      <use x="124.902344" xlink:href="#DejaVuSans-100"/>
     </g>
    </g>
    <g id="line2d_55">
     <path d="M 102.918688 17.727969 
L 128.918688 17.727969 
" style="fill:none;stroke:#cc3311;stroke-linecap:square;stroke-width:0.5;"/>
    </g>
    <g id="line2d_56">
     <g>
      <use style="fill:#cc3311;stroke:#cc3311;" x="115.918688" xlink:href="#m2f000c7fb7" y="17.727969"/>
     </g>
    </g>
    <g id="text_22">
     <!-- ESOS -->
     <defs>
      <path d="M 9.8125 72.90625 
L 55.90625 72.90625 
L 55.90625 64.59375 
L 19.671875 64.59375 
L 19.671875 43.015625 
L 54.390625 43.015625 
L 54.390625 34.71875 
L 19.671875 34.71875 
L 19.671875 8.296875 
L 56.78125 8.296875 
L 56.78125 0 
L 9.8125 0 
z
" id="DejaVuSans-69"/>
      <path d="M 53.515625 70.515625 
L 53.515625 60.890625 
Q 47.90625 63.578125 42.921875 64.890625 
Q 37.9375 66.21875 33.296875 66.21875 
Q 25.25 66.21875 20.875 63.09375 
Q 16.5 59.96875 16.5 54.203125 
Q 16.5 49.359375 19.40625 46.890625 
Q 22.3125 44.4375 30.421875 42.921875 
L 36.375 41.703125 
Q 47.40625 39.59375 52.65625 34.296875 
Q 57.90625 29 57.90625 20.125 
Q 57.90625 9.515625 50.796875 4.046875 
Q 43.703125 -1.421875 29.984375 -1.421875 
Q 24.8125 -1.421875 18.96875 -0.25 
Q 13.140625 0.921875 6.890625 3.21875 
L 6.890625 13.375 
Q 12.890625 10.015625 18.65625 8.296875 
Q 24.421875 6.59375 29.984375 6.59375 
Q 38.421875 6.59375 43.015625 9.90625 
Q 47.609375 13.234375 47.609375 19.390625 
Q 47.609375 24.75 44.3125 27.78125 
Q 41.015625 30.8125 33.5 32.328125 
L 27.484375 33.5 
Q 16.453125 35.6875 11.515625 40.375 
Q 6.59375 45.0625 6.59375 53.421875 
Q 6.59375 63.09375 13.40625 68.65625 
Q 20.21875 74.21875 32.171875 74.21875 
Q 37.3125 74.21875 42.625 73.28125 
Q 47.953125 72.359375 53.515625 70.515625 
z
" id="DejaVuSans-83"/>
      <path d="M 39.40625 66.21875 
Q 28.65625 66.21875 22.328125 58.203125 
Q 16.015625 50.203125 16.015625 36.375 
Q 16.015625 22.609375 22.328125 14.59375 
Q 28.65625 6.59375 39.40625 6.59375 
Q 50.140625 6.59375 56.421875 14.59375 
Q 62.703125 22.609375 62.703125 36.375 
Q 62.703125 50.203125 56.421875 58.203125 
Q 50.140625 66.21875 39.40625 66.21875 
z
M 39.40625 74.21875 
Q 54.734375 74.21875 63.90625 63.9375 
Q 73.09375 53.65625 73.09375 36.375 
Q 73.09375 19.140625 63.90625 8.859375 
Q 54.734375 -1.421875 39.40625 -1.421875 
Q 24.03125 -1.421875 14.8125 8.828125 
Q 5.609375 19.09375 5.609375 36.375 
Q 5.609375 53.65625 14.8125 63.9375 
Q 24.03125 74.21875 39.40625 74.21875 
z
" id="DejaVuSans-79"/>
     </defs>
     <g transform="translate(139.318688 22.277969)scale(0.13 -0.13)">
      <use xlink:href="#DejaVuSans-69"/>
      <use x="63.183594" xlink:href="#DejaVuSans-83"/>
      <use x="126.660156" xlink:href="#DejaVuSans-79"/>
      <use x="205.371094" xlink:href="#DejaVuSans-83"/>
     </g>
    </g>
    <g id="line2d_57"/>
    <g id="line2d_58"/>
    <g id="text_23">
     <!-- 0.9600 -->
     <defs>
      <path d="M 10.984375 1.515625 
L 10.984375 10.5 
Q 14.703125 8.734375 18.5 7.8125 
Q 22.3125 6.890625 25.984375 6.890625 
Q 35.75 6.890625 40.890625 13.453125 
Q 46.046875 20.015625 46.78125 33.40625 
Q 43.953125 29.203125 39.59375 26.953125 
Q 35.25 24.703125 29.984375 24.703125 
Q 19.046875 24.703125 12.671875 31.3125 
Q 6.296875 37.9375 6.296875 49.421875 
Q 6.296875 60.640625 12.9375 67.421875 
Q 19.578125 74.21875 30.609375 74.21875 
Q 43.265625 74.21875 49.921875 64.515625 
Q 56.59375 54.828125 56.59375 36.375 
Q 56.59375 19.140625 48.40625 8.859375 
Q 40.234375 -1.421875 26.421875 -1.421875 
Q 22.703125 -1.421875 18.890625 -0.6875 
Q 15.09375 0.046875 10.984375 1.515625 
z
M 30.609375 32.421875 
Q 37.25 32.421875 41.125 36.953125 
Q 45.015625 41.5 45.015625 49.421875 
Q 45.015625 57.28125 41.125 61.84375 
Q 37.25 66.40625 30.609375 66.40625 
Q 23.96875 66.40625 20.09375 61.84375 
Q 16.21875 57.28125 16.21875 49.421875 
Q 16.21875 41.5 20.09375 36.953125 
Q 23.96875 32.421875 30.609375 32.421875 
z
" id="DejaVuSans-57"/>
     </defs>
     <g transform="translate(139.318688 41.359531)scale(0.13 -0.13)">
      <use xlink:href="#DejaVuSans-48"/>
      <use x="63.623047" xlink:href="#DejaVuSans-46"/>
      <use x="95.410156" xlink:href="#DejaVuSans-57"/>
      <use x="159.033203" xlink:href="#DejaVuSans-54"/>
      <use x="222.65625" xlink:href="#DejaVuSans-48"/>
      <use x="286.279297" xlink:href="#DejaVuSans-48"/>
     </g>
    </g>
    <g id="line2d_59"/>
    <g id="line2d_60"/>
    <g id="text_24">
     <!-- 0.9787 -->
     <g transform="translate(139.318688 60.441094)scale(0.13 -0.13)">
      <use xlink:href="#DejaVuSans-48"/>
      <use x="63.623047" xlink:href="#DejaVuSans-46"/>
      <use x="95.410156" xlink:href="#DejaVuSans-57"/>
      <use x="159.033203" xlink:href="#DejaVuSans-55"/>
      <use x="222.65625" xlink:href="#DejaVuSans-56"/>
      <use x="286.279297" xlink:href="#DejaVuSans-55"/>
     </g>
    </g>
    <g id="line2d_61"/>
    <g id="line2d_62"/>
    <g id="text_25">
     <!-- 0.9637 -->
     <defs>
      <path d="M 40.578125 39.3125 
Q 47.65625 37.796875 51.625 33 
Q 55.609375 28.21875 55.609375 21.1875 
Q 55.609375 10.40625 48.1875 4.484375 
Q 40.765625 -1.421875 27.09375 -1.421875 
Q 22.515625 -1.421875 17.65625 -0.515625 
Q 12.796875 0.390625 7.625 2.203125 
L 7.625 11.71875 
Q 11.71875 9.328125 16.59375 8.109375 
Q 21.484375 6.890625 26.8125 6.890625 
Q 36.078125 6.890625 40.9375 10.546875 
Q 45.796875 14.203125 45.796875 21.1875 
Q 45.796875 27.640625 41.28125 31.265625 
Q 36.765625 34.90625 28.71875 34.90625 
L 20.21875 34.90625 
L 20.21875 43.015625 
L 29.109375 43.015625 
Q 36.375 43.015625 40.234375 45.921875 
Q 44.09375 48.828125 44.09375 54.296875 
Q 44.09375 59.90625 40.109375 62.90625 
Q 36.140625 65.921875 28.71875 65.921875 
Q 24.65625 65.921875 20.015625 65.03125 
Q 15.375 64.15625 9.8125 62.3125 
L 9.8125 71.09375 
Q 15.4375 72.65625 20.34375 73.4375 
Q 25.25 74.21875 29.59375 74.21875 
Q 40.828125 74.21875 47.359375 69.109375 
Q 53.90625 64.015625 53.90625 55.328125 
Q 53.90625 49.265625 50.4375 45.09375 
Q 46.96875 40.921875 40.578125 39.3125 
z
" id="DejaVuSans-51"/>
     </defs>
     <g transform="translate(139.318688 79.522656)scale(0.13 -0.13)">
      <use xlink:href="#DejaVuSans-48"/>
      <use x="63.623047" xlink:href="#DejaVuSans-46"/>
      <use x="95.410156" xlink:href="#DejaVuSans-57"/>
      <use x="159.033203" xlink:href="#DejaVuSans-54"/>
      <use x="222.65625" xlink:href="#DejaVuSans-51"/>
      <use x="286.279297" xlink:href="#DejaVuSans-55"/>
     </g>
    </g>
    <g id="line2d_63"/>
    <g id="line2d_64"/>
    <g id="text_26">
     <!-- 0.9570 -->
     <g transform="translate(139.318688 98.604219)scale(0.13 -0.13)">
      <use xlink:href="#DejaVuSans-48"/>
      <use x="63.623047" xlink:href="#DejaVuSans-46"/>
      <use x="95.410156" xlink:href="#DejaVuSans-57"/>
      <use x="159.033203" xlink:href="#DejaVuSans-53"/>
      <use x="222.65625" xlink:href="#DejaVuSans-55"/>
      <use x="286.279297" xlink:href="#DejaVuSans-48"/>
     </g>
    </g>
    <g id="line2d_65">
     <path d="M 179.279563 17.727969 
L 205.279563 17.727969 
" style="fill:none;stroke:#009988;stroke-dasharray:1.85,0.8;stroke-dashoffset:0;stroke-width:0.5;"/>
    </g>
    <g id="line2d_66">
     <g>
      <use style="fill:#009988;stroke:#009988;stroke-linejoin:miter;" x="192.279563" xlink:href="#m117f95556d" y="17.727969"/>
     </g>
    </g>
    <g id="text_27">
     <!-- OOB -->
     <defs>
      <path d="M 19.671875 34.8125 
L 19.671875 8.109375 
L 35.5 8.109375 
Q 43.453125 8.109375 47.28125 11.40625 
Q 51.125 14.703125 51.125 21.484375 
Q 51.125 28.328125 47.28125 31.5625 
Q 43.453125 34.8125 35.5 34.8125 
z
M 19.671875 64.796875 
L 19.671875 42.828125 
L 34.28125 42.828125 
Q 41.5 42.828125 45.03125 45.53125 
Q 48.578125 48.25 48.578125 53.8125 
Q 48.578125 59.328125 45.03125 62.0625 
Q 41.5 64.796875 34.28125 64.796875 
z
M 9.8125 72.90625 
L 35.015625 72.90625 
Q 46.296875 72.90625 52.390625 68.21875 
Q 58.5 63.53125 58.5 54.890625 
Q 58.5 48.1875 55.375 44.234375 
Q 52.25 40.28125 46.1875 39.3125 
Q 53.46875 37.75 57.5 32.78125 
Q 61.53125 27.828125 61.53125 20.40625 
Q 61.53125 10.640625 54.890625 5.3125 
Q 48.25 0 35.984375 0 
L 9.8125 0 
z
" id="DejaVuSans-66"/>
     </defs>
     <g transform="translate(215.679563 22.277969)scale(0.13 -0.13)">
      <use xlink:href="#DejaVuSans-79"/>
      <use x="78.710938" xlink:href="#DejaVuSans-79"/>
      <use x="157.421875" xlink:href="#DejaVuSans-66"/>
     </g>
    </g>
    <g id="line2d_67"/>
    <g id="line2d_68"/>
    <g id="text_28">
     <!-- 0.8000 -->
     <g transform="translate(215.679563 41.359531)scale(0.13 -0.13)">
      <use xlink:href="#DejaVuSans-48"/>
      <use x="63.623047" xlink:href="#DejaVuSans-46"/>
      <use x="95.410156" xlink:href="#DejaVuSans-56"/>
      <use x="159.033203" xlink:href="#DejaVuSans-48"/>
      <use x="222.65625" xlink:href="#DejaVuSans-48"/>
      <use x="286.279297" xlink:href="#DejaVuSans-48"/>
     </g>
    </g>
    <g id="line2d_69"/>
    <g id="line2d_70"/>
    <g id="text_29">
     <!-- 0.9548 -->
     <g transform="translate(215.679563 60.441094)scale(0.13 -0.13)">
      <use xlink:href="#DejaVuSans-48"/>
      <use x="63.623047" xlink:href="#DejaVuSans-46"/>
      <use x="95.410156" xlink:href="#DejaVuSans-57"/>
      <use x="159.033203" xlink:href="#DejaVuSans-53"/>
      <use x="222.65625" xlink:href="#DejaVuSans-52"/>
      <use x="286.279297" xlink:href="#DejaVuSans-56"/>
     </g>
    </g>
    <g id="line2d_71"/>
    <g id="line2d_72"/>
    <g id="text_30">
     <!-- 0.9469 -->
     <g transform="translate(215.679563 79.522656)scale(0.13 -0.13)">
      <use xlink:href="#DejaVuSans-48"/>
      <use x="63.623047" xlink:href="#DejaVuSans-46"/>
      <use x="95.410156" xlink:href="#DejaVuSans-57"/>
      <use x="159.033203" xlink:href="#DejaVuSans-52"/>
      <use x="222.65625" xlink:href="#DejaVuSans-54"/>
      <use x="286.279297" xlink:href="#DejaVuSans-57"/>
     </g>
    </g>
    <g id="line2d_73"/>
    <g id="line2d_74"/>
    <g id="text_31">
     <!-- 0.9651 -->
     <g transform="translate(215.679563 98.604219)scale(0.13 -0.13)">
      <use xlink:href="#DejaVuSans-48"/>
      <use x="63.623047" xlink:href="#DejaVuSans-46"/>
      <use x="95.410156" xlink:href="#DejaVuSans-57"/>
      <use x="159.033203" xlink:href="#DejaVuSans-54"/>
      <use x="222.65625" xlink:href="#DejaVuSans-53"/>
      <use x="286.279297" xlink:href="#DejaVuSans-49"/>
     </g>
    </g>
    <g id="line2d_75">
     <path d="M 255.640438 17.727969 
L 281.640438 17.727969 
" style="fill:none;stroke:#0077bb;stroke-dasharray:3.2,0.8,0.5,0.8;stroke-dashoffset:0;stroke-width:0.5;"/>
    </g>
    <g id="line2d_76">
     <g>
      <use style="fill:#0077bb;stroke:#0077bb;stroke-linejoin:miter;" x="268.640438" xlink:href="#ma1716b9687" y="17.727969"/>
     </g>
    </g>
    <g id="text_32">
     <!-- UOB -->
     <defs>
      <path d="M 8.6875 72.90625 
L 18.609375 72.90625 
L 18.609375 28.609375 
Q 18.609375 16.890625 22.84375 11.734375 
Q 27.09375 6.59375 36.625 6.59375 
Q 46.09375 6.59375 50.34375 11.734375 
Q 54.59375 16.890625 54.59375 28.609375 
L 54.59375 72.90625 
L 64.5 72.90625 
L 64.5 27.390625 
Q 64.5 13.140625 57.4375 5.859375 
Q 50.390625 -1.421875 36.625 -1.421875 
Q 22.796875 -1.421875 15.734375 5.859375 
Q 8.6875 13.140625 8.6875 27.390625 
z
" id="DejaVuSans-85"/>
     </defs>
     <g transform="translate(292.040438 22.277969)scale(0.13 -0.13)">
      <use xlink:href="#DejaVuSans-85"/>
      <use x="73.193359" xlink:href="#DejaVuSans-79"/>
      <use x="151.904297" xlink:href="#DejaVuSans-66"/>
     </g>
    </g>
    <g id="line2d_77"/>
    <g id="line2d_78"/>
    <g id="text_33">
     <!-- 1.0000 -->
     <g transform="translate(292.040438 41.359531)scale(0.13 -0.13)">
      <use xlink:href="#DejaVuSans-49"/>
      <use x="63.623047" xlink:href="#DejaVuSans-46"/>
      <use x="95.410156" xlink:href="#DejaVuSans-48"/>
      <use x="159.033203" xlink:href="#DejaVuSans-48"/>
      <use x="222.65625" xlink:href="#DejaVuSans-48"/>
      <use x="286.279297" xlink:href="#DejaVuSans-48"/>
     </g>
    </g>
    <g id="line2d_79"/>
    <g id="line2d_80"/>
    <g id="text_34">
     <!-- 1.0000 -->
     <g transform="translate(292.040438 60.441094)scale(0.13 -0.13)">
      <use xlink:href="#DejaVuSans-49"/>
      <use x="63.623047" xlink:href="#DejaVuSans-46"/>
      <use x="95.410156" xlink:href="#DejaVuSans-48"/>
      <use x="159.033203" xlink:href="#DejaVuSans-48"/>
      <use x="222.65625" xlink:href="#DejaVuSans-48"/>
      <use x="286.279297" xlink:href="#DejaVuSans-48"/>
     </g>
    </g>
    <g id="line2d_81"/>
    <g id="line2d_82"/>
    <g id="text_35">
     <!-- 0.9981 -->
     <g transform="translate(292.040438 79.522656)scale(0.13 -0.13)">
      <use xlink:href="#DejaVuSans-48"/>
      <use x="63.623047" xlink:href="#DejaVuSans-46"/>
      <use x="95.410156" xlink:href="#DejaVuSans-57"/>
      <use x="159.033203" xlink:href="#DejaVuSans-57"/>
      <use x="222.65625" xlink:href="#DejaVuSans-56"/>
      <use x="286.279297" xlink:href="#DejaVuSans-49"/>
     </g>
    </g>
    <g id="line2d_83"/>
    <g id="line2d_84"/>
    <g id="text_36">
     <!-- 1.0000 -->
     <g transform="translate(292.040438 98.604219)scale(0.13 -0.13)">
      <use xlink:href="#DejaVuSans-49"/>
      <use x="63.623047" xlink:href="#DejaVuSans-46"/>
      <use x="95.410156" xlink:href="#DejaVuSans-48"/>
      <use x="159.033203" xlink:href="#DejaVuSans-48"/>
      <use x="222.65625" xlink:href="#DejaVuSans-48"/>
      <use x="286.279297" xlink:href="#DejaVuSans-48"/>
     </g>
    </g>
    <g id="line2d_85">
     <path d="M 332.001313 17.727969 
L 358.001313 17.727969 
" style="fill:none;stroke:#ee7733;stroke-dasharray:0.5,0.825;stroke-dashoffset:0;stroke-width:0.5;"/>
    </g>
    <g id="line2d_86">
     <g>
      <use style="fill:#ee7733;stroke:#ee7733;stroke-linejoin:bevel;" x="345.001313" xlink:href="#mbcbc23f61f" y="17.727969"/>
     </g>
    </g>
    <g id="text_37">
     <!-- OB -->
     <g transform="translate(368.401313 22.277969)scale(0.13 -0.13)">
      <use xlink:href="#DejaVuSans-79"/>
      <use x="78.710938" xlink:href="#DejaVuSans-66"/>
     </g>
    </g>
    <g id="line2d_87"/>
    <g id="line2d_88"/>
    <g id="text_38">
     <!-- 0.0000 -->
     <g transform="translate(368.401313 41.359531)scale(0.13 -0.13)">
      <use xlink:href="#DejaVuSans-48"/>
      <use x="63.623047" xlink:href="#DejaVuSans-46"/>
      <use x="95.410156" xlink:href="#DejaVuSans-48"/>
      <use x="159.033203" xlink:href="#DejaVuSans-48"/>
      <use x="222.65625" xlink:href="#DejaVuSans-48"/>
      <use x="286.279297" xlink:href="#DejaVuSans-48"/>
     </g>
    </g>
    <g id="line2d_89"/>
    <g id="line2d_90"/>
    <g id="text_39">
     <!-- 0.1036 -->
     <g transform="translate(368.401313 60.441094)scale(0.13 -0.13)">
      <use xlink:href="#DejaVuSans-48"/>
      <use x="63.623047" xlink:href="#DejaVuSans-46"/>
      <use x="95.410156" xlink:href="#DejaVuSans-49"/>
      <use x="159.033203" xlink:href="#DejaVuSans-48"/>
      <use x="222.65625" xlink:href="#DejaVuSans-51"/>
      <use x="286.279297" xlink:href="#DejaVuSans-54"/>
     </g>
    </g>
    <g id="line2d_91"/>
    <g id="line2d_92"/>
    <g id="text_40">
     <!-- 0.2075 -->
     <g transform="translate(368.401313 79.522656)scale(0.13 -0.13)">
      <use xlink:href="#DejaVuSans-48"/>
      <use x="63.623047" xlink:href="#DejaVuSans-46"/>
      <use x="95.410156" xlink:href="#DejaVuSans-50"/>
      <use x="159.033203" xlink:href="#DejaVuSans-48"/>
      <use x="222.65625" xlink:href="#DejaVuSans-55"/>
      <use x="286.279297" xlink:href="#DejaVuSans-53"/>
     </g>
    </g>
    <g id="line2d_93"/>
    <g id="line2d_94"/>
    <g id="text_41">
     <!-- 0.4199 -->
     <g transform="translate(368.401313 98.604219)scale(0.13 -0.13)">
      <use xlink:href="#DejaVuSans-48"/>
      <use x="63.623047" xlink:href="#DejaVuSans-46"/>
      <use x="95.410156" xlink:href="#DejaVuSans-52"/>
      <use x="159.033203" xlink:href="#DejaVuSans-49"/>
      <use x="222.65625" xlink:href="#DejaVuSans-57"/>
      <use x="286.279297" xlink:href="#DejaVuSans-57"/>
     </g>
    </g>
    <g id="line2d_95">
     <path d="M 408.362188 17.727969 
L 434.362188 17.727969 
" style="fill:none;stroke:#ee3377;stroke-dasharray:3.2,0.8,0.5,0.8;stroke-dashoffset:0;stroke-width:0.5;"/>
    </g>
    <g id="line2d_96">
     <g>
      <use style="fill:#ee3377;stroke:#ee3377;stroke-linejoin:miter;" x="421.362188" xlink:href="#med5a007aa4" y="17.727969"/>
     </g>
    </g>
    <g id="text_42">
     <!-- VFDT -->
     <defs>
      <path d="M 28.609375 0 
L 0.78125 72.90625 
L 11.078125 72.90625 
L 34.1875 11.53125 
L 57.328125 72.90625 
L 67.578125 72.90625 
L 39.796875 0 
z
" id="DejaVuSans-86"/>
      <path d="M 9.8125 72.90625 
L 51.703125 72.90625 
L 51.703125 64.59375 
L 19.671875 64.59375 
L 19.671875 43.109375 
L 48.578125 43.109375 
L 48.578125 34.8125 
L 19.671875 34.8125 
L 19.671875 0 
L 9.8125 0 
z
" id="DejaVuSans-70"/>
      <path d="M 19.671875 64.796875 
L 19.671875 8.109375 
L 31.59375 8.109375 
Q 46.6875 8.109375 53.6875 14.9375 
Q 60.6875 21.78125 60.6875 36.53125 
Q 60.6875 51.171875 53.6875 57.984375 
Q 46.6875 64.796875 31.59375 64.796875 
z
M 9.8125 72.90625 
L 30.078125 72.90625 
Q 51.265625 72.90625 61.171875 64.09375 
Q 71.09375 55.28125 71.09375 36.53125 
Q 71.09375 17.671875 61.125 8.828125 
Q 51.171875 0 30.078125 0 
L 9.8125 0 
z
" id="DejaVuSans-68"/>
      <path d="M -0.296875 72.90625 
L 61.375 72.90625 
L 61.375 64.59375 
L 35.5 64.59375 
L 35.5 0 
L 25.59375 0 
L 25.59375 64.59375 
L -0.296875 64.59375 
z
" id="DejaVuSans-84"/>
     </defs>
     <g transform="translate(444.762188 22.277969)scale(0.13 -0.13)">
      <use xlink:href="#DejaVuSans-86"/>
      <use x="68.408203" xlink:href="#DejaVuSans-70"/>
      <use x="125.927734" xlink:href="#DejaVuSans-68"/>
      <use x="202.929688" xlink:href="#DejaVuSans-84"/>
     </g>
    </g>
    <g id="line2d_97"/>
    <g id="line2d_98"/>
    <g id="text_43">
     <!-- 0.1600 -->
     <g transform="translate(444.762188 41.359531)scale(0.13 -0.13)">
      <use xlink:href="#DejaVuSans-48"/>
      <use x="63.623047" xlink:href="#DejaVuSans-46"/>
      <use x="95.410156" xlink:href="#DejaVuSans-49"/>
      <use x="159.033203" xlink:href="#DejaVuSans-54"/>
      <use x="222.65625" xlink:href="#DejaVuSans-48"/>
      <use x="286.279297" xlink:href="#DejaVuSans-48"/>
     </g>
    </g>
    <g id="line2d_99"/>
    <g id="line2d_100"/>
    <g id="text_44">
     <!-- 0.1561 -->
     <g transform="translate(444.762188 60.441094)scale(0.13 -0.13)">
      <use xlink:href="#DejaVuSans-48"/>
      <use x="63.623047" xlink:href="#DejaVuSans-46"/>
      <use x="95.410156" xlink:href="#DejaVuSans-49"/>
      <use x="159.033203" xlink:href="#DejaVuSans-53"/>
      <use x="222.65625" xlink:href="#DejaVuSans-54"/>
      <use x="286.279297" xlink:href="#DejaVuSans-49"/>
     </g>
    </g>
    <g id="line2d_101"/>
    <g id="line2d_102"/>
    <g id="text_45">
     <!-- 0.2308 -->
     <g transform="translate(444.762188 79.522656)scale(0.13 -0.13)">
      <use xlink:href="#DejaVuSans-48"/>
      <use x="63.623047" xlink:href="#DejaVuSans-46"/>
      <use x="95.410156" xlink:href="#DejaVuSans-50"/>
      <use x="159.033203" xlink:href="#DejaVuSans-51"/>
      <use x="222.65625" xlink:href="#DejaVuSans-48"/>
      <use x="286.279297" xlink:href="#DejaVuSans-56"/>
     </g>
    </g>
    <g id="line2d_103"/>
    <g id="line2d_104"/>
    <g id="text_46">
     <!-- 0.4061 -->
     <g transform="translate(444.762188 98.604219)scale(0.13 -0.13)">
      <use xlink:href="#DejaVuSans-48"/>
      <use x="63.623047" xlink:href="#DejaVuSans-46"/>
      <use x="95.410156" xlink:href="#DejaVuSans-52"/>
      <use x="159.033203" xlink:href="#DejaVuSans-48"/>
      <use x="222.65625" xlink:href="#DejaVuSans-54"/>
      <use x="286.279297" xlink:href="#DejaVuSans-49"/>
     </g>
    </g>
   </g>
  </g>
 </g>
 <defs>
  <clipPath id="pbc4fe19ff3">
   <rect height="277.2" width="390.6" x="104.85" y="112.051812"/>
  </clipPath>
 </defs>
</svg>
