<?xml version="1.0" encoding="utf-8" standalone="no"?>
<!DOCTYPE svg PUBLIC "-//W3C//DTD SVG 1.1//EN"
  "http://www.w3.org/Graphics/SVG/1.1/DTD/svg11.dtd">
<!-- Created with matplotlib (https://matplotlib.org/) -->
<svg height="432.614937pt" version="1.1" viewBox="0 0 502.65 432.614937" width="502.65pt" xmlns="http://www.w3.org/2000/svg" xmlns:xlink="http://www.w3.org/1999/xlink">
 <defs>
  <style type="text/css">
*{stroke-linecap:butt;stroke-linejoin:round;white-space:pre;}
  </style>
 </defs>
 <g id="figure_1">
  <g id="patch_1">
   <path d="M 0 432.614937 
L 502.65 432.614937 
L 502.65 0 
L 0 0 
z
" style="fill:#ffffff;"/>
  </g>
  <g id="axes_1">
   <g id="patch_2">
    <path d="M 104.85 389.251812 
L 495.45 389.251812 
L 495.45 112.051812 
L 104.85 112.051812 
z
" style="fill:#ffffff;"/>
   </g>
   <g id="patch_3">
    <path clip-path="url(#p4ab47c8e6d)" d="M 289.816667 389.251812 
L 289.816667 112.051812 
L 233.45303 112.051812 
L 233.45303 389.251812 
z
" style="fill:#d3d3d3;opacity:0.5;"/>
   </g>
   <g id="matplotlib.axis_1">
    <g id="xtick_1">
     <g id="line2d_1">
      <defs>
       <path d="M 0 0 
L 0 3.5 
" id="m7c98260763" style="stroke:#000000;stroke-width:0.8;"/>
      </defs>
      <g>
       <use style="stroke:#000000;stroke-width:0.8;" x="148.907576" xlink:href="#m7c98260763" y="389.251812"/>
      </g>
     </g>
     <g id="text_1">
      <!-- 25 -->
      <defs>
       <path d="M 19.1875 8.296875 
L 53.609375 8.296875 
L 53.609375 0 
L 7.328125 0 
L 7.328125 8.296875 
Q 12.9375 14.109375 22.625 23.890625 
Q 32.328125 33.6875 34.8125 36.53125 
Q 39.546875 41.84375 41.421875 45.53125 
Q 43.3125 49.21875 43.3125 52.78125 
Q 43.3125 58.59375 39.234375 62.25 
Q 35.15625 65.921875 28.609375 65.921875 
Q 23.96875 65.921875 18.8125 64.3125 
Q 13.671875 62.703125 7.8125 59.421875 
L 7.8125 69.390625 
Q 13.765625 71.78125 18.9375 73 
Q 24.125 74.21875 28.421875 74.21875 
Q 39.75 74.21875 46.484375 68.546875 
Q 53.21875 62.890625 53.21875 53.421875 
Q 53.21875 48.921875 51.53125 44.890625 
Q 49.859375 40.875 45.40625 35.40625 
Q 44.1875 33.984375 37.640625 27.21875 
Q 31.109375 20.453125 19.1875 8.296875 
z
" id="DejaVuSans-50"/>
       <path d="M 10.796875 72.90625 
L 49.515625 72.90625 
L 49.515625 64.59375 
L 19.828125 64.59375 
L 19.828125 46.734375 
Q 21.96875 47.46875 24.109375 47.828125 
Q 26.265625 48.1875 28.421875 48.1875 
Q 40.625 48.1875 47.75 41.5 
Q 54.890625 34.8125 54.890625 23.390625 
Q 54.890625 11.625 47.5625 5.09375 
Q 40.234375 -1.421875 26.90625 -1.421875 
Q 22.3125 -1.421875 17.546875 -0.640625 
Q 12.796875 0.140625 7.71875 1.703125 
L 7.71875 11.625 
Q 12.109375 9.234375 16.796875 8.0625 
Q 21.484375 6.890625 26.703125 6.890625 
Q 35.15625 6.890625 40.078125 11.328125 
Q 45.015625 15.765625 45.015625 23.390625 
Q 45.015625 31 40.078125 35.4375 
Q 35.15625 39.890625 26.703125 39.890625 
Q 22.75 39.890625 18.8125 39.015625 
Q 14.890625 38.140625 10.796875 36.28125 
z
" id="DejaVuSans-53"/>
      </defs>
      <g transform="translate(140.636326 406.129781)scale(0.13 -0.13)">
       <use xlink:href="#DejaVuSans-50"/>
       <use x="63.623047" xlink:href="#DejaVuSans-53"/>
      </g>
     </g>
    </g>
    <g id="xtick_2">
     <g id="line2d_2">
      <g>
       <use style="stroke:#000000;stroke-width:0.8;" x="195.877273" xlink:href="#m7c98260763" y="389.251812"/>
      </g>
     </g>
     <g id="text_2">
      <!-- 50 -->
      <defs>
       <path d="M 31.78125 66.40625 
Q 24.171875 66.40625 20.328125 58.90625 
Q 16.5 51.421875 16.5 36.375 
Q 16.5 21.390625 20.328125 13.890625 
Q 24.171875 6.390625 31.78125 6.390625 
Q 39.453125 6.390625 43.28125 13.890625 
Q 47.125 21.390625 47.125 36.375 
Q 47.125 51.421875 43.28125 58.90625 
Q 39.453125 66.40625 31.78125 66.40625 
z
M 31.78125 74.21875 
Q 44.046875 74.21875 50.515625 64.515625 
Q 56.984375 54.828125 56.984375 36.375 
Q 56.984375 17.96875 50.515625 8.265625 
Q 44.046875 -1.421875 31.78125 -1.421875 
Q 19.53125 -1.421875 13.0625 8.265625 
Q 6.59375 17.96875 6.59375 36.375 
Q 6.59375 54.828125 13.0625 64.515625 
Q 19.53125 74.21875 31.78125 74.21875 
z
" id="DejaVuSans-48"/>
      </defs>
      <g transform="translate(187.606023 406.129781)scale(0.13 -0.13)">
       <use xlink:href="#DejaVuSans-53"/>
       <use x="63.623047" xlink:href="#DejaVuSans-48"/>
      </g>
     </g>
    </g>
    <g id="xtick_3">
     <g id="line2d_3">
      <g>
       <use style="stroke:#000000;stroke-width:0.8;" x="242.84697" xlink:href="#m7c98260763" y="389.251812"/>
      </g>
     </g>
     <g id="text_3">
      <!-- 75 -->
      <defs>
       <path d="M 8.203125 72.90625 
L 55.078125 72.90625 
L 55.078125 68.703125 
L 28.609375 0 
L 18.3125 0 
L 43.21875 64.59375 
L 8.203125 64.59375 
z
" id="DejaVuSans-55"/>
      </defs>
      <g transform="translate(234.57572 406.129781)scale(0.13 -0.13)">
       <use xlink:href="#DejaVuSans-55"/>
       <use x="63.623047" xlink:href="#DejaVuSans-53"/>
      </g>
     </g>
    </g>
    <g id="xtick_4">
     <g id="line2d_4">
      <g>
       <use style="stroke:#000000;stroke-width:0.8;" x="289.816667" xlink:href="#m7c98260763" y="389.251812"/>
      </g>
     </g>
     <g id="text_4">
      <!-- 100 -->
      <defs>
       <path d="M 12.40625 8.296875 
L 28.515625 8.296875 
L 28.515625 63.921875 
L 10.984375 60.40625 
L 10.984375 69.390625 
L 28.421875 72.90625 
L 38.28125 72.90625 
L 38.28125 8.296875 
L 54.390625 8.296875 
L 54.390625 0 
L 12.40625 0 
z
" id="DejaVuSans-49"/>
      </defs>
      <g transform="translate(277.409792 406.129781)scale(0.13 -0.13)">
       <use xlink:href="#DejaVuSans-49"/>
       <use x="63.623047" xlink:href="#DejaVuSans-48"/>
       <use x="127.246094" xlink:href="#DejaVuSans-48"/>
      </g>
     </g>
    </g>
    <g id="xtick_5">
     <g id="line2d_5">
      <g>
       <use style="stroke:#000000;stroke-width:0.8;" x="336.786364" xlink:href="#m7c98260763" y="389.251812"/>
      </g>
     </g>
     <g id="text_5">
      <!-- 125 -->
      <g transform="translate(324.379489 406.129781)scale(0.13 -0.13)">
       <use xlink:href="#DejaVuSans-49"/>
       <use x="63.623047" xlink:href="#DejaVuSans-50"/>
       <use x="127.246094" xlink:href="#DejaVuSans-53"/>
      </g>
     </g>
    </g>
    <g id="xtick_6">
     <g id="line2d_6">
      <g>
       <use style="stroke:#000000;stroke-width:0.8;" x="383.756061" xlink:href="#m7c98260763" y="389.251812"/>
      </g>
     </g>
     <g id="text_6">
      <!-- 150 -->
      <g transform="translate(371.349186 406.129781)scale(0.13 -0.13)">
       <use xlink:href="#DejaVuSans-49"/>
       <use x="63.623047" xlink:href="#DejaVuSans-53"/>
       <use x="127.246094" xlink:href="#DejaVuSans-48"/>
      </g>
     </g>
    </g>
    <g id="xtick_7">
     <g id="line2d_7">
      <g>
       <use style="stroke:#000000;stroke-width:0.8;" x="430.725758" xlink:href="#m7c98260763" y="389.251812"/>
      </g>
     </g>
     <g id="text_7">
      <!-- 175 -->
      <g transform="translate(418.318883 406.129781)scale(0.13 -0.13)">
       <use xlink:href="#DejaVuSans-49"/>
       <use x="63.623047" xlink:href="#DejaVuSans-55"/>
       <use x="127.246094" xlink:href="#DejaVuSans-53"/>
      </g>
     </g>
    </g>
    <g id="xtick_8">
     <g id="line2d_8">
      <g>
       <use style="stroke:#000000;stroke-width:0.8;" x="477.695455" xlink:href="#m7c98260763" y="389.251812"/>
      </g>
     </g>
     <g id="text_8">
      <!-- 200 -->
      <g transform="translate(465.28858 406.129781)scale(0.13 -0.13)">
       <use xlink:href="#DejaVuSans-50"/>
       <use x="63.623047" xlink:href="#DejaVuSans-48"/>
       <use x="127.246094" xlink:href="#DejaVuSans-48"/>
      </g>
     </g>
    </g>
    <g id="text_9">
     <!-- Number of processed instances [x1000] -->
     <defs>
      <path d="M 9.8125 72.90625 
L 23.09375 72.90625 
L 55.421875 11.921875 
L 55.421875 72.90625 
L 64.984375 72.90625 
L 64.984375 0 
L 51.703125 0 
L 19.390625 60.984375 
L 19.390625 0 
L 9.8125 0 
z
" id="DejaVuSans-78"/>
      <path d="M 8.5 21.578125 
L 8.5 54.6875 
L 17.484375 54.6875 
L 17.484375 21.921875 
Q 17.484375 14.15625 20.5 10.265625 
Q 23.53125 6.390625 29.59375 6.390625 
Q 36.859375 6.390625 41.078125 11.03125 
Q 45.3125 15.671875 45.3125 23.6875 
L 45.3125 54.6875 
L 54.296875 54.6875 
L 54.296875 0 
L 45.3125 0 
L 45.3125 8.40625 
Q 42.046875 3.421875 37.71875 1 
Q 33.40625 -1.421875 27.6875 -1.421875 
Q 18.265625 -1.421875 13.375 4.4375 
Q 8.5 10.296875 8.5 21.578125 
z
M 31.109375 56 
z
" id="DejaVuSans-117"/>
      <path d="M 52 44.1875 
Q 55.375 50.25 60.0625 53.125 
Q 64.75 56 71.09375 56 
Q 79.640625 56 84.28125 50.015625 
Q 88.921875 44.046875 88.921875 33.015625 
L 88.921875 0 
L 79.890625 0 
L 79.890625 32.71875 
Q 79.890625 40.578125 77.09375 44.375 
Q 74.3125 48.1875 68.609375 48.1875 
Q 61.625 48.1875 57.5625 43.546875 
Q 53.515625 38.921875 53.515625 30.90625 
L 53.515625 0 
L 44.484375 0 
L 44.484375 32.71875 
Q 44.484375 40.625 41.703125 44.40625 
Q 38.921875 48.1875 33.109375 48.1875 
Q 26.21875 48.1875 22.15625 43.53125 
Q 18.109375 38.875 18.109375 30.90625 
L 18.109375 0 
L 9.078125 0 
L 9.078125 54.6875 
L 18.109375 54.6875 
L 18.109375 46.1875 
Q 21.1875 51.21875 25.484375 53.609375 
Q 29.78125 56 35.6875 56 
Q 41.65625 56 45.828125 52.96875 
Q 50 49.953125 52 44.1875 
z
" id="DejaVuSans-109"/>
      <path d="M 48.6875 27.296875 
Q 48.6875 37.203125 44.609375 42.84375 
Q 40.53125 48.484375 33.40625 48.484375 
Q 26.265625 48.484375 22.1875 42.84375 
Q 18.109375 37.203125 18.109375 27.296875 
Q 18.109375 17.390625 22.1875 11.75 
Q 26.265625 6.109375 33.40625 6.109375 
Q 40.53125 6.109375 44.609375 11.75 
Q 48.6875 17.390625 48.6875 27.296875 
z
M 18.109375 46.390625 
Q 20.953125 51.265625 25.265625 53.625 
Q 29.59375 56 35.59375 56 
Q 45.5625 56 51.78125 48.09375 
Q 58.015625 40.1875 58.015625 27.296875 
Q 58.015625 14.40625 51.78125 6.484375 
Q 45.5625 -1.421875 35.59375 -1.421875 
Q 29.59375 -1.421875 25.265625 0.953125 
Q 20.953125 3.328125 18.109375 8.203125 
L 18.109375 0 
L 9.078125 0 
L 9.078125 75.984375 
L 18.109375 75.984375 
z
" id="DejaVuSans-98"/>
      <path d="M 56.203125 29.59375 
L 56.203125 25.203125 
L 14.890625 25.203125 
Q 15.484375 15.921875 20.484375 11.0625 
Q 25.484375 6.203125 34.421875 6.203125 
Q 39.59375 6.203125 44.453125 7.46875 
Q 49.3125 8.734375 54.109375 11.28125 
L 54.109375 2.78125 
Q 49.265625 0.734375 44.1875 -0.34375 
Q 39.109375 -1.421875 33.890625 -1.421875 
Q 20.796875 -1.421875 13.15625 6.1875 
Q 5.515625 13.8125 5.515625 26.8125 
Q 5.515625 40.234375 12.765625 48.109375 
Q 20.015625 56 32.328125 56 
Q 43.359375 56 49.78125 48.890625 
Q 56.203125 41.796875 56.203125 29.59375 
z
M 47.21875 32.234375 
Q 47.125 39.59375 43.09375 43.984375 
Q 39.0625 48.390625 32.421875 48.390625 
Q 24.90625 48.390625 20.390625 44.140625 
Q 15.875 39.890625 15.1875 32.171875 
z
" id="DejaVuSans-101"/>
      <path d="M 41.109375 46.296875 
Q 39.59375 47.171875 37.8125 47.578125 
Q 36.03125 48 33.890625 48 
Q 26.265625 48 22.1875 43.046875 
Q 18.109375 38.09375 18.109375 28.8125 
L 18.109375 0 
L 9.078125 0 
L 9.078125 54.6875 
L 18.109375 54.6875 
L 18.109375 46.1875 
Q 20.953125 51.171875 25.484375 53.578125 
Q 30.03125 56 36.53125 56 
Q 37.453125 56 38.578125 55.875 
Q 39.703125 55.765625 41.0625 55.515625 
z
" id="DejaVuSans-114"/>
      <path id="DejaVuSans-32"/>
      <path d="M 30.609375 48.390625 
Q 23.390625 48.390625 19.1875 42.75 
Q 14.984375 37.109375 14.984375 27.296875 
Q 14.984375 17.484375 19.15625 11.84375 
Q 23.34375 6.203125 30.609375 6.203125 
Q 37.796875 6.203125 41.984375 11.859375 
Q 46.1875 17.53125 46.1875 27.296875 
Q 46.1875 37.015625 41.984375 42.703125 
Q 37.796875 48.390625 30.609375 48.390625 
z
M 30.609375 56 
Q 42.328125 56 49.015625 48.375 
Q 55.71875 40.765625 55.71875 27.296875 
Q 55.71875 13.875 49.015625 6.21875 
Q 42.328125 -1.421875 30.609375 -1.421875 
Q 18.84375 -1.421875 12.171875 6.21875 
Q 5.515625 13.875 5.515625 27.296875 
Q 5.515625 40.765625 12.171875 48.375 
Q 18.84375 56 30.609375 56 
z
" id="DejaVuSans-111"/>
      <path d="M 37.109375 75.984375 
L 37.109375 68.5 
L 28.515625 68.5 
Q 23.6875 68.5 21.796875 66.546875 
Q 19.921875 64.59375 19.921875 59.515625 
L 19.921875 54.6875 
L 34.71875 54.6875 
L 34.71875 47.703125 
L 19.921875 47.703125 
L 19.921875 0 
L 10.890625 0 
L 10.890625 47.703125 
L 2.296875 47.703125 
L 2.296875 54.6875 
L 10.890625 54.6875 
L 10.890625 58.5 
Q 10.890625 67.625 15.140625 71.796875 
Q 19.390625 75.984375 28.609375 75.984375 
z
" id="DejaVuSans-102"/>
      <path d="M 18.109375 8.203125 
L 18.109375 -20.796875 
L 9.078125 -20.796875 
L 9.078125 54.6875 
L 18.109375 54.6875 
L 18.109375 46.390625 
Q 20.953125 51.265625 25.265625 53.625 
Q 29.59375 56 35.59375 56 
Q 45.5625 56 51.78125 48.09375 
Q 58.015625 40.1875 58.015625 27.296875 
Q 58.015625 14.40625 51.78125 6.484375 
Q 45.5625 -1.421875 35.59375 -1.421875 
Q 29.59375 -1.421875 25.265625 0.953125 
Q 20.953125 3.328125 18.109375 8.203125 
z
M 48.6875 27.296875 
Q 48.6875 37.203125 44.609375 42.84375 
Q 40.53125 48.484375 33.40625 48.484375 
Q 26.265625 48.484375 22.1875 42.84375 
Q 18.109375 37.203125 18.109375 27.296875 
Q 18.109375 17.390625 22.1875 11.75 
Q 26.265625 6.109375 33.40625 6.109375 
Q 40.53125 6.109375 44.609375 11.75 
Q 48.6875 17.390625 48.6875 27.296875 
z
" id="DejaVuSans-112"/>
      <path d="M 48.78125 52.59375 
L 48.78125 44.1875 
Q 44.96875 46.296875 41.140625 47.34375 
Q 37.3125 48.390625 33.40625 48.390625 
Q 24.65625 48.390625 19.8125 42.84375 
Q 14.984375 37.3125 14.984375 27.296875 
Q 14.984375 17.28125 19.8125 11.734375 
Q 24.65625 6.203125 33.40625 6.203125 
Q 37.3125 6.203125 41.140625 7.25 
Q 44.96875 8.296875 48.78125 10.40625 
L 48.78125 2.09375 
Q 45.015625 0.34375 40.984375 -0.53125 
Q 36.96875 -1.421875 32.421875 -1.421875 
Q 20.0625 -1.421875 12.78125 6.34375 
Q 5.515625 14.109375 5.515625 27.296875 
Q 5.515625 40.671875 12.859375 48.328125 
Q 20.21875 56 33.015625 56 
Q 37.15625 56 41.109375 55.140625 
Q 45.0625 54.296875 48.78125 52.59375 
z
" id="DejaVuSans-99"/>
      <path d="M 44.28125 53.078125 
L 44.28125 44.578125 
Q 40.484375 46.53125 36.375 47.5 
Q 32.28125 48.484375 27.875 48.484375 
Q 21.1875 48.484375 17.84375 46.4375 
Q 14.5 44.390625 14.5 40.28125 
Q 14.5 37.15625 16.890625 35.375 
Q 19.28125 33.59375 26.515625 31.984375 
L 29.59375 31.296875 
Q 39.15625 29.25 43.1875 25.515625 
Q 47.21875 21.78125 47.21875 15.09375 
Q 47.21875 7.46875 41.1875 3.015625 
Q 35.15625 -1.421875 24.609375 -1.421875 
Q 20.21875 -1.421875 15.453125 -0.5625 
Q 10.6875 0.296875 5.421875 2 
L 5.421875 11.28125 
Q 10.40625 8.6875 15.234375 7.390625 
Q 20.0625 6.109375 24.8125 6.109375 
Q 31.15625 6.109375 34.5625 8.28125 
Q 37.984375 10.453125 37.984375 14.40625 
Q 37.984375 18.0625 35.515625 20.015625 
Q 33.0625 21.96875 24.703125 23.78125 
L 21.578125 24.515625 
Q 13.234375 26.265625 9.515625 29.90625 
Q 5.8125 33.546875 5.8125 39.890625 
Q 5.8125 47.609375 11.28125 51.796875 
Q 16.75 56 26.8125 56 
Q 31.78125 56 36.171875 55.265625 
Q 40.578125 54.546875 44.28125 53.078125 
z
" id="DejaVuSans-115"/>
      <path d="M 45.40625 46.390625 
L 45.40625 75.984375 
L 54.390625 75.984375 
L 54.390625 0 
L 45.40625 0 
L 45.40625 8.203125 
Q 42.578125 3.328125 38.25 0.953125 
Q 33.9375 -1.421875 27.875 -1.421875 
Q 17.96875 -1.421875 11.734375 6.484375 
Q 5.515625 14.40625 5.515625 27.296875 
Q 5.515625 40.1875 11.734375 48.09375 
Q 17.96875 56 27.875 56 
Q 33.9375 56 38.25 53.625 
Q 42.578125 51.265625 45.40625 46.390625 
z
M 14.796875 27.296875 
Q 14.796875 17.390625 18.875 11.75 
Q 22.953125 6.109375 30.078125 6.109375 
Q 37.203125 6.109375 41.296875 11.75 
Q 45.40625 17.390625 45.40625 27.296875 
Q 45.40625 37.203125 41.296875 42.84375 
Q 37.203125 48.484375 30.078125 48.484375 
Q 22.953125 48.484375 18.875 42.84375 
Q 14.796875 37.203125 14.796875 27.296875 
z
" id="DejaVuSans-100"/>
      <path d="M 9.421875 54.6875 
L 18.40625 54.6875 
L 18.40625 0 
L 9.421875 0 
z
M 9.421875 75.984375 
L 18.40625 75.984375 
L 18.40625 64.59375 
L 9.421875 64.59375 
z
" id="DejaVuSans-105"/>
      <path d="M 54.890625 33.015625 
L 54.890625 0 
L 45.90625 0 
L 45.90625 32.71875 
Q 45.90625 40.484375 42.875 44.328125 
Q 39.84375 48.1875 33.796875 48.1875 
Q 26.515625 48.1875 22.3125 43.546875 
Q 18.109375 38.921875 18.109375 30.90625 
L 18.109375 0 
L 9.078125 0 
L 9.078125 54.6875 
L 18.109375 54.6875 
L 18.109375 46.1875 
Q 21.34375 51.125 25.703125 53.5625 
Q 30.078125 56 35.796875 56 
Q 45.21875 56 50.046875 50.171875 
Q 54.890625 44.34375 54.890625 33.015625 
z
" id="DejaVuSans-110"/>
      <path d="M 18.3125 70.21875 
L 18.3125 54.6875 
L 36.8125 54.6875 
L 36.8125 47.703125 
L 18.3125 47.703125 
L 18.3125 18.015625 
Q 18.3125 11.328125 20.140625 9.421875 
Q 21.96875 7.515625 27.59375 7.515625 
L 36.8125 7.515625 
L 36.8125 0 
L 27.59375 0 
Q 17.1875 0 13.234375 3.875 
Q 9.28125 7.765625 9.28125 18.015625 
L 9.28125 47.703125 
L 2.6875 47.703125 
L 2.6875 54.6875 
L 9.28125 54.6875 
L 9.28125 70.21875 
z
" id="DejaVuSans-116"/>
      <path d="M 34.28125 27.484375 
Q 23.390625 27.484375 19.1875 25 
Q 14.984375 22.515625 14.984375 16.5 
Q 14.984375 11.71875 18.140625 8.90625 
Q 21.296875 6.109375 26.703125 6.109375 
Q 34.1875 6.109375 38.703125 11.40625 
Q 43.21875 16.703125 43.21875 25.484375 
L 43.21875 27.484375 
z
M 52.203125 31.203125 
L 52.203125 0 
L 43.21875 0 
L 43.21875 8.296875 
Q 40.140625 3.328125 35.546875 0.953125 
Q 30.953125 -1.421875 24.3125 -1.421875 
Q 15.921875 -1.421875 10.953125 3.296875 
Q 6 8.015625 6 15.921875 
Q 6 25.140625 12.171875 29.828125 
Q 18.359375 34.515625 30.609375 34.515625 
L 43.21875 34.515625 
L 43.21875 35.40625 
Q 43.21875 41.609375 39.140625 45 
Q 35.0625 48.390625 27.6875 48.390625 
Q 23 48.390625 18.546875 47.265625 
Q 14.109375 46.140625 10.015625 43.890625 
L 10.015625 52.203125 
Q 14.9375 54.109375 19.578125 55.046875 
Q 24.21875 56 28.609375 56 
Q 40.484375 56 46.34375 49.84375 
Q 52.203125 43.703125 52.203125 31.203125 
z
" id="DejaVuSans-97"/>
      <path d="M 8.59375 75.984375 
L 29.296875 75.984375 
L 29.296875 69 
L 17.578125 69 
L 17.578125 -6.203125 
L 29.296875 -6.203125 
L 29.296875 -13.1875 
L 8.59375 -13.1875 
z
" id="DejaVuSans-91"/>
      <path d="M 54.890625 54.6875 
L 35.109375 28.078125 
L 55.90625 0 
L 45.3125 0 
L 29.390625 21.484375 
L 13.484375 0 
L 2.875 0 
L 24.125 28.609375 
L 4.6875 54.6875 
L 15.28125 54.6875 
L 29.78125 35.203125 
L 44.28125 54.6875 
z
" id="DejaVuSans-120"/>
      <path d="M 30.421875 75.984375 
L 30.421875 -13.1875 
L 9.71875 -13.1875 
L 9.71875 -6.203125 
L 21.390625 -6.203125 
L 21.390625 69 
L 9.71875 69 
L 9.71875 75.984375 
z
" id="DejaVuSans-93"/>
     </defs>
     <g transform="translate(169.880859 422.711344)scale(0.13 -0.13)">
      <use xlink:href="#DejaVuSans-78"/>
      <use x="74.804688" xlink:href="#DejaVuSans-117"/>
      <use x="138.183594" xlink:href="#DejaVuSans-109"/>
      <use x="235.595703" xlink:href="#DejaVuSans-98"/>
      <use x="299.072266" xlink:href="#DejaVuSans-101"/>
      <use x="360.595703" xlink:href="#DejaVuSans-114"/>
      <use x="401.708984" xlink:href="#DejaVuSans-32"/>
      <use x="433.496094" xlink:href="#DejaVuSans-111"/>
      <use x="494.677734" xlink:href="#DejaVuSans-102"/>
      <use x="529.882812" xlink:href="#DejaVuSans-32"/>
      <use x="561.669922" xlink:href="#DejaVuSans-112"/>
      <use x="625.146484" xlink:href="#DejaVuSans-114"/>
      <use x="666.228516" xlink:href="#DejaVuSans-111"/>
      <use x="727.410156" xlink:href="#DejaVuSans-99"/>
      <use x="782.390625" xlink:href="#DejaVuSans-101"/>
      <use x="843.914062" xlink:href="#DejaVuSans-115"/>
      <use x="896.013672" xlink:href="#DejaVuSans-115"/>
      <use x="948.113281" xlink:href="#DejaVuSans-101"/>
      <use x="1009.636719" xlink:href="#DejaVuSans-100"/>
      <use x="1073.113281" xlink:href="#DejaVuSans-32"/>
      <use x="1104.900391" xlink:href="#DejaVuSans-105"/>
      <use x="1132.683594" xlink:href="#DejaVuSans-110"/>
      <use x="1196.0625" xlink:href="#DejaVuSans-115"/>
      <use x="1248.162109" xlink:href="#DejaVuSans-116"/>
      <use x="1287.371094" xlink:href="#DejaVuSans-97"/>
      <use x="1348.650391" xlink:href="#DejaVuSans-110"/>
      <use x="1412.029297" xlink:href="#DejaVuSans-99"/>
      <use x="1467.009766" xlink:href="#DejaVuSans-101"/>
      <use x="1528.533203" xlink:href="#DejaVuSans-115"/>
      <use x="1580.632812" xlink:href="#DejaVuSans-32"/>
      <use x="1612.419922" xlink:href="#DejaVuSans-91"/>
      <use x="1651.433594" xlink:href="#DejaVuSans-120"/>
      <use x="1710.613281" xlink:href="#DejaVuSans-49"/>
      <use x="1774.236328" xlink:href="#DejaVuSans-48"/>
      <use x="1837.859375" xlink:href="#DejaVuSans-48"/>
      <use x="1901.482422" xlink:href="#DejaVuSans-48"/>
      <use x="1965.105469" xlink:href="#DejaVuSans-93"/>
     </g>
    </g>
   </g>
   <g id="matplotlib.axis_2">
    <g id="ytick_1">
     <g id="line2d_9">
      <defs>
       <path d="M 0 0 
L -3.5 0 
" id="m3ee976ebbf" style="stroke:#000000;stroke-width:0.8;"/>
      </defs>
      <g>
       <use style="stroke:#000000;stroke-width:0.8;" x="104.85" xlink:href="#m3ee976ebbf" y="376.341284"/>
      </g>
     </g>
     <g id="text_10">
      <!-- 0.3 -->
      <defs>
       <path d="M 10.6875 12.40625 
L 21 12.40625 
L 21 0 
L 10.6875 0 
z
" id="DejaVuSans-46"/>
       <path d="M 40.578125 39.3125 
Q 47.65625 37.796875 51.625 33 
Q 55.609375 28.21875 55.609375 21.1875 
Q 55.609375 10.40625 48.1875 4.484375 
Q 40.765625 -1.421875 27.09375 -1.421875 
Q 22.515625 -1.421875 17.65625 -0.515625 
Q 12.796875 0.390625 7.625 2.203125 
L 7.625 11.71875 
Q 11.71875 9.328125 16.59375 8.109375 
Q 21.484375 6.890625 26.8125 6.890625 
Q 36.078125 6.890625 40.9375 10.546875 
Q 45.796875 14.203125 45.796875 21.1875 
Q 45.796875 27.640625 41.28125 31.265625 
Q 36.765625 34.90625 28.71875 34.90625 
L 20.21875 34.90625 
L 20.21875 43.015625 
L 29.109375 43.015625 
Q 36.375 43.015625 40.234375 45.921875 
Q 44.09375 48.828125 44.09375 54.296875 
Q 44.09375 59.90625 40.109375 62.90625 
Q 36.140625 65.921875 28.71875 65.921875 
Q 24.65625 65.921875 20.015625 65.03125 
Q 15.375 64.15625 9.8125 62.3125 
L 9.8125 71.09375 
Q 15.4375 72.65625 20.34375 73.4375 
Q 25.25 74.21875 29.59375 74.21875 
Q 40.828125 74.21875 47.359375 69.109375 
Q 53.90625 64.015625 53.90625 55.328125 
Q 53.90625 49.265625 50.4375 45.09375 
Q 46.96875 40.921875 40.578125 39.3125 
z
" id="DejaVuSans-51"/>
      </defs>
      <g transform="translate(77.175937 381.280269)scale(0.13 -0.13)">
       <use xlink:href="#DejaVuSans-48"/>
       <use x="63.623047" xlink:href="#DejaVuSans-46"/>
       <use x="95.410156" xlink:href="#DejaVuSans-51"/>
      </g>
     </g>
    </g>
    <g id="ytick_2">
     <g id="line2d_10">
      <g>
       <use style="stroke:#000000;stroke-width:0.8;" x="104.85" xlink:href="#m3ee976ebbf" y="340.385646"/>
      </g>
     </g>
     <g id="text_11">
      <!-- 0.4 -->
      <defs>
       <path d="M 37.796875 64.3125 
L 12.890625 25.390625 
L 37.796875 25.390625 
z
M 35.203125 72.90625 
L 47.609375 72.90625 
L 47.609375 25.390625 
L 58.015625 25.390625 
L 58.015625 17.1875 
L 47.609375 17.1875 
L 47.609375 0 
L 37.796875 0 
L 37.796875 17.1875 
L 4.890625 17.1875 
L 4.890625 26.703125 
z
" id="DejaVuSans-52"/>
      </defs>
      <g transform="translate(77.175937 345.32463)scale(0.13 -0.13)">
       <use xlink:href="#DejaVuSans-48"/>
       <use x="63.623047" xlink:href="#DejaVuSans-46"/>
       <use x="95.410156" xlink:href="#DejaVuSans-52"/>
      </g>
     </g>
    </g>
    <g id="ytick_3">
     <g id="line2d_11">
      <g>
       <use style="stroke:#000000;stroke-width:0.8;" x="104.85" xlink:href="#m3ee976ebbf" y="304.430007"/>
      </g>
     </g>
     <g id="text_12">
      <!-- 0.5 -->
      <g transform="translate(77.175937 309.368991)scale(0.13 -0.13)">
       <use xlink:href="#DejaVuSans-48"/>
       <use x="63.623047" xlink:href="#DejaVuSans-46"/>
       <use x="95.410156" xlink:href="#DejaVuSans-53"/>
      </g>
     </g>
    </g>
    <g id="ytick_4">
     <g id="line2d_12">
      <g>
       <use style="stroke:#000000;stroke-width:0.8;" x="104.85" xlink:href="#m3ee976ebbf" y="268.474368"/>
      </g>
     </g>
     <g id="text_13">
      <!-- 0.6 -->
      <defs>
       <path d="M 33.015625 40.375 
Q 26.375 40.375 22.484375 35.828125 
Q 18.609375 31.296875 18.609375 23.390625 
Q 18.609375 15.53125 22.484375 10.953125 
Q 26.375 6.390625 33.015625 6.390625 
Q 39.65625 6.390625 43.53125 10.953125 
Q 47.40625 15.53125 47.40625 23.390625 
Q 47.40625 31.296875 43.53125 35.828125 
Q 39.65625 40.375 33.015625 40.375 
z
M 52.59375 71.296875 
L 52.59375 62.3125 
Q 48.875 64.0625 45.09375 64.984375 
Q 41.3125 65.921875 37.59375 65.921875 
Q 27.828125 65.921875 22.671875 59.328125 
Q 17.53125 52.734375 16.796875 39.40625 
Q 19.671875 43.65625 24.015625 45.921875 
Q 28.375 48.1875 33.59375 48.1875 
Q 44.578125 48.1875 50.953125 41.515625 
Q 57.328125 34.859375 57.328125 23.390625 
Q 57.328125 12.15625 50.6875 5.359375 
Q 44.046875 -1.421875 33.015625 -1.421875 
Q 20.359375 -1.421875 13.671875 8.265625 
Q 6.984375 17.96875 6.984375 36.375 
Q 6.984375 53.65625 15.1875 63.9375 
Q 23.390625 74.21875 37.203125 74.21875 
Q 40.921875 74.21875 44.703125 73.484375 
Q 48.484375 72.75 52.59375 71.296875 
z
" id="DejaVuSans-54"/>
      </defs>
      <g transform="translate(77.175937 273.413352)scale(0.13 -0.13)">
       <use xlink:href="#DejaVuSans-48"/>
       <use x="63.623047" xlink:href="#DejaVuSans-46"/>
       <use x="95.410156" xlink:href="#DejaVuSans-54"/>
      </g>
     </g>
    </g>
    <g id="ytick_5">
     <g id="line2d_13">
      <g>
       <use style="stroke:#000000;stroke-width:0.8;" x="104.85" xlink:href="#m3ee976ebbf" y="232.518729"/>
      </g>
     </g>
     <g id="text_14">
      <!-- 0.7 -->
      <g transform="translate(77.175937 237.457713)scale(0.13 -0.13)">
       <use xlink:href="#DejaVuSans-48"/>
       <use x="63.623047" xlink:href="#DejaVuSans-46"/>
       <use x="95.410156" xlink:href="#DejaVuSans-55"/>
      </g>
     </g>
    </g>
    <g id="ytick_6">
     <g id="line2d_14">
      <g>
       <use style="stroke:#000000;stroke-width:0.8;" x="104.85" xlink:href="#m3ee976ebbf" y="196.56309"/>
      </g>
     </g>
     <g id="text_15">
      <!-- 0.8 -->
      <defs>
       <path d="M 31.78125 34.625 
Q 24.75 34.625 20.71875 30.859375 
Q 16.703125 27.09375 16.703125 20.515625 
Q 16.703125 13.921875 20.71875 10.15625 
Q 24.75 6.390625 31.78125 6.390625 
Q 38.8125 6.390625 42.859375 10.171875 
Q 46.921875 13.96875 46.921875 20.515625 
Q 46.921875 27.09375 42.890625 30.859375 
Q 38.875 34.625 31.78125 34.625 
z
M 21.921875 38.8125 
Q 15.578125 40.375 12.03125 44.71875 
Q 8.5 49.078125 8.5 55.328125 
Q 8.5 64.0625 14.71875 69.140625 
Q 20.953125 74.21875 31.78125 74.21875 
Q 42.671875 74.21875 48.875 69.140625 
Q 55.078125 64.0625 55.078125 55.328125 
Q 55.078125 49.078125 51.53125 44.71875 
Q 48 40.375 41.703125 38.8125 
Q 48.828125 37.15625 52.796875 32.3125 
Q 56.78125 27.484375 56.78125 20.515625 
Q 56.78125 9.90625 50.3125 4.234375 
Q 43.84375 -1.421875 31.78125 -1.421875 
Q 19.734375 -1.421875 13.25 4.234375 
Q 6.78125 9.90625 6.78125 20.515625 
Q 6.78125 27.484375 10.78125 32.3125 
Q 14.796875 37.15625 21.921875 38.8125 
z
M 18.3125 54.390625 
Q 18.3125 48.734375 21.84375 45.5625 
Q 25.390625 42.390625 31.78125 42.390625 
Q 38.140625 42.390625 41.71875 45.5625 
Q 45.3125 48.734375 45.3125 54.390625 
Q 45.3125 60.0625 41.71875 63.234375 
Q 38.140625 66.40625 31.78125 66.40625 
Q 25.390625 66.40625 21.84375 63.234375 
Q 18.3125 60.0625 18.3125 54.390625 
z
" id="DejaVuSans-56"/>
      </defs>
      <g transform="translate(77.175937 201.502075)scale(0.13 -0.13)">
       <use xlink:href="#DejaVuSans-48"/>
       <use x="63.623047" xlink:href="#DejaVuSans-46"/>
       <use x="95.410156" xlink:href="#DejaVuSans-56"/>
      </g>
     </g>
    </g>
    <g id="ytick_7">
     <g id="line2d_15">
      <g>
       <use style="stroke:#000000;stroke-width:0.8;" x="104.85" xlink:href="#m3ee976ebbf" y="160.607451"/>
      </g>
     </g>
     <g id="text_16">
      <!-- 0.9 -->
      <defs>
       <path d="M 10.984375 1.515625 
L 10.984375 10.5 
Q 14.703125 8.734375 18.5 7.8125 
Q 22.3125 6.890625 25.984375 6.890625 
Q 35.75 6.890625 40.890625 13.453125 
Q 46.046875 20.015625 46.78125 33.40625 
Q 43.953125 29.203125 39.59375 26.953125 
Q 35.25 24.703125 29.984375 24.703125 
Q 19.046875 24.703125 12.671875 31.3125 
Q 6.296875 37.9375 6.296875 49.421875 
Q 6.296875 60.640625 12.9375 67.421875 
Q 19.578125 74.21875 30.609375 74.21875 
Q 43.265625 74.21875 49.921875 64.515625 
Q 56.59375 54.828125 56.59375 36.375 
Q 56.59375 19.140625 48.40625 8.859375 
Q 40.234375 -1.421875 26.421875 -1.421875 
Q 22.703125 -1.421875 18.890625 -0.6875 
Q 15.09375 0.046875 10.984375 1.515625 
z
M 30.609375 32.421875 
Q 37.25 32.421875 41.125 36.953125 
Q 45.015625 41.5 45.015625 49.421875 
Q 45.015625 57.28125 41.125 61.84375 
Q 37.25 66.40625 30.609375 66.40625 
Q 23.96875 66.40625 20.09375 61.84375 
Q 16.21875 57.28125 16.21875 49.421875 
Q 16.21875 41.5 20.09375 36.953125 
Q 23.96875 32.421875 30.609375 32.421875 
z
" id="DejaVuSans-57"/>
      </defs>
      <g transform="translate(77.175937 165.546436)scale(0.13 -0.13)">
       <use xlink:href="#DejaVuSans-48"/>
       <use x="63.623047" xlink:href="#DejaVuSans-46"/>
       <use x="95.410156" xlink:href="#DejaVuSans-57"/>
      </g>
     </g>
    </g>
    <g id="ytick_8">
     <g id="line2d_16">
      <g>
       <use style="stroke:#000000;stroke-width:0.8;" x="104.85" xlink:href="#m3ee976ebbf" y="124.651812"/>
      </g>
     </g>
     <g id="text_17">
      <!-- 1.0 -->
      <g transform="translate(77.175937 129.590797)scale(0.13 -0.13)">
       <use xlink:href="#DejaVuSans-49"/>
       <use x="63.623047" xlink:href="#DejaVuSans-46"/>
       <use x="95.410156" xlink:href="#DejaVuSans-48"/>
      </g>
     </g>
    </g>
    <g id="text_18">
     <!-- Recall -->
     <defs>
      <path d="M 44.390625 34.1875 
Q 47.5625 33.109375 50.5625 29.59375 
Q 53.5625 26.078125 56.59375 19.921875 
L 66.609375 0 
L 56 0 
L 46.6875 18.703125 
Q 43.0625 26.03125 39.671875 28.421875 
Q 36.28125 30.8125 30.421875 30.8125 
L 19.671875 30.8125 
L 19.671875 0 
L 9.8125 0 
L 9.8125 72.90625 
L 32.078125 72.90625 
Q 44.578125 72.90625 50.734375 67.671875 
Q 56.890625 62.453125 56.890625 51.90625 
Q 56.890625 45.015625 53.6875 40.46875 
Q 50.484375 35.9375 44.390625 34.1875 
z
M 19.671875 64.796875 
L 19.671875 38.921875 
L 32.078125 38.921875 
Q 39.203125 38.921875 42.84375 42.21875 
Q 46.484375 45.515625 46.484375 51.90625 
Q 46.484375 58.296875 42.84375 61.546875 
Q 39.203125 64.796875 32.078125 64.796875 
z
" id="DejaVuSans-82"/>
      <path d="M 9.421875 75.984375 
L 18.40625 75.984375 
L 18.40625 0 
L 9.421875 0 
z
" id="DejaVuSans-108"/>
     </defs>
     <g transform="translate(70.472344 270.332594)rotate(-90)scale(0.13 -0.13)">
      <use xlink:href="#DejaVuSans-82"/>
      <use x="69.419922" xlink:href="#DejaVuSans-101"/>
      <use x="130.943359" xlink:href="#DejaVuSans-99"/>
      <use x="185.923828" xlink:href="#DejaVuSans-97"/>
      <use x="247.203125" xlink:href="#DejaVuSans-108"/>
      <use x="274.986328" xlink:href="#DejaVuSans-108"/>
     </g>
    </g>
   </g>
   <g id="line2d_17"/>
   <g id="line2d_18"/>
   <g id="line2d_19"/>
   <g id="line2d_20"/>
   <g id="line2d_21"/>
   <g id="line2d_22">
    <path clip-path="url(#p4ab47c8e6d)" d="M 122.604545 124.651812 
L 237.210606 124.651812 
L 239.089394 124.824676 
L 240.968182 124.824676 
L 242.84697 126.04647 
L 244.725758 128.470445 
L 246.604545 130.413993 
L 248.483333 133.967748 
L 250.362121 138.902836 
L 254.119697 153.370614 
L 255.998485 161.968701 
L 257.877273 171.59319 
L 259.756061 179.07069 
L 261.634848 180.117942 
L 263.513636 180.81611 
L 267.271212 181.150646 
L 272.907576 182.146473 
L 274.786364 182.31769 
L 276.665152 182.144827 
L 278.543939 182.544334 
L 280.422727 181.497082 
L 282.301515 179.24597 
L 284.180303 177.644857 
L 286.059091 174.490609 
L 287.937879 169.955028 
L 291.695455 159.148926 
L 293.574242 152.654626 
L 295.45303 144.217351 
L 297.331818 138.071541 
L 299.210606 138.051593 
L 301.089394 138.319975 
L 302.968182 139.479722 
L 304.84697 140.176521 
L 306.725758 140.480261 
L 308.604545 141.293913 
L 310.483333 141.84531 
L 312.362121 142.254022 
L 316.119697 144.552824 
L 319.877273 145.312007 
L 321.756061 146.105014 
L 325.513636 147.421037 
L 327.392424 147.120872 
L 329.271212 145.9379 
L 331.15 144.390127 
L 334.907576 143.6262 
L 336.786364 143.149237 
L 340.543939 141.903989 
L 342.422727 142.296035 
L 344.301515 142.404582 
L 346.180303 141.699057 
L 348.059091 141.404024 
L 351.816667 142.243723 
L 353.695455 141.156829 
L 355.574242 141.120853 
L 357.45303 141.854745 
L 359.331818 141.756485 
L 361.210606 141.371035 
L 363.089394 141.240207 
L 364.968182 141.740393 
L 366.84697 141.277895 
L 368.725758 142.308158 
L 370.604545 141.975697 
L 372.483333 141.879387 
L 374.362121 142.219037 
L 376.240909 142.769134 
L 378.119697 143.499845 
L 379.998485 142.953391 
L 381.877273 143.443555 
L 383.756061 143.392361 
L 385.634848 143.539916 
L 387.513636 142.653181 
L 389.392424 141.168774 
L 393.15 141.190222 
L 395.028788 140.521657 
L 396.907576 140.451024 
L 398.786364 140.535917 
L 400.665152 140.027314 
L 402.543939 138.901374 
L 404.422727 138.733357 
L 406.301515 137.794928 
L 408.180303 137.962757 
L 410.059091 137.523364 
L 411.937879 137.258689 
L 413.816667 137.163366 
L 415.695455 136.603533 
L 417.574242 136.400346 
L 419.45303 135.346193 
L 423.210606 135.886646 
L 425.089394 135.874707 
L 426.968182 136.091307 
L 428.84697 136.745046 
L 430.725758 136.9395 
L 436.362121 136.127203 
L 438.240909 136.635805 
L 440.119697 136.458159 
L 441.998485 136.508745 
L 443.877273 136.190764 
L 447.634848 136.427951 
L 449.513636 136.658722 
L 453.271212 135.81004 
L 455.15 136.050309 
L 457.028788 136.505753 
L 458.907576 135.820883 
L 460.786364 134.864616 
L 462.665152 135.481053 
L 464.543939 136.241508 
L 466.422727 135.76331 
L 468.301515 135.400198 
L 470.180303 136.111973 
L 473.937879 135.486337 
L 475.816667 135.278758 
L 477.695455 135.226168 
L 477.695455 135.226168 
" style="fill:none;stroke:#cc3311;stroke-linecap:square;stroke-width:0.5;"/>
    <defs>
     <path d="M 0 2.5 
C 0.663008 2.5 1.29895 2.236584 1.767767 1.767767 
C 2.236584 1.29895 2.5 0.663008 2.5 0 
C 2.5 -0.663008 2.236584 -1.29895 1.767767 -1.767767 
C 1.29895 -2.236584 0.663008 -2.5 0 -2.5 
C -0.663008 -2.5 -1.29895 -2.236584 -1.767767 -1.767767 
C -2.236584 -1.29895 -2.5 -0.663008 -2.5 0 
C -2.5 0.663008 -2.236584 1.29895 -1.767767 1.767767 
C -1.29895 2.236584 -0.663008 2.5 0 2.5 
z
" id="m83aba1e4d3" style="stroke:#cc3311;"/>
    </defs>
    <g clip-path="url(#p4ab47c8e6d)">
     <use style="fill:#cc3311;stroke:#cc3311;" x="122.604545" xlink:href="#m83aba1e4d3" y="124.651812"/>
     <use style="fill:#cc3311;stroke:#cc3311;" x="141.392424" xlink:href="#m83aba1e4d3" y="124.651812"/>
     <use style="fill:#cc3311;stroke:#cc3311;" x="160.180303" xlink:href="#m83aba1e4d3" y="124.651812"/>
     <use style="fill:#cc3311;stroke:#cc3311;" x="178.968182" xlink:href="#m83aba1e4d3" y="124.651812"/>
     <use style="fill:#cc3311;stroke:#cc3311;" x="197.756061" xlink:href="#m83aba1e4d3" y="124.651812"/>
     <use style="fill:#cc3311;stroke:#cc3311;" x="216.543939" xlink:href="#m83aba1e4d3" y="124.651812"/>
     <use style="fill:#cc3311;stroke:#cc3311;" x="235.331818" xlink:href="#m83aba1e4d3" y="124.651812"/>
     <use style="fill:#cc3311;stroke:#cc3311;" x="254.119697" xlink:href="#m83aba1e4d3" y="153.370614"/>
     <use style="fill:#cc3311;stroke:#cc3311;" x="272.907576" xlink:href="#m83aba1e4d3" y="182.146473"/>
     <use style="fill:#cc3311;stroke:#cc3311;" x="291.695455" xlink:href="#m83aba1e4d3" y="159.148926"/>
     <use style="fill:#cc3311;stroke:#cc3311;" x="310.483333" xlink:href="#m83aba1e4d3" y="141.84531"/>
     <use style="fill:#cc3311;stroke:#cc3311;" x="329.271212" xlink:href="#m83aba1e4d3" y="145.9379"/>
     <use style="fill:#cc3311;stroke:#cc3311;" x="348.059091" xlink:href="#m83aba1e4d3" y="141.404024"/>
     <use style="fill:#cc3311;stroke:#cc3311;" x="366.84697" xlink:href="#m83aba1e4d3" y="141.277895"/>
     <use style="fill:#cc3311;stroke:#cc3311;" x="385.634848" xlink:href="#m83aba1e4d3" y="143.539916"/>
     <use style="fill:#cc3311;stroke:#cc3311;" x="404.422727" xlink:href="#m83aba1e4d3" y="138.733357"/>
     <use style="fill:#cc3311;stroke:#cc3311;" x="423.210606" xlink:href="#m83aba1e4d3" y="135.886646"/>
     <use style="fill:#cc3311;stroke:#cc3311;" x="441.998485" xlink:href="#m83aba1e4d3" y="136.508745"/>
     <use style="fill:#cc3311;stroke:#cc3311;" x="460.786364" xlink:href="#m83aba1e4d3" y="134.864616"/>
    </g>
   </g>
   <g id="line2d_23"/>
   <g id="line2d_24"/>
   <g id="line2d_25"/>
   <g id="line2d_26"/>
   <g id="line2d_27">
    <path clip-path="url(#p4ab47c8e6d)" d="M 122.604545 128.176875 
L 124.483333 129.435826 
L 126.362121 128.961268 
L 128.240909 131.443869 
L 130.119697 130.085457 
L 131.998485 129.17985 
L 133.877273 128.532987 
L 135.756061 129.2963 
L 139.513636 128.367403 
L 143.271212 127.748138 
L 145.15 127.509959 
L 147.028788 127.858119 
L 150.786364 127.457331 
L 152.665152 127.742309 
L 154.543939 127.785403 
L 156.422727 127.991536 
L 158.301515 127.82455 
L 163.937879 127.917967 
L 165.816667 127.378838 
L 167.695455 127.378838 
L 169.574242 127.583132 
L 171.45303 127.583132 
L 173.331818 127.41667 
L 175.210606 127.41667 
L 180.84697 128.552727 
L 182.725758 129.257739 
L 184.604545 128.87112 
L 188.362121 129.929554 
L 192.119697 129.514254 
L 195.877273 130.241734 
L 199.634848 130.187039 
L 203.392424 129.852213 
L 205.271212 130.049771 
L 207.15 129.845478 
L 209.028788 130.034718 
L 210.907576 129.701795 
L 212.786364 129.701795 
L 214.665152 129.916914 
L 220.301515 128.664593 
L 222.180303 128.840846 
L 224.059091 128.490629 
L 225.937879 127.945846 
L 227.816667 127.78533 
L 229.695455 127.956547 
L 231.574242 127.271678 
L 235.331818 127.654407 
L 237.210606 128.022706 
L 240.968182 131.113171 
L 242.84697 136.151871 
L 244.725758 141.605816 
L 246.604545 146.599371 
L 248.483333 153.079747 
L 250.362121 158.543594 
L 252.240909 166.57215 
L 255.998485 180.798077 
L 257.877273 185.875067 
L 261.634848 198.341814 
L 263.513636 203.228989 
L 265.392424 206.857539 
L 267.271212 209.569557 
L 269.15 212.951523 
L 271.028788 215.148509 
L 272.907576 216.914173 
L 274.786364 218.099395 
L 276.665152 219.085941 
L 278.543939 221.346566 
L 280.422727 218.902979 
L 282.301515 217.252034 
L 284.180303 214.979934 
L 286.059091 210.497093 
L 287.937879 208.628809 
L 289.816667 206.202256 
L 291.695455 202.528528 
L 293.574242 201.231331 
L 295.45303 200.713959 
L 297.331818 198.519027 
L 299.210606 195.146212 
L 301.089394 193.931925 
L 302.968182 193.520458 
L 304.84697 193.453026 
L 306.725758 194.854149 
L 308.604545 195.435329 
L 310.483333 196.287489 
L 312.362121 196.337197 
L 314.240909 195.648262 
L 316.119697 195.378008 
L 319.877273 193.038449 
L 321.756061 192.587877 
L 323.634848 192.916883 
L 325.513636 191.965116 
L 327.392424 188.37446 
L 329.271212 187.17678 
L 331.15 183.848576 
L 333.028788 181.667978 
L 336.786364 179.076617 
L 338.665152 177.364946 
L 340.543939 176.305201 
L 342.422727 175.466958 
L 344.301515 173.603344 
L 346.180303 172.322947 
L 348.059091 170.49911 
L 349.937879 170.835056 
L 351.816667 171.950487 
L 353.695455 171.588189 
L 355.574242 171.649862 
L 357.45303 171.943419 
L 361.210606 171.588203 
L 363.089394 171.539143 
L 364.968182 173.193603 
L 366.84697 173.058105 
L 368.725758 173.292504 
L 370.604545 174.215083 
L 372.483333 174.108072 
L 376.240909 174.646228 
L 378.119697 175.968468 
L 379.998485 176.838879 
L 381.877273 175.177851 
L 383.756061 174.738432 
L 385.634848 175.950778 
L 387.513636 175.92896 
L 389.392424 175.014754 
L 393.15 173.686159 
L 395.028788 172.025103 
L 396.907576 171.131045 
L 400.665152 170.145693 
L 402.543939 167.623959 
L 406.301515 167.733522 
L 408.180303 165.452729 
L 410.059091 164.560972 
L 411.937879 164.635267 
L 413.816667 164.983194 
L 415.695455 162.749604 
L 417.574242 162.276061 
L 419.45303 163.060548 
L 421.331818 163.635349 
L 423.210606 163.928084 
L 425.089394 163.166626 
L 426.968182 162.84482 
L 428.84697 163.17169 
L 430.725758 163.744045 
L 432.604545 164.507697 
L 434.483333 164.834698 
L 436.362121 164.96261 
L 438.240909 164.910888 
L 440.119697 165.195122 
L 443.877273 163.424986 
L 445.756061 164.727969 
L 447.634848 164.977661 
L 449.513636 165.085602 
L 451.392424 163.969244 
L 453.271212 163.657169 
L 455.15 163.904505 
L 457.028788 163.345978 
L 458.907576 162.037389 
L 460.786364 161.607069 
L 462.665152 161.651326 
L 464.543939 162.068046 
L 466.422727 161.786575 
L 468.301515 161.803596 
L 470.180303 162.122794 
L 473.937879 161.568054 
L 475.816667 160.428223 
L 477.695455 160.165271 
L 477.695455 160.165271 
" style="fill:none;stroke:#009988;stroke-dasharray:1.85,0.8;stroke-dashoffset:0;stroke-width:0.5;"/>
    <defs>
     <path d="M -2.5 2.5 
L 2.5 2.5 
L 2.5 -2.5 
L -2.5 -2.5 
z
" id="m27c813f86f" style="stroke:#009988;stroke-linejoin:miter;"/>
    </defs>
    <g clip-path="url(#p4ab47c8e6d)">
     <use style="fill:#009988;stroke:#009988;stroke-linejoin:miter;" x="122.604545" xlink:href="#m27c813f86f" y="128.176875"/>
     <use style="fill:#009988;stroke:#009988;stroke-linejoin:miter;" x="141.392424" xlink:href="#m27c813f86f" y="128.029622"/>
     <use style="fill:#009988;stroke:#009988;stroke-linejoin:miter;" x="160.180303" xlink:href="#m27c813f86f" y="127.839551"/>
     <use style="fill:#009988;stroke:#009988;stroke-linejoin:miter;" x="178.968182" xlink:href="#m27c813f86f" y="128.207"/>
     <use style="fill:#009988;stroke:#009988;stroke-linejoin:miter;" x="197.756061" xlink:href="#m27c813f86f" y="130.24379"/>
     <use style="fill:#009988;stroke:#009988;stroke-linejoin:miter;" x="216.543939" xlink:href="#m27c813f86f" y="129.526092"/>
     <use style="fill:#009988;stroke:#009988;stroke-linejoin:miter;" x="235.331818" xlink:href="#m27c813f86f" y="127.654407"/>
     <use style="fill:#009988;stroke:#009988;stroke-linejoin:miter;" x="254.119697" xlink:href="#m27c813f86f" y="173.763278"/>
     <use style="fill:#009988;stroke:#009988;stroke-linejoin:miter;" x="272.907576" xlink:href="#m27c813f86f" y="216.914173"/>
     <use style="fill:#009988;stroke:#009988;stroke-linejoin:miter;" x="291.695455" xlink:href="#m27c813f86f" y="202.528528"/>
     <use style="fill:#009988;stroke:#009988;stroke-linejoin:miter;" x="310.483333" xlink:href="#m27c813f86f" y="196.287489"/>
     <use style="fill:#009988;stroke:#009988;stroke-linejoin:miter;" x="329.271212" xlink:href="#m27c813f86f" y="187.17678"/>
     <use style="fill:#009988;stroke:#009988;stroke-linejoin:miter;" x="348.059091" xlink:href="#m27c813f86f" y="170.49911"/>
     <use style="fill:#009988;stroke:#009988;stroke-linejoin:miter;" x="366.84697" xlink:href="#m27c813f86f" y="173.058105"/>
     <use style="fill:#009988;stroke:#009988;stroke-linejoin:miter;" x="385.634848" xlink:href="#m27c813f86f" y="175.950778"/>
     <use style="fill:#009988;stroke:#009988;stroke-linejoin:miter;" x="404.422727" xlink:href="#m27c813f86f" y="167.623959"/>
     <use style="fill:#009988;stroke:#009988;stroke-linejoin:miter;" x="423.210606" xlink:href="#m27c813f86f" y="163.928084"/>
     <use style="fill:#009988;stroke:#009988;stroke-linejoin:miter;" x="441.998485" xlink:href="#m27c813f86f" y="164.36407"/>
     <use style="fill:#009988;stroke:#009988;stroke-linejoin:miter;" x="460.786364" xlink:href="#m27c813f86f" y="161.607069"/>
    </g>
   </g>
   <g id="line2d_28"/>
   <g id="line2d_29"/>
   <g id="line2d_30"/>
   <g id="line2d_31"/>
   <g id="line2d_32">
    <path clip-path="url(#p4ab47c8e6d)" d="M 122.604545 124.651812 
L 133.877273 124.651812 
L 135.756061 125.067966 
L 137.634848 125.021726 
L 139.513636 125.367242 
L 141.392424 125.936901 
L 145.15 125.739195 
L 147.028788 126.213839 
L 150.786364 126.018585 
L 154.543939 126.294014 
L 156.422727 126.578642 
L 158.301515 126.648762 
L 162.059091 127.033325 
L 175.210606 127.033325 
L 177.089394 126.842072 
L 178.968182 126.492988 
L 180.84697 126.665851 
L 182.725758 126.665851 
L 184.604545 126.279232 
L 186.483333 126.450449 
L 188.362121 126.450449 
L 193.998485 125.884597 
L 195.877273 126.113252 
L 199.634848 125.728689 
L 203.392424 125.728689 
L 205.271212 125.926247 
L 209.028788 125.926247 
L 210.907576 125.759786 
L 212.786364 125.908363 
L 214.665152 126.215676 
L 216.543939 126.215676 
L 218.422727 126.042813 
L 229.695455 126.03503 
L 231.574242 125.863813 
L 233.45303 125.468696 
L 237.210606 125.832478 
L 239.089394 126.523933 
L 240.968182 127.400899 
L 242.84697 130.519638 
L 244.725758 135.165591 
L 246.604545 138.5668 
L 250.362121 147.985079 
L 254.119697 161.767063 
L 255.998485 169.778917 
L 257.877273 176.4979 
L 259.756061 183.975401 
L 263.513636 194.284482 
L 265.392424 198.242901 
L 267.271212 200.786932 
L 269.15 203.9909 
L 271.028788 206.470599 
L 274.786364 209.804483 
L 276.665152 210.384187 
L 278.543939 212.30377 
L 280.422727 211.256518 
L 282.301515 208.684929 
L 284.180303 207.680762 
L 286.059091 204.271016 
L 287.937879 201.70947 
L 289.816667 198.654469 
L 291.695455 194.583747 
L 293.574242 189.823201 
L 295.45303 186.326657 
L 297.331818 181.179615 
L 299.210606 177.141878 
L 301.089394 174.225339 
L 302.968182 172.159322 
L 304.84697 171.348093 
L 306.725758 171.607742 
L 308.604545 170.251656 
L 310.483333 170.023659 
L 312.362121 169.493438 
L 314.240909 169.14897 
L 316.119697 168.643711 
L 317.998485 167.101043 
L 319.877273 165.963024 
L 321.756061 165.647623 
L 323.634848 165.095364 
L 325.513636 165.013112 
L 327.392424 162.39469 
L 329.271212 160.623383 
L 331.15 158.484105 
L 333.028788 156.117753 
L 334.907576 154.836001 
L 336.786364 153.820926 
L 338.665152 152.481816 
L 340.543939 152.207418 
L 342.422727 151.553285 
L 344.301515 149.472578 
L 346.180303 148.767053 
L 348.059091 147.767008 
L 349.937879 147.635632 
L 351.816667 148.523216 
L 353.695455 147.730077 
L 355.574242 148.190915 
L 357.45303 149.36008 
L 359.331818 149.179938 
L 361.210606 149.174008 
L 363.089394 148.727016 
L 364.968182 149.538855 
L 366.84697 149.219081 
L 368.725758 149.869582 
L 370.604545 151.107999 
L 372.483333 151.664455 
L 374.362121 152.548997 
L 379.998485 153.462907 
L 381.877273 152.799111 
L 383.756061 153.298258 
L 385.634848 154.546496 
L 387.513636 154.2878 
L 389.392424 153.500829 
L 391.271212 153.637024 
L 393.15 153.168922 
L 396.907576 150.578019 
L 398.786364 150.873375 
L 400.665152 149.623419 
L 402.543939 148.57006 
L 404.422727 148.738077 
L 408.180303 147.397688 
L 410.059091 147.063685 
L 411.937879 147.246327 
L 413.816667 146.907932 
L 415.695455 145.768169 
L 417.574242 145.539794 
L 419.45303 145.842148 
L 421.331818 146.294651 
L 423.210606 145.990207 
L 425.089394 145.47284 
L 428.84697 144.768468 
L 430.725758 144.966591 
L 434.483333 145.842715 
L 436.362121 145.872503 
L 438.240909 146.195768 
L 441.998485 145.412302 
L 443.877273 145.433105 
L 445.756061 145.210055 
L 447.634848 144.630351 
L 449.513636 144.449828 
L 451.392424 144.006767 
L 453.271212 143.350255 
L 455.15 143.268987 
L 457.028788 142.907256 
L 458.907576 141.904412 
L 460.786364 141.123461 
L 464.543939 142.156662 
L 466.422727 142.014414 
L 468.301515 142.394546 
L 470.180303 142.548642 
L 472.059091 142.245552 
L 473.937879 141.660253 
L 477.695455 142.068606 
L 477.695455 142.068606 
" style="fill:none;stroke:#0077bb;stroke-dasharray:3.2,0.8,0.5,0.8;stroke-dashoffset:0;stroke-width:0.5;"/>
    <defs>
     <path d="M 0 -2.5 
L -2.5 2.5 
L 2.5 2.5 
z
" id="md1922f50e8" style="stroke:#0077bb;stroke-linejoin:miter;"/>
    </defs>
    <g clip-path="url(#p4ab47c8e6d)">
     <use style="fill:#0077bb;stroke:#0077bb;stroke-linejoin:miter;" x="122.604545" xlink:href="#md1922f50e8" y="124.651812"/>
     <use style="fill:#0077bb;stroke:#0077bb;stroke-linejoin:miter;" x="141.392424" xlink:href="#md1922f50e8" y="125.936901"/>
     <use style="fill:#0077bb;stroke:#0077bb;stroke-linejoin:miter;" x="160.180303" xlink:href="#md1922f50e8" y="126.840015"/>
     <use style="fill:#0077bb;stroke:#0077bb;stroke-linejoin:miter;" x="178.968182" xlink:href="#md1922f50e8" y="126.492988"/>
     <use style="fill:#0077bb;stroke:#0077bb;stroke-linejoin:miter;" x="197.756061" xlink:href="#md1922f50e8" y="125.921999"/>
     <use style="fill:#0077bb;stroke:#0077bb;stroke-linejoin:miter;" x="216.543939" xlink:href="#md1922f50e8" y="126.215676"/>
     <use style="fill:#0077bb;stroke:#0077bb;stroke-linejoin:miter;" x="235.331818" xlink:href="#md1922f50e8" y="125.657936"/>
     <use style="fill:#0077bb;stroke:#0077bb;stroke-linejoin:miter;" x="254.119697" xlink:href="#md1922f50e8" y="161.767063"/>
     <use style="fill:#0077bb;stroke:#0077bb;stroke-linejoin:miter;" x="272.907576" xlink:href="#md1922f50e8" y="208.095634"/>
     <use style="fill:#0077bb;stroke:#0077bb;stroke-linejoin:miter;" x="291.695455" xlink:href="#md1922f50e8" y="194.583747"/>
     <use style="fill:#0077bb;stroke:#0077bb;stroke-linejoin:miter;" x="310.483333" xlink:href="#md1922f50e8" y="170.023659"/>
     <use style="fill:#0077bb;stroke:#0077bb;stroke-linejoin:miter;" x="329.271212" xlink:href="#md1922f50e8" y="160.623383"/>
     <use style="fill:#0077bb;stroke:#0077bb;stroke-linejoin:miter;" x="348.059091" xlink:href="#md1922f50e8" y="147.767008"/>
     <use style="fill:#0077bb;stroke:#0077bb;stroke-linejoin:miter;" x="366.84697" xlink:href="#md1922f50e8" y="149.219081"/>
     <use style="fill:#0077bb;stroke:#0077bb;stroke-linejoin:miter;" x="385.634848" xlink:href="#md1922f50e8" y="154.546496"/>
     <use style="fill:#0077bb;stroke:#0077bb;stroke-linejoin:miter;" x="404.422727" xlink:href="#md1922f50e8" y="148.738077"/>
     <use style="fill:#0077bb;stroke:#0077bb;stroke-linejoin:miter;" x="423.210606" xlink:href="#md1922f50e8" y="145.990207"/>
     <use style="fill:#0077bb;stroke:#0077bb;stroke-linejoin:miter;" x="441.998485" xlink:href="#md1922f50e8" y="145.412302"/>
     <use style="fill:#0077bb;stroke:#0077bb;stroke-linejoin:miter;" x="460.786364" xlink:href="#md1922f50e8" y="141.123461"/>
    </g>
   </g>
   <g id="line2d_33"/>
   <g id="line2d_34"/>
   <g id="line2d_35"/>
   <g id="line2d_36"/>
   <g id="line2d_37">
    <path clip-path="url(#p4ab47c8e6d)" d="M 122.604545 149.327251 
L 124.483333 146.053978 
L 126.362121 142.280263 
L 128.240909 144.993079 
L 130.119697 144.051403 
L 131.998485 145.710062 
L 133.877273 144.183429 
L 135.756061 144.655049 
L 137.634848 143.983951 
L 139.513636 143.963271 
L 141.392424 143.159731 
L 143.271212 143.415187 
L 145.15 142.279163 
L 147.028788 142.400852 
L 148.907576 142.676652 
L 150.786364 142.043995 
L 152.665152 141.920942 
L 154.543939 141.605912 
L 156.422727 142.012298 
L 158.301515 141.477197 
L 160.180303 141.390945 
L 162.059091 141.06443 
L 163.937879 140.884304 
L 165.816667 139.978909 
L 167.695455 139.377043 
L 169.574242 138.522346 
L 171.45303 138.902646 
L 173.331818 138.902646 
L 175.210606 138.204478 
L 177.089394 137.847472 
L 178.968182 138.10549 
L 180.84697 137.199685 
L 182.725758 138.05745 
L 186.483333 137.180852 
L 188.362121 137.693706 
L 193.998485 136.782494 
L 195.877273 136.844688 
L 197.756061 135.890478 
L 199.634848 135.640416 
L 201.513636 135.840118 
L 203.392424 135.654449 
L 205.271212 136.067346 
L 209.028788 135.505803 
L 210.907576 134.926807 
L 212.786364 135.075384 
L 214.665152 135.551719 
L 216.543939 134.953522 
L 218.422727 135.126386 
L 220.301515 134.258107 
L 222.180303 134.639989 
L 224.059091 134.608858 
L 225.937879 133.700888 
L 227.816667 133.78706 
L 229.695455 133.628409 
L 231.574242 133.352252 
L 233.45303 133.944927 
L 235.331818 135.076299 
L 237.210606 135.61914 
L 240.968182 140.332174 
L 242.84697 146.895718 
L 246.604545 163.37737 
L 248.483333 174.497624 
L 250.362121 184.747981 
L 252.240909 196.982886 
L 255.998485 225.302558 
L 257.877273 237.280125 
L 259.756061 250.240189 
L 263.513636 278.211328 
L 265.392424 291.827942 
L 267.271212 303.698472 
L 269.15 317.536397 
L 271.028788 329.567026 
L 274.786364 351.566256 
L 276.665152 360.794381 
L 278.543939 369.349679 
L 280.422727 371.793266 
L 282.301515 373.997764 
L 284.180303 376.380924 
L 286.059091 375.261375 
L 287.937879 375.848885 
L 289.816667 376.651812 
L 291.695455 372.03394 
L 293.574242 368.279553 
L 295.45303 368.154493 
L 297.331818 364.966685 
L 299.210606 360.913988 
L 301.089394 357.738451 
L 302.968182 353.773087 
L 304.84697 351.694951 
L 306.725758 349.317287 
L 308.604545 348.658617 
L 310.483333 347.722373 
L 312.362121 345.424747 
L 314.240909 344.007564 
L 316.119697 343.396553 
L 317.998485 344.147612 
L 319.877273 342.995188 
L 321.756061 343.788194 
L 323.634848 342.507422 
L 325.513636 341.567405 
L 327.392424 337.351877 
L 329.271212 338.408778 
L 331.15 337.144928 
L 333.028788 336.446329 
L 334.907576 336.429683 
L 336.786364 334.827578 
L 338.665152 333.541189 
L 340.543939 331.951571 
L 342.422727 330.797092 
L 344.301515 328.898235 
L 346.180303 325.945482 
L 348.059091 323.635034 
L 351.816667 322.33831 
L 353.695455 322.083722 
L 355.574242 322.417786 
L 357.45303 322.397541 
L 359.331818 320.847227 
L 361.210606 321.118031 
L 363.089394 320.153181 
L 364.968182 320.699538 
L 366.84697 319.81248 
L 368.725758 320.750074 
L 370.604545 319.704901 
L 372.483333 318.377966 
L 374.362121 317.744075 
L 376.240909 316.922915 
L 379.998485 321.394 
L 381.877273 321.140467 
L 383.756061 321.089272 
L 385.634848 323.486049 
L 387.513636 323.866301 
L 389.392424 323.564707 
L 391.271212 324.684538 
L 393.15 322.988517 
L 395.028788 322.050642 
L 396.907576 319.217909 
L 398.786364 319.67067 
L 400.665152 319.159912 
L 402.543939 319.463265 
L 404.422727 318.791197 
L 406.301515 319.229448 
L 408.180303 316.191747 
L 410.059091 315.235135 
L 411.937879 315.11131 
L 413.816667 315.573624 
L 415.695455 310.92988 
L 417.574242 307.356482 
L 419.45303 305.640418 
L 421.331818 304.84548 
L 425.089394 300.781821 
L 426.968182 298.603442 
L 428.84697 295.171313 
L 430.725758 293.703736 
L 432.604545 293.91278 
L 434.483333 295.950664 
L 436.362121 294.743381 
L 438.240909 294.883463 
L 440.119697 291.899002 
L 441.998485 290.36517 
L 443.877273 287.928305 
L 445.756061 291.686696 
L 447.634848 291.803684 
L 449.513636 291.33842 
L 451.392424 291.266833 
L 453.271212 293.675588 
L 455.15 295.763814 
L 457.028788 295.179047 
L 458.907576 294.322961 
L 460.786364 294.693514 
L 462.665152 295.722489 
L 464.543939 296.544157 
L 466.422727 297.191843 
L 468.301515 298.752089 
L 470.180303 298.572311 
L 472.059091 297.102986 
L 473.937879 298.719271 
L 475.816667 299.356835 
L 477.695455 299.247609 
L 477.695455 299.247609 
" style="fill:none;stroke:#ee7733;stroke-dasharray:0.5,0.825;stroke-dashoffset:0;stroke-width:0.5;"/>
    <defs>
     <path d="M 0 -2.5 
L -0.561285 -0.772542 
L -2.377641 -0.772542 
L -0.908178 0.295085 
L -1.469463 2.022542 
L -0 0.954915 
L 1.469463 2.022542 
L 0.908178 0.295085 
L 2.377641 -0.772542 
L 0.561285 -0.772542 
z
" id="m44a433344c" style="stroke:#ee7733;stroke-linejoin:bevel;"/>
    </defs>
    <g clip-path="url(#p4ab47c8e6d)">
     <use style="fill:#ee7733;stroke:#ee7733;stroke-linejoin:bevel;" x="122.604545" xlink:href="#m44a433344c" y="149.327251"/>
     <use style="fill:#ee7733;stroke:#ee7733;stroke-linejoin:bevel;" x="141.392424" xlink:href="#m44a433344c" y="143.159731"/>
     <use style="fill:#ee7733;stroke:#ee7733;stroke-linejoin:bevel;" x="160.180303" xlink:href="#m44a433344c" y="141.390945"/>
     <use style="fill:#ee7733;stroke:#ee7733;stroke-linejoin:bevel;" x="178.968182" xlink:href="#m44a433344c" y="138.10549"/>
     <use style="fill:#ee7733;stroke:#ee7733;stroke-linejoin:bevel;" x="197.756061" xlink:href="#m44a433344c" y="135.890478"/>
     <use style="fill:#ee7733;stroke:#ee7733;stroke-linejoin:bevel;" x="216.543939" xlink:href="#m44a433344c" y="134.953522"/>
     <use style="fill:#ee7733;stroke:#ee7733;stroke-linejoin:bevel;" x="235.331818" xlink:href="#m44a433344c" y="135.076299"/>
     <use style="fill:#ee7733;stroke:#ee7733;stroke-linejoin:bevel;" x="254.119697" xlink:href="#m44a433344c" y="210.992454"/>
     <use style="fill:#ee7733;stroke:#ee7733;stroke-linejoin:bevel;" x="272.907576" xlink:href="#m44a433344c" y="340.282535"/>
     <use style="fill:#ee7733;stroke:#ee7733;stroke-linejoin:bevel;" x="291.695455" xlink:href="#m44a433344c" y="372.03394"/>
     <use style="fill:#ee7733;stroke:#ee7733;stroke-linejoin:bevel;" x="310.483333" xlink:href="#m44a433344c" y="347.722373"/>
     <use style="fill:#ee7733;stroke:#ee7733;stroke-linejoin:bevel;" x="329.271212" xlink:href="#m44a433344c" y="338.408778"/>
     <use style="fill:#ee7733;stroke:#ee7733;stroke-linejoin:bevel;" x="348.059091" xlink:href="#m44a433344c" y="323.635034"/>
     <use style="fill:#ee7733;stroke:#ee7733;stroke-linejoin:bevel;" x="366.84697" xlink:href="#m44a433344c" y="319.81248"/>
     <use style="fill:#ee7733;stroke:#ee7733;stroke-linejoin:bevel;" x="385.634848" xlink:href="#m44a433344c" y="323.486049"/>
     <use style="fill:#ee7733;stroke:#ee7733;stroke-linejoin:bevel;" x="404.422727" xlink:href="#m44a433344c" y="318.791197"/>
     <use style="fill:#ee7733;stroke:#ee7733;stroke-linejoin:bevel;" x="423.210606" xlink:href="#m44a433344c" y="302.835368"/>
     <use style="fill:#ee7733;stroke:#ee7733;stroke-linejoin:bevel;" x="441.998485" xlink:href="#m44a433344c" y="290.36517"/>
     <use style="fill:#ee7733;stroke:#ee7733;stroke-linejoin:bevel;" x="460.786364" xlink:href="#m44a433344c" y="294.693514"/>
    </g>
   </g>
   <g id="line2d_38"/>
   <g id="line2d_39"/>
   <g id="line2d_40"/>
   <g id="line2d_41"/>
   <g id="line2d_42">
    <path clip-path="url(#p4ab47c8e6d)" d="M 122.604545 152.852314 
L 124.483333 144.795028 
L 126.362121 143.681189 
L 128.240909 146.933765 
L 130.119697 147.16724 
L 131.998485 147.695102 
L 133.877273 146.378788 
L 135.756061 146.159836 
L 141.392424 143.558654 
L 143.271212 143.481236 
L 145.15 142.647445 
L 147.028788 143.295141 
L 148.907576 143.719761 
L 152.665152 144.221027 
L 162.059091 144.046401 
L 163.937879 143.854166 
L 165.816667 143.1165 
L 167.695455 142.663146 
L 169.574242 141.991897 
L 173.331818 142.019555 
L 175.210606 141.51264 
L 178.968182 141.995913 
L 180.84697 141.269886 
L 182.725758 142.10415 
L 184.604545 141.250365 
L 186.483333 140.684604 
L 188.362121 140.588818 
L 190.240909 139.922846 
L 192.119697 139.121231 
L 193.998485 138.748581 
L 195.877273 138.50895 
L 197.756061 137.750106 
L 199.634848 137.664979 
L 201.513636 137.366213 
L 203.392424 137.334201 
L 205.271212 137.602881 
L 207.15 136.990001 
L 209.028788 137.217089 
L 210.907576 136.413732 
L 212.786364 136.519633 
L 214.665152 136.949871 
L 216.543939 136.902016 
L 218.422727 137.074879 
L 220.301515 136.787308 
L 222.180303 137.345443 
L 224.059091 137.477747 
L 225.937879 136.53676 
L 227.816667 136.244451 
L 229.695455 136.593169 
L 231.574242 136.294919 
L 233.45303 136.690036 
L 235.331818 137.624028 
L 237.210606 138.874645 
L 239.089394 141.29138 
L 240.968182 142.870732 
L 242.84697 149.039159 
L 244.725758 158.129068 
L 246.604545 165.928833 
L 248.483333 177.648953 
L 250.362121 187.398228 
L 252.240909 199.306613 
L 254.119697 212.008879 
L 255.998485 225.92816 
L 257.877273 236.785578 
L 265.392424 283.408491 
L 267.271212 293.579769 
L 269.15 306.009021 
L 271.028788 315.55995 
L 272.907576 323.942076 
L 274.786364 333.497 
L 276.665152 341.62683 
L 278.543939 348.204081 
L 280.422727 350.124042 
L 282.301515 350.541634 
L 284.180303 352.239925 
L 286.059091 349.71281 
L 287.937879 350.053566 
L 289.816667 348.845136 
L 291.695455 344.007169 
L 293.574242 340.069844 
L 295.45303 339.29036 
L 297.331818 336.217455 
L 299.210606 332.889522 
L 301.089394 331.926726 
L 302.968182 328.640197 
L 306.725758 325.070591 
L 308.604545 326.329813 
L 310.483333 326.480194 
L 312.362121 325.425274 
L 314.240909 324.16722 
L 316.119697 326.811017 
L 317.998485 326.814543 
L 319.877273 327.045028 
L 321.756061 325.305821 
L 323.634848 324.800562 
L 325.513636 323.931046 
L 327.392424 319.87976 
L 329.271212 320.947166 
L 331.15 320.257077 
L 333.028788 320.790112 
L 334.907576 320.573712 
L 338.665152 318.390781 
L 340.543939 318.116383 
L 342.422727 316.606679 
L 344.301515 315.697427 
L 346.180303 312.261259 
L 348.059091 311.008329 
L 349.937879 309.140918 
L 351.816667 308.244833 
L 353.695455 306.10042 
L 355.574242 307.536042 
L 357.45303 306.867947 
L 361.210606 307.168704 
L 363.089394 306.917952 
L 364.968182 309.313071 
L 366.84697 309.392563 
L 368.725758 310.153904 
L 370.604545 308.545624 
L 372.483333 308.256695 
L 374.362121 309.074034 
L 376.240909 308.14126 
L 378.119697 310.060827 
L 379.998485 313.191816 
L 381.877273 312.039391 
L 383.756061 311.565842 
L 385.634848 313.045383 
L 387.513636 313.65628 
L 389.392424 313.646855 
L 391.271212 315.762427 
L 393.15 314.595564 
L 395.028788 314.723628 
L 396.907576 312.866737 
L 398.786364 312.120388 
L 400.665152 309.751937 
L 402.543939 309.835684 
L 404.422727 308.491548 
L 406.301515 308.458203 
L 408.180303 305.769586 
L 410.059091 304.428708 
L 411.937879 303.927217 
L 413.816667 305.023426 
L 415.695455 300.168668 
L 417.574242 297.468469 
L 419.45303 296.855588 
L 421.331818 297.185793 
L 423.210606 296.28417 
L 425.089394 294.872688 
L 426.968182 293.071812 
L 428.84697 289.639683 
L 430.725758 288.546338 
L 432.604545 287.603505 
L 434.483333 289.717267 
L 436.362121 290.046686 
L 438.240909 290.561754 
L 440.119697 287.355236 
L 441.998485 286.493471 
L 443.877273 283.714851 
L 445.756061 285.733452 
L 447.634848 285.530905 
L 449.513636 283.625182 
L 451.392424 283.180186 
L 453.271212 286.178416 
L 455.15 286.054748 
L 457.028788 285.265688 
L 458.907576 284.935483 
L 462.665152 284.808969 
L 464.543939 285.303382 
L 466.422727 284.788865 
L 468.301515 284.688631 
L 470.180303 285.242642 
L 472.059091 284.277368 
L 473.937879 285.480185 
L 475.816667 287.055561 
L 477.695455 287.381216 
L 477.695455 287.381216 
" style="fill:none;stroke:#ee3377;stroke-dasharray:3.2,0.8,0.5,0.8;stroke-dashoffset:0;stroke-width:0.5;"/>
    <defs>
     <path d="M -1.25 2.5 
L 0 1.25 
L 1.25 2.5 
L 2.5 1.25 
L 1.25 0 
L 2.5 -1.25 
L 1.25 -2.5 
L 0 -1.25 
L -1.25 -2.5 
L -2.5 -1.25 
L -1.25 0 
L -2.5 1.25 
z
" id="mc85ba7a825" style="stroke:#ee3377;stroke-linejoin:miter;"/>
    </defs>
    <g clip-path="url(#p4ab47c8e6d)">
     <use style="fill:#ee3377;stroke:#ee3377;stroke-linejoin:miter;" x="122.604545" xlink:href="#mc85ba7a825" y="152.852314"/>
     <use style="fill:#ee3377;stroke:#ee3377;stroke-linejoin:miter;" x="141.392424" xlink:href="#mc85ba7a825" y="143.558654"/>
     <use style="fill:#ee3377;stroke:#ee3377;stroke-linejoin:miter;" x="160.180303" xlink:href="#mc85ba7a825" y="144.070768"/>
     <use style="fill:#ee3377;stroke:#ee3377;stroke-linejoin:miter;" x="178.968182" xlink:href="#mc85ba7a825" y="141.995913"/>
     <use style="fill:#ee3377;stroke:#ee3377;stroke-linejoin:miter;" x="197.756061" xlink:href="#mc85ba7a825" y="137.750106"/>
     <use style="fill:#ee3377;stroke:#ee3377;stroke-linejoin:miter;" x="216.543939" xlink:href="#mc85ba7a825" y="136.902016"/>
     <use style="fill:#ee3377;stroke:#ee3377;stroke-linejoin:miter;" x="235.331818" xlink:href="#mc85ba7a825" y="137.624028"/>
     <use style="fill:#ee3377;stroke:#ee3377;stroke-linejoin:miter;" x="254.119697" xlink:href="#mc85ba7a825" y="212.008879"/>
     <use style="fill:#ee3377;stroke:#ee3377;stroke-linejoin:miter;" x="272.907576" xlink:href="#mc85ba7a825" y="323.942076"/>
     <use style="fill:#ee3377;stroke:#ee3377;stroke-linejoin:miter;" x="291.695455" xlink:href="#mc85ba7a825" y="344.007169"/>
     <use style="fill:#ee3377;stroke:#ee3377;stroke-linejoin:miter;" x="310.483333" xlink:href="#mc85ba7a825" y="326.480194"/>
     <use style="fill:#ee3377;stroke:#ee3377;stroke-linejoin:miter;" x="329.271212" xlink:href="#mc85ba7a825" y="320.947166"/>
     <use style="fill:#ee3377;stroke:#ee3377;stroke-linejoin:miter;" x="348.059091" xlink:href="#mc85ba7a825" y="311.008329"/>
     <use style="fill:#ee3377;stroke:#ee3377;stroke-linejoin:miter;" x="366.84697" xlink:href="#mc85ba7a825" y="309.392563"/>
     <use style="fill:#ee3377;stroke:#ee3377;stroke-linejoin:miter;" x="385.634848" xlink:href="#mc85ba7a825" y="313.045383"/>
     <use style="fill:#ee3377;stroke:#ee3377;stroke-linejoin:miter;" x="404.422727" xlink:href="#mc85ba7a825" y="308.491548"/>
     <use style="fill:#ee3377;stroke:#ee3377;stroke-linejoin:miter;" x="423.210606" xlink:href="#mc85ba7a825" y="296.28417"/>
     <use style="fill:#ee3377;stroke:#ee3377;stroke-linejoin:miter;" x="441.998485" xlink:href="#mc85ba7a825" y="286.493471"/>
     <use style="fill:#ee3377;stroke:#ee3377;stroke-linejoin:miter;" x="460.786364" xlink:href="#mc85ba7a825" y="284.927514"/>
    </g>
   </g>
   <g id="line2d_43"/>
   <g id="line2d_44"/>
   <g id="line2d_45"/>
   <g id="line2d_46"/>
   <g id="line2d_47">
    <path clip-path="url(#p4ab47c8e6d)" d="M 233.45303 389.251812 
L 233.45303 112.051812 
" style="fill:none;stroke:#000000;stroke-dasharray:2.5,5;stroke-dashoffset:0;stroke-width:0.5;"/>
   </g>
   <g id="line2d_48">
    <path clip-path="url(#p4ab47c8e6d)" d="M 289.816667 389.251812 
L 289.816667 112.051812 
" style="fill:none;stroke:#000000;stroke-dasharray:2.5,5;stroke-dashoffset:0;stroke-width:0.5;"/>
   </g>
   <g id="patch_4">
    <path d="M 104.85 389.251812 
L 104.85 112.051812 
" style="fill:none;stroke:#000000;stroke-linecap:square;stroke-linejoin:miter;stroke-width:0.8;"/>
   </g>
   <g id="patch_5">
    <path d="M 495.45 389.251812 
L 495.45 112.051812 
" style="fill:none;stroke:#000000;stroke-linecap:square;stroke-linejoin:miter;stroke-width:0.8;"/>
   </g>
   <g id="patch_6">
    <path d="M 104.85 389.251812 
L 495.45 389.251812 
" style="fill:none;stroke:#000000;stroke-linecap:square;stroke-linejoin:miter;stroke-width:0.8;"/>
   </g>
   <g id="patch_7">
    <path d="M 104.85 112.051812 
L 495.45 112.051812 
" style="fill:none;stroke:#000000;stroke-linecap:square;stroke-linejoin:miter;stroke-width:0.8;"/>
   </g>
   <g id="legend_1">
    <g id="line2d_49"/>
    <g id="line2d_50"/>
    <g id="text_19">
     <!--   -->
     <g transform="translate(48.8 22.277969)scale(0.13 -0.13)">
      <use xlink:href="#DejaVuSans-32"/>
     </g>
    </g>
    <g id="line2d_51"/>
    <g id="line2d_52"/>
    <g id="text_20">
     <!-- start -->
     <g transform="translate(48.8 41.359531)scale(0.13 -0.13)">
      <use xlink:href="#DejaVuSans-115"/>
      <use x="52.099609" xlink:href="#DejaVuSans-116"/>
      <use x="91.308594" xlink:href="#DejaVuSans-97"/>
      <use x="152.587891" xlink:href="#DejaVuSans-114"/>
      <use x="193.701172" xlink:href="#DejaVuSans-116"/>
     </g>
    </g>
    <g id="line2d_53"/>
    <g id="line2d_54"/>
    <g id="text_21">
     <!-- pre-dirft -->
     <defs>
      <path d="M 4.890625 31.390625 
L 31.203125 31.390625 
L 31.203125 23.390625 
L 4.890625 23.390625 
z
" id="DejaVuSans-45"/>
     </defs>
     <g transform="translate(48.8 60.441094)scale(0.13 -0.13)">
      <use xlink:href="#DejaVuSans-112"/>
      <use x="63.476562" xlink:href="#DejaVuSans-114"/>
      <use x="104.558594" xlink:href="#DejaVuSans-101"/>
      <use x="166.082031" xlink:href="#DejaVuSans-45"/>
      <use x="202.166016" xlink:href="#DejaVuSans-100"/>
      <use x="265.642578" xlink:href="#DejaVuSans-105"/>
      <use x="293.425781" xlink:href="#DejaVuSans-114"/>
      <use x="334.539062" xlink:href="#DejaVuSans-102"/>
      <use x="369.728516" xlink:href="#DejaVuSans-116"/>
     </g>
    </g>
    <g id="line2d_55"/>
    <g id="line2d_56"/>
    <g id="text_22">
     <!-- post-drift -->
     <g transform="translate(48.8 79.522656)scale(0.13 -0.13)">
      <use xlink:href="#DejaVuSans-112"/>
      <use x="63.476562" xlink:href="#DejaVuSans-111"/>
      <use x="124.658203" xlink:href="#DejaVuSans-115"/>
      <use x="176.757812" xlink:href="#DejaVuSans-116"/>
      <use x="215.966797" xlink:href="#DejaVuSans-45"/>
      <use x="252.050781" xlink:href="#DejaVuSans-100"/>
      <use x="315.527344" xlink:href="#DejaVuSans-114"/>
      <use x="356.640625" xlink:href="#DejaVuSans-105"/>
      <use x="384.423828" xlink:href="#DejaVuSans-102"/>
      <use x="419.613281" xlink:href="#DejaVuSans-116"/>
     </g>
    </g>
    <g id="line2d_57"/>
    <g id="line2d_58"/>
    <g id="text_23">
     <!-- end -->
     <g transform="translate(48.8 98.604219)scale(0.13 -0.13)">
      <use xlink:href="#DejaVuSans-101"/>
      <use x="61.523438" xlink:href="#DejaVuSans-110"/>
      <use x="124.902344" xlink:href="#DejaVuSans-100"/>
     </g>
    </g>
    <g id="line2d_59">
     <path d="M 102.918688 17.727969 
L 128.918688 17.727969 
" style="fill:none;stroke:#cc3311;stroke-linecap:square;stroke-width:0.5;"/>
    </g>
    <g id="line2d_60">
     <g>
      <use style="fill:#cc3311;stroke:#cc3311;" x="115.918688" xlink:href="#m83aba1e4d3" y="17.727969"/>
     </g>
    </g>
    <g id="text_24">
     <!-- ESOS -->
     <defs>
      <path d="M 9.8125 72.90625 
L 55.90625 72.90625 
L 55.90625 64.59375 
L 19.671875 64.59375 
L 19.671875 43.015625 
L 54.390625 43.015625 
L 54.390625 34.71875 
L 19.671875 34.71875 
L 19.671875 8.296875 
L 56.78125 8.296875 
L 56.78125 0 
L 9.8125 0 
z
" id="DejaVuSans-69"/>
      <path d="M 53.515625 70.515625 
L 53.515625 60.890625 
Q 47.90625 63.578125 42.921875 64.890625 
Q 37.9375 66.21875 33.296875 66.21875 
Q 25.25 66.21875 20.875 63.09375 
Q 16.5 59.96875 16.5 54.203125 
Q 16.5 49.359375 19.40625 46.890625 
Q 22.3125 44.4375 30.421875 42.921875 
L 36.375 41.703125 
Q 47.40625 39.59375 52.65625 34.296875 
Q 57.90625 29 57.90625 20.125 
Q 57.90625 9.515625 50.796875 4.046875 
Q 43.703125 -1.421875 29.984375 -1.421875 
Q 24.8125 -1.421875 18.96875 -0.25 
Q 13.140625 0.921875 6.890625 3.21875 
L 6.890625 13.375 
Q 12.890625 10.015625 18.65625 8.296875 
Q 24.421875 6.59375 29.984375 6.59375 
Q 38.421875 6.59375 43.015625 9.90625 
Q 47.609375 13.234375 47.609375 19.390625 
Q 47.609375 24.75 44.3125 27.78125 
Q 41.015625 30.8125 33.5 32.328125 
L 27.484375 33.5 
Q 16.453125 35.6875 11.515625 40.375 
Q 6.59375 45.0625 6.59375 53.421875 
Q 6.59375 63.09375 13.40625 68.65625 
Q 20.21875 74.21875 32.171875 74.21875 
Q 37.3125 74.21875 42.625 73.28125 
Q 47.953125 72.359375 53.515625 70.515625 
z
" id="DejaVuSans-83"/>
      <path d="M 39.40625 66.21875 
Q 28.65625 66.21875 22.328125 58.203125 
Q 16.015625 50.203125 16.015625 36.375 
Q 16.015625 22.609375 22.328125 14.59375 
Q 28.65625 6.59375 39.40625 6.59375 
Q 50.140625 6.59375 56.421875 14.59375 
Q 62.703125 22.609375 62.703125 36.375 
Q 62.703125 50.203125 56.421875 58.203125 
Q 50.140625 66.21875 39.40625 66.21875 
z
M 39.40625 74.21875 
Q 54.734375 74.21875 63.90625 63.9375 
Q 73.09375 53.65625 73.09375 36.375 
Q 73.09375 19.140625 63.90625 8.859375 
Q 54.734375 -1.421875 39.40625 -1.421875 
Q 24.03125 -1.421875 14.8125 8.828125 
Q 5.609375 19.09375 5.609375 36.375 
Q 5.609375 53.65625 14.8125 63.9375 
Q 24.03125 74.21875 39.40625 74.21875 
z
" id="DejaVuSans-79"/>
     </defs>
     <g transform="translate(139.318688 22.277969)scale(0.13 -0.13)">
      <use xlink:href="#DejaVuSans-69"/>
      <use x="63.183594" xlink:href="#DejaVuSans-83"/>
      <use x="126.660156" xlink:href="#DejaVuSans-79"/>
      <use x="205.371094" xlink:href="#DejaVuSans-83"/>
     </g>
    </g>
    <g id="line2d_61"/>
    <g id="line2d_62"/>
    <g id="text_25">
     <!-- 1.0000 -->
     <g transform="translate(139.318688 41.359531)scale(0.13 -0.13)">
      <use xlink:href="#DejaVuSans-49"/>
      <use x="63.623047" xlink:href="#DejaVuSans-46"/>
      <use x="95.410156" xlink:href="#DejaVuSans-48"/>
      <use x="159.033203" xlink:href="#DejaVuSans-48"/>
      <use x="222.65625" xlink:href="#DejaVuSans-48"/>
      <use x="286.279297" xlink:href="#DejaVuSans-48"/>
     </g>
    </g>
    <g id="line2d_63"/>
    <g id="line2d_64"/>
    <g id="text_26">
     <!-- 1.0000 -->
     <g transform="translate(139.318688 60.441094)scale(0.13 -0.13)">
      <use xlink:href="#DejaVuSans-49"/>
      <use x="63.623047" xlink:href="#DejaVuSans-46"/>
      <use x="95.410156" xlink:href="#DejaVuSans-48"/>
      <use x="159.033203" xlink:href="#DejaVuSans-48"/>
      <use x="222.65625" xlink:href="#DejaVuSans-48"/>
      <use x="286.279297" xlink:href="#DejaVuSans-48"/>
     </g>
    </g>
    <g id="line2d_65"/>
    <g id="line2d_66"/>
    <g id="text_27">
     <!-- 0.8895 -->
     <g transform="translate(139.318688 79.522656)scale(0.13 -0.13)">
      <use xlink:href="#DejaVuSans-48"/>
      <use x="63.623047" xlink:href="#DejaVuSans-46"/>
      <use x="95.410156" xlink:href="#DejaVuSans-56"/>
      <use x="159.033203" xlink:href="#DejaVuSans-56"/>
      <use x="222.65625" xlink:href="#DejaVuSans-57"/>
      <use x="286.279297" xlink:href="#DejaVuSans-53"/>
     </g>
    </g>
    <g id="line2d_67"/>
    <g id="line2d_68"/>
    <g id="text_28">
     <!-- 0.9706 -->
     <g transform="translate(139.318688 98.604219)scale(0.13 -0.13)">
      <use xlink:href="#DejaVuSans-48"/>
      <use x="63.623047" xlink:href="#DejaVuSans-46"/>
      <use x="95.410156" xlink:href="#DejaVuSans-57"/>
      <use x="159.033203" xlink:href="#DejaVuSans-55"/>
      <use x="222.65625" xlink:href="#DejaVuSans-48"/>
      <use x="286.279297" xlink:href="#DejaVuSans-54"/>
     </g>
    </g>
    <g id="line2d_69">
     <path d="M 179.279563 17.727969 
L 205.279563 17.727969 
" style="fill:none;stroke:#009988;stroke-dasharray:1.85,0.8;stroke-dashoffset:0;stroke-width:0.5;"/>
    </g>
    <g id="line2d_70">
     <g>
      <use style="fill:#009988;stroke:#009988;stroke-linejoin:miter;" x="192.279563" xlink:href="#m27c813f86f" y="17.727969"/>
     </g>
    </g>
    <g id="text_29">
     <!-- OOB -->
     <defs>
      <path d="M 19.671875 34.8125 
L 19.671875 8.109375 
L 35.5 8.109375 
Q 43.453125 8.109375 47.28125 11.40625 
Q 51.125 14.703125 51.125 21.484375 
Q 51.125 28.328125 47.28125 31.5625 
Q 43.453125 34.8125 35.5 34.8125 
z
M 19.671875 64.796875 
L 19.671875 42.828125 
L 34.28125 42.828125 
Q 41.5 42.828125 45.03125 45.53125 
Q 48.578125 48.25 48.578125 53.8125 
Q 48.578125 59.328125 45.03125 62.0625 
Q 41.5 64.796875 34.28125 64.796875 
z
M 9.8125 72.90625 
L 35.015625 72.90625 
Q 46.296875 72.90625 52.390625 68.21875 
Q 58.5 63.53125 58.5 54.890625 
Q 58.5 48.1875 55.375 44.234375 
Q 52.25 40.28125 46.1875 39.3125 
Q 53.46875 37.75 57.5 32.78125 
Q 61.53125 27.828125 61.53125 20.40625 
Q 61.53125 10.640625 54.890625 5.3125 
Q 48.25 0 35.984375 0 
L 9.8125 0 
z
" id="DejaVuSans-66"/>
     </defs>
     <g transform="translate(215.679563 22.277969)scale(0.13 -0.13)">
      <use xlink:href="#DejaVuSans-79"/>
      <use x="78.710938" xlink:href="#DejaVuSans-79"/>
      <use x="157.421875" xlink:href="#DejaVuSans-66"/>
     </g>
    </g>
    <g id="line2d_71"/>
    <g id="line2d_72"/>
    <g id="text_30">
     <!-- 0.9902 -->
     <g transform="translate(215.679563 41.359531)scale(0.13 -0.13)">
      <use xlink:href="#DejaVuSans-48"/>
      <use x="63.623047" xlink:href="#DejaVuSans-46"/>
      <use x="95.410156" xlink:href="#DejaVuSans-57"/>
      <use x="159.033203" xlink:href="#DejaVuSans-57"/>
      <use x="222.65625" xlink:href="#DejaVuSans-48"/>
      <use x="286.279297" xlink:href="#DejaVuSans-50"/>
     </g>
    </g>
    <g id="line2d_73"/>
    <g id="line2d_74"/>
    <g id="text_31">
     <!-- 0.9922 -->
     <g transform="translate(215.679563 60.441094)scale(0.13 -0.13)">
      <use xlink:href="#DejaVuSans-48"/>
      <use x="63.623047" xlink:href="#DejaVuSans-46"/>
      <use x="95.410156" xlink:href="#DejaVuSans-57"/>
      <use x="159.033203" xlink:href="#DejaVuSans-57"/>
      <use x="222.65625" xlink:href="#DejaVuSans-50"/>
      <use x="286.279297" xlink:href="#DejaVuSans-50"/>
     </g>
    </g>
    <g id="line2d_75"/>
    <g id="line2d_76"/>
    <g id="text_32">
     <!-- 0.7732 -->
     <g transform="translate(215.679563 79.522656)scale(0.13 -0.13)">
      <use xlink:href="#DejaVuSans-48"/>
      <use x="63.623047" xlink:href="#DejaVuSans-46"/>
      <use x="95.410156" xlink:href="#DejaVuSans-55"/>
      <use x="159.033203" xlink:href="#DejaVuSans-55"/>
      <use x="222.65625" xlink:href="#DejaVuSans-51"/>
      <use x="286.279297" xlink:href="#DejaVuSans-50"/>
     </g>
    </g>
    <g id="line2d_77"/>
    <g id="line2d_78"/>
    <g id="text_33">
     <!-- 0.9012 -->
     <g transform="translate(215.679563 98.604219)scale(0.13 -0.13)">
      <use xlink:href="#DejaVuSans-48"/>
      <use x="63.623047" xlink:href="#DejaVuSans-46"/>
      <use x="95.410156" xlink:href="#DejaVuSans-57"/>
      <use x="159.033203" xlink:href="#DejaVuSans-48"/>
      <use x="222.65625" xlink:href="#DejaVuSans-49"/>
      <use x="286.279297" xlink:href="#DejaVuSans-50"/>
     </g>
    </g>
    <g id="line2d_79">
     <path d="M 255.640438 17.727969 
L 281.640438 17.727969 
" style="fill:none;stroke:#0077bb;stroke-dasharray:3.2,0.8,0.5,0.8;stroke-dashoffset:0;stroke-width:0.5;"/>
    </g>
    <g id="line2d_80">
     <g>
      <use style="fill:#0077bb;stroke:#0077bb;stroke-linejoin:miter;" x="268.640438" xlink:href="#md1922f50e8" y="17.727969"/>
     </g>
    </g>
    <g id="text_34">
     <!-- UOB -->
     <defs>
      <path d="M 8.6875 72.90625 
L 18.609375 72.90625 
L 18.609375 28.609375 
Q 18.609375 16.890625 22.84375 11.734375 
Q 27.09375 6.59375 36.625 6.59375 
Q 46.09375 6.59375 50.34375 11.734375 
Q 54.59375 16.890625 54.59375 28.609375 
L 54.59375 72.90625 
L 64.5 72.90625 
L 64.5 27.390625 
Q 64.5 13.140625 57.4375 5.859375 
Q 50.390625 -1.421875 36.625 -1.421875 
Q 22.796875 -1.421875 15.734375 5.859375 
Q 8.6875 13.140625 8.6875 27.390625 
z
" id="DejaVuSans-85"/>
     </defs>
     <g transform="translate(292.040438 22.277969)scale(0.13 -0.13)">
      <use xlink:href="#DejaVuSans-85"/>
      <use x="73.193359" xlink:href="#DejaVuSans-79"/>
      <use x="151.904297" xlink:href="#DejaVuSans-66"/>
     </g>
    </g>
    <g id="line2d_81"/>
    <g id="line2d_82"/>
    <g id="text_35">
     <!-- 1.0000 -->
     <g transform="translate(292.040438 41.359531)scale(0.13 -0.13)">
      <use xlink:href="#DejaVuSans-49"/>
      <use x="63.623047" xlink:href="#DejaVuSans-46"/>
      <use x="95.410156" xlink:href="#DejaVuSans-48"/>
      <use x="159.033203" xlink:href="#DejaVuSans-48"/>
      <use x="222.65625" xlink:href="#DejaVuSans-48"/>
      <use x="286.279297" xlink:href="#DejaVuSans-48"/>
     </g>
    </g>
    <g id="line2d_83"/>
    <g id="line2d_84"/>
    <g id="text_36">
     <!-- 0.9977 -->
     <g transform="translate(292.040438 60.441094)scale(0.13 -0.13)">
      <use xlink:href="#DejaVuSans-48"/>
      <use x="63.623047" xlink:href="#DejaVuSans-46"/>
      <use x="95.410156" xlink:href="#DejaVuSans-57"/>
      <use x="159.033203" xlink:href="#DejaVuSans-57"/>
      <use x="222.65625" xlink:href="#DejaVuSans-55"/>
      <use x="286.279297" xlink:href="#DejaVuSans-55"/>
     </g>
    </g>
    <g id="line2d_85"/>
    <g id="line2d_86"/>
    <g id="text_37">
     <!-- 0.7942 -->
     <g transform="translate(292.040438 79.522656)scale(0.13 -0.13)">
      <use xlink:href="#DejaVuSans-48"/>
      <use x="63.623047" xlink:href="#DejaVuSans-46"/>
      <use x="95.410156" xlink:href="#DejaVuSans-55"/>
      <use x="159.033203" xlink:href="#DejaVuSans-57"/>
      <use x="222.65625" xlink:href="#DejaVuSans-52"/>
      <use x="286.279297" xlink:href="#DejaVuSans-50"/>
     </g>
    </g>
    <g id="line2d_87"/>
    <g id="line2d_88"/>
    <g id="text_38">
     <!-- 0.9516 -->
     <g transform="translate(292.040438 98.604219)scale(0.13 -0.13)">
      <use xlink:href="#DejaVuSans-48"/>
      <use x="63.623047" xlink:href="#DejaVuSans-46"/>
      <use x="95.410156" xlink:href="#DejaVuSans-57"/>
      <use x="159.033203" xlink:href="#DejaVuSans-53"/>
      <use x="222.65625" xlink:href="#DejaVuSans-49"/>
      <use x="286.279297" xlink:href="#DejaVuSans-54"/>
     </g>
    </g>
    <g id="line2d_89">
     <path d="M 332.001313 17.727969 
L 358.001313 17.727969 
" style="fill:none;stroke:#ee7733;stroke-dasharray:0.5,0.825;stroke-dashoffset:0;stroke-width:0.5;"/>
    </g>
    <g id="line2d_90">
     <g>
      <use style="fill:#ee7733;stroke:#ee7733;stroke-linejoin:bevel;" x="345.001313" xlink:href="#m44a433344c" y="17.727969"/>
     </g>
    </g>
    <g id="text_39">
     <!-- OB -->
     <g transform="translate(368.401313 22.277969)scale(0.13 -0.13)">
      <use xlink:href="#DejaVuSans-79"/>
      <use x="78.710938" xlink:href="#DejaVuSans-66"/>
     </g>
    </g>
    <g id="line2d_91"/>
    <g id="line2d_92"/>
    <g id="text_40">
     <!-- 0.9314 -->
     <g transform="translate(368.401313 41.359531)scale(0.13 -0.13)">
      <use xlink:href="#DejaVuSans-48"/>
      <use x="63.623047" xlink:href="#DejaVuSans-46"/>
      <use x="95.410156" xlink:href="#DejaVuSans-57"/>
      <use x="159.033203" xlink:href="#DejaVuSans-51"/>
      <use x="222.65625" xlink:href="#DejaVuSans-49"/>
      <use x="286.279297" xlink:href="#DejaVuSans-52"/>
     </g>
    </g>
    <g id="line2d_93"/>
    <g id="line2d_94"/>
    <g id="text_41">
     <!-- 0.9742 -->
     <g transform="translate(368.401313 60.441094)scale(0.13 -0.13)">
      <use xlink:href="#DejaVuSans-48"/>
      <use x="63.623047" xlink:href="#DejaVuSans-46"/>
      <use x="95.410156" xlink:href="#DejaVuSans-57"/>
      <use x="159.033203" xlink:href="#DejaVuSans-55"/>
      <use x="222.65625" xlink:href="#DejaVuSans-52"/>
      <use x="286.279297" xlink:href="#DejaVuSans-50"/>
     </g>
    </g>
    <g id="line2d_95"/>
    <g id="line2d_96"/>
    <g id="text_42">
     <!-- 0.2991 -->
     <g transform="translate(368.401313 79.522656)scale(0.13 -0.13)">
      <use xlink:href="#DejaVuSans-48"/>
      <use x="63.623047" xlink:href="#DejaVuSans-46"/>
      <use x="95.410156" xlink:href="#DejaVuSans-50"/>
      <use x="159.033203" xlink:href="#DejaVuSans-57"/>
      <use x="222.65625" xlink:href="#DejaVuSans-57"/>
      <use x="286.279297" xlink:href="#DejaVuSans-49"/>
     </g>
    </g>
    <g id="line2d_97"/>
    <g id="line2d_98"/>
    <g id="text_43">
     <!-- 0.5144 -->
     <g transform="translate(368.401313 98.604219)scale(0.13 -0.13)">
      <use xlink:href="#DejaVuSans-48"/>
      <use x="63.623047" xlink:href="#DejaVuSans-46"/>
      <use x="95.410156" xlink:href="#DejaVuSans-53"/>
      <use x="159.033203" xlink:href="#DejaVuSans-49"/>
      <use x="222.65625" xlink:href="#DejaVuSans-52"/>
      <use x="286.279297" xlink:href="#DejaVuSans-52"/>
     </g>
    </g>
    <g id="line2d_99">
     <path d="M 408.362188 17.727969 
L 434.362188 17.727969 
" style="fill:none;stroke:#ee3377;stroke-dasharray:3.2,0.8,0.5,0.8;stroke-dashoffset:0;stroke-width:0.5;"/>
    </g>
    <g id="line2d_100">
     <g>
      <use style="fill:#ee3377;stroke:#ee3377;stroke-linejoin:miter;" x="421.362188" xlink:href="#mc85ba7a825" y="17.727969"/>
     </g>
    </g>
    <g id="text_44">
     <!-- VFDT -->
     <defs>
      <path d="M 28.609375 0 
L 0.78125 72.90625 
L 11.078125 72.90625 
L 34.1875 11.53125 
L 57.328125 72.90625 
L 67.578125 72.90625 
L 39.796875 0 
z
" id="DejaVuSans-86"/>
      <path d="M 9.8125 72.90625 
L 51.703125 72.90625 
L 51.703125 64.59375 
L 19.671875 64.59375 
L 19.671875 43.109375 
L 48.578125 43.109375 
L 48.578125 34.8125 
L 19.671875 34.8125 
L 19.671875 0 
L 9.8125 0 
z
" id="DejaVuSans-70"/>
      <path d="M 19.671875 64.796875 
L 19.671875 8.109375 
L 31.59375 8.109375 
Q 46.6875 8.109375 53.6875 14.9375 
Q 60.6875 21.78125 60.6875 36.53125 
Q 60.6875 51.171875 53.6875 57.984375 
Q 46.6875 64.796875 31.59375 64.796875 
z
M 9.8125 72.90625 
L 30.078125 72.90625 
Q 51.265625 72.90625 61.171875 64.09375 
Q 71.09375 55.28125 71.09375 36.53125 
Q 71.09375 17.671875 61.125 8.828125 
Q 51.171875 0 30.078125 0 
L 9.8125 0 
z
" id="DejaVuSans-68"/>
      <path d="M -0.296875 72.90625 
L 61.375 72.90625 
L 61.375 64.59375 
L 35.5 64.59375 
L 35.5 0 
L 25.59375 0 
L 25.59375 64.59375 
L -0.296875 64.59375 
z
" id="DejaVuSans-84"/>
     </defs>
     <g transform="translate(444.762188 22.277969)scale(0.13 -0.13)">
      <use xlink:href="#DejaVuSans-86"/>
      <use x="68.408203" xlink:href="#DejaVuSans-70"/>
      <use x="125.927734" xlink:href="#DejaVuSans-68"/>
      <use x="202.929688" xlink:href="#DejaVuSans-84"/>
     </g>
    </g>
    <g id="line2d_101"/>
    <g id="line2d_102"/>
    <g id="text_45">
     <!-- 0.9216 -->
     <g transform="translate(444.762188 41.359531)scale(0.13 -0.13)">
      <use xlink:href="#DejaVuSans-48"/>
      <use x="63.623047" xlink:href="#DejaVuSans-46"/>
      <use x="95.410156" xlink:href="#DejaVuSans-57"/>
      <use x="159.033203" xlink:href="#DejaVuSans-50"/>
      <use x="222.65625" xlink:href="#DejaVuSans-49"/>
      <use x="286.279297" xlink:href="#DejaVuSans-54"/>
     </g>
    </g>
    <g id="line2d_103"/>
    <g id="line2d_104"/>
    <g id="text_46">
     <!-- 0.9665 -->
     <g transform="translate(444.762188 60.441094)scale(0.13 -0.13)">
      <use xlink:href="#DejaVuSans-48"/>
      <use x="63.623047" xlink:href="#DejaVuSans-46"/>
      <use x="95.410156" xlink:href="#DejaVuSans-57"/>
      <use x="159.033203" xlink:href="#DejaVuSans-54"/>
      <use x="222.65625" xlink:href="#DejaVuSans-54"/>
      <use x="286.279297" xlink:href="#DejaVuSans-53"/>
     </g>
    </g>
    <g id="line2d_105"/>
    <g id="line2d_106"/>
    <g id="text_47">
     <!-- 0.3765 -->
     <g transform="translate(444.762188 79.522656)scale(0.13 -0.13)">
      <use xlink:href="#DejaVuSans-48"/>
      <use x="63.623047" xlink:href="#DejaVuSans-46"/>
      <use x="95.410156" xlink:href="#DejaVuSans-51"/>
      <use x="159.033203" xlink:href="#DejaVuSans-55"/>
      <use x="222.65625" xlink:href="#DejaVuSans-54"/>
      <use x="286.279297" xlink:href="#DejaVuSans-53"/>
     </g>
    </g>
    <g id="line2d_107"/>
    <g id="line2d_108"/>
    <g id="text_48">
     <!-- 0.5474 -->
     <g transform="translate(444.762188 98.604219)scale(0.13 -0.13)">
      <use xlink:href="#DejaVuSans-48"/>
      <use x="63.623047" xlink:href="#DejaVuSans-46"/>
      <use x="95.410156" xlink:href="#DejaVuSans-53"/>
      <use x="159.033203" xlink:href="#DejaVuSans-52"/>
      <use x="222.65625" xlink:href="#DejaVuSans-55"/>
      <use x="286.279297" xlink:href="#DejaVuSans-52"/>
     </g>
    </g>
   </g>
  </g>
 </g>
 <defs>
  <clipPath id="p4ab47c8e6d">
   <rect height="277.2" width="390.6" x="104.85" y="112.051812"/>
  </clipPath>
 </defs>
</svg>
