<?xml version="1.0" encoding="utf-8" standalone="no"?>
<!DOCTYPE svg PUBLIC "-//W3C//DTD SVG 1.1//EN"
  "http://www.w3.org/Graphics/SVG/1.1/DTD/svg11.dtd">
<!-- Created with matplotlib (https://matplotlib.org/) -->
<svg height="432.614937pt" version="1.1" viewBox="0 0 502.65 432.614937" width="502.65pt" xmlns="http://www.w3.org/2000/svg" xmlns:xlink="http://www.w3.org/1999/xlink">
 <defs>
  <style type="text/css">
*{stroke-linecap:butt;stroke-linejoin:round;white-space:pre;}
  </style>
 </defs>
 <g id="figure_1">
  <g id="patch_1">
   <path d="M 0 432.614937 
L 502.65 432.614937 
L 502.65 0 
L 0 0 
z
" style="fill:#ffffff;"/>
  </g>
  <g id="axes_1">
   <g id="patch_2">
    <path d="M 104.85 389.251812 
L 495.45 389.251812 
L 495.45 112.051812 
L 104.85 112.051812 
z
" style="fill:#ffffff;"/>
   </g>
   <g id="matplotlib.axis_1">
    <g id="xtick_1">
     <g id="line2d_1">
      <defs>
       <path d="M 0 0 
L 0 3.5 
" id="m148d307d09" style="stroke:#000000;stroke-width:0.8;"/>
      </defs>
      <g>
       <use style="stroke:#000000;stroke-width:0.8;" x="148.907576" xlink:href="#m148d307d09" y="389.251812"/>
      </g>
     </g>
     <g id="text_1">
      <!-- 25 -->
      <defs>
       <path d="M 19.1875 8.296875 
L 53.609375 8.296875 
L 53.609375 0 
L 7.328125 0 
L 7.328125 8.296875 
Q 12.9375 14.109375 22.625 23.890625 
Q 32.328125 33.6875 34.8125 36.53125 
Q 39.546875 41.84375 41.421875 45.53125 
Q 43.3125 49.21875 43.3125 52.78125 
Q 43.3125 58.59375 39.234375 62.25 
Q 35.15625 65.921875 28.609375 65.921875 
Q 23.96875 65.921875 18.8125 64.3125 
Q 13.671875 62.703125 7.8125 59.421875 
L 7.8125 69.390625 
Q 13.765625 71.78125 18.9375 73 
Q 24.125 74.21875 28.421875 74.21875 
Q 39.75 74.21875 46.484375 68.546875 
Q 53.21875 62.890625 53.21875 53.421875 
Q 53.21875 48.921875 51.53125 44.890625 
Q 49.859375 40.875 45.40625 35.40625 
Q 44.1875 33.984375 37.640625 27.21875 
Q 31.109375 20.453125 19.1875 8.296875 
z
" id="DejaVuSans-50"/>
       <path d="M 10.796875 72.90625 
L 49.515625 72.90625 
L 49.515625 64.59375 
L 19.828125 64.59375 
L 19.828125 46.734375 
Q 21.96875 47.46875 24.109375 47.828125 
Q 26.265625 48.1875 28.421875 48.1875 
Q 40.625 48.1875 47.75 41.5 
Q 54.890625 34.8125 54.890625 23.390625 
Q 54.890625 11.625 47.5625 5.09375 
Q 40.234375 -1.421875 26.90625 -1.421875 
Q 22.3125 -1.421875 17.546875 -0.640625 
Q 12.796875 0.140625 7.71875 1.703125 
L 7.71875 11.625 
Q 12.109375 9.234375 16.796875 8.0625 
Q 21.484375 6.890625 26.703125 6.890625 
Q 35.15625 6.890625 40.078125 11.328125 
Q 45.015625 15.765625 45.015625 23.390625 
Q 45.015625 31 40.078125 35.4375 
Q 35.15625 39.890625 26.703125 39.890625 
Q 22.75 39.890625 18.8125 39.015625 
Q 14.890625 38.140625 10.796875 36.28125 
z
" id="DejaVuSans-53"/>
      </defs>
      <g transform="translate(140.636326 406.129781)scale(0.13 -0.13)">
       <use xlink:href="#DejaVuSans-50"/>
       <use x="63.623047" xlink:href="#DejaVuSans-53"/>
      </g>
     </g>
    </g>
    <g id="xtick_2">
     <g id="line2d_2">
      <g>
       <use style="stroke:#000000;stroke-width:0.8;" x="195.877273" xlink:href="#m148d307d09" y="389.251812"/>
      </g>
     </g>
     <g id="text_2">
      <!-- 50 -->
      <defs>
       <path d="M 31.78125 66.40625 
Q 24.171875 66.40625 20.328125 58.90625 
Q 16.5 51.421875 16.5 36.375 
Q 16.5 21.390625 20.328125 13.890625 
Q 24.171875 6.390625 31.78125 6.390625 
Q 39.453125 6.390625 43.28125 13.890625 
Q 47.125 21.390625 47.125 36.375 
Q 47.125 51.421875 43.28125 58.90625 
Q 39.453125 66.40625 31.78125 66.40625 
z
M 31.78125 74.21875 
Q 44.046875 74.21875 50.515625 64.515625 
Q 56.984375 54.828125 56.984375 36.375 
Q 56.984375 17.96875 50.515625 8.265625 
Q 44.046875 -1.421875 31.78125 -1.421875 
Q 19.53125 -1.421875 13.0625 8.265625 
Q 6.59375 17.96875 6.59375 36.375 
Q 6.59375 54.828125 13.0625 64.515625 
Q 19.53125 74.21875 31.78125 74.21875 
z
" id="DejaVuSans-48"/>
      </defs>
      <g transform="translate(187.606023 406.129781)scale(0.13 -0.13)">
       <use xlink:href="#DejaVuSans-53"/>
       <use x="63.623047" xlink:href="#DejaVuSans-48"/>
      </g>
     </g>
    </g>
    <g id="xtick_3">
     <g id="line2d_3">
      <g>
       <use style="stroke:#000000;stroke-width:0.8;" x="242.84697" xlink:href="#m148d307d09" y="389.251812"/>
      </g>
     </g>
     <g id="text_3">
      <!-- 75 -->
      <defs>
       <path d="M 8.203125 72.90625 
L 55.078125 72.90625 
L 55.078125 68.703125 
L 28.609375 0 
L 18.3125 0 
L 43.21875 64.59375 
L 8.203125 64.59375 
z
" id="DejaVuSans-55"/>
      </defs>
      <g transform="translate(234.57572 406.129781)scale(0.13 -0.13)">
       <use xlink:href="#DejaVuSans-55"/>
       <use x="63.623047" xlink:href="#DejaVuSans-53"/>
      </g>
     </g>
    </g>
    <g id="xtick_4">
     <g id="line2d_4">
      <g>
       <use style="stroke:#000000;stroke-width:0.8;" x="289.816667" xlink:href="#m148d307d09" y="389.251812"/>
      </g>
     </g>
     <g id="text_4">
      <!-- 100 -->
      <defs>
       <path d="M 12.40625 8.296875 
L 28.515625 8.296875 
L 28.515625 63.921875 
L 10.984375 60.40625 
L 10.984375 69.390625 
L 28.421875 72.90625 
L 38.28125 72.90625 
L 38.28125 8.296875 
L 54.390625 8.296875 
L 54.390625 0 
L 12.40625 0 
z
" id="DejaVuSans-49"/>
      </defs>
      <g transform="translate(277.409792 406.129781)scale(0.13 -0.13)">
       <use xlink:href="#DejaVuSans-49"/>
       <use x="63.623047" xlink:href="#DejaVuSans-48"/>
       <use x="127.246094" xlink:href="#DejaVuSans-48"/>
      </g>
     </g>
    </g>
    <g id="xtick_5">
     <g id="line2d_5">
      <g>
       <use style="stroke:#000000;stroke-width:0.8;" x="336.786364" xlink:href="#m148d307d09" y="389.251812"/>
      </g>
     </g>
     <g id="text_5">
      <!-- 125 -->
      <g transform="translate(324.379489 406.129781)scale(0.13 -0.13)">
       <use xlink:href="#DejaVuSans-49"/>
       <use x="63.623047" xlink:href="#DejaVuSans-50"/>
       <use x="127.246094" xlink:href="#DejaVuSans-53"/>
      </g>
     </g>
    </g>
    <g id="xtick_6">
     <g id="line2d_6">
      <g>
       <use style="stroke:#000000;stroke-width:0.8;" x="383.756061" xlink:href="#m148d307d09" y="389.251812"/>
      </g>
     </g>
     <g id="text_6">
      <!-- 150 -->
      <g transform="translate(371.349186 406.129781)scale(0.13 -0.13)">
       <use xlink:href="#DejaVuSans-49"/>
       <use x="63.623047" xlink:href="#DejaVuSans-53"/>
       <use x="127.246094" xlink:href="#DejaVuSans-48"/>
      </g>
     </g>
    </g>
    <g id="xtick_7">
     <g id="line2d_7">
      <g>
       <use style="stroke:#000000;stroke-width:0.8;" x="430.725758" xlink:href="#m148d307d09" y="389.251812"/>
      </g>
     </g>
     <g id="text_7">
      <!-- 175 -->
      <g transform="translate(418.318883 406.129781)scale(0.13 -0.13)">
       <use xlink:href="#DejaVuSans-49"/>
       <use x="63.623047" xlink:href="#DejaVuSans-55"/>
       <use x="127.246094" xlink:href="#DejaVuSans-53"/>
      </g>
     </g>
    </g>
    <g id="xtick_8">
     <g id="line2d_8">
      <g>
       <use style="stroke:#000000;stroke-width:0.8;" x="477.695455" xlink:href="#m148d307d09" y="389.251812"/>
      </g>
     </g>
     <g id="text_8">
      <!-- 200 -->
      <g transform="translate(465.28858 406.129781)scale(0.13 -0.13)">
       <use xlink:href="#DejaVuSans-50"/>
       <use x="63.623047" xlink:href="#DejaVuSans-48"/>
       <use x="127.246094" xlink:href="#DejaVuSans-48"/>
      </g>
     </g>
    </g>
    <g id="text_9">
     <!-- Number of processed instances [x1000] -->
     <defs>
      <path d="M 9.8125 72.90625 
L 23.09375 72.90625 
L 55.421875 11.921875 
L 55.421875 72.90625 
L 64.984375 72.90625 
L 64.984375 0 
L 51.703125 0 
L 19.390625 60.984375 
L 19.390625 0 
L 9.8125 0 
z
" id="DejaVuSans-78"/>
      <path d="M 8.5 21.578125 
L 8.5 54.6875 
L 17.484375 54.6875 
L 17.484375 21.921875 
Q 17.484375 14.15625 20.5 10.265625 
Q 23.53125 6.390625 29.59375 6.390625 
Q 36.859375 6.390625 41.078125 11.03125 
Q 45.3125 15.671875 45.3125 23.6875 
L 45.3125 54.6875 
L 54.296875 54.6875 
L 54.296875 0 
L 45.3125 0 
L 45.3125 8.40625 
Q 42.046875 3.421875 37.71875 1 
Q 33.40625 -1.421875 27.6875 -1.421875 
Q 18.265625 -1.421875 13.375 4.4375 
Q 8.5 10.296875 8.5 21.578125 
z
M 31.109375 56 
z
" id="DejaVuSans-117"/>
      <path d="M 52 44.1875 
Q 55.375 50.25 60.0625 53.125 
Q 64.75 56 71.09375 56 
Q 79.640625 56 84.28125 50.015625 
Q 88.921875 44.046875 88.921875 33.015625 
L 88.921875 0 
L 79.890625 0 
L 79.890625 32.71875 
Q 79.890625 40.578125 77.09375 44.375 
Q 74.3125 48.1875 68.609375 48.1875 
Q 61.625 48.1875 57.5625 43.546875 
Q 53.515625 38.921875 53.515625 30.90625 
L 53.515625 0 
L 44.484375 0 
L 44.484375 32.71875 
Q 44.484375 40.625 41.703125 44.40625 
Q 38.921875 48.1875 33.109375 48.1875 
Q 26.21875 48.1875 22.15625 43.53125 
Q 18.109375 38.875 18.109375 30.90625 
L 18.109375 0 
L 9.078125 0 
L 9.078125 54.6875 
L 18.109375 54.6875 
L 18.109375 46.1875 
Q 21.1875 51.21875 25.484375 53.609375 
Q 29.78125 56 35.6875 56 
Q 41.65625 56 45.828125 52.96875 
Q 50 49.953125 52 44.1875 
z
" id="DejaVuSans-109"/>
      <path d="M 48.6875 27.296875 
Q 48.6875 37.203125 44.609375 42.84375 
Q 40.53125 48.484375 33.40625 48.484375 
Q 26.265625 48.484375 22.1875 42.84375 
Q 18.109375 37.203125 18.109375 27.296875 
Q 18.109375 17.390625 22.1875 11.75 
Q 26.265625 6.109375 33.40625 6.109375 
Q 40.53125 6.109375 44.609375 11.75 
Q 48.6875 17.390625 48.6875 27.296875 
z
M 18.109375 46.390625 
Q 20.953125 51.265625 25.265625 53.625 
Q 29.59375 56 35.59375 56 
Q 45.5625 56 51.78125 48.09375 
Q 58.015625 40.1875 58.015625 27.296875 
Q 58.015625 14.40625 51.78125 6.484375 
Q 45.5625 -1.421875 35.59375 -1.421875 
Q 29.59375 -1.421875 25.265625 0.953125 
Q 20.953125 3.328125 18.109375 8.203125 
L 18.109375 0 
L 9.078125 0 
L 9.078125 75.984375 
L 18.109375 75.984375 
z
" id="DejaVuSans-98"/>
      <path d="M 56.203125 29.59375 
L 56.203125 25.203125 
L 14.890625 25.203125 
Q 15.484375 15.921875 20.484375 11.0625 
Q 25.484375 6.203125 34.421875 6.203125 
Q 39.59375 6.203125 44.453125 7.46875 
Q 49.3125 8.734375 54.109375 11.28125 
L 54.109375 2.78125 
Q 49.265625 0.734375 44.1875 -0.34375 
Q 39.109375 -1.421875 33.890625 -1.421875 
Q 20.796875 -1.421875 13.15625 6.1875 
Q 5.515625 13.8125 5.515625 26.8125 
Q 5.515625 40.234375 12.765625 48.109375 
Q 20.015625 56 32.328125 56 
Q 43.359375 56 49.78125 48.890625 
Q 56.203125 41.796875 56.203125 29.59375 
z
M 47.21875 32.234375 
Q 47.125 39.59375 43.09375 43.984375 
Q 39.0625 48.390625 32.421875 48.390625 
Q 24.90625 48.390625 20.390625 44.140625 
Q 15.875 39.890625 15.1875 32.171875 
z
" id="DejaVuSans-101"/>
      <path d="M 41.109375 46.296875 
Q 39.59375 47.171875 37.8125 47.578125 
Q 36.03125 48 33.890625 48 
Q 26.265625 48 22.1875 43.046875 
Q 18.109375 38.09375 18.109375 28.8125 
L 18.109375 0 
L 9.078125 0 
L 9.078125 54.6875 
L 18.109375 54.6875 
L 18.109375 46.1875 
Q 20.953125 51.171875 25.484375 53.578125 
Q 30.03125 56 36.53125 56 
Q 37.453125 56 38.578125 55.875 
Q 39.703125 55.765625 41.0625 55.515625 
z
" id="DejaVuSans-114"/>
      <path id="DejaVuSans-32"/>
      <path d="M 30.609375 48.390625 
Q 23.390625 48.390625 19.1875 42.75 
Q 14.984375 37.109375 14.984375 27.296875 
Q 14.984375 17.484375 19.15625 11.84375 
Q 23.34375 6.203125 30.609375 6.203125 
Q 37.796875 6.203125 41.984375 11.859375 
Q 46.1875 17.53125 46.1875 27.296875 
Q 46.1875 37.015625 41.984375 42.703125 
Q 37.796875 48.390625 30.609375 48.390625 
z
M 30.609375 56 
Q 42.328125 56 49.015625 48.375 
Q 55.71875 40.765625 55.71875 27.296875 
Q 55.71875 13.875 49.015625 6.21875 
Q 42.328125 -1.421875 30.609375 -1.421875 
Q 18.84375 -1.421875 12.171875 6.21875 
Q 5.515625 13.875 5.515625 27.296875 
Q 5.515625 40.765625 12.171875 48.375 
Q 18.84375 56 30.609375 56 
z
" id="DejaVuSans-111"/>
      <path d="M 37.109375 75.984375 
L 37.109375 68.5 
L 28.515625 68.5 
Q 23.6875 68.5 21.796875 66.546875 
Q 19.921875 64.59375 19.921875 59.515625 
L 19.921875 54.6875 
L 34.71875 54.6875 
L 34.71875 47.703125 
L 19.921875 47.703125 
L 19.921875 0 
L 10.890625 0 
L 10.890625 47.703125 
L 2.296875 47.703125 
L 2.296875 54.6875 
L 10.890625 54.6875 
L 10.890625 58.5 
Q 10.890625 67.625 15.140625 71.796875 
Q 19.390625 75.984375 28.609375 75.984375 
z
" id="DejaVuSans-102"/>
      <path d="M 18.109375 8.203125 
L 18.109375 -20.796875 
L 9.078125 -20.796875 
L 9.078125 54.6875 
L 18.109375 54.6875 
L 18.109375 46.390625 
Q 20.953125 51.265625 25.265625 53.625 
Q 29.59375 56 35.59375 56 
Q 45.5625 56 51.78125 48.09375 
Q 58.015625 40.1875 58.015625 27.296875 
Q 58.015625 14.40625 51.78125 6.484375 
Q 45.5625 -1.421875 35.59375 -1.421875 
Q 29.59375 -1.421875 25.265625 0.953125 
Q 20.953125 3.328125 18.109375 8.203125 
z
M 48.6875 27.296875 
Q 48.6875 37.203125 44.609375 42.84375 
Q 40.53125 48.484375 33.40625 48.484375 
Q 26.265625 48.484375 22.1875 42.84375 
Q 18.109375 37.203125 18.109375 27.296875 
Q 18.109375 17.390625 22.1875 11.75 
Q 26.265625 6.109375 33.40625 6.109375 
Q 40.53125 6.109375 44.609375 11.75 
Q 48.6875 17.390625 48.6875 27.296875 
z
" id="DejaVuSans-112"/>
      <path d="M 48.78125 52.59375 
L 48.78125 44.1875 
Q 44.96875 46.296875 41.140625 47.34375 
Q 37.3125 48.390625 33.40625 48.390625 
Q 24.65625 48.390625 19.8125 42.84375 
Q 14.984375 37.3125 14.984375 27.296875 
Q 14.984375 17.28125 19.8125 11.734375 
Q 24.65625 6.203125 33.40625 6.203125 
Q 37.3125 6.203125 41.140625 7.25 
Q 44.96875 8.296875 48.78125 10.40625 
L 48.78125 2.09375 
Q 45.015625 0.34375 40.984375 -0.53125 
Q 36.96875 -1.421875 32.421875 -1.421875 
Q 20.0625 -1.421875 12.78125 6.34375 
Q 5.515625 14.109375 5.515625 27.296875 
Q 5.515625 40.671875 12.859375 48.328125 
Q 20.21875 56 33.015625 56 
Q 37.15625 56 41.109375 55.140625 
Q 45.0625 54.296875 48.78125 52.59375 
z
" id="DejaVuSans-99"/>
      <path d="M 44.28125 53.078125 
L 44.28125 44.578125 
Q 40.484375 46.53125 36.375 47.5 
Q 32.28125 48.484375 27.875 48.484375 
Q 21.1875 48.484375 17.84375 46.4375 
Q 14.5 44.390625 14.5 40.28125 
Q 14.5 37.15625 16.890625 35.375 
Q 19.28125 33.59375 26.515625 31.984375 
L 29.59375 31.296875 
Q 39.15625 29.25 43.1875 25.515625 
Q 47.21875 21.78125 47.21875 15.09375 
Q 47.21875 7.46875 41.1875 3.015625 
Q 35.15625 -1.421875 24.609375 -1.421875 
Q 20.21875 -1.421875 15.453125 -0.5625 
Q 10.6875 0.296875 5.421875 2 
L 5.421875 11.28125 
Q 10.40625 8.6875 15.234375 7.390625 
Q 20.0625 6.109375 24.8125 6.109375 
Q 31.15625 6.109375 34.5625 8.28125 
Q 37.984375 10.453125 37.984375 14.40625 
Q 37.984375 18.0625 35.515625 20.015625 
Q 33.0625 21.96875 24.703125 23.78125 
L 21.578125 24.515625 
Q 13.234375 26.265625 9.515625 29.90625 
Q 5.8125 33.546875 5.8125 39.890625 
Q 5.8125 47.609375 11.28125 51.796875 
Q 16.75 56 26.8125 56 
Q 31.78125 56 36.171875 55.265625 
Q 40.578125 54.546875 44.28125 53.078125 
z
" id="DejaVuSans-115"/>
      <path d="M 45.40625 46.390625 
L 45.40625 75.984375 
L 54.390625 75.984375 
L 54.390625 0 
L 45.40625 0 
L 45.40625 8.203125 
Q 42.578125 3.328125 38.25 0.953125 
Q 33.9375 -1.421875 27.875 -1.421875 
Q 17.96875 -1.421875 11.734375 6.484375 
Q 5.515625 14.40625 5.515625 27.296875 
Q 5.515625 40.1875 11.734375 48.09375 
Q 17.96875 56 27.875 56 
Q 33.9375 56 38.25 53.625 
Q 42.578125 51.265625 45.40625 46.390625 
z
M 14.796875 27.296875 
Q 14.796875 17.390625 18.875 11.75 
Q 22.953125 6.109375 30.078125 6.109375 
Q 37.203125 6.109375 41.296875 11.75 
Q 45.40625 17.390625 45.40625 27.296875 
Q 45.40625 37.203125 41.296875 42.84375 
Q 37.203125 48.484375 30.078125 48.484375 
Q 22.953125 48.484375 18.875 42.84375 
Q 14.796875 37.203125 14.796875 27.296875 
z
" id="DejaVuSans-100"/>
      <path d="M 9.421875 54.6875 
L 18.40625 54.6875 
L 18.40625 0 
L 9.421875 0 
z
M 9.421875 75.984375 
L 18.40625 75.984375 
L 18.40625 64.59375 
L 9.421875 64.59375 
z
" id="DejaVuSans-105"/>
      <path d="M 54.890625 33.015625 
L 54.890625 0 
L 45.90625 0 
L 45.90625 32.71875 
Q 45.90625 40.484375 42.875 44.328125 
Q 39.84375 48.1875 33.796875 48.1875 
Q 26.515625 48.1875 22.3125 43.546875 
Q 18.109375 38.921875 18.109375 30.90625 
L 18.109375 0 
L 9.078125 0 
L 9.078125 54.6875 
L 18.109375 54.6875 
L 18.109375 46.1875 
Q 21.34375 51.125 25.703125 53.5625 
Q 30.078125 56 35.796875 56 
Q 45.21875 56 50.046875 50.171875 
Q 54.890625 44.34375 54.890625 33.015625 
z
" id="DejaVuSans-110"/>
      <path d="M 18.3125 70.21875 
L 18.3125 54.6875 
L 36.8125 54.6875 
L 36.8125 47.703125 
L 18.3125 47.703125 
L 18.3125 18.015625 
Q 18.3125 11.328125 20.140625 9.421875 
Q 21.96875 7.515625 27.59375 7.515625 
L 36.8125 7.515625 
L 36.8125 0 
L 27.59375 0 
Q 17.1875 0 13.234375 3.875 
Q 9.28125 7.765625 9.28125 18.015625 
L 9.28125 47.703125 
L 2.6875 47.703125 
L 2.6875 54.6875 
L 9.28125 54.6875 
L 9.28125 70.21875 
z
" id="DejaVuSans-116"/>
      <path d="M 34.28125 27.484375 
Q 23.390625 27.484375 19.1875 25 
Q 14.984375 22.515625 14.984375 16.5 
Q 14.984375 11.71875 18.140625 8.90625 
Q 21.296875 6.109375 26.703125 6.109375 
Q 34.1875 6.109375 38.703125 11.40625 
Q 43.21875 16.703125 43.21875 25.484375 
L 43.21875 27.484375 
z
M 52.203125 31.203125 
L 52.203125 0 
L 43.21875 0 
L 43.21875 8.296875 
Q 40.140625 3.328125 35.546875 0.953125 
Q 30.953125 -1.421875 24.3125 -1.421875 
Q 15.921875 -1.421875 10.953125 3.296875 
Q 6 8.015625 6 15.921875 
Q 6 25.140625 12.171875 29.828125 
Q 18.359375 34.515625 30.609375 34.515625 
L 43.21875 34.515625 
L 43.21875 35.40625 
Q 43.21875 41.609375 39.140625 45 
Q 35.0625 48.390625 27.6875 48.390625 
Q 23 48.390625 18.546875 47.265625 
Q 14.109375 46.140625 10.015625 43.890625 
L 10.015625 52.203125 
Q 14.9375 54.109375 19.578125 55.046875 
Q 24.21875 56 28.609375 56 
Q 40.484375 56 46.34375 49.84375 
Q 52.203125 43.703125 52.203125 31.203125 
z
" id="DejaVuSans-97"/>
      <path d="M 8.59375 75.984375 
L 29.296875 75.984375 
L 29.296875 69 
L 17.578125 69 
L 17.578125 -6.203125 
L 29.296875 -6.203125 
L 29.296875 -13.1875 
L 8.59375 -13.1875 
z
" id="DejaVuSans-91"/>
      <path d="M 54.890625 54.6875 
L 35.109375 28.078125 
L 55.90625 0 
L 45.3125 0 
L 29.390625 21.484375 
L 13.484375 0 
L 2.875 0 
L 24.125 28.609375 
L 4.6875 54.6875 
L 15.28125 54.6875 
L 29.78125 35.203125 
L 44.28125 54.6875 
z
" id="DejaVuSans-120"/>
      <path d="M 30.421875 75.984375 
L 30.421875 -13.1875 
L 9.71875 -13.1875 
L 9.71875 -6.203125 
L 21.390625 -6.203125 
L 21.390625 69 
L 9.71875 69 
L 9.71875 75.984375 
z
" id="DejaVuSans-93"/>
     </defs>
     <g transform="translate(169.880859 422.711344)scale(0.13 -0.13)">
      <use xlink:href="#DejaVuSans-78"/>
      <use x="74.804688" xlink:href="#DejaVuSans-117"/>
      <use x="138.183594" xlink:href="#DejaVuSans-109"/>
      <use x="235.595703" xlink:href="#DejaVuSans-98"/>
      <use x="299.072266" xlink:href="#DejaVuSans-101"/>
      <use x="360.595703" xlink:href="#DejaVuSans-114"/>
      <use x="401.708984" xlink:href="#DejaVuSans-32"/>
      <use x="433.496094" xlink:href="#DejaVuSans-111"/>
      <use x="494.677734" xlink:href="#DejaVuSans-102"/>
      <use x="529.882812" xlink:href="#DejaVuSans-32"/>
      <use x="561.669922" xlink:href="#DejaVuSans-112"/>
      <use x="625.146484" xlink:href="#DejaVuSans-114"/>
      <use x="666.228516" xlink:href="#DejaVuSans-111"/>
      <use x="727.410156" xlink:href="#DejaVuSans-99"/>
      <use x="782.390625" xlink:href="#DejaVuSans-101"/>
      <use x="843.914062" xlink:href="#DejaVuSans-115"/>
      <use x="896.013672" xlink:href="#DejaVuSans-115"/>
      <use x="948.113281" xlink:href="#DejaVuSans-101"/>
      <use x="1009.636719" xlink:href="#DejaVuSans-100"/>
      <use x="1073.113281" xlink:href="#DejaVuSans-32"/>
      <use x="1104.900391" xlink:href="#DejaVuSans-105"/>
      <use x="1132.683594" xlink:href="#DejaVuSans-110"/>
      <use x="1196.0625" xlink:href="#DejaVuSans-115"/>
      <use x="1248.162109" xlink:href="#DejaVuSans-116"/>
      <use x="1287.371094" xlink:href="#DejaVuSans-97"/>
      <use x="1348.650391" xlink:href="#DejaVuSans-110"/>
      <use x="1412.029297" xlink:href="#DejaVuSans-99"/>
      <use x="1467.009766" xlink:href="#DejaVuSans-101"/>
      <use x="1528.533203" xlink:href="#DejaVuSans-115"/>
      <use x="1580.632812" xlink:href="#DejaVuSans-32"/>
      <use x="1612.419922" xlink:href="#DejaVuSans-91"/>
      <use x="1651.433594" xlink:href="#DejaVuSans-120"/>
      <use x="1710.613281" xlink:href="#DejaVuSans-49"/>
      <use x="1774.236328" xlink:href="#DejaVuSans-48"/>
      <use x="1837.859375" xlink:href="#DejaVuSans-48"/>
      <use x="1901.482422" xlink:href="#DejaVuSans-48"/>
      <use x="1965.105469" xlink:href="#DejaVuSans-93"/>
     </g>
    </g>
   </g>
   <g id="matplotlib.axis_2">
    <g id="ytick_1">
     <g id="line2d_9">
      <defs>
       <path d="M 0 0 
L -3.5 0 
" id="m2b65ffb9e0" style="stroke:#000000;stroke-width:0.8;"/>
      </defs>
      <g>
       <use style="stroke:#000000;stroke-width:0.8;" x="104.85" xlink:href="#m2b65ffb9e0" y="364.262038"/>
      </g>
     </g>
     <g id="text_10">
      <!-- 0.62 -->
      <defs>
       <path d="M 10.6875 12.40625 
L 21 12.40625 
L 21 0 
L 10.6875 0 
z
" id="DejaVuSans-46"/>
       <path d="M 33.015625 40.375 
Q 26.375 40.375 22.484375 35.828125 
Q 18.609375 31.296875 18.609375 23.390625 
Q 18.609375 15.53125 22.484375 10.953125 
Q 26.375 6.390625 33.015625 6.390625 
Q 39.65625 6.390625 43.53125 10.953125 
Q 47.40625 15.53125 47.40625 23.390625 
Q 47.40625 31.296875 43.53125 35.828125 
Q 39.65625 40.375 33.015625 40.375 
z
M 52.59375 71.296875 
L 52.59375 62.3125 
Q 48.875 64.0625 45.09375 64.984375 
Q 41.3125 65.921875 37.59375 65.921875 
Q 27.828125 65.921875 22.671875 59.328125 
Q 17.53125 52.734375 16.796875 39.40625 
Q 19.671875 43.65625 24.015625 45.921875 
Q 28.375 48.1875 33.59375 48.1875 
Q 44.578125 48.1875 50.953125 41.515625 
Q 57.328125 34.859375 57.328125 23.390625 
Q 57.328125 12.15625 50.6875 5.359375 
Q 44.046875 -1.421875 33.015625 -1.421875 
Q 20.359375 -1.421875 13.671875 8.265625 
Q 6.984375 17.96875 6.984375 36.375 
Q 6.984375 53.65625 15.1875 63.9375 
Q 23.390625 74.21875 37.203125 74.21875 
Q 40.921875 74.21875 44.703125 73.484375 
Q 48.484375 72.75 52.59375 71.296875 
z
" id="DejaVuSans-54"/>
      </defs>
      <g transform="translate(68.904687 369.201022)scale(0.13 -0.13)">
       <use xlink:href="#DejaVuSans-48"/>
       <use x="63.623047" xlink:href="#DejaVuSans-46"/>
       <use x="95.410156" xlink:href="#DejaVuSans-54"/>
       <use x="159.033203" xlink:href="#DejaVuSans-50"/>
      </g>
     </g>
    </g>
    <g id="ytick_2">
     <g id="line2d_10">
      <g>
       <use style="stroke:#000000;stroke-width:0.8;" x="104.85" xlink:href="#m2b65ffb9e0" y="326.336568"/>
      </g>
     </g>
     <g id="text_11">
      <!-- 0.63 -->
      <defs>
       <path d="M 40.578125 39.3125 
Q 47.65625 37.796875 51.625 33 
Q 55.609375 28.21875 55.609375 21.1875 
Q 55.609375 10.40625 48.1875 4.484375 
Q 40.765625 -1.421875 27.09375 -1.421875 
Q 22.515625 -1.421875 17.65625 -0.515625 
Q 12.796875 0.390625 7.625 2.203125 
L 7.625 11.71875 
Q 11.71875 9.328125 16.59375 8.109375 
Q 21.484375 6.890625 26.8125 6.890625 
Q 36.078125 6.890625 40.9375 10.546875 
Q 45.796875 14.203125 45.796875 21.1875 
Q 45.796875 27.640625 41.28125 31.265625 
Q 36.765625 34.90625 28.71875 34.90625 
L 20.21875 34.90625 
L 20.21875 43.015625 
L 29.109375 43.015625 
Q 36.375 43.015625 40.234375 45.921875 
Q 44.09375 48.828125 44.09375 54.296875 
Q 44.09375 59.90625 40.109375 62.90625 
Q 36.140625 65.921875 28.71875 65.921875 
Q 24.65625 65.921875 20.015625 65.03125 
Q 15.375 64.15625 9.8125 62.3125 
L 9.8125 71.09375 
Q 15.4375 72.65625 20.34375 73.4375 
Q 25.25 74.21875 29.59375 74.21875 
Q 40.828125 74.21875 47.359375 69.109375 
Q 53.90625 64.015625 53.90625 55.328125 
Q 53.90625 49.265625 50.4375 45.09375 
Q 46.96875 40.921875 40.578125 39.3125 
z
" id="DejaVuSans-51"/>
      </defs>
      <g transform="translate(68.904687 331.275553)scale(0.13 -0.13)">
       <use xlink:href="#DejaVuSans-48"/>
       <use x="63.623047" xlink:href="#DejaVuSans-46"/>
       <use x="95.410156" xlink:href="#DejaVuSans-54"/>
       <use x="159.033203" xlink:href="#DejaVuSans-51"/>
      </g>
     </g>
    </g>
    <g id="ytick_3">
     <g id="line2d_11">
      <g>
       <use style="stroke:#000000;stroke-width:0.8;" x="104.85" xlink:href="#m2b65ffb9e0" y="288.411099"/>
      </g>
     </g>
     <g id="text_12">
      <!-- 0.64 -->
      <defs>
       <path d="M 37.796875 64.3125 
L 12.890625 25.390625 
L 37.796875 25.390625 
z
M 35.203125 72.90625 
L 47.609375 72.90625 
L 47.609375 25.390625 
L 58.015625 25.390625 
L 58.015625 17.1875 
L 47.609375 17.1875 
L 47.609375 0 
L 37.796875 0 
L 37.796875 17.1875 
L 4.890625 17.1875 
L 4.890625 26.703125 
z
" id="DejaVuSans-52"/>
      </defs>
      <g transform="translate(68.904687 293.350083)scale(0.13 -0.13)">
       <use xlink:href="#DejaVuSans-48"/>
       <use x="63.623047" xlink:href="#DejaVuSans-46"/>
       <use x="95.410156" xlink:href="#DejaVuSans-54"/>
       <use x="159.033203" xlink:href="#DejaVuSans-52"/>
      </g>
     </g>
    </g>
    <g id="ytick_4">
     <g id="line2d_12">
      <g>
       <use style="stroke:#000000;stroke-width:0.8;" x="104.85" xlink:href="#m2b65ffb9e0" y="250.485629"/>
      </g>
     </g>
     <g id="text_13">
      <!-- 0.65 -->
      <g transform="translate(68.904687 255.424614)scale(0.13 -0.13)">
       <use xlink:href="#DejaVuSans-48"/>
       <use x="63.623047" xlink:href="#DejaVuSans-46"/>
       <use x="95.410156" xlink:href="#DejaVuSans-54"/>
       <use x="159.033203" xlink:href="#DejaVuSans-53"/>
      </g>
     </g>
    </g>
    <g id="ytick_5">
     <g id="line2d_13">
      <g>
       <use style="stroke:#000000;stroke-width:0.8;" x="104.85" xlink:href="#m2b65ffb9e0" y="212.56016"/>
      </g>
     </g>
     <g id="text_14">
      <!-- 0.66 -->
      <g transform="translate(68.904687 217.499144)scale(0.13 -0.13)">
       <use xlink:href="#DejaVuSans-48"/>
       <use x="63.623047" xlink:href="#DejaVuSans-46"/>
       <use x="95.410156" xlink:href="#DejaVuSans-54"/>
       <use x="159.033203" xlink:href="#DejaVuSans-54"/>
      </g>
     </g>
    </g>
    <g id="ytick_6">
     <g id="line2d_14">
      <g>
       <use style="stroke:#000000;stroke-width:0.8;" x="104.85" xlink:href="#m2b65ffb9e0" y="174.634691"/>
      </g>
     </g>
     <g id="text_15">
      <!-- 0.67 -->
      <g transform="translate(68.904687 179.573675)scale(0.13 -0.13)">
       <use xlink:href="#DejaVuSans-48"/>
       <use x="63.623047" xlink:href="#DejaVuSans-46"/>
       <use x="95.410156" xlink:href="#DejaVuSans-54"/>
       <use x="159.033203" xlink:href="#DejaVuSans-55"/>
      </g>
     </g>
    </g>
    <g id="ytick_7">
     <g id="line2d_15">
      <g>
       <use style="stroke:#000000;stroke-width:0.8;" x="104.85" xlink:href="#m2b65ffb9e0" y="136.709221"/>
      </g>
     </g>
     <g id="text_16">
      <!-- 0.68 -->
      <defs>
       <path d="M 31.78125 34.625 
Q 24.75 34.625 20.71875 30.859375 
Q 16.703125 27.09375 16.703125 20.515625 
Q 16.703125 13.921875 20.71875 10.15625 
Q 24.75 6.390625 31.78125 6.390625 
Q 38.8125 6.390625 42.859375 10.171875 
Q 46.921875 13.96875 46.921875 20.515625 
Q 46.921875 27.09375 42.890625 30.859375 
Q 38.875 34.625 31.78125 34.625 
z
M 21.921875 38.8125 
Q 15.578125 40.375 12.03125 44.71875 
Q 8.5 49.078125 8.5 55.328125 
Q 8.5 64.0625 14.71875 69.140625 
Q 20.953125 74.21875 31.78125 74.21875 
Q 42.671875 74.21875 48.875 69.140625 
Q 55.078125 64.0625 55.078125 55.328125 
Q 55.078125 49.078125 51.53125 44.71875 
Q 48 40.375 41.703125 38.8125 
Q 48.828125 37.15625 52.796875 32.3125 
Q 56.78125 27.484375 56.78125 20.515625 
Q 56.78125 9.90625 50.3125 4.234375 
Q 43.84375 -1.421875 31.78125 -1.421875 
Q 19.734375 -1.421875 13.25 4.234375 
Q 6.78125 9.90625 6.78125 20.515625 
Q 6.78125 27.484375 10.78125 32.3125 
Q 14.796875 37.15625 21.921875 38.8125 
z
M 18.3125 54.390625 
Q 18.3125 48.734375 21.84375 45.5625 
Q 25.390625 42.390625 31.78125 42.390625 
Q 38.140625 42.390625 41.71875 45.5625 
Q 45.3125 48.734375 45.3125 54.390625 
Q 45.3125 60.0625 41.71875 63.234375 
Q 38.140625 66.40625 31.78125 66.40625 
Q 25.390625 66.40625 21.84375 63.234375 
Q 18.3125 60.0625 18.3125 54.390625 
z
" id="DejaVuSans-56"/>
      </defs>
      <g transform="translate(68.904687 141.648206)scale(0.13 -0.13)">
       <use xlink:href="#DejaVuSans-48"/>
       <use x="63.623047" xlink:href="#DejaVuSans-46"/>
       <use x="95.410156" xlink:href="#DejaVuSans-54"/>
       <use x="159.033203" xlink:href="#DejaVuSans-56"/>
      </g>
     </g>
    </g>
    <g id="text_17">
     <!-- G-Mean -->
     <defs>
      <path d="M 59.515625 10.40625 
L 59.515625 29.984375 
L 43.40625 29.984375 
L 43.40625 38.09375 
L 69.28125 38.09375 
L 69.28125 6.78125 
Q 63.578125 2.734375 56.6875 0.65625 
Q 49.8125 -1.421875 42 -1.421875 
Q 24.90625 -1.421875 15.25 8.5625 
Q 5.609375 18.5625 5.609375 36.375 
Q 5.609375 54.25 15.25 64.234375 
Q 24.90625 74.21875 42 74.21875 
Q 49.125 74.21875 55.546875 72.453125 
Q 61.96875 70.703125 67.390625 67.28125 
L 67.390625 56.78125 
Q 61.921875 61.421875 55.765625 63.765625 
Q 49.609375 66.109375 42.828125 66.109375 
Q 29.4375 66.109375 22.71875 58.640625 
Q 16.015625 51.171875 16.015625 36.375 
Q 16.015625 21.625 22.71875 14.15625 
Q 29.4375 6.6875 42.828125 6.6875 
Q 48.046875 6.6875 52.140625 7.59375 
Q 56.25 8.5 59.515625 10.40625 
z
" id="DejaVuSans-71"/>
      <path d="M 4.890625 31.390625 
L 31.203125 31.390625 
L 31.203125 23.390625 
L 4.890625 23.390625 
z
" id="DejaVuSans-45"/>
      <path d="M 9.8125 72.90625 
L 24.515625 72.90625 
L 43.109375 23.296875 
L 61.8125 72.90625 
L 76.515625 72.90625 
L 76.515625 0 
L 66.890625 0 
L 66.890625 64.015625 
L 48.09375 14.015625 
L 38.1875 14.015625 
L 19.390625 64.015625 
L 19.390625 0 
L 9.8125 0 
z
" id="DejaVuSans-77"/>
     </defs>
     <g transform="translate(62.201094 275.743844)rotate(-90)scale(0.13 -0.13)">
      <use xlink:href="#DejaVuSans-71"/>
      <use x="77.490234" xlink:href="#DejaVuSans-45"/>
      <use x="113.574219" xlink:href="#DejaVuSans-77"/>
      <use x="199.853516" xlink:href="#DejaVuSans-101"/>
      <use x="261.376953" xlink:href="#DejaVuSans-97"/>
      <use x="322.65625" xlink:href="#DejaVuSans-110"/>
     </g>
    </g>
   </g>
   <g id="line2d_16"/>
   <g id="line2d_17"/>
   <g id="line2d_18"/>
   <g id="line2d_19"/>
   <g id="line2d_20"/>
   <g id="line2d_21">
    <path clip-path="url(#p1687cae98b)" d="M 122.604545 246.83838 
L 124.483333 275.079288 
L 126.362121 306.30782 
L 128.240909 315.665088 
L 130.119697 317.701977 
L 131.998485 314.967888 
L 133.877273 331.463857 
L 135.756061 334.137869 
L 137.634848 343.15822 
L 139.513636 339.434123 
L 141.392424 341.96559 
L 143.271212 339.686605 
L 145.15 340.345492 
L 147.028788 347.583974 
L 148.907576 347.440824 
L 150.786364 348.388127 
L 152.665152 347.355837 
L 154.543939 342.035511 
L 156.422727 345.264343 
L 160.180303 355.199888 
L 162.059091 351.538728 
L 163.937879 352.948192 
L 165.816667 355.796317 
L 167.695455 359.97294 
L 169.574242 368.83051 
L 171.45303 358.910616 
L 173.331818 360.248389 
L 175.210606 354.310335 
L 177.089394 352.177898 
L 178.968182 351.41537 
L 180.84697 353.75903 
L 182.725758 350.392797 
L 186.483333 329.675809 
L 188.362121 329.029557 
L 190.240909 332.501352 
L 192.119697 336.945752 
L 193.998485 332.004293 
L 195.877273 329.899671 
L 197.756061 327.31047 
L 199.634848 332.66392 
L 201.513636 325.406906 
L 203.392424 325.592188 
L 205.271212 318.542164 
L 207.15 315.02898 
L 209.028788 318.997052 
L 210.907576 317.384445 
L 212.786364 322.331195 
L 214.665152 333.622701 
L 216.543939 334.491323 
L 218.422727 334.295345 
L 220.301515 332.215242 
L 222.180303 338.077161 
L 224.059091 346.064583 
L 225.937879 344.780261 
L 227.816667 347.045838 
L 229.695455 352.878705 
L 231.574242 366.399277 
L 233.45303 365.185226 
L 235.331818 365.339195 
L 237.210606 364.131703 
L 239.089394 369.019907 
L 240.968182 368.68359 
L 242.84697 367.370093 
L 244.725758 367.828582 
L 246.604545 361.188547 
L 248.483333 357.972578 
L 250.362121 357.582768 
L 252.240909 349.097579 
L 254.119697 348.928457 
L 255.998485 351.300801 
L 257.877273 362.084255 
L 259.756061 366.377243 
L 261.634848 369.029122 
L 263.513636 365.125235 
L 265.392424 363.842356 
L 267.271212 361.06767 
L 269.15 349.590242 
L 271.028788 348.197925 
L 272.907576 358.064639 
L 274.786364 359.195595 
L 276.665152 358.754348 
L 278.543939 356.535758 
L 280.422727 362.047999 
L 282.301515 355.434922 
L 284.180303 366.943985 
L 286.059091 370.557288 
L 287.937879 367.47747 
L 289.816667 368.013012 
L 291.695455 370.54919 
L 293.574242 364.278154 
L 295.45303 360.391693 
L 297.331818 358.294882 
L 299.210606 357.175726 
L 301.089394 364.743455 
L 302.968182 361.143025 
L 304.84697 361.947615 
L 306.725758 359.171278 
L 308.604545 358.462062 
L 310.483333 346.134736 
L 312.362121 348.890868 
L 314.240909 347.77843 
L 316.119697 353.305942 
L 317.998485 353.349344 
L 319.877273 353.8929 
L 321.756061 350.494451 
L 323.634848 353.126037 
L 325.513636 352.182501 
L 327.392424 350.451037 
L 329.271212 353.525669 
L 331.15 359.398506 
L 333.028788 357.278202 
L 334.907576 353.123358 
L 336.786364 359.513688 
L 338.665152 358.319977 
L 340.543939 363.362934 
L 342.422727 353.440933 
L 344.301515 356.296817 
L 346.180303 361.828604 
L 348.059091 362.895063 
L 349.937879 362.086621 
L 351.816667 358.926466 
L 353.695455 358.488298 
L 355.574242 360.004804 
L 357.45303 363.372252 
L 359.331818 365.685536 
L 361.210606 363.196948 
L 363.089394 368.476758 
L 364.968182 367.634747 
L 366.84697 365.14649 
L 368.725758 362.138414 
L 370.604545 367.743083 
L 372.483333 370.289827 
L 374.362121 372.002009 
L 376.240909 375.248448 
L 378.119697 369.423281 
L 379.998485 368.321006 
L 381.877273 365.987337 
L 383.756061 369.976642 
L 385.634848 376.651812 
L 387.513636 369.780462 
L 389.392424 374.671862 
L 391.271212 370.83804 
L 393.15 364.708647 
L 395.028788 368.755503 
L 396.907576 368.264116 
L 398.786364 370.225913 
L 400.665152 362.907629 
L 402.543939 369.772299 
L 404.422727 365.438678 
L 406.301515 364.554732 
L 408.180303 355.340418 
L 411.937879 338.476143 
L 413.816667 334.487647 
L 415.695455 331.337938 
L 417.574242 340.787651 
L 419.45303 343.286613 
L 421.331818 332.565299 
L 423.210606 327.712506 
L 425.089394 336.996353 
L 426.968182 338.500021 
L 428.84697 344.201995 
L 430.725758 345.813292 
L 432.604545 339.791163 
L 434.483333 335.675047 
L 436.362121 332.355697 
L 438.240909 333.40798 
L 440.119697 326.839946 
L 441.998485 324.515575 
L 443.877273 329.511878 
L 445.756061 333.474059 
L 447.634848 342.282591 
L 449.513636 345.82862 
L 451.392424 347.256194 
L 453.271212 352.727124 
L 455.15 351.159642 
L 457.028788 346.188838 
L 458.907576 346.572677 
L 460.786364 352.248296 
L 462.665152 348.657082 
L 466.422727 345.781666 
L 468.301515 352.930006 
L 470.180303 346.785974 
L 473.937879 353.571165 
L 475.816667 358.744153 
L 477.695455 365.895299 
L 477.695455 365.895299 
" style="fill:none;stroke:#cc3311;stroke-linecap:square;stroke-width:0.5;"/>
    <defs>
     <path d="M 0 2.5 
C 0.663008 2.5 1.29895 2.236584 1.767767 1.767767 
C 2.236584 1.29895 2.5 0.663008 2.5 0 
C 2.5 -0.663008 2.236584 -1.29895 1.767767 -1.767767 
C 1.29895 -2.236584 0.663008 -2.5 0 -2.5 
C -0.663008 -2.5 -1.29895 -2.236584 -1.767767 -1.767767 
C -2.236584 -1.29895 -2.5 -0.663008 -2.5 0 
C -2.5 0.663008 -2.236584 1.29895 -1.767767 1.767767 
C -1.29895 2.236584 -0.663008 2.5 0 2.5 
z
" id="m3e8321f42e" style="stroke:#cc3311;"/>
    </defs>
    <g clip-path="url(#p1687cae98b)">
     <use style="fill:#cc3311;stroke:#cc3311;" x="122.604545" xlink:href="#m3e8321f42e" y="246.83838"/>
     <use style="fill:#cc3311;stroke:#cc3311;" x="141.392424" xlink:href="#m3e8321f42e" y="341.96559"/>
     <use style="fill:#cc3311;stroke:#cc3311;" x="160.180303" xlink:href="#m3e8321f42e" y="355.199888"/>
     <use style="fill:#cc3311;stroke:#cc3311;" x="178.968182" xlink:href="#m3e8321f42e" y="351.41537"/>
     <use style="fill:#cc3311;stroke:#cc3311;" x="197.756061" xlink:href="#m3e8321f42e" y="327.31047"/>
     <use style="fill:#cc3311;stroke:#cc3311;" x="216.543939" xlink:href="#m3e8321f42e" y="334.491323"/>
     <use style="fill:#cc3311;stroke:#cc3311;" x="235.331818" xlink:href="#m3e8321f42e" y="365.339195"/>
     <use style="fill:#cc3311;stroke:#cc3311;" x="254.119697" xlink:href="#m3e8321f42e" y="348.928457"/>
     <use style="fill:#cc3311;stroke:#cc3311;" x="272.907576" xlink:href="#m3e8321f42e" y="358.064639"/>
     <use style="fill:#cc3311;stroke:#cc3311;" x="291.695455" xlink:href="#m3e8321f42e" y="370.54919"/>
     <use style="fill:#cc3311;stroke:#cc3311;" x="310.483333" xlink:href="#m3e8321f42e" y="346.134736"/>
     <use style="fill:#cc3311;stroke:#cc3311;" x="329.271212" xlink:href="#m3e8321f42e" y="353.525669"/>
     <use style="fill:#cc3311;stroke:#cc3311;" x="348.059091" xlink:href="#m3e8321f42e" y="362.895063"/>
     <use style="fill:#cc3311;stroke:#cc3311;" x="366.84697" xlink:href="#m3e8321f42e" y="365.14649"/>
     <use style="fill:#cc3311;stroke:#cc3311;" x="385.634848" xlink:href="#m3e8321f42e" y="376.651812"/>
     <use style="fill:#cc3311;stroke:#cc3311;" x="404.422727" xlink:href="#m3e8321f42e" y="365.438678"/>
     <use style="fill:#cc3311;stroke:#cc3311;" x="423.210606" xlink:href="#m3e8321f42e" y="327.712506"/>
     <use style="fill:#cc3311;stroke:#cc3311;" x="441.998485" xlink:href="#m3e8321f42e" y="324.515575"/>
     <use style="fill:#cc3311;stroke:#cc3311;" x="460.786364" xlink:href="#m3e8321f42e" y="352.248296"/>
    </g>
   </g>
   <g id="line2d_22"/>
   <g id="line2d_23"/>
   <g id="line2d_24"/>
   <g id="line2d_25"/>
   <g id="line2d_26">
    <path clip-path="url(#p1687cae98b)" d="M 122.604545 124.651812 
L 124.483333 217.450102 
L 126.362121 237.464276 
L 130.119697 260.783112 
L 131.998485 255.365356 
L 133.877273 276.13935 
L 135.756061 272.729347 
L 137.634848 278.873547 
L 139.513636 280.386275 
L 141.392424 284.937613 
L 143.271212 286.455302 
L 145.15 291.09862 
L 147.028788 298.052323 
L 148.907576 301.945892 
L 150.786364 301.287611 
L 152.665152 297.589914 
L 154.543939 295.655418 
L 156.422727 296.922667 
L 158.301515 296.461276 
L 160.180303 307.836106 
L 162.059091 300.036001 
L 163.937879 310.112352 
L 165.816667 315.956695 
L 167.695455 315.145456 
L 169.574242 324.762503 
L 171.45303 315.287057 
L 173.331818 317.86347 
L 175.210606 315.941392 
L 177.089394 315.964531 
L 178.968182 313.77177 
L 180.84697 312.901521 
L 182.725758 312.268523 
L 184.604545 307.761676 
L 186.483333 300.384472 
L 188.362121 303.498234 
L 190.240909 308.598174 
L 192.119697 312.401051 
L 193.998485 310.655591 
L 195.877273 312.590946 
L 197.756061 310.271397 
L 199.634848 320.0492 
L 201.513636 309.909128 
L 203.392424 304.74858 
L 205.271212 303.036538 
L 207.15 298.120629 
L 209.028788 297.529829 
L 210.907576 299.801282 
L 212.786364 300.195546 
L 214.665152 303.761459 
L 216.543939 305.498797 
L 218.422727 305.881132 
L 220.301515 303.250094 
L 222.180303 303.470479 
L 224.059091 307.618794 
L 225.937879 306.607197 
L 227.816667 311.66814 
L 229.695455 313.21125 
L 231.574242 321.254622 
L 233.45303 320.510166 
L 235.331818 312.238627 
L 237.210606 308.41354 
L 240.968182 311.6572 
L 242.84697 305.762362 
L 244.725758 308.620446 
L 246.604545 307.369755 
L 248.483333 304.367584 
L 250.362121 308.488838 
L 252.240909 307.256065 
L 254.119697 302.478309 
L 255.998485 305.038922 
L 257.877273 309.585628 
L 259.756061 311.295259 
L 261.634848 311.818082 
L 263.513636 306.65512 
L 265.392424 299.146382 
L 267.271212 295.357712 
L 269.15 288.808149 
L 271.028788 286.668757 
L 272.907576 299.579794 
L 274.786364 300.754023 
L 276.665152 299.469062 
L 278.543939 299.36825 
L 280.422727 309.250546 
L 282.301515 302.824711 
L 284.180303 311.639768 
L 286.059091 313.609471 
L 289.816667 306.673809 
L 291.695455 314.893203 
L 293.574242 311.830204 
L 295.45303 307.90238 
L 297.331818 310.013345 
L 299.210606 309.33438 
L 301.089394 314.927656 
L 302.968182 316.0583 
L 304.84697 320.623559 
L 306.725758 320.89137 
L 308.604545 320.261459 
L 310.483333 310.769789 
L 312.362121 311.69095 
L 314.240909 313.532316 
L 316.119697 313.903435 
L 317.998485 312.893492 
L 319.877273 311.41644 
L 321.756061 311.910185 
L 323.634848 314.372093 
L 325.513636 309.62297 
L 327.392424 307.338152 
L 329.271212 309.955396 
L 331.15 314.499752 
L 333.028788 315.121828 
L 334.907576 308.666562 
L 336.786364 310.346164 
L 338.665152 311.431982 
L 340.543939 314.663135 
L 342.422727 306.815153 
L 344.301515 305.432357 
L 346.180303 313.332524 
L 348.059091 316.46748 
L 349.937879 320.231268 
L 351.816667 320.779095 
L 353.695455 319.155057 
L 355.574242 319.310426 
L 357.45303 324.123614 
L 359.331818 322.15617 
L 361.210606 322.61266 
L 363.089394 333.246488 
L 364.968182 336.149076 
L 366.84697 332.251265 
L 368.725758 330.16624 
L 370.604545 333.981523 
L 372.483333 340.096589 
L 374.362121 340.184548 
L 376.240909 338.468829 
L 378.119697 334.264969 
L 379.998485 330.371603 
L 381.877273 328.40242 
L 383.756061 328.316902 
L 385.634848 332.155208 
L 387.513636 325.439298 
L 389.392424 326.978119 
L 391.271212 329.53871 
L 393.15 326.069201 
L 395.028788 333.076707 
L 396.907576 330.95309 
L 398.786364 327.868061 
L 400.665152 321.7578 
L 402.543939 322.610298 
L 404.422727 317.635379 
L 406.301515 316.305911 
L 408.180303 310.385286 
L 410.059091 300.895409 
L 413.816667 300.246033 
L 415.695455 297.730737 
L 417.574242 305.035842 
L 419.45303 307.943553 
L 421.331818 309.531789 
L 423.210606 310.602525 
L 425.089394 317.204708 
L 426.968182 318.994795 
L 428.84697 322.751302 
L 430.725758 327.068411 
L 432.604545 316.174013 
L 436.362121 312.031791 
L 438.240909 311.602459 
L 440.119697 306.03089 
L 441.998485 308.401259 
L 443.877273 312.273446 
L 445.756061 312.917786 
L 447.634848 325.708749 
L 449.513636 324.945307 
L 451.392424 326.741915 
L 453.271212 330.35084 
L 455.15 329.322791 
L 457.028788 326.036317 
L 458.907576 319.197435 
L 460.786364 319.848432 
L 462.665152 320.89248 
L 464.543939 317.471222 
L 466.422727 315.21172 
L 468.301515 315.19621 
L 470.180303 311.554711 
L 472.059091 315.823854 
L 473.937879 321.116101 
L 475.816667 321.300564 
L 477.695455 327.821972 
L 477.695455 327.821972 
" style="fill:none;stroke:#009988;stroke-dasharray:1.85,0.8;stroke-dashoffset:0;stroke-width:0.5;"/>
    <defs>
     <path d="M -2.5 2.5 
L 2.5 2.5 
L 2.5 -2.5 
L -2.5 -2.5 
z
" id="m04b4484353" style="stroke:#009988;stroke-linejoin:miter;"/>
    </defs>
    <g clip-path="url(#p1687cae98b)">
     <use style="fill:#009988;stroke:#009988;stroke-linejoin:miter;" x="122.604545" xlink:href="#m04b4484353" y="124.651812"/>
     <use style="fill:#009988;stroke:#009988;stroke-linejoin:miter;" x="141.392424" xlink:href="#m04b4484353" y="284.937613"/>
     <use style="fill:#009988;stroke:#009988;stroke-linejoin:miter;" x="160.180303" xlink:href="#m04b4484353" y="307.836106"/>
     <use style="fill:#009988;stroke:#009988;stroke-linejoin:miter;" x="178.968182" xlink:href="#m04b4484353" y="313.77177"/>
     <use style="fill:#009988;stroke:#009988;stroke-linejoin:miter;" x="197.756061" xlink:href="#m04b4484353" y="310.271397"/>
     <use style="fill:#009988;stroke:#009988;stroke-linejoin:miter;" x="216.543939" xlink:href="#m04b4484353" y="305.498797"/>
     <use style="fill:#009988;stroke:#009988;stroke-linejoin:miter;" x="235.331818" xlink:href="#m04b4484353" y="312.238627"/>
     <use style="fill:#009988;stroke:#009988;stroke-linejoin:miter;" x="254.119697" xlink:href="#m04b4484353" y="302.478309"/>
     <use style="fill:#009988;stroke:#009988;stroke-linejoin:miter;" x="272.907576" xlink:href="#m04b4484353" y="299.579794"/>
     <use style="fill:#009988;stroke:#009988;stroke-linejoin:miter;" x="291.695455" xlink:href="#m04b4484353" y="314.893203"/>
     <use style="fill:#009988;stroke:#009988;stroke-linejoin:miter;" x="310.483333" xlink:href="#m04b4484353" y="310.769789"/>
     <use style="fill:#009988;stroke:#009988;stroke-linejoin:miter;" x="329.271212" xlink:href="#m04b4484353" y="309.955396"/>
     <use style="fill:#009988;stroke:#009988;stroke-linejoin:miter;" x="348.059091" xlink:href="#m04b4484353" y="316.46748"/>
     <use style="fill:#009988;stroke:#009988;stroke-linejoin:miter;" x="366.84697" xlink:href="#m04b4484353" y="332.251265"/>
     <use style="fill:#009988;stroke:#009988;stroke-linejoin:miter;" x="385.634848" xlink:href="#m04b4484353" y="332.155208"/>
     <use style="fill:#009988;stroke:#009988;stroke-linejoin:miter;" x="404.422727" xlink:href="#m04b4484353" y="317.635379"/>
     <use style="fill:#009988;stroke:#009988;stroke-linejoin:miter;" x="423.210606" xlink:href="#m04b4484353" y="310.602525"/>
     <use style="fill:#009988;stroke:#009988;stroke-linejoin:miter;" x="441.998485" xlink:href="#m04b4484353" y="308.401259"/>
     <use style="fill:#009988;stroke:#009988;stroke-linejoin:miter;" x="460.786364" xlink:href="#m04b4484353" y="319.848432"/>
    </g>
   </g>
   <g id="line2d_27"/>
   <g id="line2d_28"/>
   <g id="line2d_29"/>
   <g id="line2d_30"/>
   <g id="line2d_31">
    <path clip-path="url(#p1687cae98b)" d="M 122.604545 187.458574 
L 124.483333 240.853342 
L 126.362121 273.571809 
L 128.240909 266.549556 
L 130.119697 275.224815 
L 131.998485 263.302107 
L 133.877273 283.583823 
L 135.756061 280.590659 
L 137.634848 286.769602 
L 139.513636 285.30115 
L 141.392424 289.950208 
L 143.271212 291.297655 
L 145.15 295.336917 
L 147.028788 302.161927 
L 148.907576 304.510362 
L 150.786364 304.248346 
L 152.665152 301.542638 
L 154.543939 300.288034 
L 156.422727 300.695717 
L 158.301515 300.319399 
L 160.180303 308.628776 
L 162.059091 301.37074 
L 163.937879 308.649473 
L 165.816667 316.851615 
L 167.695455 316.418406 
L 169.574242 328.247751 
L 171.45303 319.215368 
L 173.331818 323.194439 
L 175.210606 320.975236 
L 177.089394 322.713394 
L 178.968182 320.206928 
L 180.84697 320.104161 
L 182.725758 317.286673 
L 184.604545 312.24588 
L 186.483333 303.522937 
L 188.362121 306.51773 
L 190.240909 310.252456 
L 192.119697 312.642828 
L 193.998485 311.634538 
L 195.877273 313.512491 
L 197.756061 310.905762 
L 199.634848 322.720438 
L 201.513636 313.176535 
L 203.392424 308.111493 
L 205.271212 306.069589 
L 207.15 300.018697 
L 209.028788 297.986266 
L 210.907576 298.669984 
L 212.786364 299.569871 
L 214.665152 305.483047 
L 216.543939 308.500445 
L 220.301515 307.372851 
L 222.180303 309.260125 
L 224.059091 316.500942 
L 225.937879 316.045325 
L 227.816667 321.960002 
L 229.695455 325.250474 
L 231.574242 334.897906 
L 233.45303 335.063693 
L 235.331818 327.406358 
L 237.210606 321.925508 
L 239.089394 322.641035 
L 240.968182 324.639655 
L 242.84697 318.68496 
L 244.725758 321.695131 
L 246.604545 321.36515 
L 248.483333 318.794805 
L 250.362121 322.687764 
L 252.240909 317.751775 
L 254.119697 311.523957 
L 255.998485 315.165066 
L 257.877273 319.69398 
L 259.756061 319.562516 
L 261.634848 319.677664 
L 263.513636 313.990068 
L 265.392424 307.201096 
L 267.271212 303.600769 
L 269.15 296.811335 
L 271.028788 293.902939 
L 272.907576 306.65194 
L 274.786364 307.947088 
L 276.665152 307.321168 
L 278.543939 307.183367 
L 280.422727 316.759705 
L 282.301515 312.561526 
L 284.180303 321.136828 
L 286.059091 323.500749 
L 287.937879 319.126953 
L 289.816667 316.661562 
L 291.695455 325.989827 
L 293.574242 320.456323 
L 295.45303 317.639818 
L 297.331818 321.955426 
L 299.210606 319.061453 
L 301.089394 323.163728 
L 302.968182 323.129001 
L 304.84697 327.13575 
L 306.725758 325.21759 
L 308.604545 324.96577 
L 310.483333 315.207834 
L 312.362121 316.34127 
L 314.240909 316.687263 
L 316.119697 316.26207 
L 317.998485 317.071725 
L 319.877273 312.796251 
L 321.756061 313.853133 
L 323.634848 315.612919 
L 325.513636 311.952092 
L 327.392424 309.07269 
L 329.271212 310.168657 
L 331.15 316.58579 
L 333.028788 316.776396 
L 334.907576 307.740787 
L 336.786364 310.529986 
L 338.665152 312.517625 
L 340.543939 316.084989 
L 342.422727 307.586716 
L 344.301515 307.123049 
L 346.180303 315.259915 
L 348.059091 319.341312 
L 349.937879 322.474271 
L 351.816667 325.328914 
L 353.695455 325.601143 
L 355.574242 324.359234 
L 357.45303 329.142189 
L 359.331818 327.507555 
L 361.210606 327.955105 
L 363.089394 338.052226 
L 364.968182 340.782743 
L 366.84697 338.020354 
L 368.725758 335.57154 
L 370.604545 339.64483 
L 372.483333 346.432261 
L 374.362121 347.359073 
L 376.240909 345.82971 
L 378.119697 341.957569 
L 379.998485 338.49432 
L 381.877273 335.855738 
L 383.756061 335.344434 
L 385.634848 337.967127 
L 387.513636 331.392358 
L 389.392424 332.158365 
L 391.271212 332.636088 
L 393.15 328.926234 
L 395.028788 335.791205 
L 398.786364 330.012096 
L 400.665152 323.075909 
L 402.543939 323.982978 
L 404.422727 319.158221 
L 406.301515 317.835872 
L 408.180303 311.127173 
L 410.059091 303.00038 
L 411.937879 303.40483 
L 413.816667 302.47946 
L 415.695455 299.631129 
L 417.574242 306.382182 
L 419.45303 309.588353 
L 423.210606 311.985966 
L 425.089394 318.81328 
L 426.968182 319.459059 
L 428.84697 323.455716 
L 430.725758 328.311226 
L 432.604545 318.724308 
L 436.362121 314.117132 
L 438.240909 314.026988 
L 440.119697 310.096312 
L 441.998485 311.610156 
L 443.877273 315.560268 
L 445.756061 316.073533 
L 447.634848 327.591652 
L 449.513636 326.961345 
L 451.392424 329.468636 
L 453.271212 333.001459 
L 455.15 331.681927 
L 457.028788 327.820052 
L 458.907576 321.841713 
L 460.786364 322.319653 
L 462.665152 323.171902 
L 464.543939 320.776128 
L 466.422727 317.925022 
L 468.301515 317.131955 
L 470.180303 313.915064 
L 473.937879 323.009142 
L 475.816667 323.680344 
L 477.695455 328.847179 
L 477.695455 328.847179 
" style="fill:none;stroke:#0077bb;stroke-dasharray:3.2,0.8,0.5,0.8;stroke-dashoffset:0;stroke-width:0.5;"/>
    <defs>
     <path d="M 0 -2.5 
L -2.5 2.5 
L 2.5 2.5 
z
" id="m1d8d4fcd0b" style="stroke:#0077bb;stroke-linejoin:miter;"/>
    </defs>
    <g clip-path="url(#p1687cae98b)">
     <use style="fill:#0077bb;stroke:#0077bb;stroke-linejoin:miter;" x="122.604545" xlink:href="#m1d8d4fcd0b" y="187.458574"/>
     <use style="fill:#0077bb;stroke:#0077bb;stroke-linejoin:miter;" x="141.392424" xlink:href="#m1d8d4fcd0b" y="289.950208"/>
     <use style="fill:#0077bb;stroke:#0077bb;stroke-linejoin:miter;" x="160.180303" xlink:href="#m1d8d4fcd0b" y="308.628776"/>
     <use style="fill:#0077bb;stroke:#0077bb;stroke-linejoin:miter;" x="178.968182" xlink:href="#m1d8d4fcd0b" y="320.206928"/>
     <use style="fill:#0077bb;stroke:#0077bb;stroke-linejoin:miter;" x="197.756061" xlink:href="#m1d8d4fcd0b" y="310.905762"/>
     <use style="fill:#0077bb;stroke:#0077bb;stroke-linejoin:miter;" x="216.543939" xlink:href="#m1d8d4fcd0b" y="308.500445"/>
     <use style="fill:#0077bb;stroke:#0077bb;stroke-linejoin:miter;" x="235.331818" xlink:href="#m1d8d4fcd0b" y="327.406358"/>
     <use style="fill:#0077bb;stroke:#0077bb;stroke-linejoin:miter;" x="254.119697" xlink:href="#m1d8d4fcd0b" y="311.523957"/>
     <use style="fill:#0077bb;stroke:#0077bb;stroke-linejoin:miter;" x="272.907576" xlink:href="#m1d8d4fcd0b" y="306.65194"/>
     <use style="fill:#0077bb;stroke:#0077bb;stroke-linejoin:miter;" x="291.695455" xlink:href="#m1d8d4fcd0b" y="325.989827"/>
     <use style="fill:#0077bb;stroke:#0077bb;stroke-linejoin:miter;" x="310.483333" xlink:href="#m1d8d4fcd0b" y="315.207834"/>
     <use style="fill:#0077bb;stroke:#0077bb;stroke-linejoin:miter;" x="329.271212" xlink:href="#m1d8d4fcd0b" y="310.168657"/>
     <use style="fill:#0077bb;stroke:#0077bb;stroke-linejoin:miter;" x="348.059091" xlink:href="#m1d8d4fcd0b" y="319.341312"/>
     <use style="fill:#0077bb;stroke:#0077bb;stroke-linejoin:miter;" x="366.84697" xlink:href="#m1d8d4fcd0b" y="338.020354"/>
     <use style="fill:#0077bb;stroke:#0077bb;stroke-linejoin:miter;" x="385.634848" xlink:href="#m1d8d4fcd0b" y="337.967127"/>
     <use style="fill:#0077bb;stroke:#0077bb;stroke-linejoin:miter;" x="404.422727" xlink:href="#m1d8d4fcd0b" y="319.158221"/>
     <use style="fill:#0077bb;stroke:#0077bb;stroke-linejoin:miter;" x="423.210606" xlink:href="#m1d8d4fcd0b" y="311.985966"/>
     <use style="fill:#0077bb;stroke:#0077bb;stroke-linejoin:miter;" x="441.998485" xlink:href="#m1d8d4fcd0b" y="311.610156"/>
     <use style="fill:#0077bb;stroke:#0077bb;stroke-linejoin:miter;" x="460.786364" xlink:href="#m1d8d4fcd0b" y="322.319653"/>
    </g>
   </g>
   <g id="line2d_32"/>
   <g id="line2d_33"/>
   <g id="line2d_34"/>
   <g id="line2d_35"/>
   <g id="line2d_36">
    <path clip-path="url(#p1687cae98b)" d="M 122.604545 174.08924 
L 124.483333 226.126609 
L 126.362121 246.836888 
L 128.240909 255.282825 
L 130.119697 265.167256 
L 131.998485 259.423061 
L 133.877273 285.337497 
L 135.756061 280.777725 
L 137.634848 285.457757 
L 139.513636 284.68897 
L 141.392424 289.754525 
L 143.271212 291.538086 
L 145.15 295.535526 
L 147.028788 301.931424 
L 148.907576 304.655978 
L 150.786364 303.838024 
L 152.665152 300.284386 
L 154.543939 297.753324 
L 156.422727 298.563432 
L 158.301515 297.615 
L 160.180303 306.347058 
L 162.059091 299.355964 
L 163.937879 309.241917 
L 165.816667 314.51652 
L 167.695455 312.972221 
L 169.574242 319.275821 
L 171.45303 308.465938 
L 173.331818 312.049581 
L 175.210606 308.8466 
L 177.089394 310.922948 
L 178.968182 307.669634 
L 180.84697 306.268726 
L 182.725758 305.507035 
L 184.604545 300.488671 
L 186.483333 294.175429 
L 188.362121 297.069683 
L 190.240909 303.002245 
L 192.119697 307.463708 
L 193.998485 306.047636 
L 195.877273 307.81503 
L 197.756061 305.744596 
L 199.634848 315.561279 
L 201.513636 305.697261 
L 203.392424 301.714302 
L 205.271212 301.774408 
L 209.028788 298.372344 
L 210.907576 299.636566 
L 212.786364 301.983483 
L 214.665152 306.779511 
L 216.543939 309.843387 
L 218.422727 309.817387 
L 220.301515 306.820225 
L 222.180303 308.027976 
L 224.059091 311.795134 
L 225.937879 310.893739 
L 227.816667 314.392464 
L 229.695455 316.376093 
L 231.574242 324.638148 
L 233.45303 324.760199 
L 235.331818 317.080059 
L 237.210606 313.596172 
L 239.089394 313.987543 
L 240.968182 315.231044 
L 242.84697 308.414117 
L 244.725758 311.458929 
L 246.604545 311.737877 
L 248.483333 309.397548 
L 250.362121 313.957093 
L 252.240909 311.034102 
L 254.119697 305.472182 
L 255.998485 309.710089 
L 257.877273 315.930284 
L 259.756061 317.416421 
L 261.634848 318.348325 
L 263.513636 312.699112 
L 265.392424 305.790544 
L 267.271212 302.081989 
L 269.15 296.545558 
L 271.028788 294.53461 
L 272.907576 306.895287 
L 276.665152 309.279124 
L 278.543939 308.908481 
L 280.422727 319.336997 
L 282.301515 314.870681 
L 284.180303 323.00095 
L 286.059091 325.391481 
L 287.937879 320.691261 
L 289.816667 316.527 
L 291.695455 325.194473 
L 293.574242 319.83454 
L 295.45303 315.281617 
L 297.331818 318.985876 
L 299.210606 317.59932 
L 301.089394 323.059538 
L 302.968182 323.027839 
L 304.84697 327.474139 
L 306.725758 325.775428 
L 308.604545 324.601347 
L 310.483333 315.527507 
L 312.362121 316.927798 
L 316.119697 316.804867 
L 317.998485 316.511135 
L 319.877273 313.013618 
L 321.756061 312.965212 
L 323.634848 315.371436 
L 325.513636 311.441714 
L 327.392424 309.444691 
L 329.271212 311.813554 
L 331.15 317.636678 
L 333.028788 317.992115 
L 334.907576 310.692438 
L 336.786364 313.650486 
L 338.665152 315.457153 
L 340.543939 320.022587 
L 342.422727 311.640467 
L 344.301515 310.992377 
L 346.180303 319.645282 
L 349.937879 325.557392 
L 351.816667 326.890964 
L 353.695455 326.778171 
L 355.574242 325.919827 
L 357.45303 330.973859 
L 359.331818 329.429434 
L 361.210606 329.206385 
L 363.089394 339.434144 
L 364.968182 341.929281 
L 366.84697 338.024169 
L 368.725758 334.914792 
L 370.604545 339.035175 
L 372.483333 344.317621 
L 374.362121 343.664083 
L 376.240909 341.656297 
L 378.119697 337.862028 
L 379.998485 334.528366 
L 381.877273 332.283413 
L 383.756061 331.567339 
L 385.634848 334.560747 
L 387.513636 328.738109 
L 389.392424 330.126245 
L 391.271212 330.811522 
L 393.15 326.825561 
L 395.028788 332.442887 
L 396.907576 328.543675 
L 398.786364 326.396542 
L 400.665152 320.286281 
L 402.543939 320.852962 
L 404.422727 315.834646 
L 406.301515 314.712794 
L 408.180303 307.459679 
L 410.059091 299.593767 
L 413.816667 298.939978 
L 415.695455 295.307087 
L 417.574242 302.161386 
L 419.45303 305.344867 
L 423.210606 307.977305 
L 425.089394 313.903207 
L 426.968182 316.370783 
L 430.725758 324.757505 
L 432.604545 315.450608 
L 434.483333 314.130832 
L 436.362121 311.547147 
L 438.240909 310.933349 
L 440.119697 307.152508 
L 441.998485 309.226538 
L 443.877273 313.794957 
L 445.756061 315.345435 
L 447.634848 326.626811 
L 449.513636 326.605475 
L 451.392424 328.285244 
L 453.271212 332.017469 
L 455.15 329.884212 
L 457.028788 325.648763 
L 458.907576 319.759042 
L 460.786364 320.655185 
L 462.665152 321.883261 
L 464.543939 317.540576 
L 466.422727 315.305046 
L 468.301515 315.327182 
L 470.180303 311.946986 
L 472.059091 316.879762 
L 473.937879 320.907996 
L 475.816667 321.276925 
L 477.695455 326.580389 
L 477.695455 326.580389 
" style="fill:none;stroke:#ee7733;stroke-dasharray:0.5,0.825;stroke-dashoffset:0;stroke-width:0.5;"/>
    <defs>
     <path d="M 0 -2.5 
L -0.561285 -0.772542 
L -2.377641 -0.772542 
L -0.908178 0.295085 
L -1.469463 2.022542 
L -0 0.954915 
L 1.469463 2.022542 
L 0.908178 0.295085 
L 2.377641 -0.772542 
L 0.561285 -0.772542 
z
" id="m7ffd042a83" style="stroke:#ee7733;stroke-linejoin:bevel;"/>
    </defs>
    <g clip-path="url(#p1687cae98b)">
     <use style="fill:#ee7733;stroke:#ee7733;stroke-linejoin:bevel;" x="122.604545" xlink:href="#m7ffd042a83" y="174.08924"/>
     <use style="fill:#ee7733;stroke:#ee7733;stroke-linejoin:bevel;" x="141.392424" xlink:href="#m7ffd042a83" y="289.754525"/>
     <use style="fill:#ee7733;stroke:#ee7733;stroke-linejoin:bevel;" x="160.180303" xlink:href="#m7ffd042a83" y="306.347058"/>
     <use style="fill:#ee7733;stroke:#ee7733;stroke-linejoin:bevel;" x="178.968182" xlink:href="#m7ffd042a83" y="307.669634"/>
     <use style="fill:#ee7733;stroke:#ee7733;stroke-linejoin:bevel;" x="197.756061" xlink:href="#m7ffd042a83" y="305.744596"/>
     <use style="fill:#ee7733;stroke:#ee7733;stroke-linejoin:bevel;" x="216.543939" xlink:href="#m7ffd042a83" y="309.843387"/>
     <use style="fill:#ee7733;stroke:#ee7733;stroke-linejoin:bevel;" x="235.331818" xlink:href="#m7ffd042a83" y="317.080059"/>
     <use style="fill:#ee7733;stroke:#ee7733;stroke-linejoin:bevel;" x="254.119697" xlink:href="#m7ffd042a83" y="305.472182"/>
     <use style="fill:#ee7733;stroke:#ee7733;stroke-linejoin:bevel;" x="272.907576" xlink:href="#m7ffd042a83" y="306.895287"/>
     <use style="fill:#ee7733;stroke:#ee7733;stroke-linejoin:bevel;" x="291.695455" xlink:href="#m7ffd042a83" y="325.194473"/>
     <use style="fill:#ee7733;stroke:#ee7733;stroke-linejoin:bevel;" x="310.483333" xlink:href="#m7ffd042a83" y="315.527507"/>
     <use style="fill:#ee7733;stroke:#ee7733;stroke-linejoin:bevel;" x="329.271212" xlink:href="#m7ffd042a83" y="311.813554"/>
     <use style="fill:#ee7733;stroke:#ee7733;stroke-linejoin:bevel;" x="348.059091" xlink:href="#m7ffd042a83" y="322.549065"/>
     <use style="fill:#ee7733;stroke:#ee7733;stroke-linejoin:bevel;" x="366.84697" xlink:href="#m7ffd042a83" y="338.024169"/>
     <use style="fill:#ee7733;stroke:#ee7733;stroke-linejoin:bevel;" x="385.634848" xlink:href="#m7ffd042a83" y="334.560747"/>
     <use style="fill:#ee7733;stroke:#ee7733;stroke-linejoin:bevel;" x="404.422727" xlink:href="#m7ffd042a83" y="315.834646"/>
     <use style="fill:#ee7733;stroke:#ee7733;stroke-linejoin:bevel;" x="423.210606" xlink:href="#m7ffd042a83" y="307.977305"/>
     <use style="fill:#ee7733;stroke:#ee7733;stroke-linejoin:bevel;" x="441.998485" xlink:href="#m7ffd042a83" y="309.226538"/>
     <use style="fill:#ee7733;stroke:#ee7733;stroke-linejoin:bevel;" x="460.786364" xlink:href="#m7ffd042a83" y="320.655185"/>
    </g>
   </g>
   <g id="line2d_37"/>
   <g id="line2d_38"/>
   <g id="line2d_39"/>
   <g id="line2d_40"/>
   <g id="line2d_41">
    <path clip-path="url(#p1687cae98b)" d="M 122.604545 197.012386 
L 124.483333 228.836753 
L 126.362121 229.536555 
L 128.240909 219.50286 
L 130.119697 243.164458 
L 131.998485 236.862226 
L 133.877273 259.343436 
L 135.756061 260.943078 
L 137.634848 271.51825 
L 139.513636 259.971012 
L 141.392424 262.819871 
L 143.271212 263.399617 
L 145.15 266.703681 
L 147.028788 273.197265 
L 148.907576 276.170546 
L 150.786364 278.572723 
L 152.665152 277.253427 
L 154.543939 276.307872 
L 156.422727 275.86307 
L 158.301515 270.667564 
L 160.180303 275.117702 
L 162.059091 267.032116 
L 163.937879 276.191712 
L 165.816667 282.018337 
L 167.695455 274.830671 
L 169.574242 277.976542 
L 171.45303 268.314474 
L 173.331818 266.264363 
L 175.210606 257.535145 
L 177.089394 262.42539 
L 178.968182 257.744485 
L 180.84697 260.908837 
L 182.725758 261.479351 
L 184.604545 257.314142 
L 186.483333 249.952984 
L 188.362121 250.950624 
L 190.240909 256.109102 
L 192.119697 260.530169 
L 193.998485 261.779476 
L 195.877273 268.837326 
L 197.756061 269.245088 
L 199.634848 279.263616 
L 201.513636 272.476114 
L 203.392424 266.454909 
L 205.271212 271.301416 
L 207.15 269.587476 
L 209.028788 269.006957 
L 210.907576 269.328606 
L 212.786364 272.846744 
L 214.665152 275.417079 
L 216.543939 281.148565 
L 218.422727 277.461849 
L 220.301515 272.273546 
L 222.180303 271.0464 
L 224.059091 274.424186 
L 225.937879 271.717885 
L 227.816667 269.606006 
L 229.695455 263.568068 
L 231.574242 269.953124 
L 233.45303 265.515566 
L 235.331818 255.869793 
L 239.089394 252.622744 
L 240.968182 257.951621 
L 242.84697 250.430734 
L 244.725758 255.300441 
L 246.604545 253.957968 
L 248.483333 255.576817 
L 250.362121 259.870772 
L 252.240909 257.75373 
L 254.119697 250.546023 
L 255.998485 251.191157 
L 257.877273 257.278449 
L 259.756061 261.414005 
L 261.634848 262.850326 
L 263.513636 257.545609 
L 265.392424 253.243885 
L 267.271212 256.49073 
L 269.15 248.78383 
L 271.028788 249.916394 
L 272.907576 259.709641 
L 274.786364 259.619195 
L 278.543939 257.846343 
L 280.422727 263.666165 
L 282.301515 264.969883 
L 284.180303 273.883938 
L 286.059091 278.327571 
L 287.937879 271.437615 
L 289.816667 274.949305 
L 291.695455 282.573796 
L 293.574242 280.734916 
L 295.45303 276.300376 
L 297.331818 274.823408 
L 299.210606 274.521007 
L 301.089394 279.969649 
L 302.968182 282.265577 
L 304.84697 286.232423 
L 306.725758 286.628511 
L 308.604545 283.108197 
L 310.483333 277.6001 
L 312.362121 277.105049 
L 314.240909 278.721851 
L 316.119697 282.991176 
L 317.998485 284.535783 
L 319.877273 275.603638 
L 321.756061 271.654618 
L 323.634848 273.913005 
L 325.513636 274.451513 
L 327.392424 269.521033 
L 329.271212 274.125363 
L 331.15 279.409341 
L 333.028788 280.213142 
L 334.907576 280.458562 
L 336.786364 284.300193 
L 338.665152 288.94543 
L 340.543939 292.161831 
L 342.422727 284.913142 
L 344.301515 283.990439 
L 346.180303 290.970905 
L 348.059091 294.835575 
L 349.937879 298.283394 
L 351.816667 295.39506 
L 353.695455 286.292964 
L 355.574242 286.667379 
L 359.331818 299.244232 
L 361.210606 299.167414 
L 363.089394 308.257587 
L 364.968182 309.206053 
L 366.84697 302.073551 
L 368.725758 298.545301 
L 370.604545 299.576736 
L 372.483333 300.212552 
L 374.362121 296.081335 
L 376.240909 290.488949 
L 378.119697 286.802053 
L 379.998485 277.828783 
L 381.877273 273.328241 
L 383.756061 272.251586 
L 385.634848 273.948905 
L 387.513636 267.477108 
L 389.392424 274.028443 
L 391.271212 279.916072 
L 393.15 277.737721 
L 395.028788 280.373734 
L 396.907576 272.280239 
L 398.786364 268.179052 
L 400.665152 263.183552 
L 402.543939 265.478634 
L 404.422727 263.646003 
L 406.301515 260.88961 
L 408.180303 257.716027 
L 410.059091 250.575877 
L 411.937879 254.020251 
L 413.816667 255.534412 
L 415.695455 253.762106 
L 417.574242 264.832117 
L 419.45303 274.718161 
L 421.331818 282.397731 
L 423.210606 285.869422 
L 425.089394 290.806649 
L 426.968182 291.542745 
L 428.84697 296.51215 
L 430.725758 295.910057 
L 432.604545 287.587553 
L 434.483333 285.643023 
L 436.362121 281.282211 
L 438.240909 275.185984 
L 440.119697 269.679451 
L 441.998485 272.544893 
L 443.877273 277.952406 
L 445.756061 276.731291 
L 447.634848 288.148987 
L 449.513636 283.981328 
L 451.392424 285.471499 
L 453.271212 285.495915 
L 455.15 284.795261 
L 457.028788 277.029506 
L 458.907576 270.660877 
L 460.786364 270.085204 
L 462.665152 272.371203 
L 464.543939 270.51103 
L 466.422727 269.573492 
L 468.301515 274.634605 
L 470.180303 276.291749 
L 472.059091 281.048701 
L 473.937879 288.289811 
L 475.816667 290.96154 
L 477.695455 293.898495 
L 477.695455 293.898495 
" style="fill:none;stroke:#ee3377;stroke-dasharray:3.2,0.8,0.5,0.8;stroke-dashoffset:0;stroke-width:0.5;"/>
    <defs>
     <path d="M -1.25 2.5 
L 0 1.25 
L 1.25 2.5 
L 2.5 1.25 
L 1.25 0 
L 2.5 -1.25 
L 1.25 -2.5 
L 0 -1.25 
L -1.25 -2.5 
L -2.5 -1.25 
L -1.25 0 
L -2.5 1.25 
z
" id="me222946b8e" style="stroke:#ee3377;stroke-linejoin:miter;"/>
    </defs>
    <g clip-path="url(#p1687cae98b)">
     <use style="fill:#ee3377;stroke:#ee3377;stroke-linejoin:miter;" x="122.604545" xlink:href="#me222946b8e" y="197.012386"/>
     <use style="fill:#ee3377;stroke:#ee3377;stroke-linejoin:miter;" x="141.392424" xlink:href="#me222946b8e" y="262.819871"/>
     <use style="fill:#ee3377;stroke:#ee3377;stroke-linejoin:miter;" x="160.180303" xlink:href="#me222946b8e" y="275.117702"/>
     <use style="fill:#ee3377;stroke:#ee3377;stroke-linejoin:miter;" x="178.968182" xlink:href="#me222946b8e" y="257.744485"/>
     <use style="fill:#ee3377;stroke:#ee3377;stroke-linejoin:miter;" x="197.756061" xlink:href="#me222946b8e" y="269.245088"/>
     <use style="fill:#ee3377;stroke:#ee3377;stroke-linejoin:miter;" x="216.543939" xlink:href="#me222946b8e" y="281.148565"/>
     <use style="fill:#ee3377;stroke:#ee3377;stroke-linejoin:miter;" x="235.331818" xlink:href="#me222946b8e" y="255.869793"/>
     <use style="fill:#ee3377;stroke:#ee3377;stroke-linejoin:miter;" x="254.119697" xlink:href="#me222946b8e" y="250.546023"/>
     <use style="fill:#ee3377;stroke:#ee3377;stroke-linejoin:miter;" x="272.907576" xlink:href="#me222946b8e" y="259.709641"/>
     <use style="fill:#ee3377;stroke:#ee3377;stroke-linejoin:miter;" x="291.695455" xlink:href="#me222946b8e" y="282.573796"/>
     <use style="fill:#ee3377;stroke:#ee3377;stroke-linejoin:miter;" x="310.483333" xlink:href="#me222946b8e" y="277.6001"/>
     <use style="fill:#ee3377;stroke:#ee3377;stroke-linejoin:miter;" x="329.271212" xlink:href="#me222946b8e" y="274.125363"/>
     <use style="fill:#ee3377;stroke:#ee3377;stroke-linejoin:miter;" x="348.059091" xlink:href="#me222946b8e" y="294.835575"/>
     <use style="fill:#ee3377;stroke:#ee3377;stroke-linejoin:miter;" x="366.84697" xlink:href="#me222946b8e" y="302.073551"/>
     <use style="fill:#ee3377;stroke:#ee3377;stroke-linejoin:miter;" x="385.634848" xlink:href="#me222946b8e" y="273.948905"/>
     <use style="fill:#ee3377;stroke:#ee3377;stroke-linejoin:miter;" x="404.422727" xlink:href="#me222946b8e" y="263.646003"/>
     <use style="fill:#ee3377;stroke:#ee3377;stroke-linejoin:miter;" x="423.210606" xlink:href="#me222946b8e" y="285.869422"/>
     <use style="fill:#ee3377;stroke:#ee3377;stroke-linejoin:miter;" x="441.998485" xlink:href="#me222946b8e" y="272.544893"/>
     <use style="fill:#ee3377;stroke:#ee3377;stroke-linejoin:miter;" x="460.786364" xlink:href="#me222946b8e" y="270.085204"/>
    </g>
   </g>
   <g id="line2d_42"/>
   <g id="line2d_43"/>
   <g id="line2d_44"/>
   <g id="line2d_45"/>
   <g id="patch_3">
    <path d="M 104.85 389.251812 
L 104.85 112.051812 
" style="fill:none;stroke:#000000;stroke-linecap:square;stroke-linejoin:miter;stroke-width:0.8;"/>
   </g>
   <g id="patch_4">
    <path d="M 495.45 389.251812 
L 495.45 112.051812 
" style="fill:none;stroke:#000000;stroke-linecap:square;stroke-linejoin:miter;stroke-width:0.8;"/>
   </g>
   <g id="patch_5">
    <path d="M 104.85 389.251812 
L 495.45 389.251812 
" style="fill:none;stroke:#000000;stroke-linecap:square;stroke-linejoin:miter;stroke-width:0.8;"/>
   </g>
   <g id="patch_6">
    <path d="M 104.85 112.051812 
L 495.45 112.051812 
" style="fill:none;stroke:#000000;stroke-linecap:square;stroke-linejoin:miter;stroke-width:0.8;"/>
   </g>
   <g id="legend_1">
    <g id="line2d_46"/>
    <g id="line2d_47"/>
    <g id="text_18">
     <!--   -->
     <g transform="translate(48.8 22.277969)scale(0.13 -0.13)">
      <use xlink:href="#DejaVuSans-32"/>
     </g>
    </g>
    <g id="line2d_48"/>
    <g id="line2d_49"/>
    <g id="text_19">
     <!-- start -->
     <g transform="translate(48.8 41.359531)scale(0.13 -0.13)">
      <use xlink:href="#DejaVuSans-115"/>
      <use x="52.099609" xlink:href="#DejaVuSans-116"/>
      <use x="91.308594" xlink:href="#DejaVuSans-97"/>
      <use x="152.587891" xlink:href="#DejaVuSans-114"/>
      <use x="193.701172" xlink:href="#DejaVuSans-116"/>
     </g>
    </g>
    <g id="line2d_50"/>
    <g id="line2d_51"/>
    <g id="text_20">
     <!-- pre-dirft -->
     <g transform="translate(48.8 60.441094)scale(0.13 -0.13)">
      <use xlink:href="#DejaVuSans-112"/>
      <use x="63.476562" xlink:href="#DejaVuSans-114"/>
      <use x="104.558594" xlink:href="#DejaVuSans-101"/>
      <use x="166.082031" xlink:href="#DejaVuSans-45"/>
      <use x="202.166016" xlink:href="#DejaVuSans-100"/>
      <use x="265.642578" xlink:href="#DejaVuSans-105"/>
      <use x="293.425781" xlink:href="#DejaVuSans-114"/>
      <use x="334.539062" xlink:href="#DejaVuSans-102"/>
      <use x="369.728516" xlink:href="#DejaVuSans-116"/>
     </g>
    </g>
    <g id="line2d_52"/>
    <g id="line2d_53"/>
    <g id="text_21">
     <!-- post-drift -->
     <g transform="translate(48.8 79.522656)scale(0.13 -0.13)">
      <use xlink:href="#DejaVuSans-112"/>
      <use x="63.476562" xlink:href="#DejaVuSans-111"/>
      <use x="124.658203" xlink:href="#DejaVuSans-115"/>
      <use x="176.757812" xlink:href="#DejaVuSans-116"/>
      <use x="215.966797" xlink:href="#DejaVuSans-45"/>
      <use x="252.050781" xlink:href="#DejaVuSans-100"/>
      <use x="315.527344" xlink:href="#DejaVuSans-114"/>
      <use x="356.640625" xlink:href="#DejaVuSans-105"/>
      <use x="384.423828" xlink:href="#DejaVuSans-102"/>
      <use x="419.613281" xlink:href="#DejaVuSans-116"/>
     </g>
    </g>
    <g id="line2d_54"/>
    <g id="line2d_55"/>
    <g id="text_22">
     <!-- end -->
     <g transform="translate(48.8 98.604219)scale(0.13 -0.13)">
      <use xlink:href="#DejaVuSans-101"/>
      <use x="61.523438" xlink:href="#DejaVuSans-110"/>
      <use x="124.902344" xlink:href="#DejaVuSans-100"/>
     </g>
    </g>
    <g id="line2d_56">
     <path d="M 102.918688 17.727969 
L 128.918688 17.727969 
" style="fill:none;stroke:#cc3311;stroke-linecap:square;stroke-width:0.5;"/>
    </g>
    <g id="line2d_57">
     <g>
      <use style="fill:#cc3311;stroke:#cc3311;" x="115.918688" xlink:href="#m3e8321f42e" y="17.727969"/>
     </g>
    </g>
    <g id="text_23">
     <!-- ESOS -->
     <defs>
      <path d="M 9.8125 72.90625 
L 55.90625 72.90625 
L 55.90625 64.59375 
L 19.671875 64.59375 
L 19.671875 43.015625 
L 54.390625 43.015625 
L 54.390625 34.71875 
L 19.671875 34.71875 
L 19.671875 8.296875 
L 56.78125 8.296875 
L 56.78125 0 
L 9.8125 0 
z
" id="DejaVuSans-69"/>
      <path d="M 53.515625 70.515625 
L 53.515625 60.890625 
Q 47.90625 63.578125 42.921875 64.890625 
Q 37.9375 66.21875 33.296875 66.21875 
Q 25.25 66.21875 20.875 63.09375 
Q 16.5 59.96875 16.5 54.203125 
Q 16.5 49.359375 19.40625 46.890625 
Q 22.3125 44.4375 30.421875 42.921875 
L 36.375 41.703125 
Q 47.40625 39.59375 52.65625 34.296875 
Q 57.90625 29 57.90625 20.125 
Q 57.90625 9.515625 50.796875 4.046875 
Q 43.703125 -1.421875 29.984375 -1.421875 
Q 24.8125 -1.421875 18.96875 -0.25 
Q 13.140625 0.921875 6.890625 3.21875 
L 6.890625 13.375 
Q 12.890625 10.015625 18.65625 8.296875 
Q 24.421875 6.59375 29.984375 6.59375 
Q 38.421875 6.59375 43.015625 9.90625 
Q 47.609375 13.234375 47.609375 19.390625 
Q 47.609375 24.75 44.3125 27.78125 
Q 41.015625 30.8125 33.5 32.328125 
L 27.484375 33.5 
Q 16.453125 35.6875 11.515625 40.375 
Q 6.59375 45.0625 6.59375 53.421875 
Q 6.59375 63.09375 13.40625 68.65625 
Q 20.21875 74.21875 32.171875 74.21875 
Q 37.3125 74.21875 42.625 73.28125 
Q 47.953125 72.359375 53.515625 70.515625 
z
" id="DejaVuSans-83"/>
      <path d="M 39.40625 66.21875 
Q 28.65625 66.21875 22.328125 58.203125 
Q 16.015625 50.203125 16.015625 36.375 
Q 16.015625 22.609375 22.328125 14.59375 
Q 28.65625 6.59375 39.40625 6.59375 
Q 50.140625 6.59375 56.421875 14.59375 
Q 62.703125 22.609375 62.703125 36.375 
Q 62.703125 50.203125 56.421875 58.203125 
Q 50.140625 66.21875 39.40625 66.21875 
z
M 39.40625 74.21875 
Q 54.734375 74.21875 63.90625 63.9375 
Q 73.09375 53.65625 73.09375 36.375 
Q 73.09375 19.140625 63.90625 8.859375 
Q 54.734375 -1.421875 39.40625 -1.421875 
Q 24.03125 -1.421875 14.8125 8.828125 
Q 5.609375 19.09375 5.609375 36.375 
Q 5.609375 53.65625 14.8125 63.9375 
Q 24.03125 74.21875 39.40625 74.21875 
z
" id="DejaVuSans-79"/>
     </defs>
     <g transform="translate(139.318688 22.277969)scale(0.13 -0.13)">
      <use xlink:href="#DejaVuSans-69"/>
      <use x="63.183594" xlink:href="#DejaVuSans-83"/>
      <use x="126.660156" xlink:href="#DejaVuSans-79"/>
      <use x="205.371094" xlink:href="#DejaVuSans-83"/>
     </g>
    </g>
    <g id="line2d_58"/>
    <g id="line2d_59"/>
    <g id="text_24">
     <!-- 0.6510 -->
     <g transform="translate(139.318688 41.359531)scale(0.13 -0.13)">
      <use xlink:href="#DejaVuSans-48"/>
      <use x="63.623047" xlink:href="#DejaVuSans-46"/>
      <use x="95.410156" xlink:href="#DejaVuSans-54"/>
      <use x="159.033203" xlink:href="#DejaVuSans-53"/>
      <use x="222.65625" xlink:href="#DejaVuSans-49"/>
      <use x="286.279297" xlink:href="#DejaVuSans-48"/>
     </g>
    </g>
    <g id="line2d_60"/>
    <g id="line2d_61"/>
    <g id="text_25">
     <!-- 0.6198 -->
     <defs>
      <path d="M 10.984375 1.515625 
L 10.984375 10.5 
Q 14.703125 8.734375 18.5 7.8125 
Q 22.3125 6.890625 25.984375 6.890625 
Q 35.75 6.890625 40.890625 13.453125 
Q 46.046875 20.015625 46.78125 33.40625 
Q 43.953125 29.203125 39.59375 26.953125 
Q 35.25 24.703125 29.984375 24.703125 
Q 19.046875 24.703125 12.671875 31.3125 
Q 6.296875 37.9375 6.296875 49.421875 
Q 6.296875 60.640625 12.9375 67.421875 
Q 19.578125 74.21875 30.609375 74.21875 
Q 43.265625 74.21875 49.921875 64.515625 
Q 56.59375 54.828125 56.59375 36.375 
Q 56.59375 19.140625 48.40625 8.859375 
Q 40.234375 -1.421875 26.421875 -1.421875 
Q 22.703125 -1.421875 18.890625 -0.6875 
Q 15.09375 0.046875 10.984375 1.515625 
z
M 30.609375 32.421875 
Q 37.25 32.421875 41.125 36.953125 
Q 45.015625 41.5 45.015625 49.421875 
Q 45.015625 57.28125 41.125 61.84375 
Q 37.25 66.40625 30.609375 66.40625 
Q 23.96875 66.40625 20.09375 61.84375 
Q 16.21875 57.28125 16.21875 49.421875 
Q 16.21875 41.5 20.09375 36.953125 
Q 23.96875 32.421875 30.609375 32.421875 
z
" id="DejaVuSans-57"/>
     </defs>
     <g transform="translate(139.318688 60.441094)scale(0.13 -0.13)">
      <use xlink:href="#DejaVuSans-48"/>
      <use x="63.623047" xlink:href="#DejaVuSans-46"/>
      <use x="95.410156" xlink:href="#DejaVuSans-54"/>
      <use x="159.033203" xlink:href="#DejaVuSans-49"/>
      <use x="222.65625" xlink:href="#DejaVuSans-57"/>
      <use x="286.279297" xlink:href="#DejaVuSans-56"/>
     </g>
    </g>
    <g id="line2d_62"/>
    <g id="line2d_63"/>
    <g id="text_26">
     <!-- 0.6190 -->
     <g transform="translate(139.318688 79.522656)scale(0.13 -0.13)">
      <use xlink:href="#DejaVuSans-48"/>
      <use x="63.623047" xlink:href="#DejaVuSans-46"/>
      <use x="95.410156" xlink:href="#DejaVuSans-54"/>
      <use x="159.033203" xlink:href="#DejaVuSans-49"/>
      <use x="222.65625" xlink:href="#DejaVuSans-57"/>
      <use x="286.279297" xlink:href="#DejaVuSans-48"/>
     </g>
    </g>
    <g id="line2d_64"/>
    <g id="line2d_65"/>
    <g id="text_27">
     <!-- 0.6196 -->
     <g transform="translate(139.318688 98.604219)scale(0.13 -0.13)">
      <use xlink:href="#DejaVuSans-48"/>
      <use x="63.623047" xlink:href="#DejaVuSans-46"/>
      <use x="95.410156" xlink:href="#DejaVuSans-54"/>
      <use x="159.033203" xlink:href="#DejaVuSans-49"/>
      <use x="222.65625" xlink:href="#DejaVuSans-57"/>
      <use x="286.279297" xlink:href="#DejaVuSans-54"/>
     </g>
    </g>
    <g id="line2d_66">
     <path d="M 179.279563 17.727969 
L 205.279563 17.727969 
" style="fill:none;stroke:#009988;stroke-dasharray:1.85,0.8;stroke-dashoffset:0;stroke-width:0.5;"/>
    </g>
    <g id="line2d_67">
     <g>
      <use style="fill:#009988;stroke:#009988;stroke-linejoin:miter;" x="192.279563" xlink:href="#m04b4484353" y="17.727969"/>
     </g>
    </g>
    <g id="text_28">
     <!-- OOB -->
     <defs>
      <path d="M 19.671875 34.8125 
L 19.671875 8.109375 
L 35.5 8.109375 
Q 43.453125 8.109375 47.28125 11.40625 
Q 51.125 14.703125 51.125 21.484375 
Q 51.125 28.328125 47.28125 31.5625 
Q 43.453125 34.8125 35.5 34.8125 
z
M 19.671875 64.796875 
L 19.671875 42.828125 
L 34.28125 42.828125 
Q 41.5 42.828125 45.03125 45.53125 
Q 48.578125 48.25 48.578125 53.8125 
Q 48.578125 59.328125 45.03125 62.0625 
Q 41.5 64.796875 34.28125 64.796875 
z
M 9.8125 72.90625 
L 35.015625 72.90625 
Q 46.296875 72.90625 52.390625 68.21875 
Q 58.5 63.53125 58.5 54.890625 
Q 58.5 48.1875 55.375 44.234375 
Q 52.25 40.28125 46.1875 39.3125 
Q 53.46875 37.75 57.5 32.78125 
Q 61.53125 27.828125 61.53125 20.40625 
Q 61.53125 10.640625 54.890625 5.3125 
Q 48.25 0 35.984375 0 
L 9.8125 0 
z
" id="DejaVuSans-66"/>
     </defs>
     <g transform="translate(215.679563 22.277969)scale(0.13 -0.13)">
      <use xlink:href="#DejaVuSans-79"/>
      <use x="78.710938" xlink:href="#DejaVuSans-79"/>
      <use x="157.421875" xlink:href="#DejaVuSans-66"/>
     </g>
    </g>
    <g id="line2d_68"/>
    <g id="line2d_69"/>
    <g id="text_29">
     <!-- 0.6832 -->
     <g transform="translate(215.679563 41.359531)scale(0.13 -0.13)">
      <use xlink:href="#DejaVuSans-48"/>
      <use x="63.623047" xlink:href="#DejaVuSans-46"/>
      <use x="95.410156" xlink:href="#DejaVuSans-54"/>
      <use x="159.033203" xlink:href="#DejaVuSans-56"/>
      <use x="222.65625" xlink:href="#DejaVuSans-51"/>
      <use x="286.279297" xlink:href="#DejaVuSans-50"/>
     </g>
    </g>
    <g id="line2d_70"/>
    <g id="line2d_71"/>
    <g id="text_30">
     <!-- 0.6315 -->
     <g transform="translate(215.679563 60.441094)scale(0.13 -0.13)">
      <use xlink:href="#DejaVuSans-48"/>
      <use x="63.623047" xlink:href="#DejaVuSans-46"/>
      <use x="95.410156" xlink:href="#DejaVuSans-54"/>
      <use x="159.033203" xlink:href="#DejaVuSans-51"/>
      <use x="222.65625" xlink:href="#DejaVuSans-49"/>
      <use x="286.279297" xlink:href="#DejaVuSans-53"/>
     </g>
    </g>
    <g id="line2d_72"/>
    <g id="line2d_73"/>
    <g id="text_31">
     <!-- 0.6352 -->
     <g transform="translate(215.679563 79.522656)scale(0.13 -0.13)">
      <use xlink:href="#DejaVuSans-48"/>
      <use x="63.623047" xlink:href="#DejaVuSans-46"/>
      <use x="95.410156" xlink:href="#DejaVuSans-54"/>
      <use x="159.033203" xlink:href="#DejaVuSans-51"/>
      <use x="222.65625" xlink:href="#DejaVuSans-53"/>
      <use x="286.279297" xlink:href="#DejaVuSans-50"/>
     </g>
    </g>
    <g id="line2d_74"/>
    <g id="line2d_75"/>
    <g id="text_32">
     <!-- 0.6296 -->
     <g transform="translate(215.679563 98.604219)scale(0.13 -0.13)">
      <use xlink:href="#DejaVuSans-48"/>
      <use x="63.623047" xlink:href="#DejaVuSans-46"/>
      <use x="95.410156" xlink:href="#DejaVuSans-54"/>
      <use x="159.033203" xlink:href="#DejaVuSans-50"/>
      <use x="222.65625" xlink:href="#DejaVuSans-57"/>
      <use x="286.279297" xlink:href="#DejaVuSans-54"/>
     </g>
    </g>
    <g id="line2d_76">
     <path d="M 255.640438 17.727969 
L 281.640438 17.727969 
" style="fill:none;stroke:#0077bb;stroke-dasharray:3.2,0.8,0.5,0.8;stroke-dashoffset:0;stroke-width:0.5;"/>
    </g>
    <g id="line2d_77">
     <g>
      <use style="fill:#0077bb;stroke:#0077bb;stroke-linejoin:miter;" x="268.640438" xlink:href="#m1d8d4fcd0b" y="17.727969"/>
     </g>
    </g>
    <g id="text_33">
     <!-- UOB -->
     <defs>
      <path d="M 8.6875 72.90625 
L 18.609375 72.90625 
L 18.609375 28.609375 
Q 18.609375 16.890625 22.84375 11.734375 
Q 27.09375 6.59375 36.625 6.59375 
Q 46.09375 6.59375 50.34375 11.734375 
Q 54.59375 16.890625 54.59375 28.609375 
L 54.59375 72.90625 
L 64.5 72.90625 
L 64.5 27.390625 
Q 64.5 13.140625 57.4375 5.859375 
Q 50.390625 -1.421875 36.625 -1.421875 
Q 22.796875 -1.421875 15.734375 5.859375 
Q 8.6875 13.140625 8.6875 27.390625 
z
" id="DejaVuSans-85"/>
     </defs>
     <g transform="translate(292.040438 22.277969)scale(0.13 -0.13)">
      <use xlink:href="#DejaVuSans-85"/>
      <use x="73.193359" xlink:href="#DejaVuSans-79"/>
      <use x="151.904297" xlink:href="#DejaVuSans-66"/>
     </g>
    </g>
    <g id="line2d_78"/>
    <g id="line2d_79"/>
    <g id="text_34">
     <!-- 0.6666 -->
     <g transform="translate(292.040438 41.359531)scale(0.13 -0.13)">
      <use xlink:href="#DejaVuSans-48"/>
      <use x="63.623047" xlink:href="#DejaVuSans-46"/>
      <use x="95.410156" xlink:href="#DejaVuSans-54"/>
      <use x="159.033203" xlink:href="#DejaVuSans-54"/>
      <use x="222.65625" xlink:href="#DejaVuSans-54"/>
      <use x="286.279297" xlink:href="#DejaVuSans-54"/>
     </g>
    </g>
    <g id="line2d_80"/>
    <g id="line2d_81"/>
    <g id="text_35">
     <!-- 0.6277 -->
     <g transform="translate(292.040438 60.441094)scale(0.13 -0.13)">
      <use xlink:href="#DejaVuSans-48"/>
      <use x="63.623047" xlink:href="#DejaVuSans-46"/>
      <use x="95.410156" xlink:href="#DejaVuSans-54"/>
      <use x="159.033203" xlink:href="#DejaVuSans-50"/>
      <use x="222.65625" xlink:href="#DejaVuSans-55"/>
      <use x="286.279297" xlink:href="#DejaVuSans-55"/>
     </g>
    </g>
    <g id="line2d_82"/>
    <g id="line2d_83"/>
    <g id="text_36">
     <!-- 0.6326 -->
     <g transform="translate(292.040438 79.522656)scale(0.13 -0.13)">
      <use xlink:href="#DejaVuSans-48"/>
      <use x="63.623047" xlink:href="#DejaVuSans-46"/>
      <use x="95.410156" xlink:href="#DejaVuSans-54"/>
      <use x="159.033203" xlink:href="#DejaVuSans-51"/>
      <use x="222.65625" xlink:href="#DejaVuSans-50"/>
      <use x="286.279297" xlink:href="#DejaVuSans-54"/>
     </g>
    </g>
    <g id="line2d_84"/>
    <g id="line2d_85"/>
    <g id="text_37">
     <!-- 0.6293 -->
     <g transform="translate(292.040438 98.604219)scale(0.13 -0.13)">
      <use xlink:href="#DejaVuSans-48"/>
      <use x="63.623047" xlink:href="#DejaVuSans-46"/>
      <use x="95.410156" xlink:href="#DejaVuSans-54"/>
      <use x="159.033203" xlink:href="#DejaVuSans-50"/>
      <use x="222.65625" xlink:href="#DejaVuSans-57"/>
      <use x="286.279297" xlink:href="#DejaVuSans-51"/>
     </g>
    </g>
    <g id="line2d_86">
     <path d="M 332.001313 17.727969 
L 358.001313 17.727969 
" style="fill:none;stroke:#ee7733;stroke-dasharray:0.5,0.825;stroke-dashoffset:0;stroke-width:0.5;"/>
    </g>
    <g id="line2d_87">
     <g>
      <use style="fill:#ee7733;stroke:#ee7733;stroke-linejoin:bevel;" x="345.001313" xlink:href="#m7ffd042a83" y="17.727969"/>
     </g>
    </g>
    <g id="text_38">
     <!-- OB -->
     <g transform="translate(368.401313 22.277969)scale(0.13 -0.13)">
      <use xlink:href="#DejaVuSans-79"/>
      <use x="78.710938" xlink:href="#DejaVuSans-66"/>
     </g>
    </g>
    <g id="line2d_88"/>
    <g id="line2d_89"/>
    <g id="text_39">
     <!-- 0.6701 -->
     <g transform="translate(368.401313 41.359531)scale(0.13 -0.13)">
      <use xlink:href="#DejaVuSans-48"/>
      <use x="63.623047" xlink:href="#DejaVuSans-46"/>
      <use x="95.410156" xlink:href="#DejaVuSans-54"/>
      <use x="159.033203" xlink:href="#DejaVuSans-55"/>
      <use x="222.65625" xlink:href="#DejaVuSans-48"/>
      <use x="286.279297" xlink:href="#DejaVuSans-49"/>
     </g>
    </g>
    <g id="line2d_90"/>
    <g id="line2d_91"/>
    <g id="text_40">
     <!-- 0.6304 -->
     <g transform="translate(368.401313 60.441094)scale(0.13 -0.13)">
      <use xlink:href="#DejaVuSans-48"/>
      <use x="63.623047" xlink:href="#DejaVuSans-46"/>
      <use x="95.410156" xlink:href="#DejaVuSans-54"/>
      <use x="159.033203" xlink:href="#DejaVuSans-51"/>
      <use x="222.65625" xlink:href="#DejaVuSans-48"/>
      <use x="286.279297" xlink:href="#DejaVuSans-52"/>
     </g>
    </g>
    <g id="line2d_92"/>
    <g id="line2d_93"/>
    <g id="text_41">
     <!-- 0.6326 -->
     <g transform="translate(368.401313 79.522656)scale(0.13 -0.13)">
      <use xlink:href="#DejaVuSans-48"/>
      <use x="63.623047" xlink:href="#DejaVuSans-46"/>
      <use x="95.410156" xlink:href="#DejaVuSans-54"/>
      <use x="159.033203" xlink:href="#DejaVuSans-51"/>
      <use x="222.65625" xlink:href="#DejaVuSans-50"/>
      <use x="286.279297" xlink:href="#DejaVuSans-54"/>
     </g>
    </g>
    <g id="line2d_94"/>
    <g id="line2d_95"/>
    <g id="text_42">
     <!-- 0.6299 -->
     <g transform="translate(368.401313 98.604219)scale(0.13 -0.13)">
      <use xlink:href="#DejaVuSans-48"/>
      <use x="63.623047" xlink:href="#DejaVuSans-46"/>
      <use x="95.410156" xlink:href="#DejaVuSans-54"/>
      <use x="159.033203" xlink:href="#DejaVuSans-50"/>
      <use x="222.65625" xlink:href="#DejaVuSans-57"/>
      <use x="286.279297" xlink:href="#DejaVuSans-57"/>
     </g>
    </g>
    <g id="line2d_96">
     <path d="M 408.362188 17.727969 
L 434.362188 17.727969 
" style="fill:none;stroke:#ee3377;stroke-dasharray:3.2,0.8,0.5,0.8;stroke-dashoffset:0;stroke-width:0.5;"/>
    </g>
    <g id="line2d_97">
     <g>
      <use style="fill:#ee3377;stroke:#ee3377;stroke-linejoin:miter;" x="421.362188" xlink:href="#me222946b8e" y="17.727969"/>
     </g>
    </g>
    <g id="text_43">
     <!-- VFDT -->
     <defs>
      <path d="M 28.609375 0 
L 0.78125 72.90625 
L 11.078125 72.90625 
L 34.1875 11.53125 
L 57.328125 72.90625 
L 67.578125 72.90625 
L 39.796875 0 
z
" id="DejaVuSans-86"/>
      <path d="M 9.8125 72.90625 
L 51.703125 72.90625 
L 51.703125 64.59375 
L 19.671875 64.59375 
L 19.671875 43.109375 
L 48.578125 43.109375 
L 48.578125 34.8125 
L 19.671875 34.8125 
L 19.671875 0 
L 9.8125 0 
z
" id="DejaVuSans-70"/>
      <path d="M 19.671875 64.796875 
L 19.671875 8.109375 
L 31.59375 8.109375 
Q 46.6875 8.109375 53.6875 14.9375 
Q 60.6875 21.78125 60.6875 36.53125 
Q 60.6875 51.171875 53.6875 57.984375 
Q 46.6875 64.796875 31.59375 64.796875 
z
M 9.8125 72.90625 
L 30.078125 72.90625 
Q 51.265625 72.90625 61.171875 64.09375 
Q 71.09375 55.28125 71.09375 36.53125 
Q 71.09375 17.671875 61.125 8.828125 
Q 51.171875 0 30.078125 0 
L 9.8125 0 
z
" id="DejaVuSans-68"/>
      <path d="M -0.296875 72.90625 
L 61.375 72.90625 
L 61.375 64.59375 
L 35.5 64.59375 
L 35.5 0 
L 25.59375 0 
L 25.59375 64.59375 
L -0.296875 64.59375 
z
" id="DejaVuSans-84"/>
     </defs>
     <g transform="translate(444.762188 22.277969)scale(0.13 -0.13)">
      <use xlink:href="#DejaVuSans-86"/>
      <use x="68.408203" xlink:href="#DejaVuSans-70"/>
      <use x="125.927734" xlink:href="#DejaVuSans-68"/>
      <use x="202.929688" xlink:href="#DejaVuSans-84"/>
     </g>
    </g>
    <g id="line2d_98"/>
    <g id="line2d_99"/>
    <g id="text_44">
     <!-- 0.6641 -->
     <g transform="translate(444.762188 41.359531)scale(0.13 -0.13)">
      <use xlink:href="#DejaVuSans-48"/>
      <use x="63.623047" xlink:href="#DejaVuSans-46"/>
      <use x="95.410156" xlink:href="#DejaVuSans-54"/>
      <use x="159.033203" xlink:href="#DejaVuSans-54"/>
      <use x="222.65625" xlink:href="#DejaVuSans-52"/>
      <use x="286.279297" xlink:href="#DejaVuSans-49"/>
     </g>
    </g>
    <g id="line2d_100"/>
    <g id="line2d_101"/>
    <g id="text_45">
     <!-- 0.6460 -->
     <g transform="translate(444.762188 60.441094)scale(0.13 -0.13)">
      <use xlink:href="#DejaVuSans-48"/>
      <use x="63.623047" xlink:href="#DejaVuSans-46"/>
      <use x="95.410156" xlink:href="#DejaVuSans-54"/>
      <use x="159.033203" xlink:href="#DejaVuSans-52"/>
      <use x="222.65625" xlink:href="#DejaVuSans-54"/>
      <use x="286.279297" xlink:href="#DejaVuSans-48"/>
     </g>
    </g>
    <g id="line2d_102"/>
    <g id="line2d_103"/>
    <g id="text_46">
     <!-- 0.6435 -->
     <g transform="translate(444.762188 79.522656)scale(0.13 -0.13)">
      <use xlink:href="#DejaVuSans-48"/>
      <use x="63.623047" xlink:href="#DejaVuSans-46"/>
      <use x="95.410156" xlink:href="#DejaVuSans-54"/>
      <use x="159.033203" xlink:href="#DejaVuSans-52"/>
      <use x="222.65625" xlink:href="#DejaVuSans-51"/>
      <use x="286.279297" xlink:href="#DejaVuSans-53"/>
     </g>
    </g>
    <g id="line2d_104"/>
    <g id="line2d_105"/>
    <g id="text_47">
     <!-- 0.6386 -->
     <g transform="translate(444.762188 98.604219)scale(0.13 -0.13)">
      <use xlink:href="#DejaVuSans-48"/>
      <use x="63.623047" xlink:href="#DejaVuSans-46"/>
      <use x="95.410156" xlink:href="#DejaVuSans-54"/>
      <use x="159.033203" xlink:href="#DejaVuSans-51"/>
      <use x="222.65625" xlink:href="#DejaVuSans-56"/>
      <use x="286.279297" xlink:href="#DejaVuSans-54"/>
     </g>
    </g>
   </g>
  </g>
 </g>
 <defs>
  <clipPath id="p1687cae98b">
   <rect height="277.2" width="390.6" x="104.85" y="112.051812"/>
  </clipPath>
 </defs>
</svg>
