<?xml version="1.0" encoding="utf-8" standalone="no"?>
<!DOCTYPE svg PUBLIC "-//W3C//DTD SVG 1.1//EN"
  "http://www.w3.org/Graphics/SVG/1.1/DTD/svg11.dtd">
<!-- Created with matplotlib (https://matplotlib.org/) -->
<svg height="432.614937pt" version="1.1" viewBox="0 0 502.65 432.614937" width="502.65pt" xmlns="http://www.w3.org/2000/svg" xmlns:xlink="http://www.w3.org/1999/xlink">
 <defs>
  <style type="text/css">
*{stroke-linecap:butt;stroke-linejoin:round;white-space:pre;}
  </style>
 </defs>
 <g id="figure_1">
  <g id="patch_1">
   <path d="M 0 432.614937 
L 502.65 432.614937 
L 502.65 0 
L 0 0 
z
" style="fill:#ffffff;"/>
  </g>
  <g id="axes_1">
   <g id="patch_2">
    <path d="M 104.85 389.251812 
L 495.45 389.251812 
L 495.45 112.051812 
L 104.85 112.051812 
z
" style="fill:#ffffff;"/>
   </g>
   <g id="patch_3">
    <path clip-path="url(#p8a8ce21612)" d="M 289.816667 389.251812 
L 289.816667 112.051812 
L 233.45303 112.051812 
L 233.45303 389.251812 
z
" style="fill:#d3d3d3;opacity:0.5;"/>
   </g>
   <g id="matplotlib.axis_1">
    <g id="xtick_1">
     <g id="line2d_1">
      <defs>
       <path d="M 0 0 
L 0 3.5 
" id="mfa9fa186a2" style="stroke:#000000;stroke-width:0.8;"/>
      </defs>
      <g>
       <use style="stroke:#000000;stroke-width:0.8;" x="148.907576" xlink:href="#mfa9fa186a2" y="389.251812"/>
      </g>
     </g>
     <g id="text_1">
      <!-- 25 -->
      <defs>
       <path d="M 19.1875 8.296875 
L 53.609375 8.296875 
L 53.609375 0 
L 7.328125 0 
L 7.328125 8.296875 
Q 12.9375 14.109375 22.625 23.890625 
Q 32.328125 33.6875 34.8125 36.53125 
Q 39.546875 41.84375 41.421875 45.53125 
Q 43.3125 49.21875 43.3125 52.78125 
Q 43.3125 58.59375 39.234375 62.25 
Q 35.15625 65.921875 28.609375 65.921875 
Q 23.96875 65.921875 18.8125 64.3125 
Q 13.671875 62.703125 7.8125 59.421875 
L 7.8125 69.390625 
Q 13.765625 71.78125 18.9375 73 
Q 24.125 74.21875 28.421875 74.21875 
Q 39.75 74.21875 46.484375 68.546875 
Q 53.21875 62.890625 53.21875 53.421875 
Q 53.21875 48.921875 51.53125 44.890625 
Q 49.859375 40.875 45.40625 35.40625 
Q 44.1875 33.984375 37.640625 27.21875 
Q 31.109375 20.453125 19.1875 8.296875 
z
" id="DejaVuSans-50"/>
       <path d="M 10.796875 72.90625 
L 49.515625 72.90625 
L 49.515625 64.59375 
L 19.828125 64.59375 
L 19.828125 46.734375 
Q 21.96875 47.46875 24.109375 47.828125 
Q 26.265625 48.1875 28.421875 48.1875 
Q 40.625 48.1875 47.75 41.5 
Q 54.890625 34.8125 54.890625 23.390625 
Q 54.890625 11.625 47.5625 5.09375 
Q 40.234375 -1.421875 26.90625 -1.421875 
Q 22.3125 -1.421875 17.546875 -0.640625 
Q 12.796875 0.140625 7.71875 1.703125 
L 7.71875 11.625 
Q 12.109375 9.234375 16.796875 8.0625 
Q 21.484375 6.890625 26.703125 6.890625 
Q 35.15625 6.890625 40.078125 11.328125 
Q 45.015625 15.765625 45.015625 23.390625 
Q 45.015625 31 40.078125 35.4375 
Q 35.15625 39.890625 26.703125 39.890625 
Q 22.75 39.890625 18.8125 39.015625 
Q 14.890625 38.140625 10.796875 36.28125 
z
" id="DejaVuSans-53"/>
      </defs>
      <g transform="translate(140.636326 406.129781)scale(0.13 -0.13)">
       <use xlink:href="#DejaVuSans-50"/>
       <use x="63.623047" xlink:href="#DejaVuSans-53"/>
      </g>
     </g>
    </g>
    <g id="xtick_2">
     <g id="line2d_2">
      <g>
       <use style="stroke:#000000;stroke-width:0.8;" x="195.877273" xlink:href="#mfa9fa186a2" y="389.251812"/>
      </g>
     </g>
     <g id="text_2">
      <!-- 50 -->
      <defs>
       <path d="M 31.78125 66.40625 
Q 24.171875 66.40625 20.328125 58.90625 
Q 16.5 51.421875 16.5 36.375 
Q 16.5 21.390625 20.328125 13.890625 
Q 24.171875 6.390625 31.78125 6.390625 
Q 39.453125 6.390625 43.28125 13.890625 
Q 47.125 21.390625 47.125 36.375 
Q 47.125 51.421875 43.28125 58.90625 
Q 39.453125 66.40625 31.78125 66.40625 
z
M 31.78125 74.21875 
Q 44.046875 74.21875 50.515625 64.515625 
Q 56.984375 54.828125 56.984375 36.375 
Q 56.984375 17.96875 50.515625 8.265625 
Q 44.046875 -1.421875 31.78125 -1.421875 
Q 19.53125 -1.421875 13.0625 8.265625 
Q 6.59375 17.96875 6.59375 36.375 
Q 6.59375 54.828125 13.0625 64.515625 
Q 19.53125 74.21875 31.78125 74.21875 
z
" id="DejaVuSans-48"/>
      </defs>
      <g transform="translate(187.606023 406.129781)scale(0.13 -0.13)">
       <use xlink:href="#DejaVuSans-53"/>
       <use x="63.623047" xlink:href="#DejaVuSans-48"/>
      </g>
     </g>
    </g>
    <g id="xtick_3">
     <g id="line2d_3">
      <g>
       <use style="stroke:#000000;stroke-width:0.8;" x="242.84697" xlink:href="#mfa9fa186a2" y="389.251812"/>
      </g>
     </g>
     <g id="text_3">
      <!-- 75 -->
      <defs>
       <path d="M 8.203125 72.90625 
L 55.078125 72.90625 
L 55.078125 68.703125 
L 28.609375 0 
L 18.3125 0 
L 43.21875 64.59375 
L 8.203125 64.59375 
z
" id="DejaVuSans-55"/>
      </defs>
      <g transform="translate(234.57572 406.129781)scale(0.13 -0.13)">
       <use xlink:href="#DejaVuSans-55"/>
       <use x="63.623047" xlink:href="#DejaVuSans-53"/>
      </g>
     </g>
    </g>
    <g id="xtick_4">
     <g id="line2d_4">
      <g>
       <use style="stroke:#000000;stroke-width:0.8;" x="289.816667" xlink:href="#mfa9fa186a2" y="389.251812"/>
      </g>
     </g>
     <g id="text_4">
      <!-- 100 -->
      <defs>
       <path d="M 12.40625 8.296875 
L 28.515625 8.296875 
L 28.515625 63.921875 
L 10.984375 60.40625 
L 10.984375 69.390625 
L 28.421875 72.90625 
L 38.28125 72.90625 
L 38.28125 8.296875 
L 54.390625 8.296875 
L 54.390625 0 
L 12.40625 0 
z
" id="DejaVuSans-49"/>
      </defs>
      <g transform="translate(277.409792 406.129781)scale(0.13 -0.13)">
       <use xlink:href="#DejaVuSans-49"/>
       <use x="63.623047" xlink:href="#DejaVuSans-48"/>
       <use x="127.246094" xlink:href="#DejaVuSans-48"/>
      </g>
     </g>
    </g>
    <g id="xtick_5">
     <g id="line2d_5">
      <g>
       <use style="stroke:#000000;stroke-width:0.8;" x="336.786364" xlink:href="#mfa9fa186a2" y="389.251812"/>
      </g>
     </g>
     <g id="text_5">
      <!-- 125 -->
      <g transform="translate(324.379489 406.129781)scale(0.13 -0.13)">
       <use xlink:href="#DejaVuSans-49"/>
       <use x="63.623047" xlink:href="#DejaVuSans-50"/>
       <use x="127.246094" xlink:href="#DejaVuSans-53"/>
      </g>
     </g>
    </g>
    <g id="xtick_6">
     <g id="line2d_6">
      <g>
       <use style="stroke:#000000;stroke-width:0.8;" x="383.756061" xlink:href="#mfa9fa186a2" y="389.251812"/>
      </g>
     </g>
     <g id="text_6">
      <!-- 150 -->
      <g transform="translate(371.349186 406.129781)scale(0.13 -0.13)">
       <use xlink:href="#DejaVuSans-49"/>
       <use x="63.623047" xlink:href="#DejaVuSans-53"/>
       <use x="127.246094" xlink:href="#DejaVuSans-48"/>
      </g>
     </g>
    </g>
    <g id="xtick_7">
     <g id="line2d_7">
      <g>
       <use style="stroke:#000000;stroke-width:0.8;" x="430.725758" xlink:href="#mfa9fa186a2" y="389.251812"/>
      </g>
     </g>
     <g id="text_7">
      <!-- 175 -->
      <g transform="translate(418.318883 406.129781)scale(0.13 -0.13)">
       <use xlink:href="#DejaVuSans-49"/>
       <use x="63.623047" xlink:href="#DejaVuSans-55"/>
       <use x="127.246094" xlink:href="#DejaVuSans-53"/>
      </g>
     </g>
    </g>
    <g id="xtick_8">
     <g id="line2d_8">
      <g>
       <use style="stroke:#000000;stroke-width:0.8;" x="477.695455" xlink:href="#mfa9fa186a2" y="389.251812"/>
      </g>
     </g>
     <g id="text_8">
      <!-- 200 -->
      <g transform="translate(465.28858 406.129781)scale(0.13 -0.13)">
       <use xlink:href="#DejaVuSans-50"/>
       <use x="63.623047" xlink:href="#DejaVuSans-48"/>
       <use x="127.246094" xlink:href="#DejaVuSans-48"/>
      </g>
     </g>
    </g>
    <g id="text_9">
     <!-- Number of processed instances [x1000] -->
     <defs>
      <path d="M 9.8125 72.90625 
L 23.09375 72.90625 
L 55.421875 11.921875 
L 55.421875 72.90625 
L 64.984375 72.90625 
L 64.984375 0 
L 51.703125 0 
L 19.390625 60.984375 
L 19.390625 0 
L 9.8125 0 
z
" id="DejaVuSans-78"/>
      <path d="M 8.5 21.578125 
L 8.5 54.6875 
L 17.484375 54.6875 
L 17.484375 21.921875 
Q 17.484375 14.15625 20.5 10.265625 
Q 23.53125 6.390625 29.59375 6.390625 
Q 36.859375 6.390625 41.078125 11.03125 
Q 45.3125 15.671875 45.3125 23.6875 
L 45.3125 54.6875 
L 54.296875 54.6875 
L 54.296875 0 
L 45.3125 0 
L 45.3125 8.40625 
Q 42.046875 3.421875 37.71875 1 
Q 33.40625 -1.421875 27.6875 -1.421875 
Q 18.265625 -1.421875 13.375 4.4375 
Q 8.5 10.296875 8.5 21.578125 
z
M 31.109375 56 
z
" id="DejaVuSans-117"/>
      <path d="M 52 44.1875 
Q 55.375 50.25 60.0625 53.125 
Q 64.75 56 71.09375 56 
Q 79.640625 56 84.28125 50.015625 
Q 88.921875 44.046875 88.921875 33.015625 
L 88.921875 0 
L 79.890625 0 
L 79.890625 32.71875 
Q 79.890625 40.578125 77.09375 44.375 
Q 74.3125 48.1875 68.609375 48.1875 
Q 61.625 48.1875 57.5625 43.546875 
Q 53.515625 38.921875 53.515625 30.90625 
L 53.515625 0 
L 44.484375 0 
L 44.484375 32.71875 
Q 44.484375 40.625 41.703125 44.40625 
Q 38.921875 48.1875 33.109375 48.1875 
Q 26.21875 48.1875 22.15625 43.53125 
Q 18.109375 38.875 18.109375 30.90625 
L 18.109375 0 
L 9.078125 0 
L 9.078125 54.6875 
L 18.109375 54.6875 
L 18.109375 46.1875 
Q 21.1875 51.21875 25.484375 53.609375 
Q 29.78125 56 35.6875 56 
Q 41.65625 56 45.828125 52.96875 
Q 50 49.953125 52 44.1875 
z
" id="DejaVuSans-109"/>
      <path d="M 48.6875 27.296875 
Q 48.6875 37.203125 44.609375 42.84375 
Q 40.53125 48.484375 33.40625 48.484375 
Q 26.265625 48.484375 22.1875 42.84375 
Q 18.109375 37.203125 18.109375 27.296875 
Q 18.109375 17.390625 22.1875 11.75 
Q 26.265625 6.109375 33.40625 6.109375 
Q 40.53125 6.109375 44.609375 11.75 
Q 48.6875 17.390625 48.6875 27.296875 
z
M 18.109375 46.390625 
Q 20.953125 51.265625 25.265625 53.625 
Q 29.59375 56 35.59375 56 
Q 45.5625 56 51.78125 48.09375 
Q 58.015625 40.1875 58.015625 27.296875 
Q 58.015625 14.40625 51.78125 6.484375 
Q 45.5625 -1.421875 35.59375 -1.421875 
Q 29.59375 -1.421875 25.265625 0.953125 
Q 20.953125 3.328125 18.109375 8.203125 
L 18.109375 0 
L 9.078125 0 
L 9.078125 75.984375 
L 18.109375 75.984375 
z
" id="DejaVuSans-98"/>
      <path d="M 56.203125 29.59375 
L 56.203125 25.203125 
L 14.890625 25.203125 
Q 15.484375 15.921875 20.484375 11.0625 
Q 25.484375 6.203125 34.421875 6.203125 
Q 39.59375 6.203125 44.453125 7.46875 
Q 49.3125 8.734375 54.109375 11.28125 
L 54.109375 2.78125 
Q 49.265625 0.734375 44.1875 -0.34375 
Q 39.109375 -1.421875 33.890625 -1.421875 
Q 20.796875 -1.421875 13.15625 6.1875 
Q 5.515625 13.8125 5.515625 26.8125 
Q 5.515625 40.234375 12.765625 48.109375 
Q 20.015625 56 32.328125 56 
Q 43.359375 56 49.78125 48.890625 
Q 56.203125 41.796875 56.203125 29.59375 
z
M 47.21875 32.234375 
Q 47.125 39.59375 43.09375 43.984375 
Q 39.0625 48.390625 32.421875 48.390625 
Q 24.90625 48.390625 20.390625 44.140625 
Q 15.875 39.890625 15.1875 32.171875 
z
" id="DejaVuSans-101"/>
      <path d="M 41.109375 46.296875 
Q 39.59375 47.171875 37.8125 47.578125 
Q 36.03125 48 33.890625 48 
Q 26.265625 48 22.1875 43.046875 
Q 18.109375 38.09375 18.109375 28.8125 
L 18.109375 0 
L 9.078125 0 
L 9.078125 54.6875 
L 18.109375 54.6875 
L 18.109375 46.1875 
Q 20.953125 51.171875 25.484375 53.578125 
Q 30.03125 56 36.53125 56 
Q 37.453125 56 38.578125 55.875 
Q 39.703125 55.765625 41.0625 55.515625 
z
" id="DejaVuSans-114"/>
      <path id="DejaVuSans-32"/>
      <path d="M 30.609375 48.390625 
Q 23.390625 48.390625 19.1875 42.75 
Q 14.984375 37.109375 14.984375 27.296875 
Q 14.984375 17.484375 19.15625 11.84375 
Q 23.34375 6.203125 30.609375 6.203125 
Q 37.796875 6.203125 41.984375 11.859375 
Q 46.1875 17.53125 46.1875 27.296875 
Q 46.1875 37.015625 41.984375 42.703125 
Q 37.796875 48.390625 30.609375 48.390625 
z
M 30.609375 56 
Q 42.328125 56 49.015625 48.375 
Q 55.71875 40.765625 55.71875 27.296875 
Q 55.71875 13.875 49.015625 6.21875 
Q 42.328125 -1.421875 30.609375 -1.421875 
Q 18.84375 -1.421875 12.171875 6.21875 
Q 5.515625 13.875 5.515625 27.296875 
Q 5.515625 40.765625 12.171875 48.375 
Q 18.84375 56 30.609375 56 
z
" id="DejaVuSans-111"/>
      <path d="M 37.109375 75.984375 
L 37.109375 68.5 
L 28.515625 68.5 
Q 23.6875 68.5 21.796875 66.546875 
Q 19.921875 64.59375 19.921875 59.515625 
L 19.921875 54.6875 
L 34.71875 54.6875 
L 34.71875 47.703125 
L 19.921875 47.703125 
L 19.921875 0 
L 10.890625 0 
L 10.890625 47.703125 
L 2.296875 47.703125 
L 2.296875 54.6875 
L 10.890625 54.6875 
L 10.890625 58.5 
Q 10.890625 67.625 15.140625 71.796875 
Q 19.390625 75.984375 28.609375 75.984375 
z
" id="DejaVuSans-102"/>
      <path d="M 18.109375 8.203125 
L 18.109375 -20.796875 
L 9.078125 -20.796875 
L 9.078125 54.6875 
L 18.109375 54.6875 
L 18.109375 46.390625 
Q 20.953125 51.265625 25.265625 53.625 
Q 29.59375 56 35.59375 56 
Q 45.5625 56 51.78125 48.09375 
Q 58.015625 40.1875 58.015625 27.296875 
Q 58.015625 14.40625 51.78125 6.484375 
Q 45.5625 -1.421875 35.59375 -1.421875 
Q 29.59375 -1.421875 25.265625 0.953125 
Q 20.953125 3.328125 18.109375 8.203125 
z
M 48.6875 27.296875 
Q 48.6875 37.203125 44.609375 42.84375 
Q 40.53125 48.484375 33.40625 48.484375 
Q 26.265625 48.484375 22.1875 42.84375 
Q 18.109375 37.203125 18.109375 27.296875 
Q 18.109375 17.390625 22.1875 11.75 
Q 26.265625 6.109375 33.40625 6.109375 
Q 40.53125 6.109375 44.609375 11.75 
Q 48.6875 17.390625 48.6875 27.296875 
z
" id="DejaVuSans-112"/>
      <path d="M 48.78125 52.59375 
L 48.78125 44.1875 
Q 44.96875 46.296875 41.140625 47.34375 
Q 37.3125 48.390625 33.40625 48.390625 
Q 24.65625 48.390625 19.8125 42.84375 
Q 14.984375 37.3125 14.984375 27.296875 
Q 14.984375 17.28125 19.8125 11.734375 
Q 24.65625 6.203125 33.40625 6.203125 
Q 37.3125 6.203125 41.140625 7.25 
Q 44.96875 8.296875 48.78125 10.40625 
L 48.78125 2.09375 
Q 45.015625 0.34375 40.984375 -0.53125 
Q 36.96875 -1.421875 32.421875 -1.421875 
Q 20.0625 -1.421875 12.78125 6.34375 
Q 5.515625 14.109375 5.515625 27.296875 
Q 5.515625 40.671875 12.859375 48.328125 
Q 20.21875 56 33.015625 56 
Q 37.15625 56 41.109375 55.140625 
Q 45.0625 54.296875 48.78125 52.59375 
z
" id="DejaVuSans-99"/>
      <path d="M 44.28125 53.078125 
L 44.28125 44.578125 
Q 40.484375 46.53125 36.375 47.5 
Q 32.28125 48.484375 27.875 48.484375 
Q 21.1875 48.484375 17.84375 46.4375 
Q 14.5 44.390625 14.5 40.28125 
Q 14.5 37.15625 16.890625 35.375 
Q 19.28125 33.59375 26.515625 31.984375 
L 29.59375 31.296875 
Q 39.15625 29.25 43.1875 25.515625 
Q 47.21875 21.78125 47.21875 15.09375 
Q 47.21875 7.46875 41.1875 3.015625 
Q 35.15625 -1.421875 24.609375 -1.421875 
Q 20.21875 -1.421875 15.453125 -0.5625 
Q 10.6875 0.296875 5.421875 2 
L 5.421875 11.28125 
Q 10.40625 8.6875 15.234375 7.390625 
Q 20.0625 6.109375 24.8125 6.109375 
Q 31.15625 6.109375 34.5625 8.28125 
Q 37.984375 10.453125 37.984375 14.40625 
Q 37.984375 18.0625 35.515625 20.015625 
Q 33.0625 21.96875 24.703125 23.78125 
L 21.578125 24.515625 
Q 13.234375 26.265625 9.515625 29.90625 
Q 5.8125 33.546875 5.8125 39.890625 
Q 5.8125 47.609375 11.28125 51.796875 
Q 16.75 56 26.8125 56 
Q 31.78125 56 36.171875 55.265625 
Q 40.578125 54.546875 44.28125 53.078125 
z
" id="DejaVuSans-115"/>
      <path d="M 45.40625 46.390625 
L 45.40625 75.984375 
L 54.390625 75.984375 
L 54.390625 0 
L 45.40625 0 
L 45.40625 8.203125 
Q 42.578125 3.328125 38.25 0.953125 
Q 33.9375 -1.421875 27.875 -1.421875 
Q 17.96875 -1.421875 11.734375 6.484375 
Q 5.515625 14.40625 5.515625 27.296875 
Q 5.515625 40.1875 11.734375 48.09375 
Q 17.96875 56 27.875 56 
Q 33.9375 56 38.25 53.625 
Q 42.578125 51.265625 45.40625 46.390625 
z
M 14.796875 27.296875 
Q 14.796875 17.390625 18.875 11.75 
Q 22.953125 6.109375 30.078125 6.109375 
Q 37.203125 6.109375 41.296875 11.75 
Q 45.40625 17.390625 45.40625 27.296875 
Q 45.40625 37.203125 41.296875 42.84375 
Q 37.203125 48.484375 30.078125 48.484375 
Q 22.953125 48.484375 18.875 42.84375 
Q 14.796875 37.203125 14.796875 27.296875 
z
" id="DejaVuSans-100"/>
      <path d="M 9.421875 54.6875 
L 18.40625 54.6875 
L 18.40625 0 
L 9.421875 0 
z
M 9.421875 75.984375 
L 18.40625 75.984375 
L 18.40625 64.59375 
L 9.421875 64.59375 
z
" id="DejaVuSans-105"/>
      <path d="M 54.890625 33.015625 
L 54.890625 0 
L 45.90625 0 
L 45.90625 32.71875 
Q 45.90625 40.484375 42.875 44.328125 
Q 39.84375 48.1875 33.796875 48.1875 
Q 26.515625 48.1875 22.3125 43.546875 
Q 18.109375 38.921875 18.109375 30.90625 
L 18.109375 0 
L 9.078125 0 
L 9.078125 54.6875 
L 18.109375 54.6875 
L 18.109375 46.1875 
Q 21.34375 51.125 25.703125 53.5625 
Q 30.078125 56 35.796875 56 
Q 45.21875 56 50.046875 50.171875 
Q 54.890625 44.34375 54.890625 33.015625 
z
" id="DejaVuSans-110"/>
      <path d="M 18.3125 70.21875 
L 18.3125 54.6875 
L 36.8125 54.6875 
L 36.8125 47.703125 
L 18.3125 47.703125 
L 18.3125 18.015625 
Q 18.3125 11.328125 20.140625 9.421875 
Q 21.96875 7.515625 27.59375 7.515625 
L 36.8125 7.515625 
L 36.8125 0 
L 27.59375 0 
Q 17.1875 0 13.234375 3.875 
Q 9.28125 7.765625 9.28125 18.015625 
L 9.28125 47.703125 
L 2.6875 47.703125 
L 2.6875 54.6875 
L 9.28125 54.6875 
L 9.28125 70.21875 
z
" id="DejaVuSans-116"/>
      <path d="M 34.28125 27.484375 
Q 23.390625 27.484375 19.1875 25 
Q 14.984375 22.515625 14.984375 16.5 
Q 14.984375 11.71875 18.140625 8.90625 
Q 21.296875 6.109375 26.703125 6.109375 
Q 34.1875 6.109375 38.703125 11.40625 
Q 43.21875 16.703125 43.21875 25.484375 
L 43.21875 27.484375 
z
M 52.203125 31.203125 
L 52.203125 0 
L 43.21875 0 
L 43.21875 8.296875 
Q 40.140625 3.328125 35.546875 0.953125 
Q 30.953125 -1.421875 24.3125 -1.421875 
Q 15.921875 -1.421875 10.953125 3.296875 
Q 6 8.015625 6 15.921875 
Q 6 25.140625 12.171875 29.828125 
Q 18.359375 34.515625 30.609375 34.515625 
L 43.21875 34.515625 
L 43.21875 35.40625 
Q 43.21875 41.609375 39.140625 45 
Q 35.0625 48.390625 27.6875 48.390625 
Q 23 48.390625 18.546875 47.265625 
Q 14.109375 46.140625 10.015625 43.890625 
L 10.015625 52.203125 
Q 14.9375 54.109375 19.578125 55.046875 
Q 24.21875 56 28.609375 56 
Q 40.484375 56 46.34375 49.84375 
Q 52.203125 43.703125 52.203125 31.203125 
z
" id="DejaVuSans-97"/>
      <path d="M 8.59375 75.984375 
L 29.296875 75.984375 
L 29.296875 69 
L 17.578125 69 
L 17.578125 -6.203125 
L 29.296875 -6.203125 
L 29.296875 -13.1875 
L 8.59375 -13.1875 
z
" id="DejaVuSans-91"/>
      <path d="M 54.890625 54.6875 
L 35.109375 28.078125 
L 55.90625 0 
L 45.3125 0 
L 29.390625 21.484375 
L 13.484375 0 
L 2.875 0 
L 24.125 28.609375 
L 4.6875 54.6875 
L 15.28125 54.6875 
L 29.78125 35.203125 
L 44.28125 54.6875 
z
" id="DejaVuSans-120"/>
      <path d="M 30.421875 75.984375 
L 30.421875 -13.1875 
L 9.71875 -13.1875 
L 9.71875 -6.203125 
L 21.390625 -6.203125 
L 21.390625 69 
L 9.71875 69 
L 9.71875 75.984375 
z
" id="DejaVuSans-93"/>
     </defs>
     <g transform="translate(169.880859 422.711344)scale(0.13 -0.13)">
      <use xlink:href="#DejaVuSans-78"/>
      <use x="74.804688" xlink:href="#DejaVuSans-117"/>
      <use x="138.183594" xlink:href="#DejaVuSans-109"/>
      <use x="235.595703" xlink:href="#DejaVuSans-98"/>
      <use x="299.072266" xlink:href="#DejaVuSans-101"/>
      <use x="360.595703" xlink:href="#DejaVuSans-114"/>
      <use x="401.708984" xlink:href="#DejaVuSans-32"/>
      <use x="433.496094" xlink:href="#DejaVuSans-111"/>
      <use x="494.677734" xlink:href="#DejaVuSans-102"/>
      <use x="529.882812" xlink:href="#DejaVuSans-32"/>
      <use x="561.669922" xlink:href="#DejaVuSans-112"/>
      <use x="625.146484" xlink:href="#DejaVuSans-114"/>
      <use x="666.228516" xlink:href="#DejaVuSans-111"/>
      <use x="727.410156" xlink:href="#DejaVuSans-99"/>
      <use x="782.390625" xlink:href="#DejaVuSans-101"/>
      <use x="843.914062" xlink:href="#DejaVuSans-115"/>
      <use x="896.013672" xlink:href="#DejaVuSans-115"/>
      <use x="948.113281" xlink:href="#DejaVuSans-101"/>
      <use x="1009.636719" xlink:href="#DejaVuSans-100"/>
      <use x="1073.113281" xlink:href="#DejaVuSans-32"/>
      <use x="1104.900391" xlink:href="#DejaVuSans-105"/>
      <use x="1132.683594" xlink:href="#DejaVuSans-110"/>
      <use x="1196.0625" xlink:href="#DejaVuSans-115"/>
      <use x="1248.162109" xlink:href="#DejaVuSans-116"/>
      <use x="1287.371094" xlink:href="#DejaVuSans-97"/>
      <use x="1348.650391" xlink:href="#DejaVuSans-110"/>
      <use x="1412.029297" xlink:href="#DejaVuSans-99"/>
      <use x="1467.009766" xlink:href="#DejaVuSans-101"/>
      <use x="1528.533203" xlink:href="#DejaVuSans-115"/>
      <use x="1580.632812" xlink:href="#DejaVuSans-32"/>
      <use x="1612.419922" xlink:href="#DejaVuSans-91"/>
      <use x="1651.433594" xlink:href="#DejaVuSans-120"/>
      <use x="1710.613281" xlink:href="#DejaVuSans-49"/>
      <use x="1774.236328" xlink:href="#DejaVuSans-48"/>
      <use x="1837.859375" xlink:href="#DejaVuSans-48"/>
      <use x="1901.482422" xlink:href="#DejaVuSans-48"/>
      <use x="1965.105469" xlink:href="#DejaVuSans-93"/>
     </g>
    </g>
   </g>
   <g id="matplotlib.axis_2">
    <g id="ytick_1">
     <g id="line2d_9">
      <defs>
       <path d="M 0 0 
L -3.5 0 
" id="m37b9ccd6b5" style="stroke:#000000;stroke-width:0.8;"/>
      </defs>
      <g>
       <use style="stroke:#000000;stroke-width:0.8;" x="104.85" xlink:href="#m37b9ccd6b5" y="368.296086"/>
      </g>
     </g>
     <g id="text_10">
      <!-- 0.86 -->
      <defs>
       <path d="M 10.6875 12.40625 
L 21 12.40625 
L 21 0 
L 10.6875 0 
z
" id="DejaVuSans-46"/>
       <path d="M 31.78125 34.625 
Q 24.75 34.625 20.71875 30.859375 
Q 16.703125 27.09375 16.703125 20.515625 
Q 16.703125 13.921875 20.71875 10.15625 
Q 24.75 6.390625 31.78125 6.390625 
Q 38.8125 6.390625 42.859375 10.171875 
Q 46.921875 13.96875 46.921875 20.515625 
Q 46.921875 27.09375 42.890625 30.859375 
Q 38.875 34.625 31.78125 34.625 
z
M 21.921875 38.8125 
Q 15.578125 40.375 12.03125 44.71875 
Q 8.5 49.078125 8.5 55.328125 
Q 8.5 64.0625 14.71875 69.140625 
Q 20.953125 74.21875 31.78125 74.21875 
Q 42.671875 74.21875 48.875 69.140625 
Q 55.078125 64.0625 55.078125 55.328125 
Q 55.078125 49.078125 51.53125 44.71875 
Q 48 40.375 41.703125 38.8125 
Q 48.828125 37.15625 52.796875 32.3125 
Q 56.78125 27.484375 56.78125 20.515625 
Q 56.78125 9.90625 50.3125 4.234375 
Q 43.84375 -1.421875 31.78125 -1.421875 
Q 19.734375 -1.421875 13.25 4.234375 
Q 6.78125 9.90625 6.78125 20.515625 
Q 6.78125 27.484375 10.78125 32.3125 
Q 14.796875 37.15625 21.921875 38.8125 
z
M 18.3125 54.390625 
Q 18.3125 48.734375 21.84375 45.5625 
Q 25.390625 42.390625 31.78125 42.390625 
Q 38.140625 42.390625 41.71875 45.5625 
Q 45.3125 48.734375 45.3125 54.390625 
Q 45.3125 60.0625 41.71875 63.234375 
Q 38.140625 66.40625 31.78125 66.40625 
Q 25.390625 66.40625 21.84375 63.234375 
Q 18.3125 60.0625 18.3125 54.390625 
z
" id="DejaVuSans-56"/>
       <path d="M 33.015625 40.375 
Q 26.375 40.375 22.484375 35.828125 
Q 18.609375 31.296875 18.609375 23.390625 
Q 18.609375 15.53125 22.484375 10.953125 
Q 26.375 6.390625 33.015625 6.390625 
Q 39.65625 6.390625 43.53125 10.953125 
Q 47.40625 15.53125 47.40625 23.390625 
Q 47.40625 31.296875 43.53125 35.828125 
Q 39.65625 40.375 33.015625 40.375 
z
M 52.59375 71.296875 
L 52.59375 62.3125 
Q 48.875 64.0625 45.09375 64.984375 
Q 41.3125 65.921875 37.59375 65.921875 
Q 27.828125 65.921875 22.671875 59.328125 
Q 17.53125 52.734375 16.796875 39.40625 
Q 19.671875 43.65625 24.015625 45.921875 
Q 28.375 48.1875 33.59375 48.1875 
Q 44.578125 48.1875 50.953125 41.515625 
Q 57.328125 34.859375 57.328125 23.390625 
Q 57.328125 12.15625 50.6875 5.359375 
Q 44.046875 -1.421875 33.015625 -1.421875 
Q 20.359375 -1.421875 13.671875 8.265625 
Q 6.984375 17.96875 6.984375 36.375 
Q 6.984375 53.65625 15.1875 63.9375 
Q 23.390625 74.21875 37.203125 74.21875 
Q 40.921875 74.21875 44.703125 73.484375 
Q 48.484375 72.75 52.59375 71.296875 
z
" id="DejaVuSans-54"/>
      </defs>
      <g transform="translate(68.904687 373.23507)scale(0.13 -0.13)">
       <use xlink:href="#DejaVuSans-48"/>
       <use x="63.623047" xlink:href="#DejaVuSans-46"/>
       <use x="95.410156" xlink:href="#DejaVuSans-56"/>
       <use x="159.033203" xlink:href="#DejaVuSans-54"/>
      </g>
     </g>
    </g>
    <g id="ytick_2">
     <g id="line2d_10">
      <g>
       <use style="stroke:#000000;stroke-width:0.8;" x="104.85" xlink:href="#m37b9ccd6b5" y="330.583793"/>
      </g>
     </g>
     <g id="text_11">
      <!-- 0.88 -->
      <g transform="translate(68.904687 335.522777)scale(0.13 -0.13)">
       <use xlink:href="#DejaVuSans-48"/>
       <use x="63.623047" xlink:href="#DejaVuSans-46"/>
       <use x="95.410156" xlink:href="#DejaVuSans-56"/>
       <use x="159.033203" xlink:href="#DejaVuSans-56"/>
      </g>
     </g>
    </g>
    <g id="ytick_3">
     <g id="line2d_11">
      <g>
       <use style="stroke:#000000;stroke-width:0.8;" x="104.85" xlink:href="#m37b9ccd6b5" y="292.8715"/>
      </g>
     </g>
     <g id="text_12">
      <!-- 0.90 -->
      <defs>
       <path d="M 10.984375 1.515625 
L 10.984375 10.5 
Q 14.703125 8.734375 18.5 7.8125 
Q 22.3125 6.890625 25.984375 6.890625 
Q 35.75 6.890625 40.890625 13.453125 
Q 46.046875 20.015625 46.78125 33.40625 
Q 43.953125 29.203125 39.59375 26.953125 
Q 35.25 24.703125 29.984375 24.703125 
Q 19.046875 24.703125 12.671875 31.3125 
Q 6.296875 37.9375 6.296875 49.421875 
Q 6.296875 60.640625 12.9375 67.421875 
Q 19.578125 74.21875 30.609375 74.21875 
Q 43.265625 74.21875 49.921875 64.515625 
Q 56.59375 54.828125 56.59375 36.375 
Q 56.59375 19.140625 48.40625 8.859375 
Q 40.234375 -1.421875 26.421875 -1.421875 
Q 22.703125 -1.421875 18.890625 -0.6875 
Q 15.09375 0.046875 10.984375 1.515625 
z
M 30.609375 32.421875 
Q 37.25 32.421875 41.125 36.953125 
Q 45.015625 41.5 45.015625 49.421875 
Q 45.015625 57.28125 41.125 61.84375 
Q 37.25 66.40625 30.609375 66.40625 
Q 23.96875 66.40625 20.09375 61.84375 
Q 16.21875 57.28125 16.21875 49.421875 
Q 16.21875 41.5 20.09375 36.953125 
Q 23.96875 32.421875 30.609375 32.421875 
z
" id="DejaVuSans-57"/>
      </defs>
      <g transform="translate(68.904687 297.810484)scale(0.13 -0.13)">
       <use xlink:href="#DejaVuSans-48"/>
       <use x="63.623047" xlink:href="#DejaVuSans-46"/>
       <use x="95.410156" xlink:href="#DejaVuSans-57"/>
       <use x="159.033203" xlink:href="#DejaVuSans-48"/>
      </g>
     </g>
    </g>
    <g id="ytick_4">
     <g id="line2d_12">
      <g>
       <use style="stroke:#000000;stroke-width:0.8;" x="104.85" xlink:href="#m37b9ccd6b5" y="255.159207"/>
      </g>
     </g>
     <g id="text_13">
      <!-- 0.92 -->
      <g transform="translate(68.904687 260.098192)scale(0.13 -0.13)">
       <use xlink:href="#DejaVuSans-48"/>
       <use x="63.623047" xlink:href="#DejaVuSans-46"/>
       <use x="95.410156" xlink:href="#DejaVuSans-57"/>
       <use x="159.033203" xlink:href="#DejaVuSans-50"/>
      </g>
     </g>
    </g>
    <g id="ytick_5">
     <g id="line2d_13">
      <g>
       <use style="stroke:#000000;stroke-width:0.8;" x="104.85" xlink:href="#m37b9ccd6b5" y="217.446914"/>
      </g>
     </g>
     <g id="text_14">
      <!-- 0.94 -->
      <defs>
       <path d="M 37.796875 64.3125 
L 12.890625 25.390625 
L 37.796875 25.390625 
z
M 35.203125 72.90625 
L 47.609375 72.90625 
L 47.609375 25.390625 
L 58.015625 25.390625 
L 58.015625 17.1875 
L 47.609375 17.1875 
L 47.609375 0 
L 37.796875 0 
L 37.796875 17.1875 
L 4.890625 17.1875 
L 4.890625 26.703125 
z
" id="DejaVuSans-52"/>
      </defs>
      <g transform="translate(68.904687 222.385899)scale(0.13 -0.13)">
       <use xlink:href="#DejaVuSans-48"/>
       <use x="63.623047" xlink:href="#DejaVuSans-46"/>
       <use x="95.410156" xlink:href="#DejaVuSans-57"/>
       <use x="159.033203" xlink:href="#DejaVuSans-52"/>
      </g>
     </g>
    </g>
    <g id="ytick_6">
     <g id="line2d_14">
      <g>
       <use style="stroke:#000000;stroke-width:0.8;" x="104.85" xlink:href="#m37b9ccd6b5" y="179.734622"/>
      </g>
     </g>
     <g id="text_15">
      <!-- 0.96 -->
      <g transform="translate(68.904687 184.673606)scale(0.13 -0.13)">
       <use xlink:href="#DejaVuSans-48"/>
       <use x="63.623047" xlink:href="#DejaVuSans-46"/>
       <use x="95.410156" xlink:href="#DejaVuSans-57"/>
       <use x="159.033203" xlink:href="#DejaVuSans-54"/>
      </g>
     </g>
    </g>
    <g id="ytick_7">
     <g id="line2d_15">
      <g>
       <use style="stroke:#000000;stroke-width:0.8;" x="104.85" xlink:href="#m37b9ccd6b5" y="142.022329"/>
      </g>
     </g>
     <g id="text_16">
      <!-- 0.98 -->
      <g transform="translate(68.904687 146.961313)scale(0.13 -0.13)">
       <use xlink:href="#DejaVuSans-48"/>
       <use x="63.623047" xlink:href="#DejaVuSans-46"/>
       <use x="95.410156" xlink:href="#DejaVuSans-57"/>
       <use x="159.033203" xlink:href="#DejaVuSans-56"/>
      </g>
     </g>
    </g>
    <g id="text_17">
     <!-- G-Mean -->
     <defs>
      <path d="M 59.515625 10.40625 
L 59.515625 29.984375 
L 43.40625 29.984375 
L 43.40625 38.09375 
L 69.28125 38.09375 
L 69.28125 6.78125 
Q 63.578125 2.734375 56.6875 0.65625 
Q 49.8125 -1.421875 42 -1.421875 
Q 24.90625 -1.421875 15.25 8.5625 
Q 5.609375 18.5625 5.609375 36.375 
Q 5.609375 54.25 15.25 64.234375 
Q 24.90625 74.21875 42 74.21875 
Q 49.125 74.21875 55.546875 72.453125 
Q 61.96875 70.703125 67.390625 67.28125 
L 67.390625 56.78125 
Q 61.921875 61.421875 55.765625 63.765625 
Q 49.609375 66.109375 42.828125 66.109375 
Q 29.4375 66.109375 22.71875 58.640625 
Q 16.015625 51.171875 16.015625 36.375 
Q 16.015625 21.625 22.71875 14.15625 
Q 29.4375 6.6875 42.828125 6.6875 
Q 48.046875 6.6875 52.140625 7.59375 
Q 56.25 8.5 59.515625 10.40625 
z
" id="DejaVuSans-71"/>
      <path d="M 4.890625 31.390625 
L 31.203125 31.390625 
L 31.203125 23.390625 
L 4.890625 23.390625 
z
" id="DejaVuSans-45"/>
      <path d="M 9.8125 72.90625 
L 24.515625 72.90625 
L 43.109375 23.296875 
L 61.8125 72.90625 
L 76.515625 72.90625 
L 76.515625 0 
L 66.890625 0 
L 66.890625 64.015625 
L 48.09375 14.015625 
L 38.1875 14.015625 
L 19.390625 64.015625 
L 19.390625 0 
L 9.8125 0 
z
" id="DejaVuSans-77"/>
     </defs>
     <g transform="translate(62.201094 275.743844)rotate(-90)scale(0.13 -0.13)">
      <use xlink:href="#DejaVuSans-71"/>
      <use x="77.490234" xlink:href="#DejaVuSans-45"/>
      <use x="113.574219" xlink:href="#DejaVuSans-77"/>
      <use x="199.853516" xlink:href="#DejaVuSans-101"/>
      <use x="261.376953" xlink:href="#DejaVuSans-97"/>
      <use x="322.65625" xlink:href="#DejaVuSans-110"/>
     </g>
    </g>
   </g>
   <g id="line2d_16"/>
   <g id="line2d_17"/>
   <g id="line2d_18"/>
   <g id="line2d_19"/>
   <g id="line2d_20"/>
   <g id="line2d_21">
    <path clip-path="url(#p8a8ce21612)" d="M 122.604545 164.050615 
L 124.483333 165.189725 
L 126.362121 165.650804 
L 128.240909 167.133077 
L 130.119697 164.03222 
L 131.998485 165.794561 
L 133.877273 165.409585 
L 135.756061 166.248092 
L 137.634848 165.770371 
L 139.513636 164.366793 
L 143.271212 164.941126 
L 145.15 164.482361 
L 147.028788 165.177284 
L 148.907576 164.57601 
L 150.786364 164.89948 
L 152.665152 165.007774 
L 154.543939 164.980768 
L 156.422727 164.70382 
L 158.301515 164.201595 
L 160.180303 164.767614 
L 162.059091 164.677255 
L 163.937879 164.253789 
L 165.816667 163.396368 
L 167.695455 164.064817 
L 169.574242 163.543811 
L 171.45303 164.127101 
L 173.331818 163.145653 
L 175.210606 163.385247 
L 177.089394 163.854137 
L 178.968182 163.173259 
L 180.84697 162.915852 
L 182.725758 163.767821 
L 184.604545 163.608335 
L 186.483333 164.122 
L 188.362121 162.80606 
L 190.240909 163.035418 
L 192.119697 162.871908 
L 195.877273 163.85747 
L 199.634848 162.176965 
L 201.513636 163.131337 
L 205.271212 164.03172 
L 207.15 164.321019 
L 209.028788 163.761795 
L 210.907576 164.306462 
L 212.786364 164.126834 
L 214.665152 164.325332 
L 216.543939 164.880373 
L 218.422727 164.771827 
L 220.301515 163.774369 
L 222.180303 163.31746 
L 224.059091 162.30023 
L 225.937879 163.618737 
L 229.695455 162.947372 
L 231.574242 162.634668 
L 233.45303 162.153838 
L 235.331818 162.108259 
L 237.210606 162.208957 
L 239.089394 161.003156 
L 240.968182 162.024336 
L 244.725758 165.93519 
L 246.604545 168.090067 
L 248.483333 172.738286 
L 250.362121 176.812533 
L 252.240909 179.631363 
L 254.119697 183.151469 
L 255.998485 185.055763 
L 259.756061 197.24895 
L 261.634848 201.139236 
L 263.513636 206.162821 
L 265.392424 209.643325 
L 267.271212 216.489356 
L 269.15 221.841312 
L 271.028788 227.926286 
L 272.907576 236.318138 
L 274.786364 244.08679 
L 276.665152 254.706368 
L 278.543939 259.684744 
L 280.422727 265.974908 
L 282.301515 276.671089 
L 284.180303 285.087953 
L 289.816667 305.969763 
L 291.695455 310.953609 
L 293.574242 317.937407 
L 295.45303 319.867711 
L 297.331818 325.108861 
L 299.210606 334.012879 
L 304.84697 350.274091 
L 306.725758 359.702659 
L 308.604545 364.380429 
L 310.483333 365.347109 
L 312.362121 366.050499 
L 314.240909 366.000191 
L 316.119697 368.443461 
L 317.998485 367.945773 
L 319.877273 365.435416 
L 321.756061 363.946775 
L 323.634848 360.788572 
L 325.513636 359.900743 
L 327.392424 360.238232 
L 329.271212 358.276112 
L 331.15 360.740757 
L 334.907576 361.111252 
L 336.786364 360.970865 
L 338.665152 361.296738 
L 340.543939 360.86677 
L 344.301515 352.894593 
L 346.180303 351.007267 
L 348.059091 349.781925 
L 349.937879 349.737093 
L 353.695455 353.45416 
L 355.574242 351.486702 
L 357.45303 351.325823 
L 359.331818 349.682779 
L 361.210606 354.584214 
L 363.089394 353.413709 
L 364.968182 353.852351 
L 366.84697 360.614427 
L 368.725758 361.045712 
L 370.604545 365.105766 
L 372.483333 360.330801 
L 376.240909 353.466751 
L 379.998485 358.614904 
L 381.877273 356.391128 
L 383.756061 359.020304 
L 385.634848 367.556821 
L 387.513636 370.906372 
L 389.392424 369.770774 
L 391.271212 369.399901 
L 393.15 373.217175 
L 395.028788 373.575999 
L 396.907576 376.353022 
L 398.786364 375.266836 
L 400.665152 372.677932 
L 402.543939 368.995625 
L 404.422727 364.800965 
L 406.301515 362.496529 
L 408.180303 361.708509 
L 411.937879 370.463723 
L 413.816667 370.338306 
L 417.574242 363.76826 
L 419.45303 363.956136 
L 421.331818 361.220935 
L 423.210606 352.122274 
L 425.089394 349.300894 
L 426.968182 349.272924 
L 428.84697 349.357127 
L 430.725758 351.185512 
L 432.604545 353.332918 
L 434.483333 352.002207 
L 436.362121 349.911325 
L 438.240909 352.306771 
L 440.119697 358.461941 
L 441.998485 363.137007 
L 443.877273 366.257088 
L 445.756061 362.678877 
L 447.634848 363.162862 
L 449.513636 362.700528 
L 451.392424 362.434745 
L 453.271212 359.83624 
L 455.15 365.777667 
L 457.028788 368.98325 
L 458.907576 370.994576 
L 460.786364 372.285532 
L 462.665152 375.077977 
L 464.543939 375.620715 
L 466.422727 376.651813 
L 468.301515 370.930591 
L 470.180303 368.275257 
L 472.059091 369.615036 
L 473.937879 368.101723 
L 475.816667 371.872893 
L 477.695455 367.891819 
L 477.695455 367.891819 
" style="fill:none;stroke:#cc3311;stroke-linecap:square;stroke-width:0.5;"/>
    <defs>
     <path d="M 0 2.5 
C 0.663008 2.5 1.29895 2.236584 1.767767 1.767767 
C 2.236584 1.29895 2.5 0.663008 2.5 0 
C 2.5 -0.663008 2.236584 -1.29895 1.767767 -1.767767 
C 1.29895 -2.236584 0.663008 -2.5 0 -2.5 
C -0.663008 -2.5 -1.29895 -2.236584 -1.767767 -1.767767 
C -2.236584 -1.29895 -2.5 -0.663008 -2.5 0 
C -2.5 0.663008 -2.236584 1.29895 -1.767767 1.767767 
C -1.29895 2.236584 -0.663008 2.5 0 2.5 
z
" id="m365ad46a64" style="stroke:#cc3311;"/>
    </defs>
    <g clip-path="url(#p8a8ce21612)">
     <use style="fill:#cc3311;stroke:#cc3311;" x="122.604545" xlink:href="#m365ad46a64" y="164.050615"/>
     <use style="fill:#cc3311;stroke:#cc3311;" x="141.392424" xlink:href="#m365ad46a64" y="164.640513"/>
     <use style="fill:#cc3311;stroke:#cc3311;" x="160.180303" xlink:href="#m365ad46a64" y="164.767614"/>
     <use style="fill:#cc3311;stroke:#cc3311;" x="178.968182" xlink:href="#m365ad46a64" y="163.173259"/>
     <use style="fill:#cc3311;stroke:#cc3311;" x="197.756061" xlink:href="#m365ad46a64" y="163.046956"/>
     <use style="fill:#cc3311;stroke:#cc3311;" x="216.543939" xlink:href="#m365ad46a64" y="164.880373"/>
     <use style="fill:#cc3311;stroke:#cc3311;" x="235.331818" xlink:href="#m365ad46a64" y="162.108259"/>
     <use style="fill:#cc3311;stroke:#cc3311;" x="254.119697" xlink:href="#m365ad46a64" y="183.151469"/>
     <use style="fill:#cc3311;stroke:#cc3311;" x="272.907576" xlink:href="#m365ad46a64" y="236.318138"/>
     <use style="fill:#cc3311;stroke:#cc3311;" x="291.695455" xlink:href="#m365ad46a64" y="310.953609"/>
     <use style="fill:#cc3311;stroke:#cc3311;" x="310.483333" xlink:href="#m365ad46a64" y="365.347109"/>
     <use style="fill:#cc3311;stroke:#cc3311;" x="329.271212" xlink:href="#m365ad46a64" y="358.276112"/>
     <use style="fill:#cc3311;stroke:#cc3311;" x="348.059091" xlink:href="#m365ad46a64" y="349.781925"/>
     <use style="fill:#cc3311;stroke:#cc3311;" x="366.84697" xlink:href="#m365ad46a64" y="360.614427"/>
     <use style="fill:#cc3311;stroke:#cc3311;" x="385.634848" xlink:href="#m365ad46a64" y="367.556821"/>
     <use style="fill:#cc3311;stroke:#cc3311;" x="404.422727" xlink:href="#m365ad46a64" y="364.800965"/>
     <use style="fill:#cc3311;stroke:#cc3311;" x="423.210606" xlink:href="#m365ad46a64" y="352.122274"/>
     <use style="fill:#cc3311;stroke:#cc3311;" x="441.998485" xlink:href="#m365ad46a64" y="363.137007"/>
     <use style="fill:#cc3311;stroke:#cc3311;" x="460.786364" xlink:href="#m365ad46a64" y="372.285532"/>
    </g>
   </g>
   <g id="line2d_22"/>
   <g id="line2d_23"/>
   <g id="line2d_24"/>
   <g id="line2d_25"/>
   <g id="line2d_26">
    <path clip-path="url(#p8a8ce21612)" d="M 122.604545 136.702761 
L 124.483333 139.134886 
L 126.362121 136.10035 
L 128.240909 144.050538 
L 130.119697 139.439874 
L 131.998485 138.147397 
L 133.877273 136.184873 
L 135.756061 137.854055 
L 137.634848 136.712167 
L 139.513636 134.829656 
L 141.392424 134.848907 
L 145.15 132.647114 
L 147.028788 133.853669 
L 148.907576 132.524918 
L 150.786364 131.607241 
L 152.665152 132.100022 
L 154.543939 131.928114 
L 156.422727 132.221313 
L 160.180303 131.181456 
L 162.059091 131.164141 
L 163.937879 130.886191 
L 165.816667 129.002514 
L 167.695455 128.904324 
L 169.574242 128.433246 
L 171.45303 128.217235 
L 173.331818 127.410576 
L 175.210606 126.768981 
L 177.089394 127.502838 
L 178.968182 127.563254 
L 180.84697 128.259349 
L 182.725758 130.069788 
L 184.604545 128.444668 
L 186.483333 129.998014 
L 188.362121 131.018861 
L 190.240909 130.399795 
L 192.119697 129.589225 
L 193.998485 130.729806 
L 195.877273 131.694719 
L 197.756061 131.387702 
L 199.634848 130.726183 
L 201.513636 130.668825 
L 203.392424 129.849786 
L 205.271212 130.4099 
L 207.15 129.929402 
L 209.028788 130.57529 
L 210.907576 129.850193 
L 212.786364 129.920218 
L 214.665152 130.553845 
L 218.422727 128.734419 
L 220.301515 127.213038 
L 222.180303 127.774203 
L 224.059091 126.69851 
L 225.937879 125.917214 
L 227.816667 125.800152 
L 229.695455 126.721371 
L 231.574242 124.651812 
L 233.45303 125.018613 
L 235.331818 125.60066 
L 237.210606 124.733557 
L 239.089394 125.207261 
L 242.84697 128.878916 
L 244.725758 132.17163 
L 246.604545 133.790041 
L 250.362121 143.698159 
L 252.240909 145.114197 
L 254.119697 148.374237 
L 255.998485 150.661975 
L 257.877273 156.673041 
L 259.756061 162.29124 
L 261.634848 165.375651 
L 263.513636 171.237935 
L 265.392424 175.263728 
L 267.271212 180.475004 
L 269.15 187.125179 
L 271.028788 192.020288 
L 272.907576 199.273665 
L 274.786364 206.983581 
L 276.665152 216.853418 
L 278.543939 222.576303 
L 280.422727 228.924505 
L 282.301515 239.02476 
L 284.180303 247.115047 
L 286.059091 253.700335 
L 287.937879 260.717205 
L 289.816667 268.490936 
L 291.695455 274.037024 
L 293.574242 283.428495 
L 295.45303 284.67393 
L 297.331818 290.473695 
L 299.210606 300.742145 
L 301.089394 304.781878 
L 304.84697 316.06734 
L 306.725758 324.018097 
L 308.604545 328.712968 
L 310.483333 329.67585 
L 312.362121 329.58657 
L 314.240909 328.75414 
L 316.119697 329.304461 
L 317.998485 328.79089 
L 319.877273 326.982179 
L 321.756061 326.261895 
L 323.634848 322.261445 
L 325.513636 321.489574 
L 327.392424 322.701367 
L 329.271212 322.743784 
L 331.15 321.780825 
L 333.028788 321.32813 
L 334.907576 321.035044 
L 336.786364 322.368868 
L 338.665152 322.870278 
L 340.543939 322.722285 
L 342.422727 319.111341 
L 344.301515 315.127177 
L 346.180303 312.149423 
L 348.059091 312.290113 
L 349.937879 313.56401 
L 351.816667 315.73482 
L 353.695455 320.21744 
L 355.574242 319.401587 
L 357.45303 318.751884 
L 359.331818 317.367106 
L 361.210606 322.995774 
L 363.089394 321.895253 
L 364.968182 321.55032 
L 366.84697 325.717504 
L 368.725758 327.266572 
L 370.604545 332.337509 
L 372.483333 326.54443 
L 374.362121 321.692796 
L 376.240909 319.071601 
L 378.119697 320.72946 
L 379.998485 323.138432 
L 381.877273 321.642207 
L 383.756061 325.417932 
L 385.634848 333.341198 
L 387.513636 336.52854 
L 389.392424 334.977088 
L 391.271212 332.069718 
L 393.15 334.552124 
L 395.028788 333.512464 
L 396.907576 336.730918 
L 398.786364 335.577058 
L 400.665152 331.757323 
L 402.543939 326.020776 
L 404.422727 322.538215 
L 406.301515 320.344638 
L 408.180303 319.593121 
L 410.059091 325.852021 
L 411.937879 328.109023 
L 413.816667 328.198511 
L 415.695455 325.623899 
L 417.574242 324.188251 
L 419.45303 324.270115 
L 421.331818 321.024806 
L 423.210606 311.333379 
L 425.089394 307.232115 
L 426.968182 309.287121 
L 428.84697 309.619466 
L 430.725758 312.023847 
L 432.604545 315.508366 
L 434.483333 312.915518 
L 436.362121 310.047805 
L 438.240909 313.12699 
L 440.119697 321.050022 
L 441.998485 325.748634 
L 443.877273 327.865058 
L 445.756061 326.19395 
L 447.634848 326.193678 
L 449.513636 325.999694 
L 451.392424 324.910401 
L 453.271212 322.269759 
L 455.15 325.871488 
L 457.028788 328.07672 
L 458.907576 329.118264 
L 460.786364 331.219018 
L 462.665152 333.996439 
L 464.543939 332.920834 
L 466.422727 336.093479 
L 468.301515 330.543387 
L 470.180303 328.267409 
L 472.059091 330.084468 
L 473.937879 330.400801 
L 475.816667 333.878687 
L 477.695455 328.885181 
L 477.695455 328.885181 
" style="fill:none;stroke:#009988;stroke-dasharray:1.85,0.8;stroke-dashoffset:0;stroke-width:0.5;"/>
    <defs>
     <path d="M -2.5 2.5 
L 2.5 2.5 
L 2.5 -2.5 
L -2.5 -2.5 
z
" id="m7c8a449969" style="stroke:#009988;stroke-linejoin:miter;"/>
    </defs>
    <g clip-path="url(#p8a8ce21612)">
     <use style="fill:#009988;stroke:#009988;stroke-linejoin:miter;" x="122.604545" xlink:href="#m7c8a449969" y="136.702761"/>
     <use style="fill:#009988;stroke:#009988;stroke-linejoin:miter;" x="141.392424" xlink:href="#m7c8a449969" y="134.848907"/>
     <use style="fill:#009988;stroke:#009988;stroke-linejoin:miter;" x="160.180303" xlink:href="#m7c8a449969" y="131.181456"/>
     <use style="fill:#009988;stroke:#009988;stroke-linejoin:miter;" x="178.968182" xlink:href="#m7c8a449969" y="127.563254"/>
     <use style="fill:#009988;stroke:#009988;stroke-linejoin:miter;" x="197.756061" xlink:href="#m7c8a449969" y="131.387702"/>
     <use style="fill:#009988;stroke:#009988;stroke-linejoin:miter;" x="216.543939" xlink:href="#m7c8a449969" y="129.638733"/>
     <use style="fill:#009988;stroke:#009988;stroke-linejoin:miter;" x="235.331818" xlink:href="#m7c8a449969" y="125.60066"/>
     <use style="fill:#009988;stroke:#009988;stroke-linejoin:miter;" x="254.119697" xlink:href="#m7c8a449969" y="148.374237"/>
     <use style="fill:#009988;stroke:#009988;stroke-linejoin:miter;" x="272.907576" xlink:href="#m7c8a449969" y="199.273665"/>
     <use style="fill:#009988;stroke:#009988;stroke-linejoin:miter;" x="291.695455" xlink:href="#m7c8a449969" y="274.037024"/>
     <use style="fill:#009988;stroke:#009988;stroke-linejoin:miter;" x="310.483333" xlink:href="#m7c8a449969" y="329.67585"/>
     <use style="fill:#009988;stroke:#009988;stroke-linejoin:miter;" x="329.271212" xlink:href="#m7c8a449969" y="322.743784"/>
     <use style="fill:#009988;stroke:#009988;stroke-linejoin:miter;" x="348.059091" xlink:href="#m7c8a449969" y="312.290113"/>
     <use style="fill:#009988;stroke:#009988;stroke-linejoin:miter;" x="366.84697" xlink:href="#m7c8a449969" y="325.717504"/>
     <use style="fill:#009988;stroke:#009988;stroke-linejoin:miter;" x="385.634848" xlink:href="#m7c8a449969" y="333.341198"/>
     <use style="fill:#009988;stroke:#009988;stroke-linejoin:miter;" x="404.422727" xlink:href="#m7c8a449969" y="322.538215"/>
     <use style="fill:#009988;stroke:#009988;stroke-linejoin:miter;" x="423.210606" xlink:href="#m7c8a449969" y="311.333379"/>
     <use style="fill:#009988;stroke:#009988;stroke-linejoin:miter;" x="441.998485" xlink:href="#m7c8a449969" y="325.748634"/>
     <use style="fill:#009988;stroke:#009988;stroke-linejoin:miter;" x="460.786364" xlink:href="#m7c8a449969" y="331.219018"/>
    </g>
   </g>
   <g id="line2d_27"/>
   <g id="line2d_28"/>
   <g id="line2d_29"/>
   <g id="line2d_30"/>
   <g id="line2d_31">
    <path clip-path="url(#p8a8ce21612)" d="M 122.604545 151.085666 
L 124.483333 147.161565 
L 126.362121 145.677352 
L 128.240909 146.210433 
L 130.119697 144.746782 
L 131.998485 144.698413 
L 133.877273 144.242254 
L 135.756061 145.530561 
L 137.634848 144.840529 
L 139.513636 144.924516 
L 141.392424 146.53916 
L 143.271212 146.194829 
L 145.15 145.302827 
L 147.028788 146.726744 
L 148.907576 145.543206 
L 150.786364 145.323389 
L 152.665152 145.406328 
L 154.543939 145.600929 
L 156.422727 146.172217 
L 158.301515 145.894393 
L 160.180303 145.993297 
L 162.059091 146.699134 
L 163.937879 146.38363 
L 165.816667 145.746946 
L 167.695455 145.97617 
L 169.574242 145.374932 
L 171.45303 145.366583 
L 173.331818 144.99081 
L 175.210606 144.814377 
L 177.089394 144.260298 
L 178.968182 142.912103 
L 180.84697 142.726745 
L 182.725758 142.960851 
L 184.604545 141.728756 
L 186.483333 142.638293 
L 188.362121 141.910642 
L 190.240909 142.046094 
L 192.119697 141.524652 
L 193.998485 141.702932 
L 195.877273 143.056465 
L 197.756061 142.508786 
L 199.634848 140.974254 
L 201.513636 141.495921 
L 203.392424 141.449164 
L 205.271212 142.04372 
L 207.15 142.423612 
L 209.028788 142.413282 
L 210.907576 141.953357 
L 212.786364 142.385809 
L 214.665152 143.120822 
L 216.543939 143.237726 
L 218.422727 142.949616 
L 224.059091 141.422084 
L 225.937879 142.105315 
L 229.695455 141.89417 
L 231.574242 140.73382 
L 233.45303 138.870531 
L 235.331818 139.109986 
L 237.210606 138.946269 
L 239.089394 138.502544 
L 242.84697 141.275632 
L 244.725758 143.513981 
L 246.604545 145.488093 
L 248.483333 150.410415 
L 250.362121 153.428144 
L 252.240909 155.754202 
L 254.119697 158.919631 
L 255.998485 161.131731 
L 257.877273 167.30008 
L 259.756061 174.072014 
L 261.634848 177.066198 
L 263.513636 182.250604 
L 265.392424 184.876823 
L 267.271212 190.780308 
L 269.15 196.223931 
L 271.028788 202.644847 
L 272.907576 209.892749 
L 274.786364 217.743569 
L 276.665152 228.10821 
L 278.543939 233.57591 
L 280.422727 239.647539 
L 282.301515 250.978318 
L 284.180303 258.98492 
L 286.059091 265.448143 
L 287.937879 273.79297 
L 289.816667 280.416152 
L 291.695455 286.018118 
L 293.574242 295.2108 
L 295.45303 296.786397 
L 297.331818 301.365075 
L 299.210606 311.831685 
L 301.089394 316.046228 
L 302.968182 321.745655 
L 304.84697 326.230332 
L 306.725758 335.031203 
L 308.604545 339.775685 
L 310.483333 340.285176 
L 312.362121 340.139686 
L 314.240909 338.981332 
L 316.119697 340.097037 
L 317.998485 338.96031 
L 319.877273 335.973137 
L 321.756061 334.395784 
L 323.634848 330.397143 
L 325.513636 328.545208 
L 327.392424 329.78163 
L 329.271212 327.131118 
L 331.15 326.789133 
L 333.028788 327.214695 
L 334.907576 327.110117 
L 336.786364 327.582124 
L 338.665152 328.742803 
L 340.543939 329.188812 
L 342.422727 326.158495 
L 344.301515 322.144409 
L 346.180303 318.94142 
L 348.059091 317.902235 
L 349.937879 318.079035 
L 351.816667 319.9451 
L 353.695455 323.434778 
L 357.45303 321.468968 
L 359.331818 320.108159 
L 361.210606 325.967247 
L 364.968182 326.422882 
L 366.84697 332.98896 
L 368.725758 333.463086 
L 370.604545 337.630425 
L 372.483333 332.486373 
L 374.362121 328.294787 
L 376.240909 324.53396 
L 378.119697 325.949237 
L 379.998485 328.538808 
L 381.877273 327.156608 
L 383.756061 330.343452 
L 385.634848 339.07697 
L 387.513636 342.069977 
L 389.392424 341.285327 
L 391.271212 339.226322 
L 393.15 342.515219 
L 395.028788 342.148637 
L 396.907576 345.033627 
L 398.786364 343.737568 
L 402.543939 334.921188 
L 404.422727 331.146601 
L 406.301515 329.451649 
L 408.180303 328.504962 
L 410.059091 334.212834 
L 411.937879 336.351726 
L 413.816667 336.48905 
L 415.695455 333.462639 
L 417.574242 330.68404 
L 419.45303 330.48274 
L 421.331818 328.165169 
L 423.210606 319.930293 
L 425.089394 317.210122 
L 426.968182 318.574935 
L 428.84697 318.52845 
L 430.725758 320.514181 
L 432.604545 322.982686 
L 434.483333 320.97802 
L 436.362121 318.620758 
L 438.240909 321.44958 
L 440.119697 327.020927 
L 441.998485 331.07116 
L 443.877273 333.258566 
L 445.756061 331.051418 
L 447.634848 330.662598 
L 449.513636 329.749244 
L 451.392424 329.194626 
L 453.271212 326.287139 
L 455.15 330.982182 
L 457.028788 333.347808 
L 458.907576 333.913385 
L 462.665152 337.833716 
L 464.543939 337.079083 
L 466.422727 340.513201 
L 468.301515 335.133261 
L 470.180303 333.396695 
L 472.059091 335.539363 
L 473.937879 334.818324 
L 475.816667 339.101319 
L 477.695455 335.342387 
L 477.695455 335.342387 
" style="fill:none;stroke:#0077bb;stroke-dasharray:3.2,0.8,0.5,0.8;stroke-dashoffset:0;stroke-width:0.5;"/>
    <defs>
     <path d="M 0 -2.5 
L -2.5 2.5 
L 2.5 2.5 
z
" id="m73e901756c" style="stroke:#0077bb;stroke-linejoin:miter;"/>
    </defs>
    <g clip-path="url(#p8a8ce21612)">
     <use style="fill:#0077bb;stroke:#0077bb;stroke-linejoin:miter;" x="122.604545" xlink:href="#m73e901756c" y="151.085666"/>
     <use style="fill:#0077bb;stroke:#0077bb;stroke-linejoin:miter;" x="141.392424" xlink:href="#m73e901756c" y="146.53916"/>
     <use style="fill:#0077bb;stroke:#0077bb;stroke-linejoin:miter;" x="160.180303" xlink:href="#m73e901756c" y="145.993297"/>
     <use style="fill:#0077bb;stroke:#0077bb;stroke-linejoin:miter;" x="178.968182" xlink:href="#m73e901756c" y="142.912103"/>
     <use style="fill:#0077bb;stroke:#0077bb;stroke-linejoin:miter;" x="197.756061" xlink:href="#m73e901756c" y="142.508786"/>
     <use style="fill:#0077bb;stroke:#0077bb;stroke-linejoin:miter;" x="216.543939" xlink:href="#m73e901756c" y="143.237726"/>
     <use style="fill:#0077bb;stroke:#0077bb;stroke-linejoin:miter;" x="235.331818" xlink:href="#m73e901756c" y="139.109986"/>
     <use style="fill:#0077bb;stroke:#0077bb;stroke-linejoin:miter;" x="254.119697" xlink:href="#m73e901756c" y="158.919631"/>
     <use style="fill:#0077bb;stroke:#0077bb;stroke-linejoin:miter;" x="272.907576" xlink:href="#m73e901756c" y="209.892749"/>
     <use style="fill:#0077bb;stroke:#0077bb;stroke-linejoin:miter;" x="291.695455" xlink:href="#m73e901756c" y="286.018118"/>
     <use style="fill:#0077bb;stroke:#0077bb;stroke-linejoin:miter;" x="310.483333" xlink:href="#m73e901756c" y="340.285176"/>
     <use style="fill:#0077bb;stroke:#0077bb;stroke-linejoin:miter;" x="329.271212" xlink:href="#m73e901756c" y="327.131118"/>
     <use style="fill:#0077bb;stroke:#0077bb;stroke-linejoin:miter;" x="348.059091" xlink:href="#m73e901756c" y="317.902235"/>
     <use style="fill:#0077bb;stroke:#0077bb;stroke-linejoin:miter;" x="366.84697" xlink:href="#m73e901756c" y="332.98896"/>
     <use style="fill:#0077bb;stroke:#0077bb;stroke-linejoin:miter;" x="385.634848" xlink:href="#m73e901756c" y="339.07697"/>
     <use style="fill:#0077bb;stroke:#0077bb;stroke-linejoin:miter;" x="404.422727" xlink:href="#m73e901756c" y="331.146601"/>
     <use style="fill:#0077bb;stroke:#0077bb;stroke-linejoin:miter;" x="423.210606" xlink:href="#m73e901756c" y="319.930293"/>
     <use style="fill:#0077bb;stroke:#0077bb;stroke-linejoin:miter;" x="441.998485" xlink:href="#m73e901756c" y="331.07116"/>
     <use style="fill:#0077bb;stroke:#0077bb;stroke-linejoin:miter;" x="460.786364" xlink:href="#m73e901756c" y="335.815917"/>
    </g>
   </g>
   <g id="line2d_32"/>
   <g id="line2d_33"/>
   <g id="line2d_34"/>
   <g id="line2d_35"/>
   <g id="line2d_36">
    <path clip-path="url(#p8a8ce21612)" d="M 122.604545 180.323071 
L 124.483333 171.621227 
L 126.362121 159.795307 
L 128.240909 167.75449 
L 130.119697 164.57566 
L 131.998485 169.138017 
L 133.877273 164.978247 
L 135.756061 166.185593 
L 137.634848 164.797591 
L 139.513636 164.440843 
L 141.392424 162.43339 
L 143.271212 163.395788 
L 145.15 160.294217 
L 147.028788 161.053868 
L 148.907576 161.50151 
L 150.786364 159.872157 
L 152.665152 159.650297 
L 154.543939 158.848979 
L 156.422727 160.140213 
L 158.301515 158.856156 
L 160.180303 158.618906 
L 162.059091 157.837149 
L 163.937879 157.784333 
L 165.816667 155.464484 
L 167.695455 154.134591 
L 169.574242 151.678901 
L 171.45303 152.946752 
L 173.331818 152.895429 
L 175.210606 151.052709 
L 177.089394 150.097465 
L 178.968182 150.827614 
L 180.84697 148.323429 
L 182.725758 150.762077 
L 184.604545 149.377212 
L 186.483333 148.691557 
L 188.362121 149.649157 
L 190.240909 149.066987 
L 192.119697 148.152592 
L 193.998485 147.504969 
L 195.877273 147.811823 
L 197.756061 145.171143 
L 199.634848 144.206447 
L 201.513636 144.778562 
L 203.392424 144.081762 
L 205.271212 145.317978 
L 207.15 144.968011 
L 209.028788 144.135699 
L 210.907576 142.886814 
L 212.786364 143.132659 
L 214.665152 144.52082 
L 216.543939 143.153679 
L 218.422727 143.502968 
L 220.301515 141.143158 
L 222.180303 141.895941 
L 224.059091 141.555638 
L 225.937879 139.633729 
L 227.816667 139.847393 
L 229.695455 139.744387 
L 231.574242 138.535645 
L 233.45303 139.90431 
L 235.331818 142.481704 
L 237.210606 142.058877 
L 239.089394 141.424429 
L 240.968182 142.136532 
L 242.84697 142.979963 
L 244.725758 146.001132 
L 246.604545 146.310589 
L 250.362121 155.626676 
L 252.240909 157.476607 
L 254.119697 161.384894 
L 255.998485 163.956212 
L 257.877273 169.868854 
L 259.756061 174.47445 
L 261.634848 177.401492 
L 263.513636 185.577237 
L 265.392424 188.379896 
L 267.271212 194.948127 
L 269.15 202.409806 
L 271.028788 206.848321 
L 272.907576 212.457898 
L 274.786364 219.675149 
L 276.665152 229.840687 
L 278.543939 236.214198 
L 280.422727 243.216044 
L 282.301515 255.536841 
L 284.180303 265.316294 
L 286.059091 271.316953 
L 289.816667 286.80601 
L 291.695455 291.435596 
L 293.574242 300.720353 
L 295.45303 301.824035 
L 297.331818 309.049721 
L 299.210606 319.301063 
L 301.089394 322.281321 
L 302.968182 329.029332 
L 304.84697 333.374692 
L 306.725758 339.957212 
L 308.604545 345.552026 
L 310.483333 346.647405 
L 312.362121 347.026326 
L 314.240909 345.704344 
L 316.119697 346.951628 
L 317.998485 346.593439 
L 319.877273 342.770455 
L 321.756061 341.70639 
L 323.634848 337.169517 
L 325.513636 335.973491 
L 329.271212 336.428456 
L 331.15 335.047503 
L 333.028788 335.297149 
L 334.907576 334.083754 
L 336.786364 335.313575 
L 338.665152 335.473585 
L 340.543939 335.950709 
L 342.422727 334.44702 
L 344.301515 331.385664 
L 346.180303 328.944659 
L 348.059091 328.907147 
L 349.937879 330.245962 
L 351.816667 333.626458 
L 353.695455 338.554794 
L 355.574242 336.929915 
L 357.45303 335.628976 
L 359.331818 335.515235 
L 361.210606 343.141748 
L 363.089394 341.923582 
L 364.968182 341.773971 
L 366.84697 346.555436 
L 368.725758 347.519789 
L 370.604545 352.978041 
L 372.483333 345.994685 
L 374.362121 341.231902 
L 376.240909 339.365606 
L 378.119697 342.598516 
L 379.998485 344.237951 
L 381.877273 342.361632 
L 383.756061 345.857647 
L 385.634848 353.244288 
L 387.513636 356.909848 
L 389.392424 355.286321 
L 391.271212 351.66097 
L 393.15 355.05526 
L 395.028788 353.432186 
L 396.907576 355.614758 
L 398.786364 353.64572 
L 400.665152 350.855387 
L 402.543939 346.190531 
L 404.422727 343.546056 
L 406.301515 343.363492 
L 408.180303 342.882519 
L 410.059091 350.654348 
L 411.937879 351.777463 
L 413.816667 352.252677 
L 415.695455 348.734281 
L 417.574242 345.860356 
L 419.45303 344.808954 
L 421.331818 341.117275 
L 423.210606 333.671721 
L 425.089394 329.746706 
L 426.968182 332.187279 
L 428.84697 332.787408 
L 430.725758 336.24792 
L 432.604545 340.864413 
L 434.483333 338.218331 
L 436.362121 337.295555 
L 438.240909 340.196531 
L 440.119697 347.919541 
L 441.998485 352.120373 
L 443.877273 353.55889 
L 445.756061 351.885095 
L 447.634848 353.818421 
L 449.513636 354.814829 
L 451.392424 352.600063 
L 453.271212 349.97986 
L 455.15 354.0387 
L 457.028788 357.116311 
L 458.907576 358.930197 
L 460.786364 362.317236 
L 462.665152 365.346 
L 464.543939 365.925377 
L 466.422727 370.224749 
L 468.301515 363.386031 
L 470.180303 362.181146 
L 472.059091 364.758234 
L 473.937879 363.697878 
L 475.816667 368.275354 
L 477.695455 361.841794 
L 477.695455 361.841794 
" style="fill:none;stroke:#ee7733;stroke-dasharray:0.5,0.825;stroke-dashoffset:0;stroke-width:0.5;"/>
    <defs>
     <path d="M 0 -2.5 
L -0.561285 -0.772542 
L -2.377641 -0.772542 
L -0.908178 0.295085 
L -1.469463 2.022542 
L -0 0.954915 
L 1.469463 2.022542 
L 0.908178 0.295085 
L 2.377641 -0.772542 
L 0.561285 -0.772542 
z
" id="m6bb04e29ff" style="stroke:#ee7733;stroke-linejoin:bevel;"/>
    </defs>
    <g clip-path="url(#p8a8ce21612)">
     <use style="fill:#ee7733;stroke:#ee7733;stroke-linejoin:bevel;" x="122.604545" xlink:href="#m6bb04e29ff" y="180.323071"/>
     <use style="fill:#ee7733;stroke:#ee7733;stroke-linejoin:bevel;" x="141.392424" xlink:href="#m6bb04e29ff" y="162.43339"/>
     <use style="fill:#ee7733;stroke:#ee7733;stroke-linejoin:bevel;" x="160.180303" xlink:href="#m6bb04e29ff" y="158.618906"/>
     <use style="fill:#ee7733;stroke:#ee7733;stroke-linejoin:bevel;" x="178.968182" xlink:href="#m6bb04e29ff" y="150.827614"/>
     <use style="fill:#ee7733;stroke:#ee7733;stroke-linejoin:bevel;" x="197.756061" xlink:href="#m6bb04e29ff" y="145.171143"/>
     <use style="fill:#ee7733;stroke:#ee7733;stroke-linejoin:bevel;" x="216.543939" xlink:href="#m6bb04e29ff" y="143.153679"/>
     <use style="fill:#ee7733;stroke:#ee7733;stroke-linejoin:bevel;" x="235.331818" xlink:href="#m6bb04e29ff" y="142.481704"/>
     <use style="fill:#ee7733;stroke:#ee7733;stroke-linejoin:bevel;" x="254.119697" xlink:href="#m6bb04e29ff" y="161.384894"/>
     <use style="fill:#ee7733;stroke:#ee7733;stroke-linejoin:bevel;" x="272.907576" xlink:href="#m6bb04e29ff" y="212.457898"/>
     <use style="fill:#ee7733;stroke:#ee7733;stroke-linejoin:bevel;" x="291.695455" xlink:href="#m6bb04e29ff" y="291.435596"/>
     <use style="fill:#ee7733;stroke:#ee7733;stroke-linejoin:bevel;" x="310.483333" xlink:href="#m6bb04e29ff" y="346.647405"/>
     <use style="fill:#ee7733;stroke:#ee7733;stroke-linejoin:bevel;" x="329.271212" xlink:href="#m6bb04e29ff" y="336.428456"/>
     <use style="fill:#ee7733;stroke:#ee7733;stroke-linejoin:bevel;" x="348.059091" xlink:href="#m6bb04e29ff" y="328.907147"/>
     <use style="fill:#ee7733;stroke:#ee7733;stroke-linejoin:bevel;" x="366.84697" xlink:href="#m6bb04e29ff" y="346.555436"/>
     <use style="fill:#ee7733;stroke:#ee7733;stroke-linejoin:bevel;" x="385.634848" xlink:href="#m6bb04e29ff" y="353.244288"/>
     <use style="fill:#ee7733;stroke:#ee7733;stroke-linejoin:bevel;" x="404.422727" xlink:href="#m6bb04e29ff" y="343.546056"/>
     <use style="fill:#ee7733;stroke:#ee7733;stroke-linejoin:bevel;" x="423.210606" xlink:href="#m6bb04e29ff" y="333.671721"/>
     <use style="fill:#ee7733;stroke:#ee7733;stroke-linejoin:bevel;" x="441.998485" xlink:href="#m6bb04e29ff" y="352.120373"/>
     <use style="fill:#ee7733;stroke:#ee7733;stroke-linejoin:bevel;" x="460.786364" xlink:href="#m6bb04e29ff" y="362.317236"/>
    </g>
   </g>
   <g id="line2d_37"/>
   <g id="line2d_38"/>
   <g id="line2d_39"/>
   <g id="line2d_40"/>
   <g id="line2d_41">
    <path clip-path="url(#p8a8ce21612)" d="M 122.604545 190.886315 
L 124.483333 170.442638 
L 126.362121 166.014616 
L 128.240909 175.346395 
L 130.119697 175.253731 
L 131.998485 177.728962 
L 133.877273 173.801553 
L 135.756061 173.172691 
L 137.634848 171.123645 
L 139.513636 168.090994 
L 141.392424 166.130854 
L 143.271212 165.98232 
L 145.15 163.411695 
L 147.028788 165.289698 
L 148.907576 166.087373 
L 150.786364 167.184594 
L 152.665152 167.678328 
L 154.543939 167.519637 
L 156.422727 167.855403 
L 158.301515 167.820137 
L 160.180303 167.571637 
L 162.059091 167.5389 
L 163.937879 167.185277 
L 165.816667 165.042728 
L 167.695455 164.08852 
L 169.574242 161.827056 
L 171.45303 162.156856 
L 173.331818 162.001952 
L 175.210606 160.658954 
L 178.968182 161.932876 
L 180.84697 159.910377 
L 182.725758 162.40027 
L 184.604545 160.076684 
L 186.483333 158.916713 
L 188.362121 158.003969 
L 190.240909 156.237011 
L 192.119697 153.908585 
L 193.998485 153.281381 
L 195.877273 152.474627 
L 197.756061 150.44014 
L 201.513636 149.223429 
L 203.392424 148.984661 
L 205.271212 149.69469 
L 207.15 148.345251 
L 209.028788 149.25336 
L 210.907576 147.372687 
L 212.786364 147.510415 
L 214.665152 148.884241 
L 218.422727 149.368798 
L 220.301515 148.438239 
L 222.180303 149.613204 
L 224.059091 149.812549 
L 225.937879 147.845931 
L 227.816667 147.327471 
L 229.695455 148.507519 
L 231.574242 147.345315 
L 233.45303 148.29454 
L 235.331818 150.254574 
L 237.210606 150.238499 
L 239.089394 149.959224 
L 240.968182 150.03907 
L 242.84697 151.499098 
L 244.725758 155.519718 
L 246.604545 155.03873 
L 248.483333 160.581532 
L 250.362121 164.464908 
L 252.240909 165.846095 
L 254.119697 168.565842 
L 255.998485 171.088102 
L 257.877273 174.545226 
L 259.756061 178.728641 
L 261.634848 180.598889 
L 263.513636 187.059689 
L 265.392424 191.331978 
L 267.271212 196.505694 
L 269.15 203.595169 
L 274.786364 222.186896 
L 276.665152 231.432253 
L 278.543939 236.822528 
L 280.422727 242.723403 
L 282.301515 254.35384 
L 284.180303 263.065128 
L 286.059091 268.400063 
L 289.816667 283.59392 
L 291.695455 288.775042 
L 293.574242 298.207481 
L 295.45303 299.301797 
L 297.331818 305.039647 
L 299.210606 316.928125 
L 301.089394 320.778691 
L 302.968182 325.923856 
L 304.84697 329.825941 
L 306.725758 337.23183 
L 308.604545 341.649918 
L 310.483333 341.818622 
L 312.362121 341.729829 
L 314.240909 341.332884 
L 316.119697 343.525978 
L 317.998485 342.270168 
L 319.877273 338.945618 
L 321.756061 339.145477 
L 323.634848 335.842257 
L 325.513636 335.319894 
L 327.392424 334.543972 
L 329.271212 334.26363 
L 331.15 333.334731 
L 333.028788 333.681865 
L 336.786364 334.15163 
L 338.665152 334.707276 
L 340.543939 337.319172 
L 342.422727 335.239345 
L 344.301515 331.004325 
L 346.180303 328.625039 
L 348.059091 328.684865 
L 349.937879 331.753499 
L 351.816667 335.812052 
L 353.695455 338.651899 
L 355.574242 337.264462 
L 357.45303 337.133517 
L 359.331818 335.795243 
L 361.210606 342.473298 
L 363.089394 340.634315 
L 364.968182 343.197237 
L 366.84697 349.376321 
L 368.725758 349.300702 
L 370.604545 356.126866 
L 372.483333 349.713894 
L 374.362121 344.774174 
L 376.240909 343.346912 
L 378.119697 344.372951 
L 379.998485 348.184436 
L 381.877273 347.014287 
L 383.756061 348.69778 
L 385.634848 354.625707 
L 387.513636 358.055925 
L 389.392424 356.905006 
L 391.271212 354.216224 
L 393.15 358.401581 
L 395.028788 355.604754 
L 396.907576 357.720286 
L 398.786364 355.451337 
L 400.665152 352.536333 
L 402.543939 345.764934 
L 404.422727 340.085174 
L 406.301515 340.490554 
L 408.180303 339.054129 
L 410.059091 345.918071 
L 411.937879 347.77699 
L 413.816667 347.766672 
L 415.695455 345.882279 
L 417.574242 342.822294 
L 419.45303 342.705658 
L 421.331818 340.968273 
L 423.210606 334.27702 
L 425.089394 330.574936 
L 426.968182 331.5842 
L 430.725758 335.179318 
L 432.604545 339.934098 
L 434.483333 337.38047 
L 436.362121 335.238772 
L 438.240909 339.917018 
L 440.119697 348.171122 
L 441.998485 350.959802 
L 443.877273 351.751864 
L 445.756061 349.516093 
L 447.634848 349.805804 
L 449.513636 349.559678 
L 451.392424 346.789078 
L 453.271212 343.636464 
L 455.15 347.365128 
L 457.028788 349.269856 
L 458.907576 349.860887 
L 460.786364 353.943589 
L 462.665152 356.792185 
L 464.543939 358.177873 
L 466.422727 362.946337 
L 468.301515 358.176035 
L 470.180303 356.926578 
L 472.059091 359.984226 
L 473.937879 359.846327 
L 475.816667 363.996367 
L 477.695455 357.610306 
L 477.695455 357.610306 
" style="fill:none;stroke:#ee3377;stroke-dasharray:3.2,0.8,0.5,0.8;stroke-dashoffset:0;stroke-width:0.5;"/>
    <defs>
     <path d="M -1.25 2.5 
L 0 1.25 
L 1.25 2.5 
L 2.5 1.25 
L 1.25 0 
L 2.5 -1.25 
L 1.25 -2.5 
L 0 -1.25 
L -1.25 -2.5 
L -2.5 -1.25 
L -1.25 0 
L -2.5 1.25 
z
" id="me545d39e98" style="stroke:#ee3377;stroke-linejoin:miter;"/>
    </defs>
    <g clip-path="url(#p8a8ce21612)">
     <use style="fill:#ee3377;stroke:#ee3377;stroke-linejoin:miter;" x="122.604545" xlink:href="#me545d39e98" y="190.886315"/>
     <use style="fill:#ee3377;stroke:#ee3377;stroke-linejoin:miter;" x="141.392424" xlink:href="#me545d39e98" y="166.130854"/>
     <use style="fill:#ee3377;stroke:#ee3377;stroke-linejoin:miter;" x="160.180303" xlink:href="#me545d39e98" y="167.571637"/>
     <use style="fill:#ee3377;stroke:#ee3377;stroke-linejoin:miter;" x="178.968182" xlink:href="#me545d39e98" y="161.932876"/>
     <use style="fill:#ee3377;stroke:#ee3377;stroke-linejoin:miter;" x="197.756061" xlink:href="#me545d39e98" y="150.44014"/>
     <use style="fill:#ee3377;stroke:#ee3377;stroke-linejoin:miter;" x="216.543939" xlink:href="#me545d39e98" y="149.071832"/>
     <use style="fill:#ee3377;stroke:#ee3377;stroke-linejoin:miter;" x="235.331818" xlink:href="#me545d39e98" y="150.254574"/>
     <use style="fill:#ee3377;stroke:#ee3377;stroke-linejoin:miter;" x="254.119697" xlink:href="#me545d39e98" y="168.565842"/>
     <use style="fill:#ee3377;stroke:#ee3377;stroke-linejoin:miter;" x="272.907576" xlink:href="#me545d39e98" y="215.81245"/>
     <use style="fill:#ee3377;stroke:#ee3377;stroke-linejoin:miter;" x="291.695455" xlink:href="#me545d39e98" y="288.775042"/>
     <use style="fill:#ee3377;stroke:#ee3377;stroke-linejoin:miter;" x="310.483333" xlink:href="#me545d39e98" y="341.818622"/>
     <use style="fill:#ee3377;stroke:#ee3377;stroke-linejoin:miter;" x="329.271212" xlink:href="#me545d39e98" y="334.26363"/>
     <use style="fill:#ee3377;stroke:#ee3377;stroke-linejoin:miter;" x="348.059091" xlink:href="#me545d39e98" y="328.684865"/>
     <use style="fill:#ee3377;stroke:#ee3377;stroke-linejoin:miter;" x="366.84697" xlink:href="#me545d39e98" y="349.376321"/>
     <use style="fill:#ee3377;stroke:#ee3377;stroke-linejoin:miter;" x="385.634848" xlink:href="#me545d39e98" y="354.625707"/>
     <use style="fill:#ee3377;stroke:#ee3377;stroke-linejoin:miter;" x="404.422727" xlink:href="#me545d39e98" y="340.085174"/>
     <use style="fill:#ee3377;stroke:#ee3377;stroke-linejoin:miter;" x="423.210606" xlink:href="#me545d39e98" y="334.27702"/>
     <use style="fill:#ee3377;stroke:#ee3377;stroke-linejoin:miter;" x="441.998485" xlink:href="#me545d39e98" y="350.959802"/>
     <use style="fill:#ee3377;stroke:#ee3377;stroke-linejoin:miter;" x="460.786364" xlink:href="#me545d39e98" y="353.943589"/>
    </g>
   </g>
   <g id="line2d_42"/>
   <g id="line2d_43"/>
   <g id="line2d_44"/>
   <g id="line2d_45"/>
   <g id="line2d_46">
    <path clip-path="url(#p8a8ce21612)" d="M 233.45303 389.251812 
L 233.45303 112.051812 
" style="fill:none;stroke:#000000;stroke-dasharray:2.5,5;stroke-dashoffset:0;stroke-width:0.5;"/>
   </g>
   <g id="line2d_47">
    <path clip-path="url(#p8a8ce21612)" d="M 289.816667 389.251812 
L 289.816667 112.051812 
" style="fill:none;stroke:#000000;stroke-dasharray:2.5,5;stroke-dashoffset:0;stroke-width:0.5;"/>
   </g>
   <g id="patch_4">
    <path d="M 104.85 389.251812 
L 104.85 112.051812 
" style="fill:none;stroke:#000000;stroke-linecap:square;stroke-linejoin:miter;stroke-width:0.8;"/>
   </g>
   <g id="patch_5">
    <path d="M 495.45 389.251812 
L 495.45 112.051812 
" style="fill:none;stroke:#000000;stroke-linecap:square;stroke-linejoin:miter;stroke-width:0.8;"/>
   </g>
   <g id="patch_6">
    <path d="M 104.85 389.251812 
L 495.45 389.251812 
" style="fill:none;stroke:#000000;stroke-linecap:square;stroke-linejoin:miter;stroke-width:0.8;"/>
   </g>
   <g id="patch_7">
    <path d="M 104.85 112.051812 
L 495.45 112.051812 
" style="fill:none;stroke:#000000;stroke-linecap:square;stroke-linejoin:miter;stroke-width:0.8;"/>
   </g>
   <g id="legend_1">
    <g id="line2d_48"/>
    <g id="line2d_49"/>
    <g id="text_18">
     <!--   -->
     <g transform="translate(48.8 22.277969)scale(0.13 -0.13)">
      <use xlink:href="#DejaVuSans-32"/>
     </g>
    </g>
    <g id="line2d_50"/>
    <g id="line2d_51"/>
    <g id="text_19">
     <!-- start -->
     <g transform="translate(48.8 41.359531)scale(0.13 -0.13)">
      <use xlink:href="#DejaVuSans-115"/>
      <use x="52.099609" xlink:href="#DejaVuSans-116"/>
      <use x="91.308594" xlink:href="#DejaVuSans-97"/>
      <use x="152.587891" xlink:href="#DejaVuSans-114"/>
      <use x="193.701172" xlink:href="#DejaVuSans-116"/>
     </g>
    </g>
    <g id="line2d_52"/>
    <g id="line2d_53"/>
    <g id="text_20">
     <!-- pre-dirft -->
     <g transform="translate(48.8 60.441094)scale(0.13 -0.13)">
      <use xlink:href="#DejaVuSans-112"/>
      <use x="63.476562" xlink:href="#DejaVuSans-114"/>
      <use x="104.558594" xlink:href="#DejaVuSans-101"/>
      <use x="166.082031" xlink:href="#DejaVuSans-45"/>
      <use x="202.166016" xlink:href="#DejaVuSans-100"/>
      <use x="265.642578" xlink:href="#DejaVuSans-105"/>
      <use x="293.425781" xlink:href="#DejaVuSans-114"/>
      <use x="334.539062" xlink:href="#DejaVuSans-102"/>
      <use x="369.728516" xlink:href="#DejaVuSans-116"/>
     </g>
    </g>
    <g id="line2d_54"/>
    <g id="line2d_55"/>
    <g id="text_21">
     <!-- post-drift -->
     <g transform="translate(48.8 79.522656)scale(0.13 -0.13)">
      <use xlink:href="#DejaVuSans-112"/>
      <use x="63.476562" xlink:href="#DejaVuSans-111"/>
      <use x="124.658203" xlink:href="#DejaVuSans-115"/>
      <use x="176.757812" xlink:href="#DejaVuSans-116"/>
      <use x="215.966797" xlink:href="#DejaVuSans-45"/>
      <use x="252.050781" xlink:href="#DejaVuSans-100"/>
      <use x="315.527344" xlink:href="#DejaVuSans-114"/>
      <use x="356.640625" xlink:href="#DejaVuSans-105"/>
      <use x="384.423828" xlink:href="#DejaVuSans-102"/>
      <use x="419.613281" xlink:href="#DejaVuSans-116"/>
     </g>
    </g>
    <g id="line2d_56"/>
    <g id="line2d_57"/>
    <g id="text_22">
     <!-- end -->
     <g transform="translate(48.8 98.604219)scale(0.13 -0.13)">
      <use xlink:href="#DejaVuSans-101"/>
      <use x="61.523438" xlink:href="#DejaVuSans-110"/>
      <use x="124.902344" xlink:href="#DejaVuSans-100"/>
     </g>
    </g>
    <g id="line2d_58">
     <path d="M 102.918688 17.727969 
L 128.918688 17.727969 
" style="fill:none;stroke:#cc3311;stroke-linecap:square;stroke-width:0.5;"/>
    </g>
    <g id="line2d_59">
     <g>
      <use style="fill:#cc3311;stroke:#cc3311;" x="115.918688" xlink:href="#m365ad46a64" y="17.727969"/>
     </g>
    </g>
    <g id="text_23">
     <!-- ESOS -->
     <defs>
      <path d="M 9.8125 72.90625 
L 55.90625 72.90625 
L 55.90625 64.59375 
L 19.671875 64.59375 
L 19.671875 43.015625 
L 54.390625 43.015625 
L 54.390625 34.71875 
L 19.671875 34.71875 
L 19.671875 8.296875 
L 56.78125 8.296875 
L 56.78125 0 
L 9.8125 0 
z
" id="DejaVuSans-69"/>
      <path d="M 53.515625 70.515625 
L 53.515625 60.890625 
Q 47.90625 63.578125 42.921875 64.890625 
Q 37.9375 66.21875 33.296875 66.21875 
Q 25.25 66.21875 20.875 63.09375 
Q 16.5 59.96875 16.5 54.203125 
Q 16.5 49.359375 19.40625 46.890625 
Q 22.3125 44.4375 30.421875 42.921875 
L 36.375 41.703125 
Q 47.40625 39.59375 52.65625 34.296875 
Q 57.90625 29 57.90625 20.125 
Q 57.90625 9.515625 50.796875 4.046875 
Q 43.703125 -1.421875 29.984375 -1.421875 
Q 24.8125 -1.421875 18.96875 -0.25 
Q 13.140625 0.921875 6.890625 3.21875 
L 6.890625 13.375 
Q 12.890625 10.015625 18.65625 8.296875 
Q 24.421875 6.59375 29.984375 6.59375 
Q 38.421875 6.59375 43.015625 9.90625 
Q 47.609375 13.234375 47.609375 19.390625 
Q 47.609375 24.75 44.3125 27.78125 
Q 41.015625 30.8125 33.5 32.328125 
L 27.484375 33.5 
Q 16.453125 35.6875 11.515625 40.375 
Q 6.59375 45.0625 6.59375 53.421875 
Q 6.59375 63.09375 13.40625 68.65625 
Q 20.21875 74.21875 32.171875 74.21875 
Q 37.3125 74.21875 42.625 73.28125 
Q 47.953125 72.359375 53.515625 70.515625 
z
" id="DejaVuSans-83"/>
      <path d="M 39.40625 66.21875 
Q 28.65625 66.21875 22.328125 58.203125 
Q 16.015625 50.203125 16.015625 36.375 
Q 16.015625 22.609375 22.328125 14.59375 
Q 28.65625 6.59375 39.40625 6.59375 
Q 50.140625 6.59375 56.421875 14.59375 
Q 62.703125 22.609375 62.703125 36.375 
Q 62.703125 50.203125 56.421875 58.203125 
Q 50.140625 66.21875 39.40625 66.21875 
z
M 39.40625 74.21875 
Q 54.734375 74.21875 63.90625 63.9375 
Q 73.09375 53.65625 73.09375 36.375 
Q 73.09375 19.140625 63.90625 8.859375 
Q 54.734375 -1.421875 39.40625 -1.421875 
Q 24.03125 -1.421875 14.8125 8.828125 
Q 5.609375 19.09375 5.609375 36.375 
Q 5.609375 53.65625 14.8125 63.9375 
Q 24.03125 74.21875 39.40625 74.21875 
z
" id="DejaVuSans-79"/>
     </defs>
     <g transform="translate(139.318688 22.277969)scale(0.13 -0.13)">
      <use xlink:href="#DejaVuSans-69"/>
      <use x="63.183594" xlink:href="#DejaVuSans-83"/>
      <use x="126.660156" xlink:href="#DejaVuSans-79"/>
      <use x="205.371094" xlink:href="#DejaVuSans-83"/>
     </g>
    </g>
    <g id="line2d_60"/>
    <g id="line2d_61"/>
    <g id="text_24">
     <!-- 0.9683 -->
     <defs>
      <path d="M 40.578125 39.3125 
Q 47.65625 37.796875 51.625 33 
Q 55.609375 28.21875 55.609375 21.1875 
Q 55.609375 10.40625 48.1875 4.484375 
Q 40.765625 -1.421875 27.09375 -1.421875 
Q 22.515625 -1.421875 17.65625 -0.515625 
Q 12.796875 0.390625 7.625 2.203125 
L 7.625 11.71875 
Q 11.71875 9.328125 16.59375 8.109375 
Q 21.484375 6.890625 26.8125 6.890625 
Q 36.078125 6.890625 40.9375 10.546875 
Q 45.796875 14.203125 45.796875 21.1875 
Q 45.796875 27.640625 41.28125 31.265625 
Q 36.765625 34.90625 28.71875 34.90625 
L 20.21875 34.90625 
L 20.21875 43.015625 
L 29.109375 43.015625 
Q 36.375 43.015625 40.234375 45.921875 
Q 44.09375 48.828125 44.09375 54.296875 
Q 44.09375 59.90625 40.109375 62.90625 
Q 36.140625 65.921875 28.71875 65.921875 
Q 24.65625 65.921875 20.015625 65.03125 
Q 15.375 64.15625 9.8125 62.3125 
L 9.8125 71.09375 
Q 15.4375 72.65625 20.34375 73.4375 
Q 25.25 74.21875 29.59375 74.21875 
Q 40.828125 74.21875 47.359375 69.109375 
Q 53.90625 64.015625 53.90625 55.328125 
Q 53.90625 49.265625 50.4375 45.09375 
Q 46.96875 40.921875 40.578125 39.3125 
z
" id="DejaVuSans-51"/>
     </defs>
     <g transform="translate(139.318688 41.359531)scale(0.13 -0.13)">
      <use xlink:href="#DejaVuSans-48"/>
      <use x="63.623047" xlink:href="#DejaVuSans-46"/>
      <use x="95.410156" xlink:href="#DejaVuSans-57"/>
      <use x="159.033203" xlink:href="#DejaVuSans-54"/>
      <use x="222.65625" xlink:href="#DejaVuSans-56"/>
      <use x="286.279297" xlink:href="#DejaVuSans-51"/>
     </g>
    </g>
    <g id="line2d_62"/>
    <g id="line2d_63"/>
    <g id="text_25">
     <!-- 0.9693 -->
     <g transform="translate(139.318688 60.441094)scale(0.13 -0.13)">
      <use xlink:href="#DejaVuSans-48"/>
      <use x="63.623047" xlink:href="#DejaVuSans-46"/>
      <use x="95.410156" xlink:href="#DejaVuSans-57"/>
      <use x="159.033203" xlink:href="#DejaVuSans-54"/>
      <use x="222.65625" xlink:href="#DejaVuSans-57"/>
      <use x="286.279297" xlink:href="#DejaVuSans-51"/>
     </g>
    </g>
    <g id="line2d_64"/>
    <g id="line2d_65"/>
    <g id="text_26">
     <!-- 0.8931 -->
     <g transform="translate(139.318688 79.522656)scale(0.13 -0.13)">
      <use xlink:href="#DejaVuSans-48"/>
      <use x="63.623047" xlink:href="#DejaVuSans-46"/>
      <use x="95.410156" xlink:href="#DejaVuSans-56"/>
      <use x="159.033203" xlink:href="#DejaVuSans-57"/>
      <use x="222.65625" xlink:href="#DejaVuSans-51"/>
      <use x="286.279297" xlink:href="#DejaVuSans-49"/>
     </g>
    </g>
    <g id="line2d_66"/>
    <g id="line2d_67"/>
    <g id="text_27">
     <!-- 0.8602 -->
     <g transform="translate(139.318688 98.604219)scale(0.13 -0.13)">
      <use xlink:href="#DejaVuSans-48"/>
      <use x="63.623047" xlink:href="#DejaVuSans-46"/>
      <use x="95.410156" xlink:href="#DejaVuSans-56"/>
      <use x="159.033203" xlink:href="#DejaVuSans-54"/>
      <use x="222.65625" xlink:href="#DejaVuSans-48"/>
      <use x="286.279297" xlink:href="#DejaVuSans-50"/>
     </g>
    </g>
    <g id="line2d_68">
     <path d="M 179.279563 17.727969 
L 205.279563 17.727969 
" style="fill:none;stroke:#009988;stroke-dasharray:1.85,0.8;stroke-dashoffset:0;stroke-width:0.5;"/>
    </g>
    <g id="line2d_69">
     <g>
      <use style="fill:#009988;stroke:#009988;stroke-linejoin:miter;" x="192.279563" xlink:href="#m7c8a449969" y="17.727969"/>
     </g>
    </g>
    <g id="text_28">
     <!-- OOB -->
     <defs>
      <path d="M 19.671875 34.8125 
L 19.671875 8.109375 
L 35.5 8.109375 
Q 43.453125 8.109375 47.28125 11.40625 
Q 51.125 14.703125 51.125 21.484375 
Q 51.125 28.328125 47.28125 31.5625 
Q 43.453125 34.8125 35.5 34.8125 
z
M 19.671875 64.796875 
L 19.671875 42.828125 
L 34.28125 42.828125 
Q 41.5 42.828125 45.03125 45.53125 
Q 48.578125 48.25 48.578125 53.8125 
Q 48.578125 59.328125 45.03125 62.0625 
Q 41.5 64.796875 34.28125 64.796875 
z
M 9.8125 72.90625 
L 35.015625 72.90625 
Q 46.296875 72.90625 52.390625 68.21875 
Q 58.5 63.53125 58.5 54.890625 
Q 58.5 48.1875 55.375 44.234375 
Q 52.25 40.28125 46.1875 39.3125 
Q 53.46875 37.75 57.5 32.78125 
Q 61.53125 27.828125 61.53125 20.40625 
Q 61.53125 10.640625 54.890625 5.3125 
Q 48.25 0 35.984375 0 
L 9.8125 0 
z
" id="DejaVuSans-66"/>
     </defs>
     <g transform="translate(215.679563 22.277969)scale(0.13 -0.13)">
      <use xlink:href="#DejaVuSans-79"/>
      <use x="78.710938" xlink:href="#DejaVuSans-79"/>
      <use x="157.421875" xlink:href="#DejaVuSans-66"/>
     </g>
    </g>
    <g id="line2d_70"/>
    <g id="line2d_71"/>
    <g id="text_29">
     <!-- 0.9828 -->
     <g transform="translate(215.679563 41.359531)scale(0.13 -0.13)">
      <use xlink:href="#DejaVuSans-48"/>
      <use x="63.623047" xlink:href="#DejaVuSans-46"/>
      <use x="95.410156" xlink:href="#DejaVuSans-57"/>
      <use x="159.033203" xlink:href="#DejaVuSans-56"/>
      <use x="222.65625" xlink:href="#DejaVuSans-50"/>
      <use x="286.279297" xlink:href="#DejaVuSans-56"/>
     </g>
    </g>
    <g id="line2d_72"/>
    <g id="line2d_73"/>
    <g id="text_30">
     <!-- 0.9890 -->
     <g transform="translate(215.679563 60.441094)scale(0.13 -0.13)">
      <use xlink:href="#DejaVuSans-48"/>
      <use x="63.623047" xlink:href="#DejaVuSans-46"/>
      <use x="95.410156" xlink:href="#DejaVuSans-57"/>
      <use x="159.033203" xlink:href="#DejaVuSans-56"/>
      <use x="222.65625" xlink:href="#DejaVuSans-57"/>
      <use x="286.279297" xlink:href="#DejaVuSans-48"/>
     </g>
    </g>
    <g id="line2d_74"/>
    <g id="line2d_75"/>
    <g id="text_31">
     <!-- 0.9129 -->
     <g transform="translate(215.679563 79.522656)scale(0.13 -0.13)">
      <use xlink:href="#DejaVuSans-48"/>
      <use x="63.623047" xlink:href="#DejaVuSans-46"/>
      <use x="95.410156" xlink:href="#DejaVuSans-57"/>
      <use x="159.033203" xlink:href="#DejaVuSans-49"/>
      <use x="222.65625" xlink:href="#DejaVuSans-50"/>
      <use x="286.279297" xlink:href="#DejaVuSans-57"/>
     </g>
    </g>
    <g id="line2d_76"/>
    <g id="line2d_77"/>
    <g id="text_32">
     <!-- 0.8809 -->
     <g transform="translate(215.679563 98.604219)scale(0.13 -0.13)">
      <use xlink:href="#DejaVuSans-48"/>
      <use x="63.623047" xlink:href="#DejaVuSans-46"/>
      <use x="95.410156" xlink:href="#DejaVuSans-56"/>
      <use x="159.033203" xlink:href="#DejaVuSans-56"/>
      <use x="222.65625" xlink:href="#DejaVuSans-48"/>
      <use x="286.279297" xlink:href="#DejaVuSans-57"/>
     </g>
    </g>
    <g id="line2d_78">
     <path d="M 255.640438 17.727969 
L 281.640438 17.727969 
" style="fill:none;stroke:#0077bb;stroke-dasharray:3.2,0.8,0.5,0.8;stroke-dashoffset:0;stroke-width:0.5;"/>
    </g>
    <g id="line2d_79">
     <g>
      <use style="fill:#0077bb;stroke:#0077bb;stroke-linejoin:miter;" x="268.640438" xlink:href="#m73e901756c" y="17.727969"/>
     </g>
    </g>
    <g id="text_33">
     <!-- UOB -->
     <defs>
      <path d="M 8.6875 72.90625 
L 18.609375 72.90625 
L 18.609375 28.609375 
Q 18.609375 16.890625 22.84375 11.734375 
Q 27.09375 6.59375 36.625 6.59375 
Q 46.09375 6.59375 50.34375 11.734375 
Q 54.59375 16.890625 54.59375 28.609375 
L 54.59375 72.90625 
L 64.5 72.90625 
L 64.5 27.390625 
Q 64.5 13.140625 57.4375 5.859375 
Q 50.390625 -1.421875 36.625 -1.421875 
Q 22.796875 -1.421875 15.734375 5.859375 
Q 8.6875 13.140625 8.6875 27.390625 
z
" id="DejaVuSans-85"/>
     </defs>
     <g transform="translate(292.040438 22.277969)scale(0.13 -0.13)">
      <use xlink:href="#DejaVuSans-85"/>
      <use x="73.193359" xlink:href="#DejaVuSans-79"/>
      <use x="151.904297" xlink:href="#DejaVuSans-66"/>
     </g>
    </g>
    <g id="line2d_80"/>
    <g id="line2d_81"/>
    <g id="text_34">
     <!-- 0.9752 -->
     <g transform="translate(292.040438 41.359531)scale(0.13 -0.13)">
      <use xlink:href="#DejaVuSans-48"/>
      <use x="63.623047" xlink:href="#DejaVuSans-46"/>
      <use x="95.410156" xlink:href="#DejaVuSans-57"/>
      <use x="159.033203" xlink:href="#DejaVuSans-55"/>
      <use x="222.65625" xlink:href="#DejaVuSans-53"/>
      <use x="286.279297" xlink:href="#DejaVuSans-50"/>
     </g>
    </g>
    <g id="line2d_82"/>
    <g id="line2d_83"/>
    <g id="text_35">
     <!-- 0.9817 -->
     <g transform="translate(292.040438 60.441094)scale(0.13 -0.13)">
      <use xlink:href="#DejaVuSans-48"/>
      <use x="63.623047" xlink:href="#DejaVuSans-46"/>
      <use x="95.410156" xlink:href="#DejaVuSans-57"/>
      <use x="159.033203" xlink:href="#DejaVuSans-56"/>
      <use x="222.65625" xlink:href="#DejaVuSans-49"/>
      <use x="286.279297" xlink:href="#DejaVuSans-55"/>
     </g>
    </g>
    <g id="line2d_84"/>
    <g id="line2d_85"/>
    <g id="text_36">
     <!-- 0.9066 -->
     <g transform="translate(292.040438 79.522656)scale(0.13 -0.13)">
      <use xlink:href="#DejaVuSans-48"/>
      <use x="63.623047" xlink:href="#DejaVuSans-46"/>
      <use x="95.410156" xlink:href="#DejaVuSans-57"/>
      <use x="159.033203" xlink:href="#DejaVuSans-48"/>
      <use x="222.65625" xlink:href="#DejaVuSans-54"/>
      <use x="286.279297" xlink:href="#DejaVuSans-54"/>
     </g>
    </g>
    <g id="line2d_86"/>
    <g id="line2d_87"/>
    <g id="text_37">
     <!-- 0.8775 -->
     <g transform="translate(292.040438 98.604219)scale(0.13 -0.13)">
      <use xlink:href="#DejaVuSans-48"/>
      <use x="63.623047" xlink:href="#DejaVuSans-46"/>
      <use x="95.410156" xlink:href="#DejaVuSans-56"/>
      <use x="159.033203" xlink:href="#DejaVuSans-55"/>
      <use x="222.65625" xlink:href="#DejaVuSans-55"/>
      <use x="286.279297" xlink:href="#DejaVuSans-53"/>
     </g>
    </g>
    <g id="line2d_88">
     <path d="M 332.001313 17.727969 
L 358.001313 17.727969 
" style="fill:none;stroke:#ee7733;stroke-dasharray:0.5,0.825;stroke-dashoffset:0;stroke-width:0.5;"/>
    </g>
    <g id="line2d_89">
     <g>
      <use style="fill:#ee7733;stroke:#ee7733;stroke-linejoin:bevel;" x="345.001313" xlink:href="#m6bb04e29ff" y="17.727969"/>
     </g>
    </g>
    <g id="text_38">
     <!-- OB -->
     <g transform="translate(368.401313 22.277969)scale(0.13 -0.13)">
      <use xlink:href="#DejaVuSans-79"/>
      <use x="78.710938" xlink:href="#DejaVuSans-66"/>
     </g>
    </g>
    <g id="line2d_90"/>
    <g id="line2d_91"/>
    <g id="text_39">
     <!-- 0.9597 -->
     <g transform="translate(368.401313 41.359531)scale(0.13 -0.13)">
      <use xlink:href="#DejaVuSans-48"/>
      <use x="63.623047" xlink:href="#DejaVuSans-46"/>
      <use x="95.410156" xlink:href="#DejaVuSans-57"/>
      <use x="159.033203" xlink:href="#DejaVuSans-53"/>
      <use x="222.65625" xlink:href="#DejaVuSans-57"/>
      <use x="286.279297" xlink:href="#DejaVuSans-55"/>
     </g>
    </g>
    <g id="line2d_92"/>
    <g id="line2d_93"/>
    <g id="text_40">
     <!-- 0.9811 -->
     <g transform="translate(368.401313 60.441094)scale(0.13 -0.13)">
      <use xlink:href="#DejaVuSans-48"/>
      <use x="63.623047" xlink:href="#DejaVuSans-46"/>
      <use x="95.410156" xlink:href="#DejaVuSans-57"/>
      <use x="159.033203" xlink:href="#DejaVuSans-56"/>
      <use x="222.65625" xlink:href="#DejaVuSans-49"/>
      <use x="286.279297" xlink:href="#DejaVuSans-49"/>
     </g>
    </g>
    <g id="line2d_94"/>
    <g id="line2d_95"/>
    <g id="text_41">
     <!-- 0.9032 -->
     <g transform="translate(368.401313 79.522656)scale(0.13 -0.13)">
      <use xlink:href="#DejaVuSans-48"/>
      <use x="63.623047" xlink:href="#DejaVuSans-46"/>
      <use x="95.410156" xlink:href="#DejaVuSans-57"/>
      <use x="159.033203" xlink:href="#DejaVuSans-48"/>
      <use x="222.65625" xlink:href="#DejaVuSans-51"/>
      <use x="286.279297" xlink:href="#DejaVuSans-50"/>
     </g>
    </g>
    <g id="line2d_96"/>
    <g id="line2d_97"/>
    <g id="text_42">
     <!-- 0.8634 -->
     <g transform="translate(368.401313 98.604219)scale(0.13 -0.13)">
      <use xlink:href="#DejaVuSans-48"/>
      <use x="63.623047" xlink:href="#DejaVuSans-46"/>
      <use x="95.410156" xlink:href="#DejaVuSans-56"/>
      <use x="159.033203" xlink:href="#DejaVuSans-54"/>
      <use x="222.65625" xlink:href="#DejaVuSans-51"/>
      <use x="286.279297" xlink:href="#DejaVuSans-52"/>
     </g>
    </g>
    <g id="line2d_98">
     <path d="M 408.362188 17.727969 
L 434.362188 17.727969 
" style="fill:none;stroke:#ee3377;stroke-dasharray:3.2,0.8,0.5,0.8;stroke-dashoffset:0;stroke-width:0.5;"/>
    </g>
    <g id="line2d_99">
     <g>
      <use style="fill:#ee3377;stroke:#ee3377;stroke-linejoin:miter;" x="421.362188" xlink:href="#me545d39e98" y="17.727969"/>
     </g>
    </g>
    <g id="text_43">
     <!-- VFDT -->
     <defs>
      <path d="M 28.609375 0 
L 0.78125 72.90625 
L 11.078125 72.90625 
L 34.1875 11.53125 
L 57.328125 72.90625 
L 67.578125 72.90625 
L 39.796875 0 
z
" id="DejaVuSans-86"/>
      <path d="M 9.8125 72.90625 
L 51.703125 72.90625 
L 51.703125 64.59375 
L 19.671875 64.59375 
L 19.671875 43.109375 
L 48.578125 43.109375 
L 48.578125 34.8125 
L 19.671875 34.8125 
L 19.671875 0 
L 9.8125 0 
z
" id="DejaVuSans-70"/>
      <path d="M 19.671875 64.796875 
L 19.671875 8.109375 
L 31.59375 8.109375 
Q 46.6875 8.109375 53.6875 14.9375 
Q 60.6875 21.78125 60.6875 36.53125 
Q 60.6875 51.171875 53.6875 57.984375 
Q 46.6875 64.796875 31.59375 64.796875 
z
M 9.8125 72.90625 
L 30.078125 72.90625 
Q 51.265625 72.90625 61.171875 64.09375 
Q 71.09375 55.28125 71.09375 36.53125 
Q 71.09375 17.671875 61.125 8.828125 
Q 51.171875 0 30.078125 0 
L 9.8125 0 
z
" id="DejaVuSans-68"/>
      <path d="M -0.296875 72.90625 
L 61.375 72.90625 
L 61.375 64.59375 
L 35.5 64.59375 
L 35.5 0 
L 25.59375 0 
L 25.59375 64.59375 
L -0.296875 64.59375 
z
" id="DejaVuSans-84"/>
     </defs>
     <g transform="translate(444.762188 22.277969)scale(0.13 -0.13)">
      <use xlink:href="#DejaVuSans-86"/>
      <use x="68.408203" xlink:href="#DejaVuSans-70"/>
      <use x="125.927734" xlink:href="#DejaVuSans-68"/>
      <use x="202.929688" xlink:href="#DejaVuSans-84"/>
     </g>
    </g>
    <g id="line2d_100"/>
    <g id="line2d_101"/>
    <g id="text_44">
     <!-- 0.9541 -->
     <g transform="translate(444.762188 41.359531)scale(0.13 -0.13)">
      <use xlink:href="#DejaVuSans-48"/>
      <use x="63.623047" xlink:href="#DejaVuSans-46"/>
      <use x="95.410156" xlink:href="#DejaVuSans-57"/>
      <use x="159.033203" xlink:href="#DejaVuSans-53"/>
      <use x="222.65625" xlink:href="#DejaVuSans-52"/>
      <use x="286.279297" xlink:href="#DejaVuSans-49"/>
     </g>
    </g>
    <g id="line2d_102"/>
    <g id="line2d_103"/>
    <g id="text_45">
     <!-- 0.9767 -->
     <g transform="translate(444.762188 60.441094)scale(0.13 -0.13)">
      <use xlink:href="#DejaVuSans-48"/>
      <use x="63.623047" xlink:href="#DejaVuSans-46"/>
      <use x="95.410156" xlink:href="#DejaVuSans-57"/>
      <use x="159.033203" xlink:href="#DejaVuSans-55"/>
      <use x="222.65625" xlink:href="#DejaVuSans-54"/>
      <use x="286.279297" xlink:href="#DejaVuSans-55"/>
     </g>
    </g>
    <g id="line2d_104"/>
    <g id="line2d_105"/>
    <g id="text_46">
     <!-- 0.9049 -->
     <g transform="translate(444.762188 79.522656)scale(0.13 -0.13)">
      <use xlink:href="#DejaVuSans-48"/>
      <use x="63.623047" xlink:href="#DejaVuSans-46"/>
      <use x="95.410156" xlink:href="#DejaVuSans-57"/>
      <use x="159.033203" xlink:href="#DejaVuSans-48"/>
      <use x="222.65625" xlink:href="#DejaVuSans-52"/>
      <use x="286.279297" xlink:href="#DejaVuSans-57"/>
     </g>
    </g>
    <g id="line2d_106"/>
    <g id="line2d_107"/>
    <g id="text_47">
     <!-- 0.8657 -->
     <g transform="translate(444.762188 98.604219)scale(0.13 -0.13)">
      <use xlink:href="#DejaVuSans-48"/>
      <use x="63.623047" xlink:href="#DejaVuSans-46"/>
      <use x="95.410156" xlink:href="#DejaVuSans-56"/>
      <use x="159.033203" xlink:href="#DejaVuSans-54"/>
      <use x="222.65625" xlink:href="#DejaVuSans-53"/>
      <use x="286.279297" xlink:href="#DejaVuSans-55"/>
     </g>
    </g>
   </g>
  </g>
 </g>
 <defs>
  <clipPath id="p8a8ce21612">
   <rect height="277.2" width="390.6" x="104.85" y="112.051812"/>
  </clipPath>
 </defs>
</svg>
