<?xml version="1.0" encoding="utf-8" standalone="no"?>
<!DOCTYPE svg PUBLIC "-//W3C//DTD SVG 1.1//EN"
  "http://www.w3.org/Graphics/SVG/1.1/DTD/svg11.dtd">
<!-- Created with matplotlib (https://matplotlib.org/) -->
<svg height="432.614937pt" version="1.1" viewBox="0 0 502.65 432.614937" width="502.65pt" xmlns="http://www.w3.org/2000/svg" xmlns:xlink="http://www.w3.org/1999/xlink">
 <defs>
  <style type="text/css">
*{stroke-linecap:butt;stroke-linejoin:round;white-space:pre;}
  </style>
 </defs>
 <g id="figure_1">
  <g id="patch_1">
   <path d="M 0 432.614937 
L 502.65 432.614937 
L 502.65 0 
L 0 0 
z
" style="fill:#ffffff;"/>
  </g>
  <g id="axes_1">
   <g id="patch_2">
    <path d="M 104.85 389.251812 
L 495.45 389.251812 
L 495.45 112.051812 
L 104.85 112.051812 
z
" style="fill:#ffffff;"/>
   </g>
   <g id="patch_3">
    <path clip-path="url(#p700b1dc684)" d="M 289.816667 389.251812 
L 289.816667 112.051812 
L 233.45303 112.051812 
L 233.45303 389.251812 
z
" style="fill:#d3d3d3;opacity:0.5;"/>
   </g>
   <g id="matplotlib.axis_1">
    <g id="xtick_1">
     <g id="line2d_1">
      <defs>
       <path d="M 0 0 
L 0 3.5 
" id="m83384b621a" style="stroke:#000000;stroke-width:0.8;"/>
      </defs>
      <g>
       <use style="stroke:#000000;stroke-width:0.8;" x="148.907576" xlink:href="#m83384b621a" y="389.251812"/>
      </g>
     </g>
     <g id="text_1">
      <!-- 25 -->
      <defs>
       <path d="M 19.1875 8.296875 
L 53.609375 8.296875 
L 53.609375 0 
L 7.328125 0 
L 7.328125 8.296875 
Q 12.9375 14.109375 22.625 23.890625 
Q 32.328125 33.6875 34.8125 36.53125 
Q 39.546875 41.84375 41.421875 45.53125 
Q 43.3125 49.21875 43.3125 52.78125 
Q 43.3125 58.59375 39.234375 62.25 
Q 35.15625 65.921875 28.609375 65.921875 
Q 23.96875 65.921875 18.8125 64.3125 
Q 13.671875 62.703125 7.8125 59.421875 
L 7.8125 69.390625 
Q 13.765625 71.78125 18.9375 73 
Q 24.125 74.21875 28.421875 74.21875 
Q 39.75 74.21875 46.484375 68.546875 
Q 53.21875 62.890625 53.21875 53.421875 
Q 53.21875 48.921875 51.53125 44.890625 
Q 49.859375 40.875 45.40625 35.40625 
Q 44.1875 33.984375 37.640625 27.21875 
Q 31.109375 20.453125 19.1875 8.296875 
z
" id="DejaVuSans-50"/>
       <path d="M 10.796875 72.90625 
L 49.515625 72.90625 
L 49.515625 64.59375 
L 19.828125 64.59375 
L 19.828125 46.734375 
Q 21.96875 47.46875 24.109375 47.828125 
Q 26.265625 48.1875 28.421875 48.1875 
Q 40.625 48.1875 47.75 41.5 
Q 54.890625 34.8125 54.890625 23.390625 
Q 54.890625 11.625 47.5625 5.09375 
Q 40.234375 -1.421875 26.90625 -1.421875 
Q 22.3125 -1.421875 17.546875 -0.640625 
Q 12.796875 0.140625 7.71875 1.703125 
L 7.71875 11.625 
Q 12.109375 9.234375 16.796875 8.0625 
Q 21.484375 6.890625 26.703125 6.890625 
Q 35.15625 6.890625 40.078125 11.328125 
Q 45.015625 15.765625 45.015625 23.390625 
Q 45.015625 31 40.078125 35.4375 
Q 35.15625 39.890625 26.703125 39.890625 
Q 22.75 39.890625 18.8125 39.015625 
Q 14.890625 38.140625 10.796875 36.28125 
z
" id="DejaVuSans-53"/>
      </defs>
      <g transform="translate(140.636326 406.129781)scale(0.13 -0.13)">
       <use xlink:href="#DejaVuSans-50"/>
       <use x="63.623047" xlink:href="#DejaVuSans-53"/>
      </g>
     </g>
    </g>
    <g id="xtick_2">
     <g id="line2d_2">
      <g>
       <use style="stroke:#000000;stroke-width:0.8;" x="195.877273" xlink:href="#m83384b621a" y="389.251812"/>
      </g>
     </g>
     <g id="text_2">
      <!-- 50 -->
      <defs>
       <path d="M 31.78125 66.40625 
Q 24.171875 66.40625 20.328125 58.90625 
Q 16.5 51.421875 16.5 36.375 
Q 16.5 21.390625 20.328125 13.890625 
Q 24.171875 6.390625 31.78125 6.390625 
Q 39.453125 6.390625 43.28125 13.890625 
Q 47.125 21.390625 47.125 36.375 
Q 47.125 51.421875 43.28125 58.90625 
Q 39.453125 66.40625 31.78125 66.40625 
z
M 31.78125 74.21875 
Q 44.046875 74.21875 50.515625 64.515625 
Q 56.984375 54.828125 56.984375 36.375 
Q 56.984375 17.96875 50.515625 8.265625 
Q 44.046875 -1.421875 31.78125 -1.421875 
Q 19.53125 -1.421875 13.0625 8.265625 
Q 6.59375 17.96875 6.59375 36.375 
Q 6.59375 54.828125 13.0625 64.515625 
Q 19.53125 74.21875 31.78125 74.21875 
z
" id="DejaVuSans-48"/>
      </defs>
      <g transform="translate(187.606023 406.129781)scale(0.13 -0.13)">
       <use xlink:href="#DejaVuSans-53"/>
       <use x="63.623047" xlink:href="#DejaVuSans-48"/>
      </g>
     </g>
    </g>
    <g id="xtick_3">
     <g id="line2d_3">
      <g>
       <use style="stroke:#000000;stroke-width:0.8;" x="242.84697" xlink:href="#m83384b621a" y="389.251812"/>
      </g>
     </g>
     <g id="text_3">
      <!-- 75 -->
      <defs>
       <path d="M 8.203125 72.90625 
L 55.078125 72.90625 
L 55.078125 68.703125 
L 28.609375 0 
L 18.3125 0 
L 43.21875 64.59375 
L 8.203125 64.59375 
z
" id="DejaVuSans-55"/>
      </defs>
      <g transform="translate(234.57572 406.129781)scale(0.13 -0.13)">
       <use xlink:href="#DejaVuSans-55"/>
       <use x="63.623047" xlink:href="#DejaVuSans-53"/>
      </g>
     </g>
    </g>
    <g id="xtick_4">
     <g id="line2d_4">
      <g>
       <use style="stroke:#000000;stroke-width:0.8;" x="289.816667" xlink:href="#m83384b621a" y="389.251812"/>
      </g>
     </g>
     <g id="text_4">
      <!-- 100 -->
      <defs>
       <path d="M 12.40625 8.296875 
L 28.515625 8.296875 
L 28.515625 63.921875 
L 10.984375 60.40625 
L 10.984375 69.390625 
L 28.421875 72.90625 
L 38.28125 72.90625 
L 38.28125 8.296875 
L 54.390625 8.296875 
L 54.390625 0 
L 12.40625 0 
z
" id="DejaVuSans-49"/>
      </defs>
      <g transform="translate(277.409792 406.129781)scale(0.13 -0.13)">
       <use xlink:href="#DejaVuSans-49"/>
       <use x="63.623047" xlink:href="#DejaVuSans-48"/>
       <use x="127.246094" xlink:href="#DejaVuSans-48"/>
      </g>
     </g>
    </g>
    <g id="xtick_5">
     <g id="line2d_5">
      <g>
       <use style="stroke:#000000;stroke-width:0.8;" x="336.786364" xlink:href="#m83384b621a" y="389.251812"/>
      </g>
     </g>
     <g id="text_5">
      <!-- 125 -->
      <g transform="translate(324.379489 406.129781)scale(0.13 -0.13)">
       <use xlink:href="#DejaVuSans-49"/>
       <use x="63.623047" xlink:href="#DejaVuSans-50"/>
       <use x="127.246094" xlink:href="#DejaVuSans-53"/>
      </g>
     </g>
    </g>
    <g id="xtick_6">
     <g id="line2d_6">
      <g>
       <use style="stroke:#000000;stroke-width:0.8;" x="383.756061" xlink:href="#m83384b621a" y="389.251812"/>
      </g>
     </g>
     <g id="text_6">
      <!-- 150 -->
      <g transform="translate(371.349186 406.129781)scale(0.13 -0.13)">
       <use xlink:href="#DejaVuSans-49"/>
       <use x="63.623047" xlink:href="#DejaVuSans-53"/>
       <use x="127.246094" xlink:href="#DejaVuSans-48"/>
      </g>
     </g>
    </g>
    <g id="xtick_7">
     <g id="line2d_7">
      <g>
       <use style="stroke:#000000;stroke-width:0.8;" x="430.725758" xlink:href="#m83384b621a" y="389.251812"/>
      </g>
     </g>
     <g id="text_7">
      <!-- 175 -->
      <g transform="translate(418.318883 406.129781)scale(0.13 -0.13)">
       <use xlink:href="#DejaVuSans-49"/>
       <use x="63.623047" xlink:href="#DejaVuSans-55"/>
       <use x="127.246094" xlink:href="#DejaVuSans-53"/>
      </g>
     </g>
    </g>
    <g id="xtick_8">
     <g id="line2d_8">
      <g>
       <use style="stroke:#000000;stroke-width:0.8;" x="477.695455" xlink:href="#m83384b621a" y="389.251812"/>
      </g>
     </g>
     <g id="text_8">
      <!-- 200 -->
      <g transform="translate(465.28858 406.129781)scale(0.13 -0.13)">
       <use xlink:href="#DejaVuSans-50"/>
       <use x="63.623047" xlink:href="#DejaVuSans-48"/>
       <use x="127.246094" xlink:href="#DejaVuSans-48"/>
      </g>
     </g>
    </g>
    <g id="text_9">
     <!-- Number of processed instances [x1000] -->
     <defs>
      <path d="M 9.8125 72.90625 
L 23.09375 72.90625 
L 55.421875 11.921875 
L 55.421875 72.90625 
L 64.984375 72.90625 
L 64.984375 0 
L 51.703125 0 
L 19.390625 60.984375 
L 19.390625 0 
L 9.8125 0 
z
" id="DejaVuSans-78"/>
      <path d="M 8.5 21.578125 
L 8.5 54.6875 
L 17.484375 54.6875 
L 17.484375 21.921875 
Q 17.484375 14.15625 20.5 10.265625 
Q 23.53125 6.390625 29.59375 6.390625 
Q 36.859375 6.390625 41.078125 11.03125 
Q 45.3125 15.671875 45.3125 23.6875 
L 45.3125 54.6875 
L 54.296875 54.6875 
L 54.296875 0 
L 45.3125 0 
L 45.3125 8.40625 
Q 42.046875 3.421875 37.71875 1 
Q 33.40625 -1.421875 27.6875 -1.421875 
Q 18.265625 -1.421875 13.375 4.4375 
Q 8.5 10.296875 8.5 21.578125 
z
M 31.109375 56 
z
" id="DejaVuSans-117"/>
      <path d="M 52 44.1875 
Q 55.375 50.25 60.0625 53.125 
Q 64.75 56 71.09375 56 
Q 79.640625 56 84.28125 50.015625 
Q 88.921875 44.046875 88.921875 33.015625 
L 88.921875 0 
L 79.890625 0 
L 79.890625 32.71875 
Q 79.890625 40.578125 77.09375 44.375 
Q 74.3125 48.1875 68.609375 48.1875 
Q 61.625 48.1875 57.5625 43.546875 
Q 53.515625 38.921875 53.515625 30.90625 
L 53.515625 0 
L 44.484375 0 
L 44.484375 32.71875 
Q 44.484375 40.625 41.703125 44.40625 
Q 38.921875 48.1875 33.109375 48.1875 
Q 26.21875 48.1875 22.15625 43.53125 
Q 18.109375 38.875 18.109375 30.90625 
L 18.109375 0 
L 9.078125 0 
L 9.078125 54.6875 
L 18.109375 54.6875 
L 18.109375 46.1875 
Q 21.1875 51.21875 25.484375 53.609375 
Q 29.78125 56 35.6875 56 
Q 41.65625 56 45.828125 52.96875 
Q 50 49.953125 52 44.1875 
z
" id="DejaVuSans-109"/>
      <path d="M 48.6875 27.296875 
Q 48.6875 37.203125 44.609375 42.84375 
Q 40.53125 48.484375 33.40625 48.484375 
Q 26.265625 48.484375 22.1875 42.84375 
Q 18.109375 37.203125 18.109375 27.296875 
Q 18.109375 17.390625 22.1875 11.75 
Q 26.265625 6.109375 33.40625 6.109375 
Q 40.53125 6.109375 44.609375 11.75 
Q 48.6875 17.390625 48.6875 27.296875 
z
M 18.109375 46.390625 
Q 20.953125 51.265625 25.265625 53.625 
Q 29.59375 56 35.59375 56 
Q 45.5625 56 51.78125 48.09375 
Q 58.015625 40.1875 58.015625 27.296875 
Q 58.015625 14.40625 51.78125 6.484375 
Q 45.5625 -1.421875 35.59375 -1.421875 
Q 29.59375 -1.421875 25.265625 0.953125 
Q 20.953125 3.328125 18.109375 8.203125 
L 18.109375 0 
L 9.078125 0 
L 9.078125 75.984375 
L 18.109375 75.984375 
z
" id="DejaVuSans-98"/>
      <path d="M 56.203125 29.59375 
L 56.203125 25.203125 
L 14.890625 25.203125 
Q 15.484375 15.921875 20.484375 11.0625 
Q 25.484375 6.203125 34.421875 6.203125 
Q 39.59375 6.203125 44.453125 7.46875 
Q 49.3125 8.734375 54.109375 11.28125 
L 54.109375 2.78125 
Q 49.265625 0.734375 44.1875 -0.34375 
Q 39.109375 -1.421875 33.890625 -1.421875 
Q 20.796875 -1.421875 13.15625 6.1875 
Q 5.515625 13.8125 5.515625 26.8125 
Q 5.515625 40.234375 12.765625 48.109375 
Q 20.015625 56 32.328125 56 
Q 43.359375 56 49.78125 48.890625 
Q 56.203125 41.796875 56.203125 29.59375 
z
M 47.21875 32.234375 
Q 47.125 39.59375 43.09375 43.984375 
Q 39.0625 48.390625 32.421875 48.390625 
Q 24.90625 48.390625 20.390625 44.140625 
Q 15.875 39.890625 15.1875 32.171875 
z
" id="DejaVuSans-101"/>
      <path d="M 41.109375 46.296875 
Q 39.59375 47.171875 37.8125 47.578125 
Q 36.03125 48 33.890625 48 
Q 26.265625 48 22.1875 43.046875 
Q 18.109375 38.09375 18.109375 28.8125 
L 18.109375 0 
L 9.078125 0 
L 9.078125 54.6875 
L 18.109375 54.6875 
L 18.109375 46.1875 
Q 20.953125 51.171875 25.484375 53.578125 
Q 30.03125 56 36.53125 56 
Q 37.453125 56 38.578125 55.875 
Q 39.703125 55.765625 41.0625 55.515625 
z
" id="DejaVuSans-114"/>
      <path id="DejaVuSans-32"/>
      <path d="M 30.609375 48.390625 
Q 23.390625 48.390625 19.1875 42.75 
Q 14.984375 37.109375 14.984375 27.296875 
Q 14.984375 17.484375 19.15625 11.84375 
Q 23.34375 6.203125 30.609375 6.203125 
Q 37.796875 6.203125 41.984375 11.859375 
Q 46.1875 17.53125 46.1875 27.296875 
Q 46.1875 37.015625 41.984375 42.703125 
Q 37.796875 48.390625 30.609375 48.390625 
z
M 30.609375 56 
Q 42.328125 56 49.015625 48.375 
Q 55.71875 40.765625 55.71875 27.296875 
Q 55.71875 13.875 49.015625 6.21875 
Q 42.328125 -1.421875 30.609375 -1.421875 
Q 18.84375 -1.421875 12.171875 6.21875 
Q 5.515625 13.875 5.515625 27.296875 
Q 5.515625 40.765625 12.171875 48.375 
Q 18.84375 56 30.609375 56 
z
" id="DejaVuSans-111"/>
      <path d="M 37.109375 75.984375 
L 37.109375 68.5 
L 28.515625 68.5 
Q 23.6875 68.5 21.796875 66.546875 
Q 19.921875 64.59375 19.921875 59.515625 
L 19.921875 54.6875 
L 34.71875 54.6875 
L 34.71875 47.703125 
L 19.921875 47.703125 
L 19.921875 0 
L 10.890625 0 
L 10.890625 47.703125 
L 2.296875 47.703125 
L 2.296875 54.6875 
L 10.890625 54.6875 
L 10.890625 58.5 
Q 10.890625 67.625 15.140625 71.796875 
Q 19.390625 75.984375 28.609375 75.984375 
z
" id="DejaVuSans-102"/>
      <path d="M 18.109375 8.203125 
L 18.109375 -20.796875 
L 9.078125 -20.796875 
L 9.078125 54.6875 
L 18.109375 54.6875 
L 18.109375 46.390625 
Q 20.953125 51.265625 25.265625 53.625 
Q 29.59375 56 35.59375 56 
Q 45.5625 56 51.78125 48.09375 
Q 58.015625 40.1875 58.015625 27.296875 
Q 58.015625 14.40625 51.78125 6.484375 
Q 45.5625 -1.421875 35.59375 -1.421875 
Q 29.59375 -1.421875 25.265625 0.953125 
Q 20.953125 3.328125 18.109375 8.203125 
z
M 48.6875 27.296875 
Q 48.6875 37.203125 44.609375 42.84375 
Q 40.53125 48.484375 33.40625 48.484375 
Q 26.265625 48.484375 22.1875 42.84375 
Q 18.109375 37.203125 18.109375 27.296875 
Q 18.109375 17.390625 22.1875 11.75 
Q 26.265625 6.109375 33.40625 6.109375 
Q 40.53125 6.109375 44.609375 11.75 
Q 48.6875 17.390625 48.6875 27.296875 
z
" id="DejaVuSans-112"/>
      <path d="M 48.78125 52.59375 
L 48.78125 44.1875 
Q 44.96875 46.296875 41.140625 47.34375 
Q 37.3125 48.390625 33.40625 48.390625 
Q 24.65625 48.390625 19.8125 42.84375 
Q 14.984375 37.3125 14.984375 27.296875 
Q 14.984375 17.28125 19.8125 11.734375 
Q 24.65625 6.203125 33.40625 6.203125 
Q 37.3125 6.203125 41.140625 7.25 
Q 44.96875 8.296875 48.78125 10.40625 
L 48.78125 2.09375 
Q 45.015625 0.34375 40.984375 -0.53125 
Q 36.96875 -1.421875 32.421875 -1.421875 
Q 20.0625 -1.421875 12.78125 6.34375 
Q 5.515625 14.109375 5.515625 27.296875 
Q 5.515625 40.671875 12.859375 48.328125 
Q 20.21875 56 33.015625 56 
Q 37.15625 56 41.109375 55.140625 
Q 45.0625 54.296875 48.78125 52.59375 
z
" id="DejaVuSans-99"/>
      <path d="M 44.28125 53.078125 
L 44.28125 44.578125 
Q 40.484375 46.53125 36.375 47.5 
Q 32.28125 48.484375 27.875 48.484375 
Q 21.1875 48.484375 17.84375 46.4375 
Q 14.5 44.390625 14.5 40.28125 
Q 14.5 37.15625 16.890625 35.375 
Q 19.28125 33.59375 26.515625 31.984375 
L 29.59375 31.296875 
Q 39.15625 29.25 43.1875 25.515625 
Q 47.21875 21.78125 47.21875 15.09375 
Q 47.21875 7.46875 41.1875 3.015625 
Q 35.15625 -1.421875 24.609375 -1.421875 
Q 20.21875 -1.421875 15.453125 -0.5625 
Q 10.6875 0.296875 5.421875 2 
L 5.421875 11.28125 
Q 10.40625 8.6875 15.234375 7.390625 
Q 20.0625 6.109375 24.8125 6.109375 
Q 31.15625 6.109375 34.5625 8.28125 
Q 37.984375 10.453125 37.984375 14.40625 
Q 37.984375 18.0625 35.515625 20.015625 
Q 33.0625 21.96875 24.703125 23.78125 
L 21.578125 24.515625 
Q 13.234375 26.265625 9.515625 29.90625 
Q 5.8125 33.546875 5.8125 39.890625 
Q 5.8125 47.609375 11.28125 51.796875 
Q 16.75 56 26.8125 56 
Q 31.78125 56 36.171875 55.265625 
Q 40.578125 54.546875 44.28125 53.078125 
z
" id="DejaVuSans-115"/>
      <path d="M 45.40625 46.390625 
L 45.40625 75.984375 
L 54.390625 75.984375 
L 54.390625 0 
L 45.40625 0 
L 45.40625 8.203125 
Q 42.578125 3.328125 38.25 0.953125 
Q 33.9375 -1.421875 27.875 -1.421875 
Q 17.96875 -1.421875 11.734375 6.484375 
Q 5.515625 14.40625 5.515625 27.296875 
Q 5.515625 40.1875 11.734375 48.09375 
Q 17.96875 56 27.875 56 
Q 33.9375 56 38.25 53.625 
Q 42.578125 51.265625 45.40625 46.390625 
z
M 14.796875 27.296875 
Q 14.796875 17.390625 18.875 11.75 
Q 22.953125 6.109375 30.078125 6.109375 
Q 37.203125 6.109375 41.296875 11.75 
Q 45.40625 17.390625 45.40625 27.296875 
Q 45.40625 37.203125 41.296875 42.84375 
Q 37.203125 48.484375 30.078125 48.484375 
Q 22.953125 48.484375 18.875 42.84375 
Q 14.796875 37.203125 14.796875 27.296875 
z
" id="DejaVuSans-100"/>
      <path d="M 9.421875 54.6875 
L 18.40625 54.6875 
L 18.40625 0 
L 9.421875 0 
z
M 9.421875 75.984375 
L 18.40625 75.984375 
L 18.40625 64.59375 
L 9.421875 64.59375 
z
" id="DejaVuSans-105"/>
      <path d="M 54.890625 33.015625 
L 54.890625 0 
L 45.90625 0 
L 45.90625 32.71875 
Q 45.90625 40.484375 42.875 44.328125 
Q 39.84375 48.1875 33.796875 48.1875 
Q 26.515625 48.1875 22.3125 43.546875 
Q 18.109375 38.921875 18.109375 30.90625 
L 18.109375 0 
L 9.078125 0 
L 9.078125 54.6875 
L 18.109375 54.6875 
L 18.109375 46.1875 
Q 21.34375 51.125 25.703125 53.5625 
Q 30.078125 56 35.796875 56 
Q 45.21875 56 50.046875 50.171875 
Q 54.890625 44.34375 54.890625 33.015625 
z
" id="DejaVuSans-110"/>
      <path d="M 18.3125 70.21875 
L 18.3125 54.6875 
L 36.8125 54.6875 
L 36.8125 47.703125 
L 18.3125 47.703125 
L 18.3125 18.015625 
Q 18.3125 11.328125 20.140625 9.421875 
Q 21.96875 7.515625 27.59375 7.515625 
L 36.8125 7.515625 
L 36.8125 0 
L 27.59375 0 
Q 17.1875 0 13.234375 3.875 
Q 9.28125 7.765625 9.28125 18.015625 
L 9.28125 47.703125 
L 2.6875 47.703125 
L 2.6875 54.6875 
L 9.28125 54.6875 
L 9.28125 70.21875 
z
" id="DejaVuSans-116"/>
      <path d="M 34.28125 27.484375 
Q 23.390625 27.484375 19.1875 25 
Q 14.984375 22.515625 14.984375 16.5 
Q 14.984375 11.71875 18.140625 8.90625 
Q 21.296875 6.109375 26.703125 6.109375 
Q 34.1875 6.109375 38.703125 11.40625 
Q 43.21875 16.703125 43.21875 25.484375 
L 43.21875 27.484375 
z
M 52.203125 31.203125 
L 52.203125 0 
L 43.21875 0 
L 43.21875 8.296875 
Q 40.140625 3.328125 35.546875 0.953125 
Q 30.953125 -1.421875 24.3125 -1.421875 
Q 15.921875 -1.421875 10.953125 3.296875 
Q 6 8.015625 6 15.921875 
Q 6 25.140625 12.171875 29.828125 
Q 18.359375 34.515625 30.609375 34.515625 
L 43.21875 34.515625 
L 43.21875 35.40625 
Q 43.21875 41.609375 39.140625 45 
Q 35.0625 48.390625 27.6875 48.390625 
Q 23 48.390625 18.546875 47.265625 
Q 14.109375 46.140625 10.015625 43.890625 
L 10.015625 52.203125 
Q 14.9375 54.109375 19.578125 55.046875 
Q 24.21875 56 28.609375 56 
Q 40.484375 56 46.34375 49.84375 
Q 52.203125 43.703125 52.203125 31.203125 
z
" id="DejaVuSans-97"/>
      <path d="M 8.59375 75.984375 
L 29.296875 75.984375 
L 29.296875 69 
L 17.578125 69 
L 17.578125 -6.203125 
L 29.296875 -6.203125 
L 29.296875 -13.1875 
L 8.59375 -13.1875 
z
" id="DejaVuSans-91"/>
      <path d="M 54.890625 54.6875 
L 35.109375 28.078125 
L 55.90625 0 
L 45.3125 0 
L 29.390625 21.484375 
L 13.484375 0 
L 2.875 0 
L 24.125 28.609375 
L 4.6875 54.6875 
L 15.28125 54.6875 
L 29.78125 35.203125 
L 44.28125 54.6875 
z
" id="DejaVuSans-120"/>
      <path d="M 30.421875 75.984375 
L 30.421875 -13.1875 
L 9.71875 -13.1875 
L 9.71875 -6.203125 
L 21.390625 -6.203125 
L 21.390625 69 
L 9.71875 69 
L 9.71875 75.984375 
z
" id="DejaVuSans-93"/>
     </defs>
     <g transform="translate(169.880859 422.711344)scale(0.13 -0.13)">
      <use xlink:href="#DejaVuSans-78"/>
      <use x="74.804688" xlink:href="#DejaVuSans-117"/>
      <use x="138.183594" xlink:href="#DejaVuSans-109"/>
      <use x="235.595703" xlink:href="#DejaVuSans-98"/>
      <use x="299.072266" xlink:href="#DejaVuSans-101"/>
      <use x="360.595703" xlink:href="#DejaVuSans-114"/>
      <use x="401.708984" xlink:href="#DejaVuSans-32"/>
      <use x="433.496094" xlink:href="#DejaVuSans-111"/>
      <use x="494.677734" xlink:href="#DejaVuSans-102"/>
      <use x="529.882812" xlink:href="#DejaVuSans-32"/>
      <use x="561.669922" xlink:href="#DejaVuSans-112"/>
      <use x="625.146484" xlink:href="#DejaVuSans-114"/>
      <use x="666.228516" xlink:href="#DejaVuSans-111"/>
      <use x="727.410156" xlink:href="#DejaVuSans-99"/>
      <use x="782.390625" xlink:href="#DejaVuSans-101"/>
      <use x="843.914062" xlink:href="#DejaVuSans-115"/>
      <use x="896.013672" xlink:href="#DejaVuSans-115"/>
      <use x="948.113281" xlink:href="#DejaVuSans-101"/>
      <use x="1009.636719" xlink:href="#DejaVuSans-100"/>
      <use x="1073.113281" xlink:href="#DejaVuSans-32"/>
      <use x="1104.900391" xlink:href="#DejaVuSans-105"/>
      <use x="1132.683594" xlink:href="#DejaVuSans-110"/>
      <use x="1196.0625" xlink:href="#DejaVuSans-115"/>
      <use x="1248.162109" xlink:href="#DejaVuSans-116"/>
      <use x="1287.371094" xlink:href="#DejaVuSans-97"/>
      <use x="1348.650391" xlink:href="#DejaVuSans-110"/>
      <use x="1412.029297" xlink:href="#DejaVuSans-99"/>
      <use x="1467.009766" xlink:href="#DejaVuSans-101"/>
      <use x="1528.533203" xlink:href="#DejaVuSans-115"/>
      <use x="1580.632812" xlink:href="#DejaVuSans-32"/>
      <use x="1612.419922" xlink:href="#DejaVuSans-91"/>
      <use x="1651.433594" xlink:href="#DejaVuSans-120"/>
      <use x="1710.613281" xlink:href="#DejaVuSans-49"/>
      <use x="1774.236328" xlink:href="#DejaVuSans-48"/>
      <use x="1837.859375" xlink:href="#DejaVuSans-48"/>
      <use x="1901.482422" xlink:href="#DejaVuSans-48"/>
      <use x="1965.105469" xlink:href="#DejaVuSans-93"/>
     </g>
    </g>
   </g>
   <g id="matplotlib.axis_2">
    <g id="ytick_1">
     <g id="line2d_9">
      <defs>
       <path d="M 0 0 
L -3.5 0 
" id="m05e8258533" style="stroke:#000000;stroke-width:0.8;"/>
      </defs>
      <g>
       <use style="stroke:#000000;stroke-width:0.8;" x="104.85" xlink:href="#m05e8258533" y="364.298853"/>
      </g>
     </g>
     <g id="text_10">
      <!-- 0.70 -->
      <defs>
       <path d="M 10.6875 12.40625 
L 21 12.40625 
L 21 0 
L 10.6875 0 
z
" id="DejaVuSans-46"/>
      </defs>
      <g transform="translate(68.904687 369.237837)scale(0.13 -0.13)">
       <use xlink:href="#DejaVuSans-48"/>
       <use x="63.623047" xlink:href="#DejaVuSans-46"/>
       <use x="95.410156" xlink:href="#DejaVuSans-55"/>
       <use x="159.033203" xlink:href="#DejaVuSans-48"/>
      </g>
     </g>
    </g>
    <g id="ytick_2">
     <g id="line2d_10">
      <g>
       <use style="stroke:#000000;stroke-width:0.8;" x="104.85" xlink:href="#m05e8258533" y="323.067547"/>
      </g>
     </g>
     <g id="text_11">
      <!-- 0.75 -->
      <g transform="translate(68.904687 328.006531)scale(0.13 -0.13)">
       <use xlink:href="#DejaVuSans-48"/>
       <use x="63.623047" xlink:href="#DejaVuSans-46"/>
       <use x="95.410156" xlink:href="#DejaVuSans-55"/>
       <use x="159.033203" xlink:href="#DejaVuSans-53"/>
      </g>
     </g>
    </g>
    <g id="ytick_3">
     <g id="line2d_11">
      <g>
       <use style="stroke:#000000;stroke-width:0.8;" x="104.85" xlink:href="#m05e8258533" y="281.836242"/>
      </g>
     </g>
     <g id="text_12">
      <!-- 0.80 -->
      <defs>
       <path d="M 31.78125 34.625 
Q 24.75 34.625 20.71875 30.859375 
Q 16.703125 27.09375 16.703125 20.515625 
Q 16.703125 13.921875 20.71875 10.15625 
Q 24.75 6.390625 31.78125 6.390625 
Q 38.8125 6.390625 42.859375 10.171875 
Q 46.921875 13.96875 46.921875 20.515625 
Q 46.921875 27.09375 42.890625 30.859375 
Q 38.875 34.625 31.78125 34.625 
z
M 21.921875 38.8125 
Q 15.578125 40.375 12.03125 44.71875 
Q 8.5 49.078125 8.5 55.328125 
Q 8.5 64.0625 14.71875 69.140625 
Q 20.953125 74.21875 31.78125 74.21875 
Q 42.671875 74.21875 48.875 69.140625 
Q 55.078125 64.0625 55.078125 55.328125 
Q 55.078125 49.078125 51.53125 44.71875 
Q 48 40.375 41.703125 38.8125 
Q 48.828125 37.15625 52.796875 32.3125 
Q 56.78125 27.484375 56.78125 20.515625 
Q 56.78125 9.90625 50.3125 4.234375 
Q 43.84375 -1.421875 31.78125 -1.421875 
Q 19.734375 -1.421875 13.25 4.234375 
Q 6.78125 9.90625 6.78125 20.515625 
Q 6.78125 27.484375 10.78125 32.3125 
Q 14.796875 37.15625 21.921875 38.8125 
z
M 18.3125 54.390625 
Q 18.3125 48.734375 21.84375 45.5625 
Q 25.390625 42.390625 31.78125 42.390625 
Q 38.140625 42.390625 41.71875 45.5625 
Q 45.3125 48.734375 45.3125 54.390625 
Q 45.3125 60.0625 41.71875 63.234375 
Q 38.140625 66.40625 31.78125 66.40625 
Q 25.390625 66.40625 21.84375 63.234375 
Q 18.3125 60.0625 18.3125 54.390625 
z
" id="DejaVuSans-56"/>
      </defs>
      <g transform="translate(68.904687 286.775226)scale(0.13 -0.13)">
       <use xlink:href="#DejaVuSans-48"/>
       <use x="63.623047" xlink:href="#DejaVuSans-46"/>
       <use x="95.410156" xlink:href="#DejaVuSans-56"/>
       <use x="159.033203" xlink:href="#DejaVuSans-48"/>
      </g>
     </g>
    </g>
    <g id="ytick_4">
     <g id="line2d_12">
      <g>
       <use style="stroke:#000000;stroke-width:0.8;" x="104.85" xlink:href="#m05e8258533" y="240.604936"/>
      </g>
     </g>
     <g id="text_13">
      <!-- 0.85 -->
      <g transform="translate(68.904687 245.543921)scale(0.13 -0.13)">
       <use xlink:href="#DejaVuSans-48"/>
       <use x="63.623047" xlink:href="#DejaVuSans-46"/>
       <use x="95.410156" xlink:href="#DejaVuSans-56"/>
       <use x="159.033203" xlink:href="#DejaVuSans-53"/>
      </g>
     </g>
    </g>
    <g id="ytick_5">
     <g id="line2d_13">
      <g>
       <use style="stroke:#000000;stroke-width:0.8;" x="104.85" xlink:href="#m05e8258533" y="199.373631"/>
      </g>
     </g>
     <g id="text_14">
      <!-- 0.90 -->
      <defs>
       <path d="M 10.984375 1.515625 
L 10.984375 10.5 
Q 14.703125 8.734375 18.5 7.8125 
Q 22.3125 6.890625 25.984375 6.890625 
Q 35.75 6.890625 40.890625 13.453125 
Q 46.046875 20.015625 46.78125 33.40625 
Q 43.953125 29.203125 39.59375 26.953125 
Q 35.25 24.703125 29.984375 24.703125 
Q 19.046875 24.703125 12.671875 31.3125 
Q 6.296875 37.9375 6.296875 49.421875 
Q 6.296875 60.640625 12.9375 67.421875 
Q 19.578125 74.21875 30.609375 74.21875 
Q 43.265625 74.21875 49.921875 64.515625 
Q 56.59375 54.828125 56.59375 36.375 
Q 56.59375 19.140625 48.40625 8.859375 
Q 40.234375 -1.421875 26.421875 -1.421875 
Q 22.703125 -1.421875 18.890625 -0.6875 
Q 15.09375 0.046875 10.984375 1.515625 
z
M 30.609375 32.421875 
Q 37.25 32.421875 41.125 36.953125 
Q 45.015625 41.5 45.015625 49.421875 
Q 45.015625 57.28125 41.125 61.84375 
Q 37.25 66.40625 30.609375 66.40625 
Q 23.96875 66.40625 20.09375 61.84375 
Q 16.21875 57.28125 16.21875 49.421875 
Q 16.21875 41.5 20.09375 36.953125 
Q 23.96875 32.421875 30.609375 32.421875 
z
" id="DejaVuSans-57"/>
      </defs>
      <g transform="translate(68.904687 204.312615)scale(0.13 -0.13)">
       <use xlink:href="#DejaVuSans-48"/>
       <use x="63.623047" xlink:href="#DejaVuSans-46"/>
       <use x="95.410156" xlink:href="#DejaVuSans-57"/>
       <use x="159.033203" xlink:href="#DejaVuSans-48"/>
      </g>
     </g>
    </g>
    <g id="ytick_6">
     <g id="line2d_14">
      <g>
       <use style="stroke:#000000;stroke-width:0.8;" x="104.85" xlink:href="#m05e8258533" y="158.142325"/>
      </g>
     </g>
     <g id="text_15">
      <!-- 0.95 -->
      <g transform="translate(68.904687 163.08131)scale(0.13 -0.13)">
       <use xlink:href="#DejaVuSans-48"/>
       <use x="63.623047" xlink:href="#DejaVuSans-46"/>
       <use x="95.410156" xlink:href="#DejaVuSans-57"/>
       <use x="159.033203" xlink:href="#DejaVuSans-53"/>
      </g>
     </g>
    </g>
    <g id="ytick_7">
     <g id="line2d_15">
      <g>
       <use style="stroke:#000000;stroke-width:0.8;" x="104.85" xlink:href="#m05e8258533" y="116.91102"/>
      </g>
     </g>
     <g id="text_16">
      <!-- 1.00 -->
      <g transform="translate(68.904687 121.850004)scale(0.13 -0.13)">
       <use xlink:href="#DejaVuSans-49"/>
       <use x="63.623047" xlink:href="#DejaVuSans-46"/>
       <use x="95.410156" xlink:href="#DejaVuSans-48"/>
       <use x="159.033203" xlink:href="#DejaVuSans-48"/>
      </g>
     </g>
    </g>
    <g id="text_17">
     <!-- G-Mean -->
     <defs>
      <path d="M 59.515625 10.40625 
L 59.515625 29.984375 
L 43.40625 29.984375 
L 43.40625 38.09375 
L 69.28125 38.09375 
L 69.28125 6.78125 
Q 63.578125 2.734375 56.6875 0.65625 
Q 49.8125 -1.421875 42 -1.421875 
Q 24.90625 -1.421875 15.25 8.5625 
Q 5.609375 18.5625 5.609375 36.375 
Q 5.609375 54.25 15.25 64.234375 
Q 24.90625 74.21875 42 74.21875 
Q 49.125 74.21875 55.546875 72.453125 
Q 61.96875 70.703125 67.390625 67.28125 
L 67.390625 56.78125 
Q 61.921875 61.421875 55.765625 63.765625 
Q 49.609375 66.109375 42.828125 66.109375 
Q 29.4375 66.109375 22.71875 58.640625 
Q 16.015625 51.171875 16.015625 36.375 
Q 16.015625 21.625 22.71875 14.15625 
Q 29.4375 6.6875 42.828125 6.6875 
Q 48.046875 6.6875 52.140625 7.59375 
Q 56.25 8.5 59.515625 10.40625 
z
" id="DejaVuSans-71"/>
      <path d="M 4.890625 31.390625 
L 31.203125 31.390625 
L 31.203125 23.390625 
L 4.890625 23.390625 
z
" id="DejaVuSans-45"/>
      <path d="M 9.8125 72.90625 
L 24.515625 72.90625 
L 43.109375 23.296875 
L 61.8125 72.90625 
L 76.515625 72.90625 
L 76.515625 0 
L 66.890625 0 
L 66.890625 64.015625 
L 48.09375 14.015625 
L 38.1875 14.015625 
L 19.390625 64.015625 
L 19.390625 0 
L 9.8125 0 
z
" id="DejaVuSans-77"/>
     </defs>
     <g transform="translate(62.201094 275.743844)rotate(-90)scale(0.13 -0.13)">
      <use xlink:href="#DejaVuSans-71"/>
      <use x="77.490234" xlink:href="#DejaVuSans-45"/>
      <use x="113.574219" xlink:href="#DejaVuSans-77"/>
      <use x="199.853516" xlink:href="#DejaVuSans-101"/>
      <use x="261.376953" xlink:href="#DejaVuSans-97"/>
      <use x="322.65625" xlink:href="#DejaVuSans-110"/>
     </g>
    </g>
   </g>
   <g id="line2d_16"/>
   <g id="line2d_17"/>
   <g id="line2d_18"/>
   <g id="line2d_19"/>
   <g id="line2d_20"/>
   <g id="line2d_21">
    <path clip-path="url(#p700b1dc684)" d="M 122.604545 148.754841 
L 124.483333 143.309108 
L 126.362121 142.245375 
L 128.240909 143.090701 
L 130.119697 143.597897 
L 131.998485 143.454642 
L 133.877273 144.183631 
L 135.756061 144.703358 
L 137.634848 144.672947 
L 139.513636 144.438944 
L 143.271212 145.200045 
L 145.15 144.827106 
L 147.028788 144.98777 
L 148.907576 144.863657 
L 152.665152 145.098862 
L 154.543939 144.89611 
L 156.422727 145.093124 
L 158.301515 145.086857 
L 160.180303 144.906881 
L 162.059091 145.263694 
L 163.937879 145.476175 
L 167.695455 145.5344 
L 169.574242 145.630135 
L 171.45303 145.449057 
L 173.331818 145.028622 
L 175.210606 144.984215 
L 177.089394 145.294168 
L 178.968182 144.930118 
L 180.84697 144.81885 
L 182.725758 145.271752 
L 186.483333 145.56703 
L 188.362121 145.257319 
L 190.240909 145.195746 
L 192.119697 145.378063 
L 193.998485 145.109883 
L 195.877273 145.244748 
L 197.756061 145.224213 
L 205.271212 144.271393 
L 207.15 144.377325 
L 210.907576 145.011019 
L 212.786364 145.019583 
L 214.665152 144.686475 
L 216.543939 144.884106 
L 218.422727 144.730957 
L 224.059091 144.628118 
L 225.937879 144.88445 
L 231.574242 145.040617 
L 235.331818 144.93712 
L 239.089394 144.951142 
L 240.968182 145.248177 
L 242.84697 145.929179 
L 244.725758 146.136422 
L 246.604545 148.036238 
L 248.483333 152.247627 
L 250.362121 156.090643 
L 252.240909 164.107371 
L 254.119697 170.618595 
L 255.998485 173.401973 
L 263.513636 180.278534 
L 265.392424 181.79466 
L 267.271212 183.856536 
L 269.15 185.404424 
L 272.907576 188.74167 
L 274.786364 190.853395 
L 276.665152 192.647998 
L 278.543939 193.967971 
L 280.422727 195.018904 
L 282.301515 196.276032 
L 284.180303 196.117003 
L 286.059091 193.618826 
L 287.937879 191.937442 
L 289.816667 185.99729 
L 291.695455 180.836714 
L 293.574242 179.451161 
L 295.45303 179.319936 
L 299.210606 177.851691 
L 301.089394 177.159555 
L 304.84697 175.280981 
L 306.725758 175.05458 
L 308.604545 174.608023 
L 310.483333 174.309933 
L 312.362121 173.520752 
L 316.119697 173.240222 
L 317.998485 172.970708 
L 319.877273 172.346578 
L 321.756061 171.203037 
L 323.634848 170.553885 
L 325.513636 170.19432 
L 327.392424 169.096392 
L 329.271212 169.498651 
L 333.028788 168.770003 
L 334.907576 168.516817 
L 336.786364 168.00714 
L 338.665152 168.398722 
L 340.543939 169.170074 
L 342.422727 169.065097 
L 344.301515 169.578578 
L 349.937879 169.429618 
L 351.816667 169.236245 
L 353.695455 168.833184 
L 355.574242 168.757835 
L 361.210606 169.238611 
L 363.089394 168.346741 
L 364.968182 168.516234 
L 366.84697 168.165413 
L 368.725758 168.266887 
L 370.604545 168.086746 
L 372.483333 168.729018 
L 374.362121 169.197423 
L 378.119697 168.937769 
L 379.998485 169.648015 
L 381.877273 168.844415 
L 383.756061 168.42816 
L 387.513636 168.922993 
L 389.392424 169.023597 
L 391.271212 169.932181 
L 395.028788 170.879732 
L 396.907576 171.073093 
L 398.786364 170.768898 
L 400.665152 170.636885 
L 402.543939 170.706395 
L 404.422727 170.323059 
L 406.301515 170.199985 
L 408.180303 170.576043 
L 410.059091 170.33702 
L 411.937879 170.540254 
L 417.574242 169.770647 
L 419.45303 169.812401 
L 421.331818 170.028489 
L 423.210606 169.925164 
L 428.84697 170.037583 
L 430.725758 169.54549 
L 434.483333 169.1692 
L 436.362121 170.109052 
L 438.240909 170.482121 
L 440.119697 170.309637 
L 443.877273 171.358616 
L 445.756061 170.76778 
L 447.634848 170.826264 
L 451.392424 171.375668 
L 453.271212 171.65743 
L 455.15 171.142838 
L 457.028788 171.183929 
L 458.907576 171.424312 
L 460.786364 170.951113 
L 462.665152 171.146551 
L 464.543939 170.83638 
L 466.422727 170.221032 
L 468.301515 170.024815 
L 470.180303 170.187914 
L 472.059091 170.009862 
L 473.937879 169.152228 
L 477.695455 168.939301 
L 477.695455 168.939301 
" style="fill:none;stroke:#cc3311;stroke-linecap:square;stroke-width:0.5;"/>
    <defs>
     <path d="M 0 2.5 
C 0.663008 2.5 1.29895 2.236584 1.767767 1.767767 
C 2.236584 1.29895 2.5 0.663008 2.5 0 
C 2.5 -0.663008 2.236584 -1.29895 1.767767 -1.767767 
C 1.29895 -2.236584 0.663008 -2.5 0 -2.5 
C -0.663008 -2.5 -1.29895 -2.236584 -1.767767 -1.767767 
C -2.236584 -1.29895 -2.5 -0.663008 -2.5 0 
C -2.5 0.663008 -2.236584 1.29895 -1.767767 1.767767 
C -1.29895 2.236584 -0.663008 2.5 0 2.5 
z
" id="mfcde421789" style="stroke:#cc3311;"/>
    </defs>
    <g clip-path="url(#p700b1dc684)">
     <use style="fill:#cc3311;stroke:#cc3311;" x="122.604545" xlink:href="#mfcde421789" y="148.754841"/>
     <use style="fill:#cc3311;stroke:#cc3311;" x="141.392424" xlink:href="#mfcde421789" y="144.824071"/>
     <use style="fill:#cc3311;stroke:#cc3311;" x="160.180303" xlink:href="#mfcde421789" y="144.906881"/>
     <use style="fill:#cc3311;stroke:#cc3311;" x="178.968182" xlink:href="#mfcde421789" y="144.930118"/>
     <use style="fill:#cc3311;stroke:#cc3311;" x="197.756061" xlink:href="#mfcde421789" y="145.224213"/>
     <use style="fill:#cc3311;stroke:#cc3311;" x="216.543939" xlink:href="#mfcde421789" y="144.884106"/>
     <use style="fill:#cc3311;stroke:#cc3311;" x="235.331818" xlink:href="#mfcde421789" y="144.93712"/>
     <use style="fill:#cc3311;stroke:#cc3311;" x="254.119697" xlink:href="#mfcde421789" y="170.618595"/>
     <use style="fill:#cc3311;stroke:#cc3311;" x="272.907576" xlink:href="#mfcde421789" y="188.74167"/>
     <use style="fill:#cc3311;stroke:#cc3311;" x="291.695455" xlink:href="#mfcde421789" y="180.836714"/>
     <use style="fill:#cc3311;stroke:#cc3311;" x="310.483333" xlink:href="#mfcde421789" y="174.309933"/>
     <use style="fill:#cc3311;stroke:#cc3311;" x="329.271212" xlink:href="#mfcde421789" y="169.498651"/>
     <use style="fill:#cc3311;stroke:#cc3311;" x="348.059091" xlink:href="#mfcde421789" y="169.467836"/>
     <use style="fill:#cc3311;stroke:#cc3311;" x="366.84697" xlink:href="#mfcde421789" y="168.165413"/>
     <use style="fill:#cc3311;stroke:#cc3311;" x="385.634848" xlink:href="#mfcde421789" y="168.720681"/>
     <use style="fill:#cc3311;stroke:#cc3311;" x="404.422727" xlink:href="#mfcde421789" y="170.323059"/>
     <use style="fill:#cc3311;stroke:#cc3311;" x="423.210606" xlink:href="#mfcde421789" y="169.925164"/>
     <use style="fill:#cc3311;stroke:#cc3311;" x="441.998485" xlink:href="#mfcde421789" y="170.87528"/>
     <use style="fill:#cc3311;stroke:#cc3311;" x="460.786364" xlink:href="#mfcde421789" y="170.951113"/>
    </g>
   </g>
   <g id="line2d_22"/>
   <g id="line2d_23"/>
   <g id="line2d_24"/>
   <g id="line2d_25"/>
   <g id="line2d_26">
    <path clip-path="url(#p700b1dc684)" d="M 122.604545 141.132164 
L 124.483333 136.605948 
L 126.362121 136.442563 
L 128.240909 137.169731 
L 130.119697 135.04058 
L 131.998485 133.257189 
L 133.877273 132.521242 
L 135.756061 132.218073 
L 137.634848 131.49069 
L 139.513636 130.926447 
L 143.271212 131.170115 
L 145.15 130.844722 
L 147.028788 131.316026 
L 148.907576 130.694573 
L 150.786364 130.531718 
L 152.665152 130.058627 
L 156.422727 129.625176 
L 158.301515 129.821453 
L 160.180303 129.277122 
L 162.059091 129.131642 
L 163.937879 128.677191 
L 165.816667 127.855384 
L 169.574242 127.808227 
L 171.45303 127.548033 
L 175.210606 127.309073 
L 178.968182 126.802499 
L 180.84697 126.92083 
L 182.725758 126.813725 
L 184.604545 126.223986 
L 186.483333 126.563747 
L 188.362121 126.18689 
L 190.240909 126.346504 
L 192.119697 126.736959 
L 193.998485 126.719045 
L 199.634848 125.537356 
L 201.513636 125.192046 
L 203.392424 125.568132 
L 205.271212 125.684382 
L 207.15 125.502828 
L 209.028788 125.596313 
L 210.907576 125.406422 
L 212.786364 125.777772 
L 214.665152 125.827066 
L 216.543939 125.634393 
L 218.422727 125.292413 
L 220.301515 125.174482 
L 224.059091 124.651813 
L 229.695455 124.891679 
L 231.574242 124.653356 
L 235.331818 124.891758 
L 239.089394 126.719198 
L 240.968182 130.588108 
L 242.84697 134.721311 
L 244.725758 141.768746 
L 246.604545 147.98649 
L 250.362121 163.2127 
L 252.240909 168.885574 
L 254.119697 175.980476 
L 255.998485 181.206998 
L 257.877273 185.470769 
L 259.756061 190.821002 
L 261.634848 196.727725 
L 263.513636 200.799372 
L 265.392424 205.249738 
L 267.271212 207.349755 
L 271.028788 211.975911 
L 272.907576 215.167343 
L 274.786364 217.590891 
L 276.665152 218.743286 
L 280.422727 217.238894 
L 284.180303 208.860316 
L 286.059091 203.962946 
L 287.937879 200.536294 
L 289.816667 199.78053 
L 291.695455 195.983203 
L 293.574242 193.723293 
L 295.45303 192.956572 
L 297.331818 190.196262 
L 299.210606 186.77797 
L 301.089394 185.226609 
L 302.968182 183.035333 
L 306.725758 183.955689 
L 308.604545 183.683888 
L 310.483333 182.032979 
L 312.362121 181.091077 
L 314.240909 181.82255 
L 316.119697 180.696012 
L 317.998485 178.006868 
L 319.877273 177.119319 
L 321.756061 176.626446 
L 323.634848 175.708648 
L 325.513636 172.819042 
L 327.392424 168.895378 
L 329.271212 167.138169 
L 333.028788 162.403485 
L 334.907576 162.01725 
L 336.786364 160.729655 
L 340.543939 157.814207 
L 342.422727 156.088241 
L 344.301515 155.265827 
L 346.180303 154.10476 
L 348.059091 153.469237 
L 349.937879 152.236602 
L 351.816667 150.757691 
L 353.695455 149.436745 
L 355.574242 149.411891 
L 357.45303 148.58345 
L 359.331818 148.968075 
L 361.210606 147.837155 
L 363.089394 147.402135 
L 366.84697 147.389643 
L 368.725758 147.821296 
L 376.240909 147.526704 
L 378.119697 147.671431 
L 379.998485 147.219376 
L 381.877273 146.248434 
L 383.756061 146.535256 
L 385.634848 146.504534 
L 387.513636 146.769062 
L 389.392424 147.542062 
L 391.271212 147.410223 
L 393.15 147.520314 
L 395.028788 148.374953 
L 396.907576 147.240507 
L 398.786364 147.469723 
L 402.543939 147.069152 
L 406.301515 146.95965 
L 408.180303 147.566402 
L 410.059091 146.357334 
L 411.937879 146.246349 
L 413.816667 146.478801 
L 415.695455 145.931298 
L 417.574242 145.891854 
L 419.45303 146.293828 
L 421.331818 146.233537 
L 423.210606 146.623108 
L 425.089394 146.277959 
L 426.968182 145.135468 
L 428.84697 145.253764 
L 432.604545 143.848908 
L 434.483333 144.625975 
L 438.240909 144.215487 
L 440.119697 144.671807 
L 441.998485 144.020675 
L 443.877273 144.575121 
L 445.756061 143.791915 
L 447.634848 143.591267 
L 449.513636 144.055905 
L 451.392424 143.732826 
L 455.15 143.660689 
L 457.028788 143.345469 
L 458.907576 142.783759 
L 460.786364 141.687707 
L 464.543939 141.793257 
L 466.422727 141.557584 
L 468.301515 141.474473 
L 470.180303 141.245294 
L 472.059091 140.022899 
L 473.937879 139.875246 
L 475.816667 140.068285 
L 477.695455 139.382855 
L 477.695455 139.382855 
" style="fill:none;stroke:#009988;stroke-dasharray:1.85,0.8;stroke-dashoffset:0;stroke-width:0.5;"/>
    <defs>
     <path d="M -2.5 2.5 
L 2.5 2.5 
L 2.5 -2.5 
L -2.5 -2.5 
z
" id="m8adf6fe485" style="stroke:#009988;stroke-linejoin:miter;"/>
    </defs>
    <g clip-path="url(#p700b1dc684)">
     <use style="fill:#009988;stroke:#009988;stroke-linejoin:miter;" x="122.604545" xlink:href="#m8adf6fe485" y="141.132164"/>
     <use style="fill:#009988;stroke:#009988;stroke-linejoin:miter;" x="141.392424" xlink:href="#m8adf6fe485" y="131.071361"/>
     <use style="fill:#009988;stroke:#009988;stroke-linejoin:miter;" x="160.180303" xlink:href="#m8adf6fe485" y="129.277122"/>
     <use style="fill:#009988;stroke:#009988;stroke-linejoin:miter;" x="178.968182" xlink:href="#m8adf6fe485" y="126.802499"/>
     <use style="fill:#009988;stroke:#009988;stroke-linejoin:miter;" x="197.756061" xlink:href="#m8adf6fe485" y="125.91958"/>
     <use style="fill:#009988;stroke:#009988;stroke-linejoin:miter;" x="216.543939" xlink:href="#m8adf6fe485" y="125.634393"/>
     <use style="fill:#009988;stroke:#009988;stroke-linejoin:miter;" x="235.331818" xlink:href="#m8adf6fe485" y="124.891758"/>
     <use style="fill:#009988;stroke:#009988;stroke-linejoin:miter;" x="254.119697" xlink:href="#m8adf6fe485" y="175.980476"/>
     <use style="fill:#009988;stroke:#009988;stroke-linejoin:miter;" x="272.907576" xlink:href="#m8adf6fe485" y="215.167343"/>
     <use style="fill:#009988;stroke:#009988;stroke-linejoin:miter;" x="291.695455" xlink:href="#m8adf6fe485" y="195.983203"/>
     <use style="fill:#009988;stroke:#009988;stroke-linejoin:miter;" x="310.483333" xlink:href="#m8adf6fe485" y="182.032979"/>
     <use style="fill:#009988;stroke:#009988;stroke-linejoin:miter;" x="329.271212" xlink:href="#m8adf6fe485" y="167.138169"/>
     <use style="fill:#009988;stroke:#009988;stroke-linejoin:miter;" x="348.059091" xlink:href="#m8adf6fe485" y="153.469237"/>
     <use style="fill:#009988;stroke:#009988;stroke-linejoin:miter;" x="366.84697" xlink:href="#m8adf6fe485" y="147.389643"/>
     <use style="fill:#009988;stroke:#009988;stroke-linejoin:miter;" x="385.634848" xlink:href="#m8adf6fe485" y="146.504534"/>
     <use style="fill:#009988;stroke:#009988;stroke-linejoin:miter;" x="404.422727" xlink:href="#m8adf6fe485" y="147.011651"/>
     <use style="fill:#009988;stroke:#009988;stroke-linejoin:miter;" x="423.210606" xlink:href="#m8adf6fe485" y="146.623108"/>
     <use style="fill:#009988;stroke:#009988;stroke-linejoin:miter;" x="441.998485" xlink:href="#m8adf6fe485" y="144.020675"/>
     <use style="fill:#009988;stroke:#009988;stroke-linejoin:miter;" x="460.786364" xlink:href="#m8adf6fe485" y="141.687707"/>
    </g>
   </g>
   <g id="line2d_27"/>
   <g id="line2d_28"/>
   <g id="line2d_29"/>
   <g id="line2d_30"/>
   <g id="line2d_31">
    <path clip-path="url(#p700b1dc684)" d="M 122.604545 141.257915 
L 124.483333 135.719823 
L 126.362121 134.476939 
L 128.240909 135.270443 
L 130.119697 135.653207 
L 131.998485 135.095756 
L 133.877273 136.127677 
L 135.756061 136.421204 
L 137.634848 136.158716 
L 139.513636 135.749679 
L 141.392424 135.96218 
L 143.271212 136.522551 
L 145.15 136.21026 
L 147.028788 136.181448 
L 148.907576 136.333261 
L 150.786364 136.271229 
L 152.665152 136.012419 
L 154.543939 136.004337 
L 156.422727 136.146586 
L 158.301515 135.926939 
L 160.180303 135.513849 
L 162.059091 136.092687 
L 163.937879 136.264304 
L 167.695455 136.312316 
L 169.574242 136.438632 
L 173.331818 135.672771 
L 175.210606 135.674703 
L 177.089394 135.979559 
L 178.968182 135.771446 
L 180.84697 135.335263 
L 184.604545 135.655126 
L 188.362121 135.536293 
L 192.119697 136.223866 
L 193.998485 136.237521 
L 195.877273 136.720823 
L 197.756061 137.045119 
L 199.634848 136.545713 
L 201.513636 136.312326 
L 203.392424 135.912485 
L 205.271212 135.636079 
L 207.15 135.572931 
L 210.907576 136.108253 
L 216.543939 135.769282 
L 222.180303 135.612102 
L 224.059091 135.422414 
L 225.937879 135.87215 
L 227.816667 136.445532 
L 229.695455 136.794139 
L 231.574242 136.558806 
L 233.45303 136.019466 
L 235.331818 135.698771 
L 237.210606 136.066837 
L 239.089394 136.292786 
L 242.84697 140.989203 
L 244.725758 144.751522 
L 246.604545 149.842827 
L 248.483333 153.724342 
L 250.362121 157.928071 
L 252.240909 162.70127 
L 254.119697 167.812709 
L 255.998485 172.338309 
L 257.877273 174.597915 
L 259.756061 178.098023 
L 261.634848 183.323731 
L 263.513636 185.477259 
L 267.271212 186.711874 
L 269.15 189.171848 
L 271.028788 190.800105 
L 274.786364 194.269891 
L 276.665152 194.694107 
L 278.543939 194.558624 
L 280.422727 193.804779 
L 282.301515 191.720482 
L 284.180303 188.075145 
L 286.059091 185.396948 
L 287.937879 184.295381 
L 289.816667 182.699042 
L 293.574242 177.946417 
L 295.45303 177.892946 
L 297.331818 175.185347 
L 299.210606 171.931119 
L 301.089394 170.381138 
L 302.968182 169.70298 
L 304.84697 169.234137 
L 306.725758 167.759843 
L 308.604545 167.772949 
L 310.483333 167.486821 
L 312.362121 166.9195 
L 314.240909 168.005192 
L 316.119697 167.026686 
L 319.877273 164.720616 
L 323.634848 163.12515 
L 325.513636 161.037098 
L 327.392424 158.05638 
L 329.271212 155.857683 
L 331.15 154.796147 
L 333.028788 152.834697 
L 334.907576 152.373344 
L 336.786364 150.827592 
L 338.665152 150.191383 
L 344.301515 150.121622 
L 346.180303 149.720077 
L 349.937879 147.839484 
L 353.695455 146.585638 
L 357.45303 146.714405 
L 359.331818 147.077366 
L 361.210606 147.125605 
L 363.089394 146.556051 
L 366.84697 147.785738 
L 368.725758 147.399719 
L 370.604545 147.825958 
L 372.483333 148.51318 
L 376.240909 148.89718 
L 379.998485 148.446556 
L 383.756061 146.951131 
L 385.634848 147.330591 
L 387.513636 148.225833 
L 389.392424 148.284906 
L 393.15 149.549048 
L 395.028788 149.715283 
L 396.907576 148.90279 
L 398.786364 148.554445 
L 400.665152 148.444326 
L 402.543939 148.094697 
L 404.422727 147.525277 
L 406.301515 147.370256 
L 408.180303 147.38395 
L 410.059091 146.963029 
L 411.937879 146.932246 
L 417.574242 146.58749 
L 421.331818 147.639595 
L 423.210606 147.02111 
L 425.089394 146.261856 
L 426.968182 145.936721 
L 428.84697 145.48725 
L 430.725758 144.87813 
L 432.604545 144.826444 
L 434.483333 144.89638 
L 436.362121 145.865871 
L 440.119697 146.433823 
L 441.998485 146.393142 
L 443.877273 146.876657 
L 447.634848 146.342375 
L 449.513636 146.991132 
L 453.271212 147.49706 
L 458.907576 146.642538 
L 460.786364 146.565414 
L 464.543939 147.244247 
L 470.180303 147.07911 
L 472.059091 146.733014 
L 473.937879 145.886404 
L 475.816667 145.809406 
L 477.695455 145.523871 
L 477.695455 145.523871 
" style="fill:none;stroke:#0077bb;stroke-dasharray:3.2,0.8,0.5,0.8;stroke-dashoffset:0;stroke-width:0.5;"/>
    <defs>
     <path d="M 0 -2.5 
L -2.5 2.5 
L 2.5 2.5 
z
" id="m682a111784" style="stroke:#0077bb;stroke-linejoin:miter;"/>
    </defs>
    <g clip-path="url(#p700b1dc684)">
     <use style="fill:#0077bb;stroke:#0077bb;stroke-linejoin:miter;" x="122.604545" xlink:href="#m682a111784" y="141.257915"/>
     <use style="fill:#0077bb;stroke:#0077bb;stroke-linejoin:miter;" x="141.392424" xlink:href="#m682a111784" y="135.96218"/>
     <use style="fill:#0077bb;stroke:#0077bb;stroke-linejoin:miter;" x="160.180303" xlink:href="#m682a111784" y="135.513849"/>
     <use style="fill:#0077bb;stroke:#0077bb;stroke-linejoin:miter;" x="178.968182" xlink:href="#m682a111784" y="135.771446"/>
     <use style="fill:#0077bb;stroke:#0077bb;stroke-linejoin:miter;" x="197.756061" xlink:href="#m682a111784" y="137.045119"/>
     <use style="fill:#0077bb;stroke:#0077bb;stroke-linejoin:miter;" x="216.543939" xlink:href="#m682a111784" y="135.769282"/>
     <use style="fill:#0077bb;stroke:#0077bb;stroke-linejoin:miter;" x="235.331818" xlink:href="#m682a111784" y="135.698771"/>
     <use style="fill:#0077bb;stroke:#0077bb;stroke-linejoin:miter;" x="254.119697" xlink:href="#m682a111784" y="167.812709"/>
     <use style="fill:#0077bb;stroke:#0077bb;stroke-linejoin:miter;" x="272.907576" xlink:href="#m682a111784" y="192.580828"/>
     <use style="fill:#0077bb;stroke:#0077bb;stroke-linejoin:miter;" x="291.695455" xlink:href="#m682a111784" y="180.391331"/>
     <use style="fill:#0077bb;stroke:#0077bb;stroke-linejoin:miter;" x="310.483333" xlink:href="#m682a111784" y="167.486821"/>
     <use style="fill:#0077bb;stroke:#0077bb;stroke-linejoin:miter;" x="329.271212" xlink:href="#m682a111784" y="155.857683"/>
     <use style="fill:#0077bb;stroke:#0077bb;stroke-linejoin:miter;" x="348.059091" xlink:href="#m682a111784" y="148.789659"/>
     <use style="fill:#0077bb;stroke:#0077bb;stroke-linejoin:miter;" x="366.84697" xlink:href="#m682a111784" y="147.785738"/>
     <use style="fill:#0077bb;stroke:#0077bb;stroke-linejoin:miter;" x="385.634848" xlink:href="#m682a111784" y="147.330591"/>
     <use style="fill:#0077bb;stroke:#0077bb;stroke-linejoin:miter;" x="404.422727" xlink:href="#m682a111784" y="147.525277"/>
     <use style="fill:#0077bb;stroke:#0077bb;stroke-linejoin:miter;" x="423.210606" xlink:href="#m682a111784" y="147.02111"/>
     <use style="fill:#0077bb;stroke:#0077bb;stroke-linejoin:miter;" x="441.998485" xlink:href="#m682a111784" y="146.393142"/>
     <use style="fill:#0077bb;stroke:#0077bb;stroke-linejoin:miter;" x="460.786364" xlink:href="#m682a111784" y="146.565414"/>
    </g>
   </g>
   <g id="line2d_32"/>
   <g id="line2d_33"/>
   <g id="line2d_34"/>
   <g id="line2d_35"/>
   <g id="line2d_36">
    <path clip-path="url(#p700b1dc684)" d="M 122.604545 153.487279 
L 124.483333 152.384895 
L 126.362121 154.361707 
L 128.240909 150.001591 
L 130.119697 151.168201 
L 131.998485 150.08173 
L 133.877273 148.405571 
L 135.756061 148.327429 
L 137.634848 147.781671 
L 139.513636 147.406319 
L 143.271212 148.440367 
L 145.15 147.242905 
L 147.028788 146.496206 
L 148.907576 145.618465 
L 150.786364 145.504673 
L 152.665152 144.343012 
L 154.543939 144.716487 
L 156.422727 144.440703 
L 158.301515 144.302238 
L 160.180303 143.094903 
L 162.059091 142.539626 
L 163.937879 141.625977 
L 165.816667 141.811536 
L 167.695455 140.741856 
L 169.574242 140.744823 
L 173.331818 139.683554 
L 175.210606 139.618894 
L 177.089394 139.35503 
L 178.968182 137.965358 
L 180.84697 137.369147 
L 182.725758 137.781717 
L 184.604545 137.795767 
L 186.483333 137.523355 
L 188.362121 136.877418 
L 190.240909 137.051041 
L 192.119697 136.462525 
L 193.998485 136.033399 
L 195.877273 135.78884 
L 197.756061 135.770951 
L 199.634848 135.50253 
L 201.513636 134.851751 
L 205.271212 134.154338 
L 207.15 133.222605 
L 209.028788 133.731067 
L 210.907576 133.318099 
L 212.786364 132.643124 
L 214.665152 132.341515 
L 216.543939 132.502864 
L 218.422727 131.866372 
L 220.301515 131.630054 
L 222.180303 130.87428 
L 224.059091 130.697618 
L 225.937879 131.079794 
L 227.816667 131.322739 
L 229.695455 132.230099 
L 231.574242 132.338764 
L 233.45303 132.138746 
L 237.210606 133.853323 
L 239.089394 135.939949 
L 240.968182 141.485408 
L 242.84697 148.728442 
L 246.604545 169.772391 
L 252.240909 210.641696 
L 254.119697 229.309414 
L 255.998485 246.637858 
L 257.877273 265.505436 
L 261.634848 297.979433 
L 263.513636 309.612193 
L 265.392424 322.251875 
L 267.271212 331.188744 
L 269.15 342.831384 
L 271.028788 351.545248 
L 274.786364 363.900209 
L 276.665152 370.739897 
L 278.543939 374.142929 
L 280.422727 376.651813 
L 282.301515 374.514895 
L 284.180303 372.777204 
L 287.937879 366.639837 
L 289.816667 362.006959 
L 291.695455 353.640587 
L 293.574242 346.749853 
L 295.45303 338.157985 
L 297.331818 331.131051 
L 299.210606 325.483672 
L 301.089394 323.865931 
L 302.968182 321.765833 
L 304.84697 320.201802 
L 306.725758 317.081416 
L 310.483333 316.627812 
L 312.362121 318.087558 
L 314.240909 318.375145 
L 316.119697 317.272073 
L 317.998485 314.790276 
L 319.877273 315.424116 
L 321.756061 315.526584 
L 323.634848 311.567445 
L 325.513636 307.092298 
L 327.392424 304.308219 
L 329.271212 301.00656 
L 333.028788 293.578813 
L 334.907576 293.000811 
L 336.786364 291.839204 
L 338.665152 289.029096 
L 340.543939 284.596494 
L 344.301515 280.075951 
L 346.180303 276.252689 
L 348.059091 277.642568 
L 349.937879 274.239642 
L 351.816667 271.838926 
L 353.695455 269.794629 
L 355.574242 270.327552 
L 357.45303 267.16342 
L 359.331818 267.466175 
L 361.210606 264.771011 
L 363.089394 263.939079 
L 364.968182 265.1186 
L 366.84697 265.221379 
L 368.725758 264.125026 
L 370.604545 265.650378 
L 372.483333 264.31824 
L 374.362121 259.868746 
L 376.240909 257.934139 
L 378.119697 257.484271 
L 381.877273 254.145472 
L 383.756061 255.165622 
L 385.634848 251.593937 
L 387.513636 252.383337 
L 389.392424 251.421208 
L 391.271212 250.60137 
L 393.15 247.877944 
L 395.028788 247.431903 
L 396.907576 244.000998 
L 398.786364 245.542069 
L 400.665152 246.378288 
L 402.543939 242.460732 
L 406.301515 239.272744 
L 408.180303 238.372249 
L 410.059091 235.796766 
L 411.937879 236.365709 
L 413.816667 234.018833 
L 415.695455 230.87188 
L 417.574242 230.087991 
L 419.45303 231.385203 
L 421.331818 232.02652 
L 423.210606 230.777489 
L 425.089394 230.762325 
L 426.968182 230.964258 
L 428.84697 230.167881 
L 430.725758 229.521754 
L 432.604545 228.238391 
L 434.483333 226.723166 
L 436.362121 227.316651 
L 438.240909 226.105335 
L 440.119697 226.300082 
L 441.998485 225.369399 
L 443.877273 227.370912 
L 445.756061 224.701362 
L 447.634848 224.876197 
L 449.513636 225.28889 
L 453.271212 226.571119 
L 455.15 228.79809 
L 457.028788 228.412678 
L 458.907576 225.268976 
L 460.786364 225.689793 
L 462.665152 223.879977 
L 464.543939 221.755646 
L 466.422727 223.479258 
L 468.301515 223.743938 
L 470.180303 225.66519 
L 472.059091 225.938819 
L 473.937879 223.680502 
L 475.816667 222.427469 
L 477.695455 222.099991 
L 477.695455 222.099991 
" style="fill:none;stroke:#ee7733;stroke-dasharray:0.5,0.825;stroke-dashoffset:0;stroke-width:0.5;"/>
    <defs>
     <path d="M 0 -2.5 
L -0.561285 -0.772542 
L -2.377641 -0.772542 
L -0.908178 0.295085 
L -1.469463 2.022542 
L -0 0.954915 
L 1.469463 2.022542 
L 0.908178 0.295085 
L 2.377641 -0.772542 
L 0.561285 -0.772542 
z
" id="m429e084e21" style="stroke:#ee7733;stroke-linejoin:bevel;"/>
    </defs>
    <g clip-path="url(#p700b1dc684)">
     <use style="fill:#ee7733;stroke:#ee7733;stroke-linejoin:bevel;" x="122.604545" xlink:href="#m429e084e21" y="153.487279"/>
     <use style="fill:#ee7733;stroke:#ee7733;stroke-linejoin:bevel;" x="141.392424" xlink:href="#m429e084e21" y="147.950928"/>
     <use style="fill:#ee7733;stroke:#ee7733;stroke-linejoin:bevel;" x="160.180303" xlink:href="#m429e084e21" y="143.094903"/>
     <use style="fill:#ee7733;stroke:#ee7733;stroke-linejoin:bevel;" x="178.968182" xlink:href="#m429e084e21" y="137.965358"/>
     <use style="fill:#ee7733;stroke:#ee7733;stroke-linejoin:bevel;" x="197.756061" xlink:href="#m429e084e21" y="135.770951"/>
     <use style="fill:#ee7733;stroke:#ee7733;stroke-linejoin:bevel;" x="216.543939" xlink:href="#m429e084e21" y="132.502864"/>
     <use style="fill:#ee7733;stroke:#ee7733;stroke-linejoin:bevel;" x="235.331818" xlink:href="#m429e084e21" y="132.936117"/>
     <use style="fill:#ee7733;stroke:#ee7733;stroke-linejoin:bevel;" x="254.119697" xlink:href="#m429e084e21" y="229.309414"/>
     <use style="fill:#ee7733;stroke:#ee7733;stroke-linejoin:bevel;" x="272.907576" xlink:href="#m429e084e21" y="357.75529"/>
     <use style="fill:#ee7733;stroke:#ee7733;stroke-linejoin:bevel;" x="291.695455" xlink:href="#m429e084e21" y="353.640587"/>
     <use style="fill:#ee7733;stroke:#ee7733;stroke-linejoin:bevel;" x="310.483333" xlink:href="#m429e084e21" y="316.627812"/>
     <use style="fill:#ee7733;stroke:#ee7733;stroke-linejoin:bevel;" x="329.271212" xlink:href="#m429e084e21" y="301.00656"/>
     <use style="fill:#ee7733;stroke:#ee7733;stroke-linejoin:bevel;" x="348.059091" xlink:href="#m429e084e21" y="277.642568"/>
     <use style="fill:#ee7733;stroke:#ee7733;stroke-linejoin:bevel;" x="366.84697" xlink:href="#m429e084e21" y="265.221379"/>
     <use style="fill:#ee7733;stroke:#ee7733;stroke-linejoin:bevel;" x="385.634848" xlink:href="#m429e084e21" y="251.593937"/>
     <use style="fill:#ee7733;stroke:#ee7733;stroke-linejoin:bevel;" x="404.422727" xlink:href="#m429e084e21" y="240.819904"/>
     <use style="fill:#ee7733;stroke:#ee7733;stroke-linejoin:bevel;" x="423.210606" xlink:href="#m429e084e21" y="230.777489"/>
     <use style="fill:#ee7733;stroke:#ee7733;stroke-linejoin:bevel;" x="441.998485" xlink:href="#m429e084e21" y="225.369399"/>
     <use style="fill:#ee7733;stroke:#ee7733;stroke-linejoin:bevel;" x="460.786364" xlink:href="#m429e084e21" y="225.689793"/>
    </g>
   </g>
   <g id="line2d_37"/>
   <g id="line2d_38"/>
   <g id="line2d_39"/>
   <g id="line2d_40"/>
   <g id="line2d_41">
    <path clip-path="url(#p700b1dc684)" d="M 122.604545 159.60933 
L 124.483333 157.409163 
L 126.362121 158.934055 
L 128.240909 154.109282 
L 130.119697 154.541776 
L 133.877273 153.770512 
L 135.756061 151.843919 
L 137.634848 150.547427 
L 139.513636 149.940066 
L 141.392424 149.788715 
L 143.271212 149.420683 
L 145.15 148.536822 
L 148.907576 146.094442 
L 150.786364 145.923024 
L 152.665152 145.287344 
L 154.543939 146.330759 
L 156.422727 146.36456 
L 158.301515 146.562419 
L 160.180303 145.116872 
L 162.059091 144.611444 
L 163.937879 143.326717 
L 165.816667 143.59999 
L 167.695455 142.28984 
L 169.574242 141.735848 
L 171.45303 140.869063 
L 173.331818 140.403444 
L 175.210606 140.320053 
L 177.089394 140.033906 
L 178.968182 138.923329 
L 182.725758 139.207102 
L 186.483333 139.274083 
L 188.362121 138.448611 
L 190.240909 138.177317 
L 192.119697 136.961488 
L 195.877273 135.132342 
L 197.756061 135.279392 
L 199.634848 134.764798 
L 201.513636 134.929866 
L 203.392424 134.668339 
L 205.271212 134.611238 
L 207.15 133.724238 
L 210.907576 133.618406 
L 214.665152 132.636079 
L 216.543939 132.708702 
L 218.422727 131.881116 
L 220.301515 131.520329 
L 222.180303 130.968657 
L 224.059091 130.746615 
L 227.816667 131.273224 
L 229.695455 131.984951 
L 233.45303 132.72162 
L 237.210606 134.047749 
L 239.089394 135.527991 
L 240.968182 140.312719 
L 242.84697 146.712957 
L 246.604545 164.821944 
L 248.483333 176.448906 
L 250.362121 189.161821 
L 252.240909 200.579901 
L 254.119697 217.087457 
L 255.998485 231.941209 
L 257.877273 249.566249 
L 259.756061 263.722634 
L 261.634848 279.477632 
L 263.513636 290.114966 
L 269.15 328.972188 
L 271.028788 338.692878 
L 274.786364 353.842086 
L 276.665152 363.247511 
L 278.543939 367.241655 
L 282.301515 369.75779 
L 284.180303 368.189479 
L 286.059091 366.116799 
L 287.937879 362.934344 
L 289.816667 361.091707 
L 291.695455 354.985985 
L 293.574242 349.420774 
L 295.45303 339.36679 
L 297.331818 333.127837 
L 299.210606 328.20951 
L 301.089394 326.634048 
L 302.968182 324.233499 
L 306.725758 312.678042 
L 308.604545 310.353861 
L 310.483333 310.492928 
L 312.362121 308.723766 
L 314.240909 304.66301 
L 316.119697 301.66823 
L 317.998485 299.904691 
L 319.877273 296.724151 
L 321.756061 297.294491 
L 323.634848 293.599963 
L 325.513636 290.83072 
L 327.392424 287.586556 
L 331.15 282.427924 
L 333.028788 280.640052 
L 334.907576 280.966296 
L 336.786364 277.758868 
L 338.665152 275.301414 
L 340.543939 269.999261 
L 342.422727 267.493237 
L 344.301515 264.772273 
L 346.180303 260.898637 
L 348.059091 261.011231 
L 349.937879 259.809201 
L 351.816667 257.703052 
L 353.695455 257.192103 
L 355.574242 257.762054 
L 357.45303 255.700748 
L 359.331818 255.331735 
L 361.210606 253.150662 
L 363.089394 252.067633 
L 364.968182 253.761501 
L 368.725758 251.528189 
L 370.604545 254.015428 
L 372.483333 252.487641 
L 374.362121 249.415526 
L 376.240909 249.315725 
L 378.119697 249.718904 
L 379.998485 248.594346 
L 381.877273 248.343418 
L 383.756061 251.285644 
L 385.634848 248.281683 
L 387.513636 248.580364 
L 389.392424 249.805395 
L 391.271212 249.280468 
L 393.15 247.807483 
L 395.028788 249.000994 
L 396.907576 248.340735 
L 398.786364 250.44335 
L 400.665152 250.998829 
L 402.543939 250.667053 
L 404.422727 250.089343 
L 406.301515 249.233568 
L 408.180303 249.623807 
L 410.059091 247.522919 
L 411.937879 249.533213 
L 413.816667 246.752926 
L 415.695455 244.291724 
L 417.574242 244.411194 
L 419.45303 245.800334 
L 423.210606 244.285038 
L 426.968182 243.382618 
L 428.84697 242.747487 
L 430.725758 243.046463 
L 432.604545 241.690015 
L 434.483333 238.95604 
L 436.362121 238.626876 
L 438.240909 237.638178 
L 440.119697 234.272093 
L 441.998485 232.462867 
L 443.877273 234.47106 
L 445.756061 232.274196 
L 447.634848 233.050184 
L 449.513636 233.395324 
L 451.392424 233.970066 
L 453.271212 234.925354 
L 455.15 237.437614 
L 457.028788 237.934537 
L 458.907576 238.892581 
L 460.786364 238.395509 
L 462.665152 238.183407 
L 464.543939 236.868276 
L 466.422727 239.577012 
L 468.301515 239.737442 
L 470.180303 242.740908 
L 472.059091 245.445359 
L 473.937879 244.192979 
L 475.816667 241.980887 
L 477.695455 240.886523 
L 477.695455 240.886523 
" style="fill:none;stroke:#ee3377;stroke-dasharray:3.2,0.8,0.5,0.8;stroke-dashoffset:0;stroke-width:0.5;"/>
    <defs>
     <path d="M -1.25 2.5 
L 0 1.25 
L 1.25 2.5 
L 2.5 1.25 
L 1.25 0 
L 2.5 -1.25 
L 1.25 -2.5 
L 0 -1.25 
L -1.25 -2.5 
L -2.5 -1.25 
L -1.25 0 
L -2.5 1.25 
z
" id="m9f30d8a07f" style="stroke:#ee3377;stroke-linejoin:miter;"/>
    </defs>
    <g clip-path="url(#p700b1dc684)">
     <use style="fill:#ee3377;stroke:#ee3377;stroke-linejoin:miter;" x="122.604545" xlink:href="#m9f30d8a07f" y="159.60933"/>
     <use style="fill:#ee3377;stroke:#ee3377;stroke-linejoin:miter;" x="141.392424" xlink:href="#m9f30d8a07f" y="149.788715"/>
     <use style="fill:#ee3377;stroke:#ee3377;stroke-linejoin:miter;" x="160.180303" xlink:href="#m9f30d8a07f" y="145.116872"/>
     <use style="fill:#ee3377;stroke:#ee3377;stroke-linejoin:miter;" x="178.968182" xlink:href="#m9f30d8a07f" y="138.923329"/>
     <use style="fill:#ee3377;stroke:#ee3377;stroke-linejoin:miter;" x="197.756061" xlink:href="#m9f30d8a07f" y="135.279392"/>
     <use style="fill:#ee3377;stroke:#ee3377;stroke-linejoin:miter;" x="216.543939" xlink:href="#m9f30d8a07f" y="132.708702"/>
     <use style="fill:#ee3377;stroke:#ee3377;stroke-linejoin:miter;" x="235.331818" xlink:href="#m9f30d8a07f" y="133.376073"/>
     <use style="fill:#ee3377;stroke:#ee3377;stroke-linejoin:miter;" x="254.119697" xlink:href="#m9f30d8a07f" y="217.087457"/>
     <use style="fill:#ee3377;stroke:#ee3377;stroke-linejoin:miter;" x="272.907576" xlink:href="#m9f30d8a07f" y="346.109441"/>
     <use style="fill:#ee3377;stroke:#ee3377;stroke-linejoin:miter;" x="291.695455" xlink:href="#m9f30d8a07f" y="354.985985"/>
     <use style="fill:#ee3377;stroke:#ee3377;stroke-linejoin:miter;" x="310.483333" xlink:href="#m9f30d8a07f" y="310.492928"/>
     <use style="fill:#ee3377;stroke:#ee3377;stroke-linejoin:miter;" x="329.271212" xlink:href="#m9f30d8a07f" y="285.047926"/>
     <use style="fill:#ee3377;stroke:#ee3377;stroke-linejoin:miter;" x="348.059091" xlink:href="#m9f30d8a07f" y="261.011231"/>
     <use style="fill:#ee3377;stroke:#ee3377;stroke-linejoin:miter;" x="366.84697" xlink:href="#m9f30d8a07f" y="252.661607"/>
     <use style="fill:#ee3377;stroke:#ee3377;stroke-linejoin:miter;" x="385.634848" xlink:href="#m9f30d8a07f" y="248.281683"/>
     <use style="fill:#ee3377;stroke:#ee3377;stroke-linejoin:miter;" x="404.422727" xlink:href="#m9f30d8a07f" y="250.089343"/>
     <use style="fill:#ee3377;stroke:#ee3377;stroke-linejoin:miter;" x="423.210606" xlink:href="#m9f30d8a07f" y="244.285038"/>
     <use style="fill:#ee3377;stroke:#ee3377;stroke-linejoin:miter;" x="441.998485" xlink:href="#m9f30d8a07f" y="232.462867"/>
     <use style="fill:#ee3377;stroke:#ee3377;stroke-linejoin:miter;" x="460.786364" xlink:href="#m9f30d8a07f" y="238.395509"/>
    </g>
   </g>
   <g id="line2d_42"/>
   <g id="line2d_43"/>
   <g id="line2d_44"/>
   <g id="line2d_45"/>
   <g id="line2d_46">
    <path clip-path="url(#p700b1dc684)" d="M 233.45303 389.251812 
L 233.45303 112.051812 
" style="fill:none;stroke:#000000;stroke-dasharray:2.5,5;stroke-dashoffset:0;stroke-width:0.5;"/>
   </g>
   <g id="line2d_47">
    <path clip-path="url(#p700b1dc684)" d="M 289.816667 389.251812 
L 289.816667 112.051812 
" style="fill:none;stroke:#000000;stroke-dasharray:2.5,5;stroke-dashoffset:0;stroke-width:0.5;"/>
   </g>
   <g id="patch_4">
    <path d="M 104.85 389.251813 
L 104.85 112.051813 
" style="fill:none;stroke:#000000;stroke-linecap:square;stroke-linejoin:miter;stroke-width:0.8;"/>
   </g>
   <g id="patch_5">
    <path d="M 495.45 389.251813 
L 495.45 112.051813 
" style="fill:none;stroke:#000000;stroke-linecap:square;stroke-linejoin:miter;stroke-width:0.8;"/>
   </g>
   <g id="patch_6">
    <path d="M 104.85 389.251812 
L 495.45 389.251812 
" style="fill:none;stroke:#000000;stroke-linecap:square;stroke-linejoin:miter;stroke-width:0.8;"/>
   </g>
   <g id="patch_7">
    <path d="M 104.85 112.051812 
L 495.45 112.051812 
" style="fill:none;stroke:#000000;stroke-linecap:square;stroke-linejoin:miter;stroke-width:0.8;"/>
   </g>
   <g id="legend_1">
    <g id="line2d_48"/>
    <g id="line2d_49"/>
    <g id="text_18">
     <!--   -->
     <g transform="translate(48.8 22.277969)scale(0.13 -0.13)">
      <use xlink:href="#DejaVuSans-32"/>
     </g>
    </g>
    <g id="line2d_50"/>
    <g id="line2d_51"/>
    <g id="text_19">
     <!-- start -->
     <g transform="translate(48.8 41.359531)scale(0.13 -0.13)">
      <use xlink:href="#DejaVuSans-115"/>
      <use x="52.099609" xlink:href="#DejaVuSans-116"/>
      <use x="91.308594" xlink:href="#DejaVuSans-97"/>
      <use x="152.587891" xlink:href="#DejaVuSans-114"/>
      <use x="193.701172" xlink:href="#DejaVuSans-116"/>
     </g>
    </g>
    <g id="line2d_52"/>
    <g id="line2d_53"/>
    <g id="text_20">
     <!-- pre-dirft -->
     <g transform="translate(48.8 60.441094)scale(0.13 -0.13)">
      <use xlink:href="#DejaVuSans-112"/>
      <use x="63.476562" xlink:href="#DejaVuSans-114"/>
      <use x="104.558594" xlink:href="#DejaVuSans-101"/>
      <use x="166.082031" xlink:href="#DejaVuSans-45"/>
      <use x="202.166016" xlink:href="#DejaVuSans-100"/>
      <use x="265.642578" xlink:href="#DejaVuSans-105"/>
      <use x="293.425781" xlink:href="#DejaVuSans-114"/>
      <use x="334.539062" xlink:href="#DejaVuSans-102"/>
      <use x="369.728516" xlink:href="#DejaVuSans-116"/>
     </g>
    </g>
    <g id="line2d_54"/>
    <g id="line2d_55"/>
    <g id="text_21">
     <!-- post-drift -->
     <g transform="translate(48.8 79.522656)scale(0.13 -0.13)">
      <use xlink:href="#DejaVuSans-112"/>
      <use x="63.476562" xlink:href="#DejaVuSans-111"/>
      <use x="124.658203" xlink:href="#DejaVuSans-115"/>
      <use x="176.757812" xlink:href="#DejaVuSans-116"/>
      <use x="215.966797" xlink:href="#DejaVuSans-45"/>
      <use x="252.050781" xlink:href="#DejaVuSans-100"/>
      <use x="315.527344" xlink:href="#DejaVuSans-114"/>
      <use x="356.640625" xlink:href="#DejaVuSans-105"/>
      <use x="384.423828" xlink:href="#DejaVuSans-102"/>
      <use x="419.613281" xlink:href="#DejaVuSans-116"/>
     </g>
    </g>
    <g id="line2d_56"/>
    <g id="line2d_57"/>
    <g id="text_22">
     <!-- end -->
     <g transform="translate(48.8 98.604219)scale(0.13 -0.13)">
      <use xlink:href="#DejaVuSans-101"/>
      <use x="61.523438" xlink:href="#DejaVuSans-110"/>
      <use x="124.902344" xlink:href="#DejaVuSans-100"/>
     </g>
    </g>
    <g id="line2d_58">
     <path d="M 102.918688 17.727969 
L 128.918688 17.727969 
" style="fill:none;stroke:#cc3311;stroke-linecap:square;stroke-width:0.5;"/>
    </g>
    <g id="line2d_59">
     <g>
      <use style="fill:#cc3311;stroke:#cc3311;" x="115.918688" xlink:href="#mfcde421789" y="17.727969"/>
     </g>
    </g>
    <g id="text_23">
     <!-- ESOS -->
     <defs>
      <path d="M 9.8125 72.90625 
L 55.90625 72.90625 
L 55.90625 64.59375 
L 19.671875 64.59375 
L 19.671875 43.015625 
L 54.390625 43.015625 
L 54.390625 34.71875 
L 19.671875 34.71875 
L 19.671875 8.296875 
L 56.78125 8.296875 
L 56.78125 0 
L 9.8125 0 
z
" id="DejaVuSans-69"/>
      <path d="M 53.515625 70.515625 
L 53.515625 60.890625 
Q 47.90625 63.578125 42.921875 64.890625 
Q 37.9375 66.21875 33.296875 66.21875 
Q 25.25 66.21875 20.875 63.09375 
Q 16.5 59.96875 16.5 54.203125 
Q 16.5 49.359375 19.40625 46.890625 
Q 22.3125 44.4375 30.421875 42.921875 
L 36.375 41.703125 
Q 47.40625 39.59375 52.65625 34.296875 
Q 57.90625 29 57.90625 20.125 
Q 57.90625 9.515625 50.796875 4.046875 
Q 43.703125 -1.421875 29.984375 -1.421875 
Q 24.8125 -1.421875 18.96875 -0.25 
Q 13.140625 0.921875 6.890625 3.21875 
L 6.890625 13.375 
Q 12.890625 10.015625 18.65625 8.296875 
Q 24.421875 6.59375 29.984375 6.59375 
Q 38.421875 6.59375 43.015625 9.90625 
Q 47.609375 13.234375 47.609375 19.390625 
Q 47.609375 24.75 44.3125 27.78125 
Q 41.015625 30.8125 33.5 32.328125 
L 27.484375 33.5 
Q 16.453125 35.6875 11.515625 40.375 
Q 6.59375 45.0625 6.59375 53.421875 
Q 6.59375 63.09375 13.40625 68.65625 
Q 20.21875 74.21875 32.171875 74.21875 
Q 37.3125 74.21875 42.625 73.28125 
Q 47.953125 72.359375 53.515625 70.515625 
z
" id="DejaVuSans-83"/>
      <path d="M 39.40625 66.21875 
Q 28.65625 66.21875 22.328125 58.203125 
Q 16.015625 50.203125 16.015625 36.375 
Q 16.015625 22.609375 22.328125 14.59375 
Q 28.65625 6.59375 39.40625 6.59375 
Q 50.140625 6.59375 56.421875 14.59375 
Q 62.703125 22.609375 62.703125 36.375 
Q 62.703125 50.203125 56.421875 58.203125 
Q 50.140625 66.21875 39.40625 66.21875 
z
M 39.40625 74.21875 
Q 54.734375 74.21875 63.90625 63.9375 
Q 73.09375 53.65625 73.09375 36.375 
Q 73.09375 19.140625 63.90625 8.859375 
Q 54.734375 -1.421875 39.40625 -1.421875 
Q 24.03125 -1.421875 14.8125 8.828125 
Q 5.609375 19.09375 5.609375 36.375 
Q 5.609375 53.65625 14.8125 63.9375 
Q 24.03125 74.21875 39.40625 74.21875 
z
" id="DejaVuSans-79"/>
     </defs>
     <g transform="translate(139.318688 22.277969)scale(0.13 -0.13)">
      <use xlink:href="#DejaVuSans-69"/>
      <use x="63.183594" xlink:href="#DejaVuSans-83"/>
      <use x="126.660156" xlink:href="#DejaVuSans-79"/>
      <use x="205.371094" xlink:href="#DejaVuSans-83"/>
     </g>
    </g>
    <g id="line2d_60"/>
    <g id="line2d_61"/>
    <g id="text_24">
     <!-- 0.9614 -->
     <defs>
      <path d="M 33.015625 40.375 
Q 26.375 40.375 22.484375 35.828125 
Q 18.609375 31.296875 18.609375 23.390625 
Q 18.609375 15.53125 22.484375 10.953125 
Q 26.375 6.390625 33.015625 6.390625 
Q 39.65625 6.390625 43.53125 10.953125 
Q 47.40625 15.53125 47.40625 23.390625 
Q 47.40625 31.296875 43.53125 35.828125 
Q 39.65625 40.375 33.015625 40.375 
z
M 52.59375 71.296875 
L 52.59375 62.3125 
Q 48.875 64.0625 45.09375 64.984375 
Q 41.3125 65.921875 37.59375 65.921875 
Q 27.828125 65.921875 22.671875 59.328125 
Q 17.53125 52.734375 16.796875 39.40625 
Q 19.671875 43.65625 24.015625 45.921875 
Q 28.375 48.1875 33.59375 48.1875 
Q 44.578125 48.1875 50.953125 41.515625 
Q 57.328125 34.859375 57.328125 23.390625 
Q 57.328125 12.15625 50.6875 5.359375 
Q 44.046875 -1.421875 33.015625 -1.421875 
Q 20.359375 -1.421875 13.671875 8.265625 
Q 6.984375 17.96875 6.984375 36.375 
Q 6.984375 53.65625 15.1875 63.9375 
Q 23.390625 74.21875 37.203125 74.21875 
Q 40.921875 74.21875 44.703125 73.484375 
Q 48.484375 72.75 52.59375 71.296875 
z
" id="DejaVuSans-54"/>
      <path d="M 37.796875 64.3125 
L 12.890625 25.390625 
L 37.796875 25.390625 
z
M 35.203125 72.90625 
L 47.609375 72.90625 
L 47.609375 25.390625 
L 58.015625 25.390625 
L 58.015625 17.1875 
L 47.609375 17.1875 
L 47.609375 0 
L 37.796875 0 
L 37.796875 17.1875 
L 4.890625 17.1875 
L 4.890625 26.703125 
z
" id="DejaVuSans-52"/>
     </defs>
     <g transform="translate(139.318688 41.359531)scale(0.13 -0.13)">
      <use xlink:href="#DejaVuSans-48"/>
      <use x="63.623047" xlink:href="#DejaVuSans-46"/>
      <use x="95.410156" xlink:href="#DejaVuSans-57"/>
      <use x="159.033203" xlink:href="#DejaVuSans-54"/>
      <use x="222.65625" xlink:href="#DejaVuSans-49"/>
      <use x="286.279297" xlink:href="#DejaVuSans-52"/>
     </g>
    </g>
    <g id="line2d_62"/>
    <g id="line2d_63"/>
    <g id="text_25">
     <!-- 0.9660 -->
     <g transform="translate(139.318688 60.441094)scale(0.13 -0.13)">
      <use xlink:href="#DejaVuSans-48"/>
      <use x="63.623047" xlink:href="#DejaVuSans-46"/>
      <use x="95.410156" xlink:href="#DejaVuSans-57"/>
      <use x="159.033203" xlink:href="#DejaVuSans-54"/>
      <use x="222.65625" xlink:href="#DejaVuSans-54"/>
      <use x="286.279297" xlink:href="#DejaVuSans-48"/>
     </g>
    </g>
    <g id="line2d_64"/>
    <g id="line2d_65"/>
    <g id="text_26">
     <!-- 0.9162 -->
     <g transform="translate(139.318688 79.522656)scale(0.13 -0.13)">
      <use xlink:href="#DejaVuSans-48"/>
      <use x="63.623047" xlink:href="#DejaVuSans-46"/>
      <use x="95.410156" xlink:href="#DejaVuSans-57"/>
      <use x="159.033203" xlink:href="#DejaVuSans-49"/>
      <use x="222.65625" xlink:href="#DejaVuSans-54"/>
      <use x="286.279297" xlink:href="#DejaVuSans-50"/>
     </g>
    </g>
    <g id="line2d_66"/>
    <g id="line2d_67"/>
    <g id="text_27">
     <!-- 0.9369 -->
     <defs>
      <path d="M 40.578125 39.3125 
Q 47.65625 37.796875 51.625 33 
Q 55.609375 28.21875 55.609375 21.1875 
Q 55.609375 10.40625 48.1875 4.484375 
Q 40.765625 -1.421875 27.09375 -1.421875 
Q 22.515625 -1.421875 17.65625 -0.515625 
Q 12.796875 0.390625 7.625 2.203125 
L 7.625 11.71875 
Q 11.71875 9.328125 16.59375 8.109375 
Q 21.484375 6.890625 26.8125 6.890625 
Q 36.078125 6.890625 40.9375 10.546875 
Q 45.796875 14.203125 45.796875 21.1875 
Q 45.796875 27.640625 41.28125 31.265625 
Q 36.765625 34.90625 28.71875 34.90625 
L 20.21875 34.90625 
L 20.21875 43.015625 
L 29.109375 43.015625 
Q 36.375 43.015625 40.234375 45.921875 
Q 44.09375 48.828125 44.09375 54.296875 
Q 44.09375 59.90625 40.109375 62.90625 
Q 36.140625 65.921875 28.71875 65.921875 
Q 24.65625 65.921875 20.015625 65.03125 
Q 15.375 64.15625 9.8125 62.3125 
L 9.8125 71.09375 
Q 15.4375 72.65625 20.34375 73.4375 
Q 25.25 74.21875 29.59375 74.21875 
Q 40.828125 74.21875 47.359375 69.109375 
Q 53.90625 64.015625 53.90625 55.328125 
Q 53.90625 49.265625 50.4375 45.09375 
Q 46.96875 40.921875 40.578125 39.3125 
z
" id="DejaVuSans-51"/>
     </defs>
     <g transform="translate(139.318688 98.604219)scale(0.13 -0.13)">
      <use xlink:href="#DejaVuSans-48"/>
      <use x="63.623047" xlink:href="#DejaVuSans-46"/>
      <use x="95.410156" xlink:href="#DejaVuSans-57"/>
      <use x="159.033203" xlink:href="#DejaVuSans-51"/>
      <use x="222.65625" xlink:href="#DejaVuSans-54"/>
      <use x="286.279297" xlink:href="#DejaVuSans-57"/>
     </g>
    </g>
    <g id="line2d_68">
     <path d="M 179.279563 17.727969 
L 205.279563 17.727969 
" style="fill:none;stroke:#009988;stroke-dasharray:1.85,0.8;stroke-dashoffset:0;stroke-width:0.5;"/>
    </g>
    <g id="line2d_69">
     <g>
      <use style="fill:#009988;stroke:#009988;stroke-linejoin:miter;" x="192.279563" xlink:href="#m8adf6fe485" y="17.727969"/>
     </g>
    </g>
    <g id="text_28">
     <!-- OOB -->
     <defs>
      <path d="M 19.671875 34.8125 
L 19.671875 8.109375 
L 35.5 8.109375 
Q 43.453125 8.109375 47.28125 11.40625 
Q 51.125 14.703125 51.125 21.484375 
Q 51.125 28.328125 47.28125 31.5625 
Q 43.453125 34.8125 35.5 34.8125 
z
M 19.671875 64.796875 
L 19.671875 42.828125 
L 34.28125 42.828125 
Q 41.5 42.828125 45.03125 45.53125 
Q 48.578125 48.25 48.578125 53.8125 
Q 48.578125 59.328125 45.03125 62.0625 
Q 41.5 64.796875 34.28125 64.796875 
z
M 9.8125 72.90625 
L 35.015625 72.90625 
Q 46.296875 72.90625 52.390625 68.21875 
Q 58.5 63.53125 58.5 54.890625 
Q 58.5 48.1875 55.375 44.234375 
Q 52.25 40.28125 46.1875 39.3125 
Q 53.46875 37.75 57.5 32.78125 
Q 61.53125 27.828125 61.53125 20.40625 
Q 61.53125 10.640625 54.890625 5.3125 
Q 48.25 0 35.984375 0 
L 9.8125 0 
z
" id="DejaVuSans-66"/>
     </defs>
     <g transform="translate(215.679563 22.277969)scale(0.13 -0.13)">
      <use xlink:href="#DejaVuSans-79"/>
      <use x="78.710938" xlink:href="#DejaVuSans-79"/>
      <use x="157.421875" xlink:href="#DejaVuSans-66"/>
     </g>
    </g>
    <g id="line2d_70"/>
    <g id="line2d_71"/>
    <g id="text_29">
     <!-- 0.9706 -->
     <g transform="translate(215.679563 41.359531)scale(0.13 -0.13)">
      <use xlink:href="#DejaVuSans-48"/>
      <use x="63.623047" xlink:href="#DejaVuSans-46"/>
      <use x="95.410156" xlink:href="#DejaVuSans-57"/>
      <use x="159.033203" xlink:href="#DejaVuSans-55"/>
      <use x="222.65625" xlink:href="#DejaVuSans-48"/>
      <use x="286.279297" xlink:href="#DejaVuSans-54"/>
     </g>
    </g>
    <g id="line2d_72"/>
    <g id="line2d_73"/>
    <g id="text_30">
     <!-- 0.9905 -->
     <g transform="translate(215.679563 60.441094)scale(0.13 -0.13)">
      <use xlink:href="#DejaVuSans-48"/>
      <use x="63.623047" xlink:href="#DejaVuSans-46"/>
      <use x="95.410156" xlink:href="#DejaVuSans-57"/>
      <use x="159.033203" xlink:href="#DejaVuSans-57"/>
      <use x="222.65625" xlink:href="#DejaVuSans-48"/>
      <use x="286.279297" xlink:href="#DejaVuSans-53"/>
     </g>
    </g>
    <g id="line2d_74"/>
    <g id="line2d_75"/>
    <g id="text_31">
     <!-- 0.8995 -->
     <g transform="translate(215.679563 79.522656)scale(0.13 -0.13)">
      <use xlink:href="#DejaVuSans-48"/>
      <use x="63.623047" xlink:href="#DejaVuSans-46"/>
      <use x="95.410156" xlink:href="#DejaVuSans-56"/>
      <use x="159.033203" xlink:href="#DejaVuSans-57"/>
      <use x="222.65625" xlink:href="#DejaVuSans-57"/>
      <use x="286.279297" xlink:href="#DejaVuSans-53"/>
     </g>
    </g>
    <g id="line2d_76"/>
    <g id="line2d_77"/>
    <g id="text_32">
     <!-- 0.9727 -->
     <g transform="translate(215.679563 98.604219)scale(0.13 -0.13)">
      <use xlink:href="#DejaVuSans-48"/>
      <use x="63.623047" xlink:href="#DejaVuSans-46"/>
      <use x="95.410156" xlink:href="#DejaVuSans-57"/>
      <use x="159.033203" xlink:href="#DejaVuSans-55"/>
      <use x="222.65625" xlink:href="#DejaVuSans-50"/>
      <use x="286.279297" xlink:href="#DejaVuSans-55"/>
     </g>
    </g>
    <g id="line2d_78">
     <path d="M 255.640438 17.727969 
L 281.640438 17.727969 
" style="fill:none;stroke:#0077bb;stroke-dasharray:3.2,0.8,0.5,0.8;stroke-dashoffset:0;stroke-width:0.5;"/>
    </g>
    <g id="line2d_79">
     <g>
      <use style="fill:#0077bb;stroke:#0077bb;stroke-linejoin:miter;" x="268.640438" xlink:href="#m682a111784" y="17.727969"/>
     </g>
    </g>
    <g id="text_33">
     <!-- UOB -->
     <defs>
      <path d="M 8.6875 72.90625 
L 18.609375 72.90625 
L 18.609375 28.609375 
Q 18.609375 16.890625 22.84375 11.734375 
Q 27.09375 6.59375 36.625 6.59375 
Q 46.09375 6.59375 50.34375 11.734375 
Q 54.59375 16.890625 54.59375 28.609375 
L 54.59375 72.90625 
L 64.5 72.90625 
L 64.5 27.390625 
Q 64.5 13.140625 57.4375 5.859375 
Q 50.390625 -1.421875 36.625 -1.421875 
Q 22.796875 -1.421875 15.734375 5.859375 
Q 8.6875 13.140625 8.6875 27.390625 
z
" id="DejaVuSans-85"/>
     </defs>
     <g transform="translate(292.040438 22.277969)scale(0.13 -0.13)">
      <use xlink:href="#DejaVuSans-85"/>
      <use x="73.193359" xlink:href="#DejaVuSans-79"/>
      <use x="151.904297" xlink:href="#DejaVuSans-66"/>
     </g>
    </g>
    <g id="line2d_80"/>
    <g id="line2d_81"/>
    <g id="text_34">
     <!-- 0.9705 -->
     <g transform="translate(292.040438 41.359531)scale(0.13 -0.13)">
      <use xlink:href="#DejaVuSans-48"/>
      <use x="63.623047" xlink:href="#DejaVuSans-46"/>
      <use x="95.410156" xlink:href="#DejaVuSans-57"/>
      <use x="159.033203" xlink:href="#DejaVuSans-55"/>
      <use x="222.65625" xlink:href="#DejaVuSans-48"/>
      <use x="286.279297" xlink:href="#DejaVuSans-53"/>
     </g>
    </g>
    <g id="line2d_82"/>
    <g id="line2d_83"/>
    <g id="text_35">
     <!-- 0.9768 -->
     <g transform="translate(292.040438 60.441094)scale(0.13 -0.13)">
      <use xlink:href="#DejaVuSans-48"/>
      <use x="63.623047" xlink:href="#DejaVuSans-46"/>
      <use x="95.410156" xlink:href="#DejaVuSans-57"/>
      <use x="159.033203" xlink:href="#DejaVuSans-55"/>
      <use x="222.65625" xlink:href="#DejaVuSans-54"/>
      <use x="286.279297" xlink:href="#DejaVuSans-56"/>
     </g>
    </g>
    <g id="line2d_84"/>
    <g id="line2d_85"/>
    <g id="text_36">
     <!-- 0.9202 -->
     <g transform="translate(292.040438 79.522656)scale(0.13 -0.13)">
      <use xlink:href="#DejaVuSans-48"/>
      <use x="63.623047" xlink:href="#DejaVuSans-46"/>
      <use x="95.410156" xlink:href="#DejaVuSans-57"/>
      <use x="159.033203" xlink:href="#DejaVuSans-50"/>
      <use x="222.65625" xlink:href="#DejaVuSans-48"/>
      <use x="286.279297" xlink:href="#DejaVuSans-50"/>
     </g>
    </g>
    <g id="line2d_86"/>
    <g id="line2d_87"/>
    <g id="text_37">
     <!-- 0.9653 -->
     <g transform="translate(292.040438 98.604219)scale(0.13 -0.13)">
      <use xlink:href="#DejaVuSans-48"/>
      <use x="63.623047" xlink:href="#DejaVuSans-46"/>
      <use x="95.410156" xlink:href="#DejaVuSans-57"/>
      <use x="159.033203" xlink:href="#DejaVuSans-54"/>
      <use x="222.65625" xlink:href="#DejaVuSans-53"/>
      <use x="286.279297" xlink:href="#DejaVuSans-51"/>
     </g>
    </g>
    <g id="line2d_88">
     <path d="M 332.001313 17.727969 
L 358.001313 17.727969 
" style="fill:none;stroke:#ee7733;stroke-dasharray:0.5,0.825;stroke-dashoffset:0;stroke-width:0.5;"/>
    </g>
    <g id="line2d_89">
     <g>
      <use style="fill:#ee7733;stroke:#ee7733;stroke-linejoin:bevel;" x="345.001313" xlink:href="#m429e084e21" y="17.727969"/>
     </g>
    </g>
    <g id="text_38">
     <!-- OB -->
     <g transform="translate(368.401313 22.277969)scale(0.13 -0.13)">
      <use xlink:href="#DejaVuSans-79"/>
      <use x="78.710938" xlink:href="#DejaVuSans-66"/>
     </g>
    </g>
    <g id="line2d_90"/>
    <g id="line2d_91"/>
    <g id="text_39">
     <!-- 0.9556 -->
     <g transform="translate(368.401313 41.359531)scale(0.13 -0.13)">
      <use xlink:href="#DejaVuSans-48"/>
      <use x="63.623047" xlink:href="#DejaVuSans-46"/>
      <use x="95.410156" xlink:href="#DejaVuSans-57"/>
      <use x="159.033203" xlink:href="#DejaVuSans-53"/>
      <use x="222.65625" xlink:href="#DejaVuSans-53"/>
      <use x="286.279297" xlink:href="#DejaVuSans-54"/>
     </g>
    </g>
    <g id="line2d_92"/>
    <g id="line2d_93"/>
    <g id="text_40">
     <!-- 0.9815 -->
     <g transform="translate(368.401313 60.441094)scale(0.13 -0.13)">
      <use xlink:href="#DejaVuSans-48"/>
      <use x="63.623047" xlink:href="#DejaVuSans-46"/>
      <use x="95.410156" xlink:href="#DejaVuSans-57"/>
      <use x="159.033203" xlink:href="#DejaVuSans-56"/>
      <use x="222.65625" xlink:href="#DejaVuSans-49"/>
      <use x="286.279297" xlink:href="#DejaVuSans-53"/>
     </g>
    </g>
    <g id="line2d_94"/>
    <g id="line2d_95"/>
    <g id="text_41">
     <!-- 0.7028 -->
     <g transform="translate(368.401313 79.522656)scale(0.13 -0.13)">
      <use xlink:href="#DejaVuSans-48"/>
      <use x="63.623047" xlink:href="#DejaVuSans-46"/>
      <use x="95.410156" xlink:href="#DejaVuSans-55"/>
      <use x="159.033203" xlink:href="#DejaVuSans-48"/>
      <use x="222.65625" xlink:href="#DejaVuSans-50"/>
      <use x="286.279297" xlink:href="#DejaVuSans-56"/>
     </g>
    </g>
    <g id="line2d_96"/>
    <g id="line2d_97"/>
    <g id="text_42">
     <!-- 0.8724 -->
     <g transform="translate(368.401313 98.604219)scale(0.13 -0.13)">
      <use xlink:href="#DejaVuSans-48"/>
      <use x="63.623047" xlink:href="#DejaVuSans-46"/>
      <use x="95.410156" xlink:href="#DejaVuSans-56"/>
      <use x="159.033203" xlink:href="#DejaVuSans-55"/>
      <use x="222.65625" xlink:href="#DejaVuSans-50"/>
      <use x="286.279297" xlink:href="#DejaVuSans-52"/>
     </g>
    </g>
    <g id="line2d_98">
     <path d="M 408.362188 17.727969 
L 434.362188 17.727969 
" style="fill:none;stroke:#ee3377;stroke-dasharray:3.2,0.8,0.5,0.8;stroke-dashoffset:0;stroke-width:0.5;"/>
    </g>
    <g id="line2d_99">
     <g>
      <use style="fill:#ee3377;stroke:#ee3377;stroke-linejoin:miter;" x="421.362188" xlink:href="#m9f30d8a07f" y="17.727969"/>
     </g>
    </g>
    <g id="text_43">
     <!-- VFDT -->
     <defs>
      <path d="M 28.609375 0 
L 0.78125 72.90625 
L 11.078125 72.90625 
L 34.1875 11.53125 
L 57.328125 72.90625 
L 67.578125 72.90625 
L 39.796875 0 
z
" id="DejaVuSans-86"/>
      <path d="M 9.8125 72.90625 
L 51.703125 72.90625 
L 51.703125 64.59375 
L 19.671875 64.59375 
L 19.671875 43.109375 
L 48.578125 43.109375 
L 48.578125 34.8125 
L 19.671875 34.8125 
L 19.671875 0 
L 9.8125 0 
z
" id="DejaVuSans-70"/>
      <path d="M 19.671875 64.796875 
L 19.671875 8.109375 
L 31.59375 8.109375 
Q 46.6875 8.109375 53.6875 14.9375 
Q 60.6875 21.78125 60.6875 36.53125 
Q 60.6875 51.171875 53.6875 57.984375 
Q 46.6875 64.796875 31.59375 64.796875 
z
M 9.8125 72.90625 
L 30.078125 72.90625 
Q 51.265625 72.90625 61.171875 64.09375 
Q 71.09375 55.28125 71.09375 36.53125 
Q 71.09375 17.671875 61.125 8.828125 
Q 51.171875 0 30.078125 0 
L 9.8125 0 
z
" id="DejaVuSans-68"/>
      <path d="M -0.296875 72.90625 
L 61.375 72.90625 
L 61.375 64.59375 
L 35.5 64.59375 
L 35.5 0 
L 25.59375 0 
L 25.59375 64.59375 
L -0.296875 64.59375 
z
" id="DejaVuSans-84"/>
     </defs>
     <g transform="translate(444.762188 22.277969)scale(0.13 -0.13)">
      <use xlink:href="#DejaVuSans-86"/>
      <use x="68.408203" xlink:href="#DejaVuSans-70"/>
      <use x="125.927734" xlink:href="#DejaVuSans-68"/>
      <use x="202.929688" xlink:href="#DejaVuSans-84"/>
     </g>
    </g>
    <g id="line2d_100"/>
    <g id="line2d_101"/>
    <g id="text_44">
     <!-- 0.9482 -->
     <g transform="translate(444.762188 41.359531)scale(0.13 -0.13)">
      <use xlink:href="#DejaVuSans-48"/>
      <use x="63.623047" xlink:href="#DejaVuSans-46"/>
      <use x="95.410156" xlink:href="#DejaVuSans-57"/>
      <use x="159.033203" xlink:href="#DejaVuSans-52"/>
      <use x="222.65625" xlink:href="#DejaVuSans-56"/>
      <use x="286.279297" xlink:href="#DejaVuSans-50"/>
     </g>
    </g>
    <g id="line2d_102"/>
    <g id="line2d_103"/>
    <g id="text_45">
     <!-- 0.9808 -->
     <g transform="translate(444.762188 60.441094)scale(0.13 -0.13)">
      <use xlink:href="#DejaVuSans-48"/>
      <use x="63.623047" xlink:href="#DejaVuSans-46"/>
      <use x="95.410156" xlink:href="#DejaVuSans-57"/>
      <use x="159.033203" xlink:href="#DejaVuSans-56"/>
      <use x="222.65625" xlink:href="#DejaVuSans-48"/>
      <use x="286.279297" xlink:href="#DejaVuSans-56"/>
     </g>
    </g>
    <g id="line2d_104"/>
    <g id="line2d_105"/>
    <g id="text_46">
     <!-- 0.7039 -->
     <g transform="translate(444.762188 79.522656)scale(0.13 -0.13)">
      <use xlink:href="#DejaVuSans-48"/>
      <use x="63.623047" xlink:href="#DejaVuSans-46"/>
      <use x="95.410156" xlink:href="#DejaVuSans-55"/>
      <use x="159.033203" xlink:href="#DejaVuSans-48"/>
      <use x="222.65625" xlink:href="#DejaVuSans-51"/>
      <use x="286.279297" xlink:href="#DejaVuSans-57"/>
     </g>
    </g>
    <g id="line2d_106"/>
    <g id="line2d_107"/>
    <g id="text_47">
     <!-- 0.8497 -->
     <g transform="translate(444.762188 98.604219)scale(0.13 -0.13)">
      <use xlink:href="#DejaVuSans-48"/>
      <use x="63.623047" xlink:href="#DejaVuSans-46"/>
      <use x="95.410156" xlink:href="#DejaVuSans-56"/>
      <use x="159.033203" xlink:href="#DejaVuSans-52"/>
      <use x="222.65625" xlink:href="#DejaVuSans-57"/>
      <use x="286.279297" xlink:href="#DejaVuSans-55"/>
     </g>
    </g>
   </g>
  </g>
 </g>
 <defs>
  <clipPath id="p700b1dc684">
   <rect height="277.2" width="390.6" x="104.85" y="112.051812"/>
  </clipPath>
 </defs>
</svg>
