<?xml version="1.0" encoding="utf-8" standalone="no"?>
<!DOCTYPE svg PUBLIC "-//W3C//DTD SVG 1.1//EN"
  "http://www.w3.org/Graphics/SVG/1.1/DTD/svg11.dtd">
<!-- Created with matplotlib (https://matplotlib.org/) -->
<svg height="432.614937pt" version="1.1" viewBox="0 0 502.65 432.614937" width="502.65pt" xmlns="http://www.w3.org/2000/svg" xmlns:xlink="http://www.w3.org/1999/xlink">
 <defs>
  <style type="text/css">
*{stroke-linecap:butt;stroke-linejoin:round;white-space:pre;}
  </style>
 </defs>
 <g id="figure_1">
  <g id="patch_1">
   <path d="M 0 432.614937 
L 502.65 432.614937 
L 502.65 0 
L 0 0 
z
" style="fill:#ffffff;"/>
  </g>
  <g id="axes_1">
   <g id="patch_2">
    <path d="M 104.85 389.251812 
L 495.45 389.251812 
L 495.45 112.051812 
L 104.85 112.051812 
z
" style="fill:#ffffff;"/>
   </g>
   <g id="matplotlib.axis_1">
    <g id="xtick_1">
     <g id="line2d_1">
      <defs>
       <path d="M 0 0 
L 0 3.5 
" id="mad772c2e0f" style="stroke:#000000;stroke-width:0.8;"/>
      </defs>
      <g>
       <use style="stroke:#000000;stroke-width:0.8;" x="148.907576" xlink:href="#mad772c2e0f" y="389.251812"/>
      </g>
     </g>
     <g id="text_1">
      <!-- 25 -->
      <defs>
       <path d="M 19.1875 8.296875 
L 53.609375 8.296875 
L 53.609375 0 
L 7.328125 0 
L 7.328125 8.296875 
Q 12.9375 14.109375 22.625 23.890625 
Q 32.328125 33.6875 34.8125 36.53125 
Q 39.546875 41.84375 41.421875 45.53125 
Q 43.3125 49.21875 43.3125 52.78125 
Q 43.3125 58.59375 39.234375 62.25 
Q 35.15625 65.921875 28.609375 65.921875 
Q 23.96875 65.921875 18.8125 64.3125 
Q 13.671875 62.703125 7.8125 59.421875 
L 7.8125 69.390625 
Q 13.765625 71.78125 18.9375 73 
Q 24.125 74.21875 28.421875 74.21875 
Q 39.75 74.21875 46.484375 68.546875 
Q 53.21875 62.890625 53.21875 53.421875 
Q 53.21875 48.921875 51.53125 44.890625 
Q 49.859375 40.875 45.40625 35.40625 
Q 44.1875 33.984375 37.640625 27.21875 
Q 31.109375 20.453125 19.1875 8.296875 
z
" id="DejaVuSans-50"/>
       <path d="M 10.796875 72.90625 
L 49.515625 72.90625 
L 49.515625 64.59375 
L 19.828125 64.59375 
L 19.828125 46.734375 
Q 21.96875 47.46875 24.109375 47.828125 
Q 26.265625 48.1875 28.421875 48.1875 
Q 40.625 48.1875 47.75 41.5 
Q 54.890625 34.8125 54.890625 23.390625 
Q 54.890625 11.625 47.5625 5.09375 
Q 40.234375 -1.421875 26.90625 -1.421875 
Q 22.3125 -1.421875 17.546875 -0.640625 
Q 12.796875 0.140625 7.71875 1.703125 
L 7.71875 11.625 
Q 12.109375 9.234375 16.796875 8.0625 
Q 21.484375 6.890625 26.703125 6.890625 
Q 35.15625 6.890625 40.078125 11.328125 
Q 45.015625 15.765625 45.015625 23.390625 
Q 45.015625 31 40.078125 35.4375 
Q 35.15625 39.890625 26.703125 39.890625 
Q 22.75 39.890625 18.8125 39.015625 
Q 14.890625 38.140625 10.796875 36.28125 
z
" id="DejaVuSans-53"/>
      </defs>
      <g transform="translate(140.636326 406.129781)scale(0.13 -0.13)">
       <use xlink:href="#DejaVuSans-50"/>
       <use x="63.623047" xlink:href="#DejaVuSans-53"/>
      </g>
     </g>
    </g>
    <g id="xtick_2">
     <g id="line2d_2">
      <g>
       <use style="stroke:#000000;stroke-width:0.8;" x="195.877273" xlink:href="#mad772c2e0f" y="389.251812"/>
      </g>
     </g>
     <g id="text_2">
      <!-- 50 -->
      <defs>
       <path d="M 31.78125 66.40625 
Q 24.171875 66.40625 20.328125 58.90625 
Q 16.5 51.421875 16.5 36.375 
Q 16.5 21.390625 20.328125 13.890625 
Q 24.171875 6.390625 31.78125 6.390625 
Q 39.453125 6.390625 43.28125 13.890625 
Q 47.125 21.390625 47.125 36.375 
Q 47.125 51.421875 43.28125 58.90625 
Q 39.453125 66.40625 31.78125 66.40625 
z
M 31.78125 74.21875 
Q 44.046875 74.21875 50.515625 64.515625 
Q 56.984375 54.828125 56.984375 36.375 
Q 56.984375 17.96875 50.515625 8.265625 
Q 44.046875 -1.421875 31.78125 -1.421875 
Q 19.53125 -1.421875 13.0625 8.265625 
Q 6.59375 17.96875 6.59375 36.375 
Q 6.59375 54.828125 13.0625 64.515625 
Q 19.53125 74.21875 31.78125 74.21875 
z
" id="DejaVuSans-48"/>
      </defs>
      <g transform="translate(187.606023 406.129781)scale(0.13 -0.13)">
       <use xlink:href="#DejaVuSans-53"/>
       <use x="63.623047" xlink:href="#DejaVuSans-48"/>
      </g>
     </g>
    </g>
    <g id="xtick_3">
     <g id="line2d_3">
      <g>
       <use style="stroke:#000000;stroke-width:0.8;" x="242.84697" xlink:href="#mad772c2e0f" y="389.251812"/>
      </g>
     </g>
     <g id="text_3">
      <!-- 75 -->
      <defs>
       <path d="M 8.203125 72.90625 
L 55.078125 72.90625 
L 55.078125 68.703125 
L 28.609375 0 
L 18.3125 0 
L 43.21875 64.59375 
L 8.203125 64.59375 
z
" id="DejaVuSans-55"/>
      </defs>
      <g transform="translate(234.57572 406.129781)scale(0.13 -0.13)">
       <use xlink:href="#DejaVuSans-55"/>
       <use x="63.623047" xlink:href="#DejaVuSans-53"/>
      </g>
     </g>
    </g>
    <g id="xtick_4">
     <g id="line2d_4">
      <g>
       <use style="stroke:#000000;stroke-width:0.8;" x="289.816667" xlink:href="#mad772c2e0f" y="389.251812"/>
      </g>
     </g>
     <g id="text_4">
      <!-- 100 -->
      <defs>
       <path d="M 12.40625 8.296875 
L 28.515625 8.296875 
L 28.515625 63.921875 
L 10.984375 60.40625 
L 10.984375 69.390625 
L 28.421875 72.90625 
L 38.28125 72.90625 
L 38.28125 8.296875 
L 54.390625 8.296875 
L 54.390625 0 
L 12.40625 0 
z
" id="DejaVuSans-49"/>
      </defs>
      <g transform="translate(277.409792 406.129781)scale(0.13 -0.13)">
       <use xlink:href="#DejaVuSans-49"/>
       <use x="63.623047" xlink:href="#DejaVuSans-48"/>
       <use x="127.246094" xlink:href="#DejaVuSans-48"/>
      </g>
     </g>
    </g>
    <g id="xtick_5">
     <g id="line2d_5">
      <g>
       <use style="stroke:#000000;stroke-width:0.8;" x="336.786364" xlink:href="#mad772c2e0f" y="389.251812"/>
      </g>
     </g>
     <g id="text_5">
      <!-- 125 -->
      <g transform="translate(324.379489 406.129781)scale(0.13 -0.13)">
       <use xlink:href="#DejaVuSans-49"/>
       <use x="63.623047" xlink:href="#DejaVuSans-50"/>
       <use x="127.246094" xlink:href="#DejaVuSans-53"/>
      </g>
     </g>
    </g>
    <g id="xtick_6">
     <g id="line2d_6">
      <g>
       <use style="stroke:#000000;stroke-width:0.8;" x="383.756061" xlink:href="#mad772c2e0f" y="389.251812"/>
      </g>
     </g>
     <g id="text_6">
      <!-- 150 -->
      <g transform="translate(371.349186 406.129781)scale(0.13 -0.13)">
       <use xlink:href="#DejaVuSans-49"/>
       <use x="63.623047" xlink:href="#DejaVuSans-53"/>
       <use x="127.246094" xlink:href="#DejaVuSans-48"/>
      </g>
     </g>
    </g>
    <g id="xtick_7">
     <g id="line2d_7">
      <g>
       <use style="stroke:#000000;stroke-width:0.8;" x="430.725758" xlink:href="#mad772c2e0f" y="389.251812"/>
      </g>
     </g>
     <g id="text_7">
      <!-- 175 -->
      <g transform="translate(418.318883 406.129781)scale(0.13 -0.13)">
       <use xlink:href="#DejaVuSans-49"/>
       <use x="63.623047" xlink:href="#DejaVuSans-55"/>
       <use x="127.246094" xlink:href="#DejaVuSans-53"/>
      </g>
     </g>
    </g>
    <g id="xtick_8">
     <g id="line2d_8">
      <g>
       <use style="stroke:#000000;stroke-width:0.8;" x="477.695455" xlink:href="#mad772c2e0f" y="389.251812"/>
      </g>
     </g>
     <g id="text_8">
      <!-- 200 -->
      <g transform="translate(465.28858 406.129781)scale(0.13 -0.13)">
       <use xlink:href="#DejaVuSans-50"/>
       <use x="63.623047" xlink:href="#DejaVuSans-48"/>
       <use x="127.246094" xlink:href="#DejaVuSans-48"/>
      </g>
     </g>
    </g>
    <g id="text_9">
     <!-- Number of processed instances [x1000] -->
     <defs>
      <path d="M 9.8125 72.90625 
L 23.09375 72.90625 
L 55.421875 11.921875 
L 55.421875 72.90625 
L 64.984375 72.90625 
L 64.984375 0 
L 51.703125 0 
L 19.390625 60.984375 
L 19.390625 0 
L 9.8125 0 
z
" id="DejaVuSans-78"/>
      <path d="M 8.5 21.578125 
L 8.5 54.6875 
L 17.484375 54.6875 
L 17.484375 21.921875 
Q 17.484375 14.15625 20.5 10.265625 
Q 23.53125 6.390625 29.59375 6.390625 
Q 36.859375 6.390625 41.078125 11.03125 
Q 45.3125 15.671875 45.3125 23.6875 
L 45.3125 54.6875 
L 54.296875 54.6875 
L 54.296875 0 
L 45.3125 0 
L 45.3125 8.40625 
Q 42.046875 3.421875 37.71875 1 
Q 33.40625 -1.421875 27.6875 -1.421875 
Q 18.265625 -1.421875 13.375 4.4375 
Q 8.5 10.296875 8.5 21.578125 
z
M 31.109375 56 
z
" id="DejaVuSans-117"/>
      <path d="M 52 44.1875 
Q 55.375 50.25 60.0625 53.125 
Q 64.75 56 71.09375 56 
Q 79.640625 56 84.28125 50.015625 
Q 88.921875 44.046875 88.921875 33.015625 
L 88.921875 0 
L 79.890625 0 
L 79.890625 32.71875 
Q 79.890625 40.578125 77.09375 44.375 
Q 74.3125 48.1875 68.609375 48.1875 
Q 61.625 48.1875 57.5625 43.546875 
Q 53.515625 38.921875 53.515625 30.90625 
L 53.515625 0 
L 44.484375 0 
L 44.484375 32.71875 
Q 44.484375 40.625 41.703125 44.40625 
Q 38.921875 48.1875 33.109375 48.1875 
Q 26.21875 48.1875 22.15625 43.53125 
Q 18.109375 38.875 18.109375 30.90625 
L 18.109375 0 
L 9.078125 0 
L 9.078125 54.6875 
L 18.109375 54.6875 
L 18.109375 46.1875 
Q 21.1875 51.21875 25.484375 53.609375 
Q 29.78125 56 35.6875 56 
Q 41.65625 56 45.828125 52.96875 
Q 50 49.953125 52 44.1875 
z
" id="DejaVuSans-109"/>
      <path d="M 48.6875 27.296875 
Q 48.6875 37.203125 44.609375 42.84375 
Q 40.53125 48.484375 33.40625 48.484375 
Q 26.265625 48.484375 22.1875 42.84375 
Q 18.109375 37.203125 18.109375 27.296875 
Q 18.109375 17.390625 22.1875 11.75 
Q 26.265625 6.109375 33.40625 6.109375 
Q 40.53125 6.109375 44.609375 11.75 
Q 48.6875 17.390625 48.6875 27.296875 
z
M 18.109375 46.390625 
Q 20.953125 51.265625 25.265625 53.625 
Q 29.59375 56 35.59375 56 
Q 45.5625 56 51.78125 48.09375 
Q 58.015625 40.1875 58.015625 27.296875 
Q 58.015625 14.40625 51.78125 6.484375 
Q 45.5625 -1.421875 35.59375 -1.421875 
Q 29.59375 -1.421875 25.265625 0.953125 
Q 20.953125 3.328125 18.109375 8.203125 
L 18.109375 0 
L 9.078125 0 
L 9.078125 75.984375 
L 18.109375 75.984375 
z
" id="DejaVuSans-98"/>
      <path d="M 56.203125 29.59375 
L 56.203125 25.203125 
L 14.890625 25.203125 
Q 15.484375 15.921875 20.484375 11.0625 
Q 25.484375 6.203125 34.421875 6.203125 
Q 39.59375 6.203125 44.453125 7.46875 
Q 49.3125 8.734375 54.109375 11.28125 
L 54.109375 2.78125 
Q 49.265625 0.734375 44.1875 -0.34375 
Q 39.109375 -1.421875 33.890625 -1.421875 
Q 20.796875 -1.421875 13.15625 6.1875 
Q 5.515625 13.8125 5.515625 26.8125 
Q 5.515625 40.234375 12.765625 48.109375 
Q 20.015625 56 32.328125 56 
Q 43.359375 56 49.78125 48.890625 
Q 56.203125 41.796875 56.203125 29.59375 
z
M 47.21875 32.234375 
Q 47.125 39.59375 43.09375 43.984375 
Q 39.0625 48.390625 32.421875 48.390625 
Q 24.90625 48.390625 20.390625 44.140625 
Q 15.875 39.890625 15.1875 32.171875 
z
" id="DejaVuSans-101"/>
      <path d="M 41.109375 46.296875 
Q 39.59375 47.171875 37.8125 47.578125 
Q 36.03125 48 33.890625 48 
Q 26.265625 48 22.1875 43.046875 
Q 18.109375 38.09375 18.109375 28.8125 
L 18.109375 0 
L 9.078125 0 
L 9.078125 54.6875 
L 18.109375 54.6875 
L 18.109375 46.1875 
Q 20.953125 51.171875 25.484375 53.578125 
Q 30.03125 56 36.53125 56 
Q 37.453125 56 38.578125 55.875 
Q 39.703125 55.765625 41.0625 55.515625 
z
" id="DejaVuSans-114"/>
      <path id="DejaVuSans-32"/>
      <path d="M 30.609375 48.390625 
Q 23.390625 48.390625 19.1875 42.75 
Q 14.984375 37.109375 14.984375 27.296875 
Q 14.984375 17.484375 19.15625 11.84375 
Q 23.34375 6.203125 30.609375 6.203125 
Q 37.796875 6.203125 41.984375 11.859375 
Q 46.1875 17.53125 46.1875 27.296875 
Q 46.1875 37.015625 41.984375 42.703125 
Q 37.796875 48.390625 30.609375 48.390625 
z
M 30.609375 56 
Q 42.328125 56 49.015625 48.375 
Q 55.71875 40.765625 55.71875 27.296875 
Q 55.71875 13.875 49.015625 6.21875 
Q 42.328125 -1.421875 30.609375 -1.421875 
Q 18.84375 -1.421875 12.171875 6.21875 
Q 5.515625 13.875 5.515625 27.296875 
Q 5.515625 40.765625 12.171875 48.375 
Q 18.84375 56 30.609375 56 
z
" id="DejaVuSans-111"/>
      <path d="M 37.109375 75.984375 
L 37.109375 68.5 
L 28.515625 68.5 
Q 23.6875 68.5 21.796875 66.546875 
Q 19.921875 64.59375 19.921875 59.515625 
L 19.921875 54.6875 
L 34.71875 54.6875 
L 34.71875 47.703125 
L 19.921875 47.703125 
L 19.921875 0 
L 10.890625 0 
L 10.890625 47.703125 
L 2.296875 47.703125 
L 2.296875 54.6875 
L 10.890625 54.6875 
L 10.890625 58.5 
Q 10.890625 67.625 15.140625 71.796875 
Q 19.390625 75.984375 28.609375 75.984375 
z
" id="DejaVuSans-102"/>
      <path d="M 18.109375 8.203125 
L 18.109375 -20.796875 
L 9.078125 -20.796875 
L 9.078125 54.6875 
L 18.109375 54.6875 
L 18.109375 46.390625 
Q 20.953125 51.265625 25.265625 53.625 
Q 29.59375 56 35.59375 56 
Q 45.5625 56 51.78125 48.09375 
Q 58.015625 40.1875 58.015625 27.296875 
Q 58.015625 14.40625 51.78125 6.484375 
Q 45.5625 -1.421875 35.59375 -1.421875 
Q 29.59375 -1.421875 25.265625 0.953125 
Q 20.953125 3.328125 18.109375 8.203125 
z
M 48.6875 27.296875 
Q 48.6875 37.203125 44.609375 42.84375 
Q 40.53125 48.484375 33.40625 48.484375 
Q 26.265625 48.484375 22.1875 42.84375 
Q 18.109375 37.203125 18.109375 27.296875 
Q 18.109375 17.390625 22.1875 11.75 
Q 26.265625 6.109375 33.40625 6.109375 
Q 40.53125 6.109375 44.609375 11.75 
Q 48.6875 17.390625 48.6875 27.296875 
z
" id="DejaVuSans-112"/>
      <path d="M 48.78125 52.59375 
L 48.78125 44.1875 
Q 44.96875 46.296875 41.140625 47.34375 
Q 37.3125 48.390625 33.40625 48.390625 
Q 24.65625 48.390625 19.8125 42.84375 
Q 14.984375 37.3125 14.984375 27.296875 
Q 14.984375 17.28125 19.8125 11.734375 
Q 24.65625 6.203125 33.40625 6.203125 
Q 37.3125 6.203125 41.140625 7.25 
Q 44.96875 8.296875 48.78125 10.40625 
L 48.78125 2.09375 
Q 45.015625 0.34375 40.984375 -0.53125 
Q 36.96875 -1.421875 32.421875 -1.421875 
Q 20.0625 -1.421875 12.78125 6.34375 
Q 5.515625 14.109375 5.515625 27.296875 
Q 5.515625 40.671875 12.859375 48.328125 
Q 20.21875 56 33.015625 56 
Q 37.15625 56 41.109375 55.140625 
Q 45.0625 54.296875 48.78125 52.59375 
z
" id="DejaVuSans-99"/>
      <path d="M 44.28125 53.078125 
L 44.28125 44.578125 
Q 40.484375 46.53125 36.375 47.5 
Q 32.28125 48.484375 27.875 48.484375 
Q 21.1875 48.484375 17.84375 46.4375 
Q 14.5 44.390625 14.5 40.28125 
Q 14.5 37.15625 16.890625 35.375 
Q 19.28125 33.59375 26.515625 31.984375 
L 29.59375 31.296875 
Q 39.15625 29.25 43.1875 25.515625 
Q 47.21875 21.78125 47.21875 15.09375 
Q 47.21875 7.46875 41.1875 3.015625 
Q 35.15625 -1.421875 24.609375 -1.421875 
Q 20.21875 -1.421875 15.453125 -0.5625 
Q 10.6875 0.296875 5.421875 2 
L 5.421875 11.28125 
Q 10.40625 8.6875 15.234375 7.390625 
Q 20.0625 6.109375 24.8125 6.109375 
Q 31.15625 6.109375 34.5625 8.28125 
Q 37.984375 10.453125 37.984375 14.40625 
Q 37.984375 18.0625 35.515625 20.015625 
Q 33.0625 21.96875 24.703125 23.78125 
L 21.578125 24.515625 
Q 13.234375 26.265625 9.515625 29.90625 
Q 5.8125 33.546875 5.8125 39.890625 
Q 5.8125 47.609375 11.28125 51.796875 
Q 16.75 56 26.8125 56 
Q 31.78125 56 36.171875 55.265625 
Q 40.578125 54.546875 44.28125 53.078125 
z
" id="DejaVuSans-115"/>
      <path d="M 45.40625 46.390625 
L 45.40625 75.984375 
L 54.390625 75.984375 
L 54.390625 0 
L 45.40625 0 
L 45.40625 8.203125 
Q 42.578125 3.328125 38.25 0.953125 
Q 33.9375 -1.421875 27.875 -1.421875 
Q 17.96875 -1.421875 11.734375 6.484375 
Q 5.515625 14.40625 5.515625 27.296875 
Q 5.515625 40.1875 11.734375 48.09375 
Q 17.96875 56 27.875 56 
Q 33.9375 56 38.25 53.625 
Q 42.578125 51.265625 45.40625 46.390625 
z
M 14.796875 27.296875 
Q 14.796875 17.390625 18.875 11.75 
Q 22.953125 6.109375 30.078125 6.109375 
Q 37.203125 6.109375 41.296875 11.75 
Q 45.40625 17.390625 45.40625 27.296875 
Q 45.40625 37.203125 41.296875 42.84375 
Q 37.203125 48.484375 30.078125 48.484375 
Q 22.953125 48.484375 18.875 42.84375 
Q 14.796875 37.203125 14.796875 27.296875 
z
" id="DejaVuSans-100"/>
      <path d="M 9.421875 54.6875 
L 18.40625 54.6875 
L 18.40625 0 
L 9.421875 0 
z
M 9.421875 75.984375 
L 18.40625 75.984375 
L 18.40625 64.59375 
L 9.421875 64.59375 
z
" id="DejaVuSans-105"/>
      <path d="M 54.890625 33.015625 
L 54.890625 0 
L 45.90625 0 
L 45.90625 32.71875 
Q 45.90625 40.484375 42.875 44.328125 
Q 39.84375 48.1875 33.796875 48.1875 
Q 26.515625 48.1875 22.3125 43.546875 
Q 18.109375 38.921875 18.109375 30.90625 
L 18.109375 0 
L 9.078125 0 
L 9.078125 54.6875 
L 18.109375 54.6875 
L 18.109375 46.1875 
Q 21.34375 51.125 25.703125 53.5625 
Q 30.078125 56 35.796875 56 
Q 45.21875 56 50.046875 50.171875 
Q 54.890625 44.34375 54.890625 33.015625 
z
" id="DejaVuSans-110"/>
      <path d="M 18.3125 70.21875 
L 18.3125 54.6875 
L 36.8125 54.6875 
L 36.8125 47.703125 
L 18.3125 47.703125 
L 18.3125 18.015625 
Q 18.3125 11.328125 20.140625 9.421875 
Q 21.96875 7.515625 27.59375 7.515625 
L 36.8125 7.515625 
L 36.8125 0 
L 27.59375 0 
Q 17.1875 0 13.234375 3.875 
Q 9.28125 7.765625 9.28125 18.015625 
L 9.28125 47.703125 
L 2.6875 47.703125 
L 2.6875 54.6875 
L 9.28125 54.6875 
L 9.28125 70.21875 
z
" id="DejaVuSans-116"/>
      <path d="M 34.28125 27.484375 
Q 23.390625 27.484375 19.1875 25 
Q 14.984375 22.515625 14.984375 16.5 
Q 14.984375 11.71875 18.140625 8.90625 
Q 21.296875 6.109375 26.703125 6.109375 
Q 34.1875 6.109375 38.703125 11.40625 
Q 43.21875 16.703125 43.21875 25.484375 
L 43.21875 27.484375 
z
M 52.203125 31.203125 
L 52.203125 0 
L 43.21875 0 
L 43.21875 8.296875 
Q 40.140625 3.328125 35.546875 0.953125 
Q 30.953125 -1.421875 24.3125 -1.421875 
Q 15.921875 -1.421875 10.953125 3.296875 
Q 6 8.015625 6 15.921875 
Q 6 25.140625 12.171875 29.828125 
Q 18.359375 34.515625 30.609375 34.515625 
L 43.21875 34.515625 
L 43.21875 35.40625 
Q 43.21875 41.609375 39.140625 45 
Q 35.0625 48.390625 27.6875 48.390625 
Q 23 48.390625 18.546875 47.265625 
Q 14.109375 46.140625 10.015625 43.890625 
L 10.015625 52.203125 
Q 14.9375 54.109375 19.578125 55.046875 
Q 24.21875 56 28.609375 56 
Q 40.484375 56 46.34375 49.84375 
Q 52.203125 43.703125 52.203125 31.203125 
z
" id="DejaVuSans-97"/>
      <path d="M 8.59375 75.984375 
L 29.296875 75.984375 
L 29.296875 69 
L 17.578125 69 
L 17.578125 -6.203125 
L 29.296875 -6.203125 
L 29.296875 -13.1875 
L 8.59375 -13.1875 
z
" id="DejaVuSans-91"/>
      <path d="M 54.890625 54.6875 
L 35.109375 28.078125 
L 55.90625 0 
L 45.3125 0 
L 29.390625 21.484375 
L 13.484375 0 
L 2.875 0 
L 24.125 28.609375 
L 4.6875 54.6875 
L 15.28125 54.6875 
L 29.78125 35.203125 
L 44.28125 54.6875 
z
" id="DejaVuSans-120"/>
      <path d="M 30.421875 75.984375 
L 30.421875 -13.1875 
L 9.71875 -13.1875 
L 9.71875 -6.203125 
L 21.390625 -6.203125 
L 21.390625 69 
L 9.71875 69 
L 9.71875 75.984375 
z
" id="DejaVuSans-93"/>
     </defs>
     <g transform="translate(169.880859 422.711344)scale(0.13 -0.13)">
      <use xlink:href="#DejaVuSans-78"/>
      <use x="74.804688" xlink:href="#DejaVuSans-117"/>
      <use x="138.183594" xlink:href="#DejaVuSans-109"/>
      <use x="235.595703" xlink:href="#DejaVuSans-98"/>
      <use x="299.072266" xlink:href="#DejaVuSans-101"/>
      <use x="360.595703" xlink:href="#DejaVuSans-114"/>
      <use x="401.708984" xlink:href="#DejaVuSans-32"/>
      <use x="433.496094" xlink:href="#DejaVuSans-111"/>
      <use x="494.677734" xlink:href="#DejaVuSans-102"/>
      <use x="529.882812" xlink:href="#DejaVuSans-32"/>
      <use x="561.669922" xlink:href="#DejaVuSans-112"/>
      <use x="625.146484" xlink:href="#DejaVuSans-114"/>
      <use x="666.228516" xlink:href="#DejaVuSans-111"/>
      <use x="727.410156" xlink:href="#DejaVuSans-99"/>
      <use x="782.390625" xlink:href="#DejaVuSans-101"/>
      <use x="843.914062" xlink:href="#DejaVuSans-115"/>
      <use x="896.013672" xlink:href="#DejaVuSans-115"/>
      <use x="948.113281" xlink:href="#DejaVuSans-101"/>
      <use x="1009.636719" xlink:href="#DejaVuSans-100"/>
      <use x="1073.113281" xlink:href="#DejaVuSans-32"/>
      <use x="1104.900391" xlink:href="#DejaVuSans-105"/>
      <use x="1132.683594" xlink:href="#DejaVuSans-110"/>
      <use x="1196.0625" xlink:href="#DejaVuSans-115"/>
      <use x="1248.162109" xlink:href="#DejaVuSans-116"/>
      <use x="1287.371094" xlink:href="#DejaVuSans-97"/>
      <use x="1348.650391" xlink:href="#DejaVuSans-110"/>
      <use x="1412.029297" xlink:href="#DejaVuSans-99"/>
      <use x="1467.009766" xlink:href="#DejaVuSans-101"/>
      <use x="1528.533203" xlink:href="#DejaVuSans-115"/>
      <use x="1580.632812" xlink:href="#DejaVuSans-32"/>
      <use x="1612.419922" xlink:href="#DejaVuSans-91"/>
      <use x="1651.433594" xlink:href="#DejaVuSans-120"/>
      <use x="1710.613281" xlink:href="#DejaVuSans-49"/>
      <use x="1774.236328" xlink:href="#DejaVuSans-48"/>
      <use x="1837.859375" xlink:href="#DejaVuSans-48"/>
      <use x="1901.482422" xlink:href="#DejaVuSans-48"/>
      <use x="1965.105469" xlink:href="#DejaVuSans-93"/>
     </g>
    </g>
   </g>
   <g id="matplotlib.axis_2">
    <g id="ytick_1">
     <g id="line2d_9">
      <defs>
       <path d="M 0 0 
L -3.5 0 
" id="m8feb7d2c5c" style="stroke:#000000;stroke-width:0.8;"/>
      </defs>
      <g>
       <use style="stroke:#000000;stroke-width:0.8;" x="104.85" xlink:href="#m8feb7d2c5c" y="376.651813"/>
      </g>
     </g>
     <g id="text_10">
      <!-- 0.0 -->
      <defs>
       <path d="M 10.6875 12.40625 
L 21 12.40625 
L 21 0 
L 10.6875 0 
z
" id="DejaVuSans-46"/>
      </defs>
      <g transform="translate(77.175937 381.590797)scale(0.13 -0.13)">
       <use xlink:href="#DejaVuSans-48"/>
       <use x="63.623047" xlink:href="#DejaVuSans-46"/>
       <use x="95.410156" xlink:href="#DejaVuSans-48"/>
      </g>
     </g>
    </g>
    <g id="ytick_2">
     <g id="line2d_10">
      <g>
       <use style="stroke:#000000;stroke-width:0.8;" x="104.85" xlink:href="#m8feb7d2c5c" y="319.668863"/>
      </g>
     </g>
     <g id="text_11">
      <!-- 0.2 -->
      <g transform="translate(77.175937 324.607848)scale(0.13 -0.13)">
       <use xlink:href="#DejaVuSans-48"/>
       <use x="63.623047" xlink:href="#DejaVuSans-46"/>
       <use x="95.410156" xlink:href="#DejaVuSans-50"/>
      </g>
     </g>
    </g>
    <g id="ytick_3">
     <g id="line2d_11">
      <g>
       <use style="stroke:#000000;stroke-width:0.8;" x="104.85" xlink:href="#m8feb7d2c5c" y="262.685914"/>
      </g>
     </g>
     <g id="text_12">
      <!-- 0.4 -->
      <defs>
       <path d="M 37.796875 64.3125 
L 12.890625 25.390625 
L 37.796875 25.390625 
z
M 35.203125 72.90625 
L 47.609375 72.90625 
L 47.609375 25.390625 
L 58.015625 25.390625 
L 58.015625 17.1875 
L 47.609375 17.1875 
L 47.609375 0 
L 37.796875 0 
L 37.796875 17.1875 
L 4.890625 17.1875 
L 4.890625 26.703125 
z
" id="DejaVuSans-52"/>
      </defs>
      <g transform="translate(77.175937 267.624899)scale(0.13 -0.13)">
       <use xlink:href="#DejaVuSans-48"/>
       <use x="63.623047" xlink:href="#DejaVuSans-46"/>
       <use x="95.410156" xlink:href="#DejaVuSans-52"/>
      </g>
     </g>
    </g>
    <g id="ytick_4">
     <g id="line2d_12">
      <g>
       <use style="stroke:#000000;stroke-width:0.8;" x="104.85" xlink:href="#m8feb7d2c5c" y="205.702965"/>
      </g>
     </g>
     <g id="text_13">
      <!-- 0.6 -->
      <defs>
       <path d="M 33.015625 40.375 
Q 26.375 40.375 22.484375 35.828125 
Q 18.609375 31.296875 18.609375 23.390625 
Q 18.609375 15.53125 22.484375 10.953125 
Q 26.375 6.390625 33.015625 6.390625 
Q 39.65625 6.390625 43.53125 10.953125 
Q 47.40625 15.53125 47.40625 23.390625 
Q 47.40625 31.296875 43.53125 35.828125 
Q 39.65625 40.375 33.015625 40.375 
z
M 52.59375 71.296875 
L 52.59375 62.3125 
Q 48.875 64.0625 45.09375 64.984375 
Q 41.3125 65.921875 37.59375 65.921875 
Q 27.828125 65.921875 22.671875 59.328125 
Q 17.53125 52.734375 16.796875 39.40625 
Q 19.671875 43.65625 24.015625 45.921875 
Q 28.375 48.1875 33.59375 48.1875 
Q 44.578125 48.1875 50.953125 41.515625 
Q 57.328125 34.859375 57.328125 23.390625 
Q 57.328125 12.15625 50.6875 5.359375 
Q 44.046875 -1.421875 33.015625 -1.421875 
Q 20.359375 -1.421875 13.671875 8.265625 
Q 6.984375 17.96875 6.984375 36.375 
Q 6.984375 53.65625 15.1875 63.9375 
Q 23.390625 74.21875 37.203125 74.21875 
Q 40.921875 74.21875 44.703125 73.484375 
Q 48.484375 72.75 52.59375 71.296875 
z
" id="DejaVuSans-54"/>
      </defs>
      <g transform="translate(77.175937 210.64195)scale(0.13 -0.13)">
       <use xlink:href="#DejaVuSans-48"/>
       <use x="63.623047" xlink:href="#DejaVuSans-46"/>
       <use x="95.410156" xlink:href="#DejaVuSans-54"/>
      </g>
     </g>
    </g>
    <g id="ytick_5">
     <g id="line2d_13">
      <g>
       <use style="stroke:#000000;stroke-width:0.8;" x="104.85" xlink:href="#m8feb7d2c5c" y="148.720016"/>
      </g>
     </g>
     <g id="text_14">
      <!-- 0.8 -->
      <defs>
       <path d="M 31.78125 34.625 
Q 24.75 34.625 20.71875 30.859375 
Q 16.703125 27.09375 16.703125 20.515625 
Q 16.703125 13.921875 20.71875 10.15625 
Q 24.75 6.390625 31.78125 6.390625 
Q 38.8125 6.390625 42.859375 10.171875 
Q 46.921875 13.96875 46.921875 20.515625 
Q 46.921875 27.09375 42.890625 30.859375 
Q 38.875 34.625 31.78125 34.625 
z
M 21.921875 38.8125 
Q 15.578125 40.375 12.03125 44.71875 
Q 8.5 49.078125 8.5 55.328125 
Q 8.5 64.0625 14.71875 69.140625 
Q 20.953125 74.21875 31.78125 74.21875 
Q 42.671875 74.21875 48.875 69.140625 
Q 55.078125 64.0625 55.078125 55.328125 
Q 55.078125 49.078125 51.53125 44.71875 
Q 48 40.375 41.703125 38.8125 
Q 48.828125 37.15625 52.796875 32.3125 
Q 56.78125 27.484375 56.78125 20.515625 
Q 56.78125 9.90625 50.3125 4.234375 
Q 43.84375 -1.421875 31.78125 -1.421875 
Q 19.734375 -1.421875 13.25 4.234375 
Q 6.78125 9.90625 6.78125 20.515625 
Q 6.78125 27.484375 10.78125 32.3125 
Q 14.796875 37.15625 21.921875 38.8125 
z
M 18.3125 54.390625 
Q 18.3125 48.734375 21.84375 45.5625 
Q 25.390625 42.390625 31.78125 42.390625 
Q 38.140625 42.390625 41.71875 45.5625 
Q 45.3125 48.734375 45.3125 54.390625 
Q 45.3125 60.0625 41.71875 63.234375 
Q 38.140625 66.40625 31.78125 66.40625 
Q 25.390625 66.40625 21.84375 63.234375 
Q 18.3125 60.0625 18.3125 54.390625 
z
" id="DejaVuSans-56"/>
      </defs>
      <g transform="translate(77.175937 153.659001)scale(0.13 -0.13)">
       <use xlink:href="#DejaVuSans-48"/>
       <use x="63.623047" xlink:href="#DejaVuSans-46"/>
       <use x="95.410156" xlink:href="#DejaVuSans-56"/>
      </g>
     </g>
    </g>
    <g id="text_15">
     <!-- Recall -->
     <defs>
      <path d="M 44.390625 34.1875 
Q 47.5625 33.109375 50.5625 29.59375 
Q 53.5625 26.078125 56.59375 19.921875 
L 66.609375 0 
L 56 0 
L 46.6875 18.703125 
Q 43.0625 26.03125 39.671875 28.421875 
Q 36.28125 30.8125 30.421875 30.8125 
L 19.671875 30.8125 
L 19.671875 0 
L 9.8125 0 
L 9.8125 72.90625 
L 32.078125 72.90625 
Q 44.578125 72.90625 50.734375 67.671875 
Q 56.890625 62.453125 56.890625 51.90625 
Q 56.890625 45.015625 53.6875 40.46875 
Q 50.484375 35.9375 44.390625 34.1875 
z
M 19.671875 64.796875 
L 19.671875 38.921875 
L 32.078125 38.921875 
Q 39.203125 38.921875 42.84375 42.21875 
Q 46.484375 45.515625 46.484375 51.90625 
Q 46.484375 58.296875 42.84375 61.546875 
Q 39.203125 64.796875 32.078125 64.796875 
z
" id="DejaVuSans-82"/>
      <path d="M 9.421875 75.984375 
L 18.40625 75.984375 
L 18.40625 0 
L 9.421875 0 
z
" id="DejaVuSans-108"/>
     </defs>
     <g transform="translate(70.472344 270.332594)rotate(-90)scale(0.13 -0.13)">
      <use xlink:href="#DejaVuSans-82"/>
      <use x="69.419922" xlink:href="#DejaVuSans-101"/>
      <use x="130.943359" xlink:href="#DejaVuSans-99"/>
      <use x="185.923828" xlink:href="#DejaVuSans-97"/>
      <use x="247.203125" xlink:href="#DejaVuSans-108"/>
      <use x="274.986328" xlink:href="#DejaVuSans-108"/>
     </g>
    </g>
   </g>
   <g id="line2d_14"/>
   <g id="line2d_15"/>
   <g id="line2d_16"/>
   <g id="line2d_17"/>
   <g id="line2d_18"/>
   <g id="line2d_19">
    <path clip-path="url(#pa96947deed)" d="M 122.604545 143.539748 
L 124.483333 146.129882 
L 126.362121 127.998944 
L 128.240909 136.740646 
L 130.119697 134.071369 
L 131.998485 127.015652 
L 133.877273 132.151381 
L 135.756061 134.222461 
L 137.634848 139.49887 
L 139.513636 138.7929 
L 141.392424 144.875634 
L 143.271212 144.637342 
L 145.15 146.829953 
L 147.028788 148.445034 
L 148.907576 152.804924 
L 150.786364 151.956045 
L 152.665152 154.000316 
L 154.543939 152.124106 
L 156.422727 153.444495 
L 158.301515 152.394229 
L 160.180303 151.099162 
L 162.059091 150.624304 
L 163.937879 153.473451 
L 165.816667 152.286307 
L 167.695455 154.264881 
L 171.45303 160.404116 
L 173.331818 158.979542 
L 175.210606 157.071022 
L 177.089394 158.597351 
L 178.968182 154.194123 
L 180.84697 152.975237 
L 182.725758 150.940131 
L 184.604545 151.328651 
L 186.483333 145.223335 
L 188.362121 147.936809 
L 190.240909 147.936809 
L 192.119697 152.617551 
L 193.998485 149.92669 
L 195.877273 147.891585 
L 197.756061 147.692344 
L 199.634848 148.879488 
L 201.513636 146.030341 
L 203.392424 145.080625 
L 205.271212 143.89348 
L 207.15 145.224126 
L 209.028788 141.741835 
L 210.907576 140.317261 
L 212.786364 144.058566 
L 214.665152 141.592957 
L 216.543939 141.722464 
L 218.422727 140.427397 
L 220.301515 138.392292 
L 222.180303 136.708705 
L 224.059091 138.608136 
L 225.937879 137.081807 
L 227.816667 134.113945 
L 229.695455 129.104455 
L 231.574242 131.08303 
L 233.45303 131.08303 
L 235.331818 131.282271 
L 237.210606 127.720837 
L 239.089394 127.720837 
L 240.968182 128.670553 
L 242.84697 128.670553 
L 244.725758 130.392565 
L 246.604545 130.075993 
L 248.483333 134.824572 
L 250.362121 132.378334 
L 252.240909 131.282508 
L 254.119697 131.89304 
L 255.998485 134.267329 
L 257.877273 135.562396 
L 261.634848 137.483412 
L 263.513636 137.992189 
L 265.392424 141.909767 
L 267.271212 143.404075 
L 269.15 144.225944 
L 271.028788 146.006661 
L 272.907576 146.7467 
L 274.786364 149.912419 
L 276.665152 153.473853 
L 278.543939 154.265283 
L 280.422727 156.639573 
L 282.301515 156.469981 
L 284.180303 160.743702 
L 286.059091 159.880324 
L 287.937879 157.182267 
L 289.816667 157.182267 
L 291.695455 157.737296 
L 293.574242 162.485875 
L 295.45303 168.313677 
L 297.331818 166.651674 
L 299.210606 167.090005 
L 301.089394 166.185513 
L 302.968182 162.163187 
L 304.84697 164.321632 
L 308.604545 160.747746 
L 310.483333 162.000118 
L 312.362121 160.258972 
L 314.240909 157.715091 
L 317.998485 151.581509 
L 319.877273 145.645786 
L 321.756061 144.755427 
L 323.634848 145.618805 
L 325.513636 144.43166 
L 327.392424 148.814964 
L 329.271212 148.005547 
L 331.15 143.731826 
L 333.028788 142.714273 
L 334.907576 142.849947 
L 336.786364 147.70289 
L 338.665152 151.66004 
L 340.543939 153.271548 
L 344.301515 156.108362 
L 346.180303 160.856941 
L 348.059091 164.044798 
L 349.937879 166.181659 
L 351.816667 165.164106 
L 353.695455 170.643236 
L 355.574242 171.711666 
L 357.45303 173.492383 
L 359.331818 167.259873 
L 361.210606 166.396495 
L 363.089394 170.779799 
L 364.968182 171.738647 
L 366.84697 174.02814 
L 368.725758 174.02814 
L 370.604545 171.484259 
L 372.483333 170.873727 
L 374.362121 164.768411 
L 376.240909 162.394122 
L 378.119697 159.106644 
L 379.998485 158.699623 
L 381.877273 154.629412 
L 383.756061 151.915938 
L 385.634848 147.475708 
L 387.513636 146.763422 
L 389.392424 155.073435 
L 391.271212 151.785957 
L 393.15 148.93681 
L 395.028788 148.105808 
L 396.907576 151.667243 
L 398.786364 150.156331 
L 400.665152 150.046749 
L 402.543939 146.485314 
L 404.422727 145.467762 
L 406.301515 147.001918 
L 408.180303 148.919613 
L 410.059091 152.243619 
L 411.937879 154.482235 
L 413.816667 154.482235 
L 415.695455 157.647954 
L 417.574242 155.115378 
L 419.45303 159.863957 
L 421.331818 159.609569 
L 423.210606 159.609569 
L 425.089394 159.926141 
L 426.968182 154.465275 
L 428.84697 157.022202 
L 430.725758 160.583637 
L 432.604545 161.058495 
L 434.483333 163.828499 
L 436.362121 164.303357 
L 438.240909 163.195355 
L 440.119697 161.414638 
L 441.998485 159.94484 
L 443.877273 157.144396 
L 445.756061 157.007418 
L 447.634848 157.346602 
L 451.392424 152.733696 
L 453.271212 153.638188 
L 455.15 152.846758 
L 457.028788 151.659613 
L 458.907576 151.659613 
L 460.786364 155.955946 
L 462.665152 158.488522 
L 464.543939 158.926852 
L 468.301515 163.845024 
L 470.180303 167.600718 
L 472.059091 163.859413 
L 473.937879 168.924564 
L 475.816667 168.607992 
L 477.695455 178.10515 
L 477.695455 178.10515 
" style="fill:none;stroke:#cc3311;stroke-linecap:square;stroke-width:0.5;"/>
    <defs>
     <path d="M 0 2.5 
C 0.663008 2.5 1.29895 2.236584 1.767767 1.767767 
C 2.236584 1.29895 2.5 0.663008 2.5 0 
C 2.5 -0.663008 2.236584 -1.29895 1.767767 -1.767767 
C 1.29895 -2.236584 0.663008 -2.5 0 -2.5 
C -0.663008 -2.5 -1.29895 -2.236584 -1.767767 -1.767767 
C -2.236584 -1.29895 -2.5 -0.663008 -2.5 0 
C -2.5 0.663008 -2.236584 1.29895 -1.767767 1.767767 
C -1.29895 2.236584 -0.663008 2.5 0 2.5 
z
" id="m86146f8125" style="stroke:#cc3311;"/>
    </defs>
    <g clip-path="url(#pa96947deed)">
     <use style="fill:#cc3311;stroke:#cc3311;" x="122.604545" xlink:href="#m86146f8125" y="143.539748"/>
     <use style="fill:#cc3311;stroke:#cc3311;" x="141.392424" xlink:href="#m86146f8125" y="144.875634"/>
     <use style="fill:#cc3311;stroke:#cc3311;" x="160.180303" xlink:href="#m86146f8125" y="151.099162"/>
     <use style="fill:#cc3311;stroke:#cc3311;" x="178.968182" xlink:href="#m86146f8125" y="154.194123"/>
     <use style="fill:#cc3311;stroke:#cc3311;" x="197.756061" xlink:href="#m86146f8125" y="147.692344"/>
     <use style="fill:#cc3311;stroke:#cc3311;" x="216.543939" xlink:href="#m86146f8125" y="141.722464"/>
     <use style="fill:#cc3311;stroke:#cc3311;" x="235.331818" xlink:href="#m86146f8125" y="131.282271"/>
     <use style="fill:#cc3311;stroke:#cc3311;" x="254.119697" xlink:href="#m86146f8125" y="131.89304"/>
     <use style="fill:#cc3311;stroke:#cc3311;" x="272.907576" xlink:href="#m86146f8125" y="146.7467"/>
     <use style="fill:#cc3311;stroke:#cc3311;" x="291.695455" xlink:href="#m86146f8125" y="157.737296"/>
     <use style="fill:#cc3311;stroke:#cc3311;" x="310.483333" xlink:href="#m86146f8125" y="162.000118"/>
     <use style="fill:#cc3311;stroke:#cc3311;" x="329.271212" xlink:href="#m86146f8125" y="148.005547"/>
     <use style="fill:#cc3311;stroke:#cc3311;" x="348.059091" xlink:href="#m86146f8125" y="164.044798"/>
     <use style="fill:#cc3311;stroke:#cc3311;" x="366.84697" xlink:href="#m86146f8125" y="174.02814"/>
     <use style="fill:#cc3311;stroke:#cc3311;" x="385.634848" xlink:href="#m86146f8125" y="147.475708"/>
     <use style="fill:#cc3311;stroke:#cc3311;" x="404.422727" xlink:href="#m86146f8125" y="145.467762"/>
     <use style="fill:#cc3311;stroke:#cc3311;" x="423.210606" xlink:href="#m86146f8125" y="159.609569"/>
     <use style="fill:#cc3311;stroke:#cc3311;" x="441.998485" xlink:href="#m86146f8125" y="159.94484"/>
     <use style="fill:#cc3311;stroke:#cc3311;" x="460.786364" xlink:href="#m86146f8125" y="155.955946"/>
    </g>
   </g>
   <g id="line2d_20"/>
   <g id="line2d_21"/>
   <g id="line2d_22"/>
   <g id="line2d_23"/>
   <g id="line2d_24">
    <path clip-path="url(#pa96947deed)" d="M 122.604545 273.046451 
L 124.483333 225.128971 
L 126.362121 219.770948 
L 128.240909 232.280407 
L 130.119697 210.503178 
L 131.998485 202.580274 
L 133.877273 202.00882 
L 135.756061 195.34772 
L 137.634848 197.16477 
L 139.513636 190.69221 
L 141.392424 197.237092 
L 145.15 193.714217 
L 147.028788 191.980422 
L 148.907576 190.724479 
L 150.786364 190.47349 
L 152.665152 189.134716 
L 154.543939 186.889455 
L 156.422727 186.380088 
L 158.301515 183.683042 
L 160.180303 178.502774 
L 162.059091 176.603343 
L 163.937879 176.435746 
L 165.816667 172.280739 
L 167.695455 172.478597 
L 169.574242 175.022478 
L 173.331818 177.752911 
L 175.210606 175.639907 
L 177.089394 178.353381 
L 178.968182 171.101006 
L 180.84697 173.386418 
L 182.725758 172.368865 
L 184.604545 172.757385 
L 186.483333 168.687175 
L 188.362121 169.026359 
L 190.240909 169.976075 
L 192.119697 175.267349 
L 193.998485 172.576487 
L 195.877273 172.915671 
L 197.756061 171.222122 
L 199.634848 174.189984 
L 201.513636 171.340837 
L 203.392424 168.016831 
L 205.271212 168.610404 
L 207.15 166.888392 
L 209.028788 164.98896 
L 210.907576 164.98896 
L 212.786364 167.435198 
L 214.665152 163.782444 
L 216.543939 163.911951 
L 218.422727 157.436616 
L 220.301515 157.945392 
L 222.180303 156.261805 
L 224.059091 159.110953 
L 225.937879 157.584624 
L 227.816667 154.616762 
L 229.695455 146.47634 
L 231.574242 147.26777 
L 233.45303 144.893481 
L 235.331818 142.701829 
L 237.210606 137.359677 
L 239.089394 136.88482 
L 240.968182 139.02168 
L 242.84697 139.02168 
L 244.725758 137.691034 
L 246.604545 139.590466 
L 248.483333 142.439613 
L 250.362121 141.288443 
L 252.240909 144.941196 
L 254.119697 145.551727 
L 255.998485 147.926017 
L 257.877273 145.65965 
L 259.756061 144.850233 
L 261.634848 144.850233 
L 263.513636 145.359009 
L 265.392424 149.276587 
L 267.271212 151.866721 
L 269.15 152.779909 
L 271.028788 156.341344 
L 272.907576 158.376449 
L 276.665152 164.51003 
L 278.543939 167.280035 
L 280.422727 167.280035 
L 282.301515 170.163101 
L 284.180303 169.213385 
L 286.059091 165.975717 
L 287.937879 161.982594 
L 289.816667 158.42116 
L 291.695455 158.976188 
L 293.574242 163.724767 
L 295.45303 162.4297 
L 297.331818 162.548415 
L 299.210606 164.082571 
L 301.089394 164.76094 
L 302.968182 163.252567 
L 304.84697 165.411012 
L 306.725758 163.418602 
L 308.604545 161.637884 
L 310.483333 161.794431 
L 312.362121 160.053285 
L 314.240909 155.728687 
L 316.119697 149.397248 
L 317.998485 150.584393 
L 319.877273 144.648669 
L 321.756061 145.182884 
L 323.634848 147.629122 
L 325.513636 148.477082 
L 327.392424 150.577415 
L 329.271212 148.87764 
L 331.15 150.302213 
L 333.028788 155.389977 
L 334.907576 155.52565 
L 336.786364 159.282768 
L 338.665152 161.657057 
L 340.543939 160.754613 
L 342.422727 162.111349 
L 344.301515 162.851388 
L 346.180303 165.81925 
L 349.937879 174.614083 
L 351.816667 179.701846 
L 353.695455 184.08515 
L 355.574242 183.372863 
L 357.45303 185.15358 
L 359.331818 178.92107 
L 361.210606 175.179766 
L 363.089394 176.432138 
L 364.968182 180.267529 
L 366.84697 185.482486 
L 368.725758 181.208765 
L 370.604545 179.682436 
L 372.483333 179.071905 
L 374.362121 177.036799 
L 376.240909 175.612225 
L 378.119697 176.394958 
L 379.998485 174.563364 
L 381.877273 178.226553 
L 383.756061 177.548185 
L 385.634848 175.14306 
L 387.513636 172.056484 
L 389.392424 173.074036 
L 391.271212 170.882385 
L 393.15 170.068342 
L 395.028788 168.287625 
L 398.786364 175.194649 
L 400.665152 174.756319 
L 402.543939 172.975602 
L 404.422727 169.922944 
L 406.301515 170.032526 
L 408.180303 170.854396 
L 410.059091 171.804112 
L 411.937879 168.547943 
L 413.816667 169.181087 
L 415.695455 168.276596 
L 417.574242 165.585734 
L 419.45303 164.636019 
L 421.331818 164.127242 
L 423.210606 160.057032 
L 425.089394 160.373604 
L 426.968182 157.524456 
L 428.84697 158.498524 
L 430.725758 158.244135 
L 432.604545 159.668709 
L 434.483333 162.438714 
L 436.362121 159.352137 
L 438.240909 159.668709 
L 440.119697 154.326558 
L 441.998485 154.439619 
L 443.877273 156.387754 
L 445.756061 157.346602 
L 447.634848 158.02497 
L 449.513636 157.210928 
L 451.392424 155.628068 
L 453.271212 154.497454 
L 455.15 156.476029 
L 457.028788 155.288884 
L 458.907576 157.069601 
L 460.786364 161.81818 
L 462.665152 164.350756 
L 466.422727 168.828422 
L 468.301515 169.082811 
L 470.180303 174.133572 
L 472.059091 170.392267 
L 473.937879 172.291699 
L 475.816667 171.975127 
L 477.695455 173.557987 
L 477.695455 173.557987 
" style="fill:none;stroke:#009988;stroke-dasharray:1.85,0.8;stroke-dashoffset:0;stroke-width:0.5;"/>
    <defs>
     <path d="M -2.5 2.5 
L 2.5 2.5 
L 2.5 -2.5 
L -2.5 -2.5 
z
" id="m78ccf1bf95" style="stroke:#009988;stroke-linejoin:miter;"/>
    </defs>
    <g clip-path="url(#pa96947deed)">
     <use style="fill:#009988;stroke:#009988;stroke-linejoin:miter;" x="122.604545" xlink:href="#m78ccf1bf95" y="273.046451"/>
     <use style="fill:#009988;stroke:#009988;stroke-linejoin:miter;" x="141.392424" xlink:href="#m78ccf1bf95" y="197.237092"/>
     <use style="fill:#009988;stroke:#009988;stroke-linejoin:miter;" x="160.180303" xlink:href="#m78ccf1bf95" y="178.502774"/>
     <use style="fill:#009988;stroke:#009988;stroke-linejoin:miter;" x="178.968182" xlink:href="#m78ccf1bf95" y="171.101006"/>
     <use style="fill:#009988;stroke:#009988;stroke-linejoin:miter;" x="197.756061" xlink:href="#m78ccf1bf95" y="171.222122"/>
     <use style="fill:#009988;stroke:#009988;stroke-linejoin:miter;" x="216.543939" xlink:href="#m78ccf1bf95" y="163.911951"/>
     <use style="fill:#009988;stroke:#009988;stroke-linejoin:miter;" x="235.331818" xlink:href="#m78ccf1bf95" y="142.701829"/>
     <use style="fill:#009988;stroke:#009988;stroke-linejoin:miter;" x="254.119697" xlink:href="#m78ccf1bf95" y="145.551727"/>
     <use style="fill:#009988;stroke:#009988;stroke-linejoin:miter;" x="272.907576" xlink:href="#m78ccf1bf95" y="158.376449"/>
     <use style="fill:#009988;stroke:#009988;stroke-linejoin:miter;" x="291.695455" xlink:href="#m78ccf1bf95" y="158.976188"/>
     <use style="fill:#009988;stroke:#009988;stroke-linejoin:miter;" x="310.483333" xlink:href="#m78ccf1bf95" y="161.794431"/>
     <use style="fill:#009988;stroke:#009988;stroke-linejoin:miter;" x="329.271212" xlink:href="#m78ccf1bf95" y="148.87764"/>
     <use style="fill:#009988;stroke:#009988;stroke-linejoin:miter;" x="348.059091" xlink:href="#m78ccf1bf95" y="170.102933"/>
     <use style="fill:#009988;stroke:#009988;stroke-linejoin:miter;" x="366.84697" xlink:href="#m78ccf1bf95" y="185.482486"/>
     <use style="fill:#009988;stroke:#009988;stroke-linejoin:miter;" x="385.634848" xlink:href="#m78ccf1bf95" y="175.14306"/>
     <use style="fill:#009988;stroke:#009988;stroke-linejoin:miter;" x="404.422727" xlink:href="#m78ccf1bf95" y="169.922944"/>
     <use style="fill:#009988;stroke:#009988;stroke-linejoin:miter;" x="423.210606" xlink:href="#m78ccf1bf95" y="160.057032"/>
     <use style="fill:#009988;stroke:#009988;stroke-linejoin:miter;" x="441.998485" xlink:href="#m78ccf1bf95" y="154.439619"/>
     <use style="fill:#009988;stroke:#009988;stroke-linejoin:miter;" x="460.786364" xlink:href="#m78ccf1bf95" y="161.81818"/>
    </g>
   </g>
   <g id="line2d_25"/>
   <g id="line2d_26"/>
   <g id="line2d_27"/>
   <g id="line2d_28"/>
   <g id="line2d_29">
    <path clip-path="url(#pa96947deed)" d="M 122.604545 169.441089 
L 124.483333 144.834815 
L 126.362121 132.72213 
L 128.240909 140.283036 
L 130.119697 136.905281 
L 131.998485 129.377245 
L 133.877273 134.175604 
L 135.756061 135.993655 
L 137.634848 141.073265 
L 139.513636 136.139645 
L 141.392424 137.283315 
L 143.271212 139.074358 
L 145.15 141.694891 
L 147.028788 143.676762 
L 148.907576 144.284326 
L 150.786364 145.451916 
L 152.665152 147.878782 
L 154.543939 146.342658 
L 156.422727 147.967333 
L 158.301515 147.190925 
L 160.180303 144.600791 
L 162.059091 145.550507 
L 163.937879 147.56167 
L 165.816667 148.748815 
L 167.695455 148.946672 
L 169.574242 151.99933 
L 171.45303 154.136191 
L 173.331818 152.711617 
L 175.210606 150.803097 
L 177.089394 154.364532 
L 178.968182 152.810451 
L 182.725758 148.718475 
L 184.604545 147.682421 
L 186.483333 144.629763 
L 188.362121 146.156092 
L 190.240909 146.156092 
L 192.119697 150.836834 
L 193.998485 148.145973 
L 195.877273 146.110868 
L 197.756061 145.911626 
L 199.634848 147.098771 
L 201.513636 144.249624 
L 203.392424 140.925618 
L 205.271212 141.519191 
L 207.15 141.754011 
L 209.028788 140.804295 
L 210.907576 143.653442 
L 212.786364 148.977607 
L 214.665152 145.416172 
L 216.543939 145.545679 
L 218.422727 144.250612 
L 220.301515 142.215507 
L 222.180303 141.956493 
L 224.059091 143.855925 
L 225.937879 142.329596 
L 227.816667 139.361734 
L 229.695455 133.256418 
L 231.574242 134.047848 
L 233.45303 134.047848 
L 235.331818 132.952022 
L 237.210606 129.390588 
L 239.089394 129.390588 
L 240.968182 130.340303 
L 242.84697 130.340303 
L 244.725758 130.105484 
L 246.604545 128.206052 
L 248.483333 128.68091 
L 250.362121 124.651813 
L 252.240909 124.651813 
L 254.119697 125.262344 
L 255.998485 127.636634 
L 257.877273 130.226768 
L 259.756061 129.417351 
L 261.634848 130.367067 
L 263.513636 130.875843 
L 265.392424 134.793421 
L 267.271212 137.383555 
L 269.15 138.296743 
L 271.028788 141.858177 
L 272.907576 143.893283 
L 274.786364 147.059002 
L 276.665152 150.620436 
L 278.543939 149.829007 
L 280.422727 147.454717 
L 282.301515 150.337783 
L 284.180303 151.762357 
L 286.059091 150.898979 
L 287.937879 148.200922 
L 289.816667 148.200922 
L 291.695455 148.755951 
L 293.574242 153.50453 
L 295.45303 152.101541 
L 297.331818 152.220255 
L 299.210606 152.658586 
L 301.089394 153.336954 
L 302.968182 150.990597 
L 304.84697 153.149042 
L 306.725758 152.451699 
L 308.604545 148.890264 
L 310.483333 149.046811 
L 312.362121 145.881091 
L 314.240909 142.319657 
L 316.119697 140.736797 
L 317.998485 140.736797 
L 319.877273 134.801074 
L 323.634848 133.369305 
L 325.513636 132.18216 
L 327.392424 132.18216 
L 329.271212 129.592026 
L 331.15 126.742879 
L 333.028788 130.643497 
L 334.907576 129.761618 
L 336.786364 130.544351 
L 338.665152 132.918641 
L 340.543939 132.85418 
L 342.422727 134.210917 
L 344.301515 133.655889 
L 348.059091 139.810224 
L 349.937879 144.558803 
L 351.816667 148.629014 
L 353.695455 151.916492 
L 355.574242 154.765639 
L 357.45303 156.546356 
L 359.331818 152.984922 
L 361.210606 152.409337 
L 363.089394 156.79264 
L 364.968182 162.134792 
L 366.84697 168.240108 
L 370.604545 165.289205 
L 372.483333 165.696226 
L 374.362121 163.661121 
L 376.240909 161.286831 
L 378.119697 162.069564 
L 379.998485 160.237969 
L 381.877273 158.202864 
L 383.756061 155.037145 
L 385.634848 149.856877 
L 387.513636 145.108297 
L 389.392424 148.160955 
L 391.271212 147.065129 
L 393.15 144.215982 
L 395.028788 143.384981 
L 396.907576 145.165698 
L 398.786364 148.511288 
L 400.665152 146.977131 
L 402.543939 143.415697 
L 404.422727 139.345486 
L 406.301515 139.783817 
L 408.180303 139.50986 
L 410.059091 140.459576 
L 411.937879 139.849045 
L 413.816667 141.431904 
L 415.695455 142.110273 
L 417.574242 139.419411 
L 419.45303 144.16799 
L 421.331818 145.948707 
L 425.089394 145.948707 
L 426.968182 140.250413 
L 428.84697 142.80734 
L 430.725758 144.588057 
L 432.604545 145.062915 
L 434.483333 149.613636 
L 436.362121 145.102486 
L 438.240909 145.419058 
L 440.119697 143.638341 
L 441.998485 143.186095 
L 443.877273 144.647197 
L 445.756061 144.921153 
L 447.634848 146.617074 
L 449.513636 147.227606 
L 451.392424 143.270457 
L 453.271212 140.556983 
L 455.15 141.348413 
L 457.028788 140.161268 
L 458.907576 141.941985 
L 460.786364 146.690564 
L 462.665152 149.539712 
L 464.543939 148.115138 
L 466.422727 146.927993 
L 468.301515 147.182381 
L 470.180303 150.938076 
L 472.059091 147.196771 
L 473.937879 150.520776 
L 475.816667 150.204204 
L 477.695455 151.787064 
L 477.695455 151.787064 
" style="fill:none;stroke:#0077bb;stroke-dasharray:3.2,0.8,0.5,0.8;stroke-dashoffset:0;stroke-width:0.5;"/>
    <defs>
     <path d="M 0 -2.5 
L -2.5 2.5 
L 2.5 2.5 
z
" id="m77830ffad1" style="stroke:#0077bb;stroke-linejoin:miter;"/>
    </defs>
    <g clip-path="url(#pa96947deed)">
     <use style="fill:#0077bb;stroke:#0077bb;stroke-linejoin:miter;" x="122.604545" xlink:href="#m77830ffad1" y="169.441089"/>
     <use style="fill:#0077bb;stroke:#0077bb;stroke-linejoin:miter;" x="141.392424" xlink:href="#m77830ffad1" y="137.283315"/>
     <use style="fill:#0077bb;stroke:#0077bb;stroke-linejoin:miter;" x="160.180303" xlink:href="#m77830ffad1" y="144.600791"/>
     <use style="fill:#0077bb;stroke:#0077bb;stroke-linejoin:miter;" x="178.968182" xlink:href="#m77830ffad1" y="152.810451"/>
     <use style="fill:#0077bb;stroke:#0077bb;stroke-linejoin:miter;" x="197.756061" xlink:href="#m77830ffad1" y="145.911626"/>
     <use style="fill:#0077bb;stroke:#0077bb;stroke-linejoin:miter;" x="216.543939" xlink:href="#m77830ffad1" y="145.545679"/>
     <use style="fill:#0077bb;stroke:#0077bb;stroke-linejoin:miter;" x="235.331818" xlink:href="#m77830ffad1" y="132.952022"/>
     <use style="fill:#0077bb;stroke:#0077bb;stroke-linejoin:miter;" x="254.119697" xlink:href="#m77830ffad1" y="125.262344"/>
     <use style="fill:#0077bb;stroke:#0077bb;stroke-linejoin:miter;" x="272.907576" xlink:href="#m77830ffad1" y="143.893283"/>
     <use style="fill:#0077bb;stroke:#0077bb;stroke-linejoin:miter;" x="291.695455" xlink:href="#m77830ffad1" y="148.755951"/>
     <use style="fill:#0077bb;stroke:#0077bb;stroke-linejoin:miter;" x="310.483333" xlink:href="#m77830ffad1" y="149.046811"/>
     <use style="fill:#0077bb;stroke:#0077bb;stroke-linejoin:miter;" x="329.271212" xlink:href="#m77830ffad1" y="129.592026"/>
     <use style="fill:#0077bb;stroke:#0077bb;stroke-linejoin:miter;" x="348.059091" xlink:href="#m77830ffad1" y="139.810224"/>
     <use style="fill:#0077bb;stroke:#0077bb;stroke-linejoin:miter;" x="366.84697" xlink:href="#m77830ffad1" y="168.240108"/>
     <use style="fill:#0077bb;stroke:#0077bb;stroke-linejoin:miter;" x="385.634848" xlink:href="#m77830ffad1" y="149.856877"/>
     <use style="fill:#0077bb;stroke:#0077bb;stroke-linejoin:miter;" x="404.422727" xlink:href="#m77830ffad1" y="139.345486"/>
     <use style="fill:#0077bb;stroke:#0077bb;stroke-linejoin:miter;" x="423.210606" xlink:href="#m77830ffad1" y="145.948707"/>
     <use style="fill:#0077bb;stroke:#0077bb;stroke-linejoin:miter;" x="441.998485" xlink:href="#m77830ffad1" y="143.186095"/>
     <use style="fill:#0077bb;stroke:#0077bb;stroke-linejoin:miter;" x="460.786364" xlink:href="#m77830ffad1" y="146.690564"/>
    </g>
   </g>
   <g id="line2d_30"/>
   <g id="line2d_31"/>
   <g id="line2d_32"/>
   <g id="line2d_33"/>
   <g id="line2d_34">
    <path clip-path="url(#pa96947deed)" d="M 122.604545 376.651813 
L 175.210606 376.651813 
L 177.089394 375.464668 
L 188.362121 375.464668 
L 190.240909 373.090378 
L 192.119697 373.090378 
L 193.998485 371.507518 
L 210.907576 371.507518 
L 212.786364 368.341799 
L 214.665152 366.241466 
L 216.543939 364.816892 
L 220.301515 364.816892 
L 222.180303 363.521825 
L 224.059091 362.572109 
L 225.937879 362.572109 
L 227.816667 363.165682 
L 229.695455 363.165682 
L 231.574242 361.187107 
L 233.45303 354.064239 
L 235.331818 352.769172 
L 240.968182 352.769172 
L 242.84697 351.582027 
L 244.725758 350.564474 
L 248.483333 350.564474 
L 250.362121 353.730194 
L 252.240909 352.269092 
L 254.119697 353.693666 
L 255.998485 351.319376 
L 257.877273 350.024309 
L 259.756061 350.429018 
L 261.634848 348.529586 
L 263.513636 344.459376 
L 265.392424 343.390945 
L 267.271212 340.800811 
L 269.15 343.26642 
L 271.028788 348.608571 
L 272.907576 347.868533 
L 274.786364 346.285673 
L 278.543939 346.285673 
L 280.422727 347.472818 
L 282.301515 348.490371 
L 284.180303 348.490371 
L 287.937879 346.008159 
L 289.816667 350.756738 
L 291.695455 349.461671 
L 293.574242 351.83596 
L 295.45303 353.131027 
L 297.331818 354.021386 
L 299.210606 356.870533 
L 301.089394 360.940744 
L 302.968182 362.951907 
L 304.84697 363.167751 
L 306.725758 364.263577 
L 308.604545 366.044295 
L 310.483333 368.0794 
L 312.362121 368.237686 
L 314.240909 367.220133 
L 316.119697 367.220133 
L 317.998485 365.439416 
L 319.877273 362.590269 
L 321.756061 361.69991 
L 323.634848 361.412117 
L 325.513636 356.493946 
L 327.392424 353.206468 
L 329.271212 350.940101 
L 331.15 350.940101 
L 333.028788 346.86989 
L 336.786364 342.79968 
L 338.665152 340.42539 
L 340.543939 335.784245 
L 342.422727 338.158535 
L 344.301515 334.088324 
L 346.180303 330.922605 
L 348.059091 330.922605 
L 349.937879 329.972889 
L 351.816667 330.990441 
L 353.695455 328.79879 
L 355.574242 327.730359 
L 357.45303 325.237355 
L 359.331818 323.278566 
L 361.210606 322.271292 
L 363.089394 327.280782 
L 366.84697 330.313872 
L 368.725758 328.889298 
L 370.604545 327.617357 
L 372.483333 325.378741 
L 374.362121 325.378741 
L 376.240909 323.004452 
L 378.119697 324.413371 
L 379.998485 321.564223 
L 383.756061 323.915901 
L 387.513636 319.981364 
L 389.392424 318.794219 
L 391.271212 318.794219 
L 393.15 317.573156 
L 395.028788 317.217012 
L 396.907576 316.504725 
L 398.786364 317.907715 
L 400.665152 319.003541 
L 402.543939 315.442106 
L 404.422727 315.442106 
L 406.301515 313.579202 
L 408.180303 316.729702 
L 410.059091 321.003423 
L 411.937879 317.340233 
L 413.816667 317.340233 
L 415.695455 316.661865 
L 417.574242 316.345293 
L 419.45303 319.19444 
L 421.331818 319.448829 
L 423.210606 319.448829 
L 425.089394 318.973971 
L 426.968182 315.887394 
L 428.84697 314.913327 
L 430.725758 317.20282 
L 432.604545 317.20282 
L 434.483333 319.181395 
L 436.362121 317.519392 
L 438.240909 317.519392 
L 440.119697 320.012396 
L 441.998485 317.298922 
L 443.877273 315.837821 
L 445.756061 316.248756 
L 447.634848 315.231203 
L 451.392424 322.455827 
L 453.271212 325.169301 
L 455.15 323.586441 
L 458.907576 323.586441 
L 460.786364 324.038687 
L 464.543939 330.540587 
L 466.422727 330.144873 
L 468.301515 329.890484 
L 470.180303 334.293712 
L 472.059091 328.10617 
L 473.937879 327.789598 
L 475.816667 324.94045 
L 477.695455 321.458159 
L 477.695455 321.458159 
" style="fill:none;stroke:#ee7733;stroke-dasharray:0.5,0.825;stroke-dashoffset:0;stroke-width:0.5;"/>
    <defs>
     <path d="M 0 -2.5 
L -0.561285 -0.772542 
L -2.377641 -0.772542 
L -0.908178 0.295085 
L -1.469463 2.022542 
L -0 0.954915 
L 1.469463 2.022542 
L 0.908178 0.295085 
L 2.377641 -0.772542 
L 0.561285 -0.772542 
z
" id="mc25f3758b1" style="stroke:#ee7733;stroke-linejoin:bevel;"/>
    </defs>
    <g clip-path="url(#pa96947deed)">
     <use style="fill:#ee7733;stroke:#ee7733;stroke-linejoin:bevel;" x="122.604545" xlink:href="#mc25f3758b1" y="376.651813"/>
     <use style="fill:#ee7733;stroke:#ee7733;stroke-linejoin:bevel;" x="141.392424" xlink:href="#mc25f3758b1" y="376.651813"/>
     <use style="fill:#ee7733;stroke:#ee7733;stroke-linejoin:bevel;" x="160.180303" xlink:href="#mc25f3758b1" y="376.651813"/>
     <use style="fill:#ee7733;stroke:#ee7733;stroke-linejoin:bevel;" x="178.968182" xlink:href="#mc25f3758b1" y="375.464668"/>
     <use style="fill:#ee7733;stroke:#ee7733;stroke-linejoin:bevel;" x="197.756061" xlink:href="#mc25f3758b1" y="371.507518"/>
     <use style="fill:#ee7733;stroke:#ee7733;stroke-linejoin:bevel;" x="216.543939" xlink:href="#mc25f3758b1" y="364.816892"/>
     <use style="fill:#ee7733;stroke:#ee7733;stroke-linejoin:bevel;" x="235.331818" xlink:href="#mc25f3758b1" y="352.769172"/>
     <use style="fill:#ee7733;stroke:#ee7733;stroke-linejoin:bevel;" x="254.119697" xlink:href="#mc25f3758b1" y="353.693666"/>
     <use style="fill:#ee7733;stroke:#ee7733;stroke-linejoin:bevel;" x="272.907576" xlink:href="#mc25f3758b1" y="347.868533"/>
     <use style="fill:#ee7733;stroke:#ee7733;stroke-linejoin:bevel;" x="291.695455" xlink:href="#mc25f3758b1" y="349.461671"/>
     <use style="fill:#ee7733;stroke:#ee7733;stroke-linejoin:bevel;" x="310.483333" xlink:href="#mc25f3758b1" y="368.0794"/>
     <use style="fill:#ee7733;stroke:#ee7733;stroke-linejoin:bevel;" x="329.271212" xlink:href="#mc25f3758b1" y="350.940101"/>
     <use style="fill:#ee7733;stroke:#ee7733;stroke-linejoin:bevel;" x="348.059091" xlink:href="#mc25f3758b1" y="330.922605"/>
     <use style="fill:#ee7733;stroke:#ee7733;stroke-linejoin:bevel;" x="366.84697" xlink:href="#mc25f3758b1" y="330.313872"/>
     <use style="fill:#ee7733;stroke:#ee7733;stroke-linejoin:bevel;" x="385.634848" xlink:href="#mc25f3758b1" y="321.880795"/>
     <use style="fill:#ee7733;stroke:#ee7733;stroke-linejoin:bevel;" x="404.422727" xlink:href="#mc25f3758b1" y="315.442106"/>
     <use style="fill:#ee7733;stroke:#ee7733;stroke-linejoin:bevel;" x="423.210606" xlink:href="#mc25f3758b1" y="319.448829"/>
     <use style="fill:#ee7733;stroke:#ee7733;stroke-linejoin:bevel;" x="441.998485" xlink:href="#mc25f3758b1" y="317.298922"/>
     <use style="fill:#ee7733;stroke:#ee7733;stroke-linejoin:bevel;" x="460.786364" xlink:href="#mc25f3758b1" y="324.038687"/>
    </g>
   </g>
   <g id="line2d_35"/>
   <g id="line2d_36"/>
   <g id="line2d_37"/>
   <g id="line2d_38"/>
   <g id="line2d_39">
    <path clip-path="url(#pa96947deed)" d="M 122.604545 376.651813 
L 135.756061 376.651813 
L 137.634848 371.653308 
L 139.513636 364.012737 
L 141.392424 365.161744 
L 143.271212 363.325968 
L 145.15 364.351033 
L 147.028788 363.379564 
L 148.907576 362.907644 
L 152.665152 364.524605 
L 156.422727 365.801153 
L 158.301515 366.343686 
L 160.180303 363.753552 
L 162.059091 363.753552 
L 163.937879 362.328978 
L 171.45303 362.328978 
L 173.331818 360.904405 
L 175.210606 357.973463 
L 177.089394 360.856529 
L 178.968182 360.856529 
L 180.84697 362.532498 
L 182.725758 362.532498 
L 184.604545 363.827565 
L 186.483333 364.845118 
L 188.362121 363.827565 
L 190.240909 361.453276 
L 192.119697 361.453276 
L 193.998485 359.870416 
L 195.877273 359.870416 
L 197.756061 361.364724 
L 199.634848 361.364724 
L 201.513636 362.789298 
L 209.028788 362.789298 
L 210.907576 364.213872 
L 212.786364 364.645561 
L 214.665152 362.545228 
L 216.543939 359.69608 
L 222.180303 359.69608 
L 224.059091 354.947501 
L 225.937879 352.40362 
L 227.816667 347.65504 
L 229.695455 346.559215 
L 231.574242 343.393495 
L 233.45303 336.270627 
L 235.331818 330.891117 
L 237.210606 327.329683 
L 239.089394 322.581104 
L 240.968182 319.01967 
L 242.84697 317.832525 
L 244.725758 314.779867 
L 246.604545 313.830151 
L 248.483333 311.455862 
L 250.362121 313.614307 
L 252.240909 314.527495 
L 254.119697 317.376642 
L 257.877273 314.89443 
L 259.756061 314.004072 
L 261.634848 318.752651 
L 263.513636 318.243875 
L 265.392424 319.668448 
L 267.271212 319.469207 
L 269.15 322.026135 
L 271.028788 325.587569 
L 272.907576 330.027799 
L 274.786364 332.006373 
L 276.665152 331.412801 
L 278.543939 334.974235 
L 280.422727 336.16138 
L 282.301515 338.026893 
L 284.180303 337.552035 
L 286.059091 336.041124 
L 287.937879 336.256968 
L 289.816667 335.069823 
L 291.695455 329.889555 
L 293.574242 328.702411 
L 295.45303 325.248899 
L 297.331818 323.29011 
L 299.210606 318.906806 
L 302.968182 326.999342 
L 304.84697 325.92012 
L 306.725758 324.226571 
L 308.604545 326.007288 
L 310.483333 326.946567 
L 312.362121 325.680279 
L 314.240909 327.969773 
L 316.119697 325.120625 
L 317.998485 325.120625 
L 319.877273 323.458623 
L 321.756061 322.212121 
L 323.634848 322.931602 
L 325.513636 319.200576 
L 327.392424 318.378707 
L 329.271212 319.107182 
L 331.15 320.056898 
L 333.028788 320.735266 
L 334.907576 320.531755 
L 336.786364 322.879954 
L 338.665152 320.505664 
L 340.543939 317.79833 
L 342.422727 318.137514 
L 344.301515 319.98761 
L 346.180303 318.602607 
L 348.059091 318.403366 
L 349.937879 318.878224 
L 351.816667 319.895777 
L 353.695455 320.553273 
L 355.574242 317.704125 
L 357.45303 313.430404 
L 359.331818 313.252332 
L 361.210606 313.827918 
L 363.089394 317.741582 
L 364.968182 318.563451 
L 366.84697 320.980139 
L 368.725758 320.980139 
L 370.604545 323.269632 
L 372.483333 322.048569 
L 374.362121 322.048569 
L 376.240909 319.674279 
L 378.119697 317.952267 
L 379.998485 315.713651 
L 381.877273 314.899609 
L 383.756061 316.030223 
L 385.634848 315.290185 
L 387.513636 311.96618 
L 389.392424 311.626995 
L 391.271212 309.435343 
L 393.15 306.179175 
L 395.028788 308.553465 
L 396.907576 307.841178 
L 398.786364 309.244167 
L 400.665152 308.586671 
L 402.543939 306.805954 
L 404.422727 307.823507 
L 406.301515 305.960603 
L 410.059091 305.07481 
L 411.937879 305.685342 
L 415.695455 314.956377 
L 417.574242 316.064379 
L 419.45303 318.913526 
L 421.331818 315.60648 
L 423.210606 315.60648 
L 425.089394 313.390477 
L 426.968182 308.641898 
L 428.84697 309.859482 
L 430.725758 312.403364 
L 432.604545 311.453648 
L 434.483333 313.432222 
L 436.362121 311.77022 
L 438.240909 311.453648 
L 440.119697 313.946652 
L 441.998485 308.632766 
L 445.756061 305.801882 
L 447.634848 306.48025 
L 449.513636 305.869719 
L 451.392424 304.682574 
L 453.271212 303.212776 
L 455.15 300.442771 
L 457.028788 295.10062 
L 458.907576 295.10062 
L 460.786364 293.970006 
L 462.665152 297.610583 
L 464.543939 302.5418 
L 466.422727 302.146085 
L 468.301515 303.672414 
L 470.180303 309.370709 
L 472.059091 305.7733 
L 473.937879 303.873869 
L 475.816667 302.765867 
L 477.695455 300.866435 
L 477.695455 300.866435 
" style="fill:none;stroke:#ee3377;stroke-dasharray:3.2,0.8,0.5,0.8;stroke-dashoffset:0;stroke-width:0.5;"/>
    <defs>
     <path d="M -1.25 2.5 
L 0 1.25 
L 1.25 2.5 
L 2.5 1.25 
L 1.25 0 
L 2.5 -1.25 
L 1.25 -2.5 
L 0 -1.25 
L -1.25 -2.5 
L -2.5 -1.25 
L -1.25 0 
L -2.5 1.25 
z
" id="me34bc4e756" style="stroke:#ee3377;stroke-linejoin:miter;"/>
    </defs>
    <g clip-path="url(#pa96947deed)">
     <use style="fill:#ee3377;stroke:#ee3377;stroke-linejoin:miter;" x="122.604545" xlink:href="#me34bc4e756" y="376.651813"/>
     <use style="fill:#ee3377;stroke:#ee3377;stroke-linejoin:miter;" x="141.392424" xlink:href="#me34bc4e756" y="365.161744"/>
     <use style="fill:#ee3377;stroke:#ee3377;stroke-linejoin:miter;" x="160.180303" xlink:href="#me34bc4e756" y="363.753552"/>
     <use style="fill:#ee3377;stroke:#ee3377;stroke-linejoin:miter;" x="178.968182" xlink:href="#me34bc4e756" y="360.856529"/>
     <use style="fill:#ee3377;stroke:#ee3377;stroke-linejoin:miter;" x="197.756061" xlink:href="#me34bc4e756" y="361.364724"/>
     <use style="fill:#ee3377;stroke:#ee3377;stroke-linejoin:miter;" x="216.543939" xlink:href="#me34bc4e756" y="359.69608"/>
     <use style="fill:#ee3377;stroke:#ee3377;stroke-linejoin:miter;" x="235.331818" xlink:href="#me34bc4e756" y="330.891117"/>
     <use style="fill:#ee3377;stroke:#ee3377;stroke-linejoin:miter;" x="254.119697" xlink:href="#me34bc4e756" y="317.376642"/>
     <use style="fill:#ee3377;stroke:#ee3377;stroke-linejoin:miter;" x="272.907576" xlink:href="#me34bc4e756" y="330.027799"/>
     <use style="fill:#ee3377;stroke:#ee3377;stroke-linejoin:miter;" x="291.695455" xlink:href="#me34bc4e756" y="329.889555"/>
     <use style="fill:#ee3377;stroke:#ee3377;stroke-linejoin:miter;" x="310.483333" xlink:href="#me34bc4e756" y="326.946567"/>
     <use style="fill:#ee3377;stroke:#ee3377;stroke-linejoin:miter;" x="329.271212" xlink:href="#me34bc4e756" y="319.107182"/>
     <use style="fill:#ee3377;stroke:#ee3377;stroke-linejoin:miter;" x="348.059091" xlink:href="#me34bc4e756" y="318.403366"/>
     <use style="fill:#ee3377;stroke:#ee3377;stroke-linejoin:miter;" x="366.84697" xlink:href="#me34bc4e756" y="320.980139"/>
     <use style="fill:#ee3377;stroke:#ee3377;stroke-linejoin:miter;" x="385.634848" xlink:href="#me34bc4e756" y="315.290185"/>
     <use style="fill:#ee3377;stroke:#ee3377;stroke-linejoin:miter;" x="404.422727" xlink:href="#me34bc4e756" y="307.823507"/>
     <use style="fill:#ee3377;stroke:#ee3377;stroke-linejoin:miter;" x="423.210606" xlink:href="#me34bc4e756" y="315.60648"/>
     <use style="fill:#ee3377;stroke:#ee3377;stroke-linejoin:miter;" x="441.998485" xlink:href="#me34bc4e756" y="308.632766"/>
     <use style="fill:#ee3377;stroke:#ee3377;stroke-linejoin:miter;" x="460.786364" xlink:href="#me34bc4e756" y="293.970006"/>
    </g>
   </g>
   <g id="line2d_40"/>
   <g id="line2d_41"/>
   <g id="line2d_42"/>
   <g id="line2d_43"/>
   <g id="patch_3">
    <path d="M 104.85 389.251813 
L 104.85 112.051813 
" style="fill:none;stroke:#000000;stroke-linecap:square;stroke-linejoin:miter;stroke-width:0.8;"/>
   </g>
   <g id="patch_4">
    <path d="M 495.45 389.251813 
L 495.45 112.051813 
" style="fill:none;stroke:#000000;stroke-linecap:square;stroke-linejoin:miter;stroke-width:0.8;"/>
   </g>
   <g id="patch_5">
    <path d="M 104.85 389.251812 
L 495.45 389.251812 
" style="fill:none;stroke:#000000;stroke-linecap:square;stroke-linejoin:miter;stroke-width:0.8;"/>
   </g>
   <g id="patch_6">
    <path d="M 104.85 112.051812 
L 495.45 112.051812 
" style="fill:none;stroke:#000000;stroke-linecap:square;stroke-linejoin:miter;stroke-width:0.8;"/>
   </g>
   <g id="legend_1">
    <g id="line2d_44"/>
    <g id="line2d_45"/>
    <g id="text_16">
     <!--   -->
     <g transform="translate(48.8 22.277969)scale(0.13 -0.13)">
      <use xlink:href="#DejaVuSans-32"/>
     </g>
    </g>
    <g id="line2d_46"/>
    <g id="line2d_47"/>
    <g id="text_17">
     <!-- start -->
     <g transform="translate(48.8 41.359531)scale(0.13 -0.13)">
      <use xlink:href="#DejaVuSans-115"/>
      <use x="52.099609" xlink:href="#DejaVuSans-116"/>
      <use x="91.308594" xlink:href="#DejaVuSans-97"/>
      <use x="152.587891" xlink:href="#DejaVuSans-114"/>
      <use x="193.701172" xlink:href="#DejaVuSans-116"/>
     </g>
    </g>
    <g id="line2d_48"/>
    <g id="line2d_49"/>
    <g id="text_18">
     <!-- pre-dirft -->
     <defs>
      <path d="M 4.890625 31.390625 
L 31.203125 31.390625 
L 31.203125 23.390625 
L 4.890625 23.390625 
z
" id="DejaVuSans-45"/>
     </defs>
     <g transform="translate(48.8 60.441094)scale(0.13 -0.13)">
      <use xlink:href="#DejaVuSans-112"/>
      <use x="63.476562" xlink:href="#DejaVuSans-114"/>
      <use x="104.558594" xlink:href="#DejaVuSans-101"/>
      <use x="166.082031" xlink:href="#DejaVuSans-45"/>
      <use x="202.166016" xlink:href="#DejaVuSans-100"/>
      <use x="265.642578" xlink:href="#DejaVuSans-105"/>
      <use x="293.425781" xlink:href="#DejaVuSans-114"/>
      <use x="334.539062" xlink:href="#DejaVuSans-102"/>
      <use x="369.728516" xlink:href="#DejaVuSans-116"/>
     </g>
    </g>
    <g id="line2d_50"/>
    <g id="line2d_51"/>
    <g id="text_19">
     <!-- post-drift -->
     <g transform="translate(48.8 79.522656)scale(0.13 -0.13)">
      <use xlink:href="#DejaVuSans-112"/>
      <use x="63.476562" xlink:href="#DejaVuSans-111"/>
      <use x="124.658203" xlink:href="#DejaVuSans-115"/>
      <use x="176.757812" xlink:href="#DejaVuSans-116"/>
      <use x="215.966797" xlink:href="#DejaVuSans-45"/>
      <use x="252.050781" xlink:href="#DejaVuSans-100"/>
      <use x="315.527344" xlink:href="#DejaVuSans-114"/>
      <use x="356.640625" xlink:href="#DejaVuSans-105"/>
      <use x="384.423828" xlink:href="#DejaVuSans-102"/>
      <use x="419.613281" xlink:href="#DejaVuSans-116"/>
     </g>
    </g>
    <g id="line2d_52"/>
    <g id="line2d_53"/>
    <g id="text_20">
     <!-- end -->
     <g transform="translate(48.8 98.604219)scale(0.13 -0.13)">
      <use xlink:href="#DejaVuSans-101"/>
      <use x="61.523438" xlink:href="#DejaVuSans-110"/>
      <use x="124.902344" xlink:href="#DejaVuSans-100"/>
     </g>
    </g>
    <g id="line2d_54">
     <path d="M 102.918688 17.727969 
L 128.918688 17.727969 
" style="fill:none;stroke:#cc3311;stroke-linecap:square;stroke-width:0.5;"/>
    </g>
    <g id="line2d_55">
     <g>
      <use style="fill:#cc3311;stroke:#cc3311;" x="115.918688" xlink:href="#m86146f8125" y="17.727969"/>
     </g>
    </g>
    <g id="text_21">
     <!-- ESOS -->
     <defs>
      <path d="M 9.8125 72.90625 
L 55.90625 72.90625 
L 55.90625 64.59375 
L 19.671875 64.59375 
L 19.671875 43.015625 
L 54.390625 43.015625 
L 54.390625 34.71875 
L 19.671875 34.71875 
L 19.671875 8.296875 
L 56.78125 8.296875 
L 56.78125 0 
L 9.8125 0 
z
" id="DejaVuSans-69"/>
      <path d="M 53.515625 70.515625 
L 53.515625 60.890625 
Q 47.90625 63.578125 42.921875 64.890625 
Q 37.9375 66.21875 33.296875 66.21875 
Q 25.25 66.21875 20.875 63.09375 
Q 16.5 59.96875 16.5 54.203125 
Q 16.5 49.359375 19.40625 46.890625 
Q 22.3125 44.4375 30.421875 42.921875 
L 36.375 41.703125 
Q 47.40625 39.59375 52.65625 34.296875 
Q 57.90625 29 57.90625 20.125 
Q 57.90625 9.515625 50.796875 4.046875 
Q 43.703125 -1.421875 29.984375 -1.421875 
Q 24.8125 -1.421875 18.96875 -0.25 
Q 13.140625 0.921875 6.890625 3.21875 
L 6.890625 13.375 
Q 12.890625 10.015625 18.65625 8.296875 
Q 24.421875 6.59375 29.984375 6.59375 
Q 38.421875 6.59375 43.015625 9.90625 
Q 47.609375 13.234375 47.609375 19.390625 
Q 47.609375 24.75 44.3125 27.78125 
Q 41.015625 30.8125 33.5 32.328125 
L 27.484375 33.5 
Q 16.453125 35.6875 11.515625 40.375 
Q 6.59375 45.0625 6.59375 53.421875 
Q 6.59375 63.09375 13.40625 68.65625 
Q 20.21875 74.21875 32.171875 74.21875 
Q 37.3125 74.21875 42.625 73.28125 
Q 47.953125 72.359375 53.515625 70.515625 
z
" id="DejaVuSans-83"/>
      <path d="M 39.40625 66.21875 
Q 28.65625 66.21875 22.328125 58.203125 
Q 16.015625 50.203125 16.015625 36.375 
Q 16.015625 22.609375 22.328125 14.59375 
Q 28.65625 6.59375 39.40625 6.59375 
Q 50.140625 6.59375 56.421875 14.59375 
Q 62.703125 22.609375 62.703125 36.375 
Q 62.703125 50.203125 56.421875 58.203125 
Q 50.140625 66.21875 39.40625 66.21875 
z
M 39.40625 74.21875 
Q 54.734375 74.21875 63.90625 63.9375 
Q 73.09375 53.65625 73.09375 36.375 
Q 73.09375 19.140625 63.90625 8.859375 
Q 54.734375 -1.421875 39.40625 -1.421875 
Q 24.03125 -1.421875 14.8125 8.828125 
Q 5.609375 19.09375 5.609375 36.375 
Q 5.609375 53.65625 14.8125 63.9375 
Q 24.03125 74.21875 39.40625 74.21875 
z
" id="DejaVuSans-79"/>
     </defs>
     <g transform="translate(139.318688 22.277969)scale(0.13 -0.13)">
      <use xlink:href="#DejaVuSans-69"/>
      <use x="63.183594" xlink:href="#DejaVuSans-83"/>
      <use x="126.660156" xlink:href="#DejaVuSans-79"/>
      <use x="205.371094" xlink:href="#DejaVuSans-83"/>
     </g>
    </g>
    <g id="line2d_56"/>
    <g id="line2d_57"/>
    <g id="text_22">
     <!-- 0.8182 -->
     <g transform="translate(139.318688 41.359531)scale(0.13 -0.13)">
      <use xlink:href="#DejaVuSans-48"/>
      <use x="63.623047" xlink:href="#DejaVuSans-46"/>
      <use x="95.410156" xlink:href="#DejaVuSans-56"/>
      <use x="159.033203" xlink:href="#DejaVuSans-49"/>
      <use x="222.65625" xlink:href="#DejaVuSans-56"/>
      <use x="286.279297" xlink:href="#DejaVuSans-50"/>
     </g>
    </g>
    <g id="line2d_58"/>
    <g id="line2d_59"/>
    <g id="text_23">
     <!-- 0.8619 -->
     <defs>
      <path d="M 10.984375 1.515625 
L 10.984375 10.5 
Q 14.703125 8.734375 18.5 7.8125 
Q 22.3125 6.890625 25.984375 6.890625 
Q 35.75 6.890625 40.890625 13.453125 
Q 46.046875 20.015625 46.78125 33.40625 
Q 43.953125 29.203125 39.59375 26.953125 
Q 35.25 24.703125 29.984375 24.703125 
Q 19.046875 24.703125 12.671875 31.3125 
Q 6.296875 37.9375 6.296875 49.421875 
Q 6.296875 60.640625 12.9375 67.421875 
Q 19.578125 74.21875 30.609375 74.21875 
Q 43.265625 74.21875 49.921875 64.515625 
Q 56.59375 54.828125 56.59375 36.375 
Q 56.59375 19.140625 48.40625 8.859375 
Q 40.234375 -1.421875 26.421875 -1.421875 
Q 22.703125 -1.421875 18.890625 -0.6875 
Q 15.09375 0.046875 10.984375 1.515625 
z
M 30.609375 32.421875 
Q 37.25 32.421875 41.125 36.953125 
Q 45.015625 41.5 45.015625 49.421875 
Q 45.015625 57.28125 41.125 61.84375 
Q 37.25 66.40625 30.609375 66.40625 
Q 23.96875 66.40625 20.09375 61.84375 
Q 16.21875 57.28125 16.21875 49.421875 
Q 16.21875 41.5 20.09375 36.953125 
Q 23.96875 32.421875 30.609375 32.421875 
z
" id="DejaVuSans-57"/>
     </defs>
     <g transform="translate(139.318688 60.441094)scale(0.13 -0.13)">
      <use xlink:href="#DejaVuSans-48"/>
      <use x="63.623047" xlink:href="#DejaVuSans-46"/>
      <use x="95.410156" xlink:href="#DejaVuSans-56"/>
      <use x="159.033203" xlink:href="#DejaVuSans-54"/>
      <use x="222.65625" xlink:href="#DejaVuSans-49"/>
      <use x="286.279297" xlink:href="#DejaVuSans-57"/>
     </g>
    </g>
    <g id="line2d_60"/>
    <g id="line2d_61"/>
    <g id="text_24">
     <!-- 0.7703 -->
     <defs>
      <path d="M 40.578125 39.3125 
Q 47.65625 37.796875 51.625 33 
Q 55.609375 28.21875 55.609375 21.1875 
Q 55.609375 10.40625 48.1875 4.484375 
Q 40.765625 -1.421875 27.09375 -1.421875 
Q 22.515625 -1.421875 17.65625 -0.515625 
Q 12.796875 0.390625 7.625 2.203125 
L 7.625 11.71875 
Q 11.71875 9.328125 16.59375 8.109375 
Q 21.484375 6.890625 26.8125 6.890625 
Q 36.078125 6.890625 40.9375 10.546875 
Q 45.796875 14.203125 45.796875 21.1875 
Q 45.796875 27.640625 41.28125 31.265625 
Q 36.765625 34.90625 28.71875 34.90625 
L 20.21875 34.90625 
L 20.21875 43.015625 
L 29.109375 43.015625 
Q 36.375 43.015625 40.234375 45.921875 
Q 44.09375 48.828125 44.09375 54.296875 
Q 44.09375 59.90625 40.109375 62.90625 
Q 36.140625 65.921875 28.71875 65.921875 
Q 24.65625 65.921875 20.015625 65.03125 
Q 15.375 64.15625 9.8125 62.3125 
L 9.8125 71.09375 
Q 15.4375 72.65625 20.34375 73.4375 
Q 25.25 74.21875 29.59375 74.21875 
Q 40.828125 74.21875 47.359375 69.109375 
Q 53.90625 64.015625 53.90625 55.328125 
Q 53.90625 49.265625 50.4375 45.09375 
Q 46.96875 40.921875 40.578125 39.3125 
z
" id="DejaVuSans-51"/>
     </defs>
     <g transform="translate(139.318688 79.522656)scale(0.13 -0.13)">
      <use xlink:href="#DejaVuSans-48"/>
      <use x="63.623047" xlink:href="#DejaVuSans-46"/>
      <use x="95.410156" xlink:href="#DejaVuSans-55"/>
      <use x="159.033203" xlink:href="#DejaVuSans-55"/>
      <use x="222.65625" xlink:href="#DejaVuSans-48"/>
      <use x="286.279297" xlink:href="#DejaVuSans-51"/>
     </g>
    </g>
    <g id="line2d_62"/>
    <g id="line2d_63"/>
    <g id="text_25">
     <!-- 0.6969 -->
     <g transform="translate(139.318688 98.604219)scale(0.13 -0.13)">
      <use xlink:href="#DejaVuSans-48"/>
      <use x="63.623047" xlink:href="#DejaVuSans-46"/>
      <use x="95.410156" xlink:href="#DejaVuSans-54"/>
      <use x="159.033203" xlink:href="#DejaVuSans-57"/>
      <use x="222.65625" xlink:href="#DejaVuSans-54"/>
      <use x="286.279297" xlink:href="#DejaVuSans-57"/>
     </g>
    </g>
    <g id="line2d_64">
     <path d="M 179.279563 17.727969 
L 205.279563 17.727969 
" style="fill:none;stroke:#009988;stroke-dasharray:1.85,0.8;stroke-dashoffset:0;stroke-width:0.5;"/>
    </g>
    <g id="line2d_65">
     <g>
      <use style="fill:#009988;stroke:#009988;stroke-linejoin:miter;" x="192.279563" xlink:href="#m78ccf1bf95" y="17.727969"/>
     </g>
    </g>
    <g id="text_26">
     <!-- OOB -->
     <defs>
      <path d="M 19.671875 34.8125 
L 19.671875 8.109375 
L 35.5 8.109375 
Q 43.453125 8.109375 47.28125 11.40625 
Q 51.125 14.703125 51.125 21.484375 
Q 51.125 28.328125 47.28125 31.5625 
Q 43.453125 34.8125 35.5 34.8125 
z
M 19.671875 64.796875 
L 19.671875 42.828125 
L 34.28125 42.828125 
Q 41.5 42.828125 45.03125 45.53125 
Q 48.578125 48.25 48.578125 53.8125 
Q 48.578125 59.328125 45.03125 62.0625 
Q 41.5 64.796875 34.28125 64.796875 
z
M 9.8125 72.90625 
L 35.015625 72.90625 
Q 46.296875 72.90625 52.390625 68.21875 
Q 58.5 63.53125 58.5 54.890625 
Q 58.5 48.1875 55.375 44.234375 
Q 52.25 40.28125 46.1875 39.3125 
Q 53.46875 37.75 57.5 32.78125 
Q 61.53125 27.828125 61.53125 20.40625 
Q 61.53125 10.640625 54.890625 5.3125 
Q 48.25 0 35.984375 0 
L 9.8125 0 
z
" id="DejaVuSans-66"/>
     </defs>
     <g transform="translate(215.679563 22.277969)scale(0.13 -0.13)">
      <use xlink:href="#DejaVuSans-79"/>
      <use x="78.710938" xlink:href="#DejaVuSans-79"/>
      <use x="157.421875" xlink:href="#DejaVuSans-66"/>
     </g>
    </g>
    <g id="line2d_66"/>
    <g id="line2d_67"/>
    <g id="text_27">
     <!-- 0.3636 -->
     <g transform="translate(215.679563 41.359531)scale(0.13 -0.13)">
      <use xlink:href="#DejaVuSans-48"/>
      <use x="63.623047" xlink:href="#DejaVuSans-46"/>
      <use x="95.410156" xlink:href="#DejaVuSans-51"/>
      <use x="159.033203" xlink:href="#DejaVuSans-54"/>
      <use x="222.65625" xlink:href="#DejaVuSans-51"/>
      <use x="286.279297" xlink:href="#DejaVuSans-54"/>
     </g>
    </g>
    <g id="line2d_68"/>
    <g id="line2d_69"/>
    <g id="text_28">
     <!-- 0.8134 -->
     <g transform="translate(215.679563 60.441094)scale(0.13 -0.13)">
      <use xlink:href="#DejaVuSans-48"/>
      <use x="63.623047" xlink:href="#DejaVuSans-46"/>
      <use x="95.410156" xlink:href="#DejaVuSans-56"/>
      <use x="159.033203" xlink:href="#DejaVuSans-49"/>
      <use x="222.65625" xlink:href="#DejaVuSans-51"/>
      <use x="286.279297" xlink:href="#DejaVuSans-52"/>
     </g>
    </g>
    <g id="line2d_70"/>
    <g id="line2d_71"/>
    <g id="text_29">
     <!-- 0.7660 -->
     <g transform="translate(215.679563 79.522656)scale(0.13 -0.13)">
      <use xlink:href="#DejaVuSans-48"/>
      <use x="63.623047" xlink:href="#DejaVuSans-46"/>
      <use x="95.410156" xlink:href="#DejaVuSans-55"/>
      <use x="159.033203" xlink:href="#DejaVuSans-54"/>
      <use x="222.65625" xlink:href="#DejaVuSans-54"/>
      <use x="286.279297" xlink:href="#DejaVuSans-48"/>
     </g>
    </g>
    <g id="line2d_72"/>
    <g id="line2d_73"/>
    <g id="text_30">
     <!-- 0.7128 -->
     <g transform="translate(215.679563 98.604219)scale(0.13 -0.13)">
      <use xlink:href="#DejaVuSans-48"/>
      <use x="63.623047" xlink:href="#DejaVuSans-46"/>
      <use x="95.410156" xlink:href="#DejaVuSans-55"/>
      <use x="159.033203" xlink:href="#DejaVuSans-49"/>
      <use x="222.65625" xlink:href="#DejaVuSans-50"/>
      <use x="286.279297" xlink:href="#DejaVuSans-56"/>
     </g>
    </g>
    <g id="line2d_74">
     <path d="M 255.640438 17.727969 
L 281.640438 17.727969 
" style="fill:none;stroke:#0077bb;stroke-dasharray:3.2,0.8,0.5,0.8;stroke-dashoffset:0;stroke-width:0.5;"/>
    </g>
    <g id="line2d_75">
     <g>
      <use style="fill:#0077bb;stroke:#0077bb;stroke-linejoin:miter;" x="268.640438" xlink:href="#m77830ffad1" y="17.727969"/>
     </g>
    </g>
    <g id="text_31">
     <!-- UOB -->
     <defs>
      <path d="M 8.6875 72.90625 
L 18.609375 72.90625 
L 18.609375 28.609375 
Q 18.609375 16.890625 22.84375 11.734375 
Q 27.09375 6.59375 36.625 6.59375 
Q 46.09375 6.59375 50.34375 11.734375 
Q 54.59375 16.890625 54.59375 28.609375 
L 54.59375 72.90625 
L 64.5 72.90625 
L 64.5 27.390625 
Q 64.5 13.140625 57.4375 5.859375 
Q 50.390625 -1.421875 36.625 -1.421875 
Q 22.796875 -1.421875 15.734375 5.859375 
Q 8.6875 13.140625 8.6875 27.390625 
z
" id="DejaVuSans-85"/>
     </defs>
     <g transform="translate(292.040438 22.277969)scale(0.13 -0.13)">
      <use xlink:href="#DejaVuSans-85"/>
      <use x="73.193359" xlink:href="#DejaVuSans-79"/>
      <use x="151.904297" xlink:href="#DejaVuSans-66"/>
     </g>
    </g>
    <g id="line2d_76"/>
    <g id="line2d_77"/>
    <g id="text_32">
     <!-- 0.7273 -->
     <g transform="translate(292.040438 41.359531)scale(0.13 -0.13)">
      <use xlink:href="#DejaVuSans-48"/>
      <use x="63.623047" xlink:href="#DejaVuSans-46"/>
      <use x="95.410156" xlink:href="#DejaVuSans-55"/>
      <use x="159.033203" xlink:href="#DejaVuSans-50"/>
      <use x="222.65625" xlink:href="#DejaVuSans-55"/>
      <use x="286.279297" xlink:href="#DejaVuSans-51"/>
     </g>
    </g>
    <g id="line2d_78"/>
    <g id="line2d_79"/>
    <g id="text_33">
     <!-- 0.8515 -->
     <g transform="translate(292.040438 60.441094)scale(0.13 -0.13)">
      <use xlink:href="#DejaVuSans-48"/>
      <use x="63.623047" xlink:href="#DejaVuSans-46"/>
      <use x="95.410156" xlink:href="#DejaVuSans-56"/>
      <use x="159.033203" xlink:href="#DejaVuSans-53"/>
      <use x="222.65625" xlink:href="#DejaVuSans-49"/>
      <use x="286.279297" xlink:href="#DejaVuSans-53"/>
     </g>
    </g>
    <g id="line2d_80"/>
    <g id="line2d_81"/>
    <g id="text_34">
     <!-- 0.8018 -->
     <g transform="translate(292.040438 79.522656)scale(0.13 -0.13)">
      <use xlink:href="#DejaVuSans-48"/>
      <use x="63.623047" xlink:href="#DejaVuSans-46"/>
      <use x="95.410156" xlink:href="#DejaVuSans-56"/>
      <use x="159.033203" xlink:href="#DejaVuSans-48"/>
      <use x="222.65625" xlink:href="#DejaVuSans-49"/>
      <use x="286.279297" xlink:href="#DejaVuSans-56"/>
     </g>
    </g>
    <g id="line2d_82"/>
    <g id="line2d_83"/>
    <g id="text_35">
     <!-- 0.7892 -->
     <g transform="translate(292.040438 98.604219)scale(0.13 -0.13)">
      <use xlink:href="#DejaVuSans-48"/>
      <use x="63.623047" xlink:href="#DejaVuSans-46"/>
      <use x="95.410156" xlink:href="#DejaVuSans-55"/>
      <use x="159.033203" xlink:href="#DejaVuSans-56"/>
      <use x="222.65625" xlink:href="#DejaVuSans-57"/>
      <use x="286.279297" xlink:href="#DejaVuSans-50"/>
     </g>
    </g>
    <g id="line2d_84">
     <path d="M 332.001313 17.727969 
L 358.001313 17.727969 
" style="fill:none;stroke:#ee7733;stroke-dasharray:0.5,0.825;stroke-dashoffset:0;stroke-width:0.5;"/>
    </g>
    <g id="line2d_85">
     <g>
      <use style="fill:#ee7733;stroke:#ee7733;stroke-linejoin:bevel;" x="345.001313" xlink:href="#mc25f3758b1" y="17.727969"/>
     </g>
    </g>
    <g id="text_36">
     <!-- OB -->
     <g transform="translate(368.401313 22.277969)scale(0.13 -0.13)">
      <use xlink:href="#DejaVuSans-79"/>
      <use x="78.710938" xlink:href="#DejaVuSans-66"/>
     </g>
    </g>
    <g id="line2d_86"/>
    <g id="line2d_87"/>
    <g id="text_37">
     <!-- 0.0000 -->
     <g transform="translate(368.401313 41.359531)scale(0.13 -0.13)">
      <use xlink:href="#DejaVuSans-48"/>
      <use x="63.623047" xlink:href="#DejaVuSans-46"/>
      <use x="95.410156" xlink:href="#DejaVuSans-48"/>
      <use x="159.033203" xlink:href="#DejaVuSans-48"/>
      <use x="222.65625" xlink:href="#DejaVuSans-48"/>
      <use x="286.279297" xlink:href="#DejaVuSans-48"/>
     </g>
    </g>
    <g id="line2d_88"/>
    <g id="line2d_89"/>
    <g id="text_38">
     <!-- 0.0793 -->
     <g transform="translate(368.401313 60.441094)scale(0.13 -0.13)">
      <use xlink:href="#DejaVuSans-48"/>
      <use x="63.623047" xlink:href="#DejaVuSans-46"/>
      <use x="95.410156" xlink:href="#DejaVuSans-48"/>
      <use x="159.033203" xlink:href="#DejaVuSans-55"/>
      <use x="222.65625" xlink:href="#DejaVuSans-57"/>
      <use x="286.279297" xlink:href="#DejaVuSans-51"/>
     </g>
    </g>
    <g id="line2d_90"/>
    <g id="line2d_91"/>
    <g id="text_39">
     <!-- 0.0909 -->
     <g transform="translate(368.401313 79.522656)scale(0.13 -0.13)">
      <use xlink:href="#DejaVuSans-48"/>
      <use x="63.623047" xlink:href="#DejaVuSans-46"/>
      <use x="95.410156" xlink:href="#DejaVuSans-48"/>
      <use x="159.033203" xlink:href="#DejaVuSans-57"/>
      <use x="222.65625" xlink:href="#DejaVuSans-48"/>
      <use x="286.279297" xlink:href="#DejaVuSans-57"/>
     </g>
    </g>
    <g id="line2d_92"/>
    <g id="line2d_93"/>
    <g id="text_40">
     <!-- 0.1937 -->
     <g transform="translate(368.401313 98.604219)scale(0.13 -0.13)">
      <use xlink:href="#DejaVuSans-48"/>
      <use x="63.623047" xlink:href="#DejaVuSans-46"/>
      <use x="95.410156" xlink:href="#DejaVuSans-49"/>
      <use x="159.033203" xlink:href="#DejaVuSans-57"/>
      <use x="222.65625" xlink:href="#DejaVuSans-51"/>
      <use x="286.279297" xlink:href="#DejaVuSans-55"/>
     </g>
    </g>
    <g id="line2d_94">
     <path d="M 408.362188 17.727969 
L 434.362188 17.727969 
" style="fill:none;stroke:#ee3377;stroke-dasharray:3.2,0.8,0.5,0.8;stroke-dashoffset:0;stroke-width:0.5;"/>
    </g>
    <g id="line2d_95">
     <g>
      <use style="fill:#ee3377;stroke:#ee3377;stroke-linejoin:miter;" x="421.362188" xlink:href="#me34bc4e756" y="17.727969"/>
     </g>
    </g>
    <g id="text_41">
     <!-- VFDT -->
     <defs>
      <path d="M 28.609375 0 
L 0.78125 72.90625 
L 11.078125 72.90625 
L 34.1875 11.53125 
L 57.328125 72.90625 
L 67.578125 72.90625 
L 39.796875 0 
z
" id="DejaVuSans-86"/>
      <path d="M 9.8125 72.90625 
L 51.703125 72.90625 
L 51.703125 64.59375 
L 19.671875 64.59375 
L 19.671875 43.109375 
L 48.578125 43.109375 
L 48.578125 34.8125 
L 19.671875 34.8125 
L 19.671875 0 
L 9.8125 0 
z
" id="DejaVuSans-70"/>
      <path d="M 19.671875 64.796875 
L 19.671875 8.109375 
L 31.59375 8.109375 
Q 46.6875 8.109375 53.6875 14.9375 
Q 60.6875 21.78125 60.6875 36.53125 
Q 60.6875 51.171875 53.6875 57.984375 
Q 46.6875 64.796875 31.59375 64.796875 
z
M 9.8125 72.90625 
L 30.078125 72.90625 
Q 51.265625 72.90625 61.171875 64.09375 
Q 71.09375 55.28125 71.09375 36.53125 
Q 71.09375 17.671875 61.125 8.828125 
Q 51.171875 0 30.078125 0 
L 9.8125 0 
z
" id="DejaVuSans-68"/>
      <path d="M -0.296875 72.90625 
L 61.375 72.90625 
L 61.375 64.59375 
L 35.5 64.59375 
L 35.5 0 
L 25.59375 0 
L 25.59375 64.59375 
L -0.296875 64.59375 
z
" id="DejaVuSans-84"/>
     </defs>
     <g transform="translate(444.762188 22.277969)scale(0.13 -0.13)">
      <use xlink:href="#DejaVuSans-86"/>
      <use x="68.408203" xlink:href="#DejaVuSans-70"/>
      <use x="125.927734" xlink:href="#DejaVuSans-68"/>
      <use x="202.929688" xlink:href="#DejaVuSans-84"/>
     </g>
    </g>
    <g id="line2d_96"/>
    <g id="line2d_97"/>
    <g id="text_42">
     <!-- 0.0000 -->
     <g transform="translate(444.762188 41.359531)scale(0.13 -0.13)">
      <use xlink:href="#DejaVuSans-48"/>
      <use x="63.623047" xlink:href="#DejaVuSans-46"/>
      <use x="95.410156" xlink:href="#DejaVuSans-48"/>
      <use x="159.033203" xlink:href="#DejaVuSans-48"/>
      <use x="222.65625" xlink:href="#DejaVuSans-48"/>
      <use x="286.279297" xlink:href="#DejaVuSans-48"/>
     </g>
    </g>
    <g id="line2d_98"/>
    <g id="line2d_99"/>
    <g id="text_43">
     <!-- 0.1417 -->
     <g transform="translate(444.762188 60.441094)scale(0.13 -0.13)">
      <use xlink:href="#DejaVuSans-48"/>
      <use x="63.623047" xlink:href="#DejaVuSans-46"/>
      <use x="95.410156" xlink:href="#DejaVuSans-49"/>
      <use x="159.033203" xlink:href="#DejaVuSans-52"/>
      <use x="222.65625" xlink:href="#DejaVuSans-49"/>
      <use x="286.279297" xlink:href="#DejaVuSans-55"/>
     </g>
    </g>
    <g id="line2d_100"/>
    <g id="line2d_101"/>
    <g id="text_44">
     <!-- 0.1459 -->
     <g transform="translate(444.762188 79.522656)scale(0.13 -0.13)">
      <use xlink:href="#DejaVuSans-48"/>
      <use x="63.623047" xlink:href="#DejaVuSans-46"/>
      <use x="95.410156" xlink:href="#DejaVuSans-49"/>
      <use x="159.033203" xlink:href="#DejaVuSans-52"/>
      <use x="222.65625" xlink:href="#DejaVuSans-53"/>
      <use x="286.279297" xlink:href="#DejaVuSans-57"/>
     </g>
    </g>
    <g id="line2d_102"/>
    <g id="line2d_103"/>
    <g id="text_45">
     <!-- 0.2660 -->
     <g transform="translate(444.762188 98.604219)scale(0.13 -0.13)">
      <use xlink:href="#DejaVuSans-48"/>
      <use x="63.623047" xlink:href="#DejaVuSans-46"/>
      <use x="95.410156" xlink:href="#DejaVuSans-50"/>
      <use x="159.033203" xlink:href="#DejaVuSans-54"/>
      <use x="222.65625" xlink:href="#DejaVuSans-54"/>
      <use x="286.279297" xlink:href="#DejaVuSans-48"/>
     </g>
    </g>
   </g>
  </g>
 </g>
 <defs>
  <clipPath id="pa96947deed">
   <rect height="277.2" width="390.6" x="104.85" y="112.051812"/>
  </clipPath>
 </defs>
</svg>
